<svg version="1.1" viewBox="0.0 0.0 600.0 371.0" fill="none" stroke="none" stroke-linecap="square" stroke-miterlimit="10" width="600" height="371" xmlns:xlink="http://www.w3.org/1999/xlink" xmlns="http://www.w3.org/2000/svg"><path fill="#ffffff" d="M0 0L600.0 0L600.0 371.0L0 371.0L0 0Z" fill-rule="nonzero"/><path stroke="#333333" stroke-width="1.0" stroke-linecap="butt" d="M77.5 332.5L581.5 332.5" fill-rule="nonzero"/><path stroke="#cccccc" stroke-width="1.0" stroke-linecap="butt" d="M77.5 230.5L581.5 230.5" fill-rule="nonzero"/><path stroke="#cccccc" stroke-width="1.0" stroke-linecap="butt" d="M77.5 127.5L581.5 127.5" fill-rule="nonzero"/><path stroke="#cccccc" stroke-width="1.0" stroke-linecap="butt" d="M77.5 25.5L581.5 25.5" fill-rule="nonzero"/><clipPath id="id_0"><path d="M77.55 25.55L581.45 25.55L581.45 332.45L77.55 332.45L77.55 25.55Z" clip-rule="nonzero"/></clipPath><path stroke="#000000" stroke-width="2.0" stroke-linecap="butt" stroke-opacity="0.0" clip-path="url(#id_0)" d="M194.0 332.0L119.0 332.0L119.0 130.0C119.0 128.89543 119.89543 128.0 121.0 128.0L192.0 128.0C193.10457 128.0 194.0 128.89543 194.0 130.0Z" fill-rule="nonzero"/><path fill="#4285f4" clip-path="url(#id_0)" d="M194.0 332.0L119.0 332.0L119.0 130.0C119.0 128.89543 119.89543 128.0 121.0 128.0L192.0 128.0C193.10457 128.0 194.0 128.89543 194.0 130.0Z" fill-rule="nonzero"/><path stroke="#000000" stroke-width="2.0" stroke-linecap="butt" stroke-opacity="0.0" clip-path="url(#id_0)" d="M310.0 332.0L235.0 332.0L235.0 28.0C235.0 26.89543 235.89543 26.0 237.0 26.0L308.0 26.0C309.10458 26.0 310.0 26.89543 310.0 28.0Z" fill-rule="nonzero"/><path fill="#4285f4" clip-path="url(#id_0)" d="M310.0 332.0L235.0 332.0L235.0 28.0C235.0 26.89543 235.89543 26.0 237.0 26.0L308.0 26.0C309.10458 26.0 310.0 26.89543 310.0 28.0Z" fill-rule="nonzero"/><path stroke="#000000" stroke-width="2.0" stroke-linecap="butt" stroke-opacity="0.0" clip-path="url(#id_0)" d="M425.0 332.0L350.0 332.0L350.0 130.0C350.0 128.89543 350.89542 128.0 352.0 128.0L423.0 128.0C424.10458 128.0 425.0 128.89543 425.0 130.0Z" fill-rule="nonzero"/><path fill="#4285f4" clip-path="url(#id_0)" d="M425.0 332.0L350.0 332.0L350.0 130.0C350.0 128.89543 350.89542 128.0 352.0 128.0L423.0 128.0C424.10458 128.0 425.0 128.89543 425.0 130.0Z" fill-rule="nonzero"/><path stroke="#000000" stroke-width="2.0" stroke-linecap="butt" stroke-opacity="0.0" clip-path="url(#id_0)" d="M541.0 332.0L466.0 332.0L466.0 232.0C466.0 230.89543 466.89542 230.0 468.0 230.0L539.0 230.0C540.10455 230.0 541.0 230.89543 541.0 232.0Z" fill-rule="nonzero"/><path fill="#4285f4" clip-path="url(#id_0)" d="M541.0 332.0L466.0 332.0L466.0 232.0C466.0 230.89543 466.89542 230.0 468.0 230.0L539.0 230.0C540.10455 230.0 541.0 230.89543 541.0 232.0Z" fill-rule="nonzero"/><path fill="#000000" d="M29.550013 290.51562L20.956263 290.51562L20.956263 284.71875L21.971888 284.71875L21.971888 289.375L24.628138 289.375L24.628138 285.34375L25.643763 285.34375L25.643763 289.375L29.550013 289.375L29.550013 290.51562ZM29.550013 279.625L28.628138 279.625Q29.690638 280.35938 29.690638 281.60938Q29.690638 282.15625 29.487513 282.64062Q29.268763 283.10938 28.956263 283.34375Q28.628138 283.57812 28.159388 283.67188Q27.862513 283.73438 27.175013 283.73438L23.331263 283.73438L23.331263 282.67188L26.784388 282.67188Q27.596888 282.67188 27.893763 282.60938Q28.300013 282.51562 28.550013 282.20312Q28.784388 281.875 28.784388 281.39062Q28.784388 280.92188 28.550013 280.51562Q28.300013 280.09375 27.878138 279.92188Q27.456263 279.73438 26.659388 279.73438L23.331263 279.73438L23.331263 278.6875L29.550013 278.6875L29.550013 279.625ZM29.550013 276.70312L23.331263 276.70312L23.331263 275.76562L24.206263 275.76562Q23.190638 275.07812 23.190638 273.78125Q23.190638 273.21875 23.393763 272.75Q23.596888 272.26562 23.925013 272.03125Q24.253138 271.79688 24.690638 271.70312Q24.987513 271.65625 25.721888 271.65625L29.550013 271.65625L29.550013 272.70312L25.768763 272.70312Q25.112513 272.70312 24.800013 272.82812Q24.487513 272.95312 24.300013 273.26562Q24.096888 273.57812 24.096888 274.0Q24.096888 274.67188 24.534388 275.17188Q24.956263 275.65625 26.143763 275.65625L29.550013 275.65625L29.550013 276.70312ZM29.550013 269.70312L20.956263 269.70312L20.956263 268.64062L25.862513 268.64062L23.331263 266.15625L23.331263 264.78125L25.628138 267.17188L29.550013 264.54688L29.550013 265.84375L26.362513 267.90625L27.081263 268.64062L29.550013 268.64062L29.550013 269.70312ZM27.268763 259.64062L27.409388 258.60938Q28.471888 258.78125 29.081263 259.48438Q29.690638 260.1875 29.690638 261.20312Q29.690638 262.48438 28.862513 263.26562Q28.018763 264.03125 26.456263 264.03125Q25.456263 264.03125 24.706263 263.70312Q23.940638 263.35938 23.565638 262.6875Q23.190638 262.0 23.190638 261.1875Q23.190638 260.1875 23.706263 259.54688Q24.206263 258.89062 25.159388 258.70312L25.315638 259.73438Q24.690638 259.875 24.378138 260.25Q24.050013 260.625 24.050013 261.15625Q24.050013 261.95312 24.628138 262.45312Q25.190638 262.95312 26.425013 262.95312Q27.690638 262.95312 28.253138 262.46875Q28.815638 261.98438 28.815638 261.21875Q28.815638 260.59375 28.440638 260.1875Q28.065638 259.76562 27.268763 259.64062ZM22.175013 257.70312L20.956263 257.70312L20.956263 256.64062L22.175013 256.64062L22.175013 257.70312ZM29.550013 257.70312L23.331263 257.70312L23.331263 256.64062L29.550013 256.64062L29.550013 257.70312ZM22.190638 254.71875L20.956263 254.71875L20.956263 253.65625L22.190638 253.65625L22.190638 254.71875ZM31.971888 256.04688L31.065638 255.85938Q31.143763 255.53125 31.143763 255.35938Q31.143763 255.03125 30.925013 254.875Q30.721888 254.71875 29.862513 254.71875L23.331263 254.71875L23.331263 253.65625L29.893763 253.65625Q31.034388 253.65625 31.487513 253.95312Q32.08126 254.34375 32.08126 255.21875Q32.08126 255.65625 31.971888 256.04688ZM26.440638 252.09375Q24.706263 252.09375 23.878138 251.14062Q23.190638 250.34375 23.190638 249.1875Q23.190638 247.90625 24.034388 247.09375Q24.862513 246.26562 26.346888 246.26562Q27.550013 246.26562 28.237513 246.625Q28.925013 246.98438 29.315638 247.6875Q29.690638 248.375 29.690638 249.1875Q29.690638 250.48438 28.862513 251.29688Q28.018763 252.09375 26.440638 252.09375ZM26.440638 251.01562Q27.628138 251.01562 28.221888 250.5Q28.815638 249.96875 28.815638 249.1875Q28.815638 248.39062 28.221888 247.875Q27.628138 247.35938 26.409388 247.35938Q25.253138 247.35938 24.659388 247.89062Q24.065638 248.40625 24.065638 249.1875Q24.065638 249.96875 24.659388 250.5Q25.237513 251.01562 26.440638 251.01562ZM29.550013 244.70312L23.331263 244.70312L23.331263 243.76562L24.206263 243.76562Q23.190638 243.07812 23.190638 241.78125Q23.190638 241.21875 23.393763 240.75Q23.596888 240.26562 23.925013 240.03125Q24.253138 239.79688 24.690638 239.70312Q24.987513 239.65625 25.721888 239.65625L29.550013 239.65625L29.550013 240.70312L25.768763 240.70312Q25.112513 240.70312 24.800013 240.82812Q24.487513 240.95312 24.300013 241.26562Q24.096888 241.57812 24.096888 242.0Q24.096888 242.67188 24.534388 243.17188Q24.956263 243.65625 26.143763 243.65625L29.550013 243.65625L29.550013 244.70312ZM28.784388 233.64062Q29.284388 234.23438 29.487513 234.78125Q29.690638 235.3125 29.690638 235.9375Q29.690638 236.96875 29.190638 237.51562Q28.690638 238.0625 27.909388 238.0625Q27.456263 238.0625 27.081263 237.85938Q26.690638 237.65625 26.471888 237.3125Q26.237513 236.96875 26.128138 236.54688Q26.034388 236.25 25.956263 235.60938Q25.815638 234.34375 25.596888 233.73438Q25.378138 233.73438 25.331263 233.73438Q24.675013 233.73438 24.409388 234.03125Q24.065638 234.4375 24.065638 235.23438Q24.065638 235.96875 24.331263 236.32812Q24.581263 236.6875 25.237513 236.85938L25.096888 237.89062Q24.440638 237.75 24.034388 237.42188Q23.628138 237.09375 23.409388 236.48438Q23.190638 235.875 23.190638 235.07812Q23.190638 234.28125 23.378138 233.78125Q23.565638 233.28125 23.846888 233.04688Q24.128138 232.8125 24.565638 232.71875Q24.831263 232.67188 25.534388 232.67188L26.940638 232.67188Q28.409388 232.67188 28.800013 232.60938Q29.190638 232.53125 29.550013 232.32812L29.550013 233.4375Q29.221888 233.59375 28.784388 233.64062ZM26.425013 233.73438Q26.659388 234.3125 26.831263 235.45312Q26.925013 236.10938 27.050013 236.375Q27.159388 236.64062 27.378138 236.79688Q27.596888 236.9375 27.878138 236.9375Q28.300013 236.9375 28.581263 236.625Q28.862513 236.29688 28.862513 235.6875Q28.862513 235.07812 28.596888 234.60938Q28.331263 234.125 27.862513 233.90625Q27.503138 233.73438 26.815638 233.73438L26.425013 233.73438ZM29.550013 230.73438L20.956263 230.73438L20.956263 229.67188L29.550013 229.67188L29.550013 230.73438ZM29.550013 227.70312L23.331263 227.70312L23.331263 226.76562L24.206263 226.76562Q23.190638 226.07812 23.190638 224.78125Q23.190638 224.21875 23.393763 223.75Q23.596888 223.26562 23.925013 223.03125Q24.253138 222.79688 24.690638 222.70312Q24.987513 222.65625 25.721888 222.65625L29.550013 222.65625L29.550013 223.70312L25.768763 223.70312Q25.112513 223.70312 24.800013 223.82812Q24.487513 223.95312 24.300013 224.26562Q24.096888 224.57812 24.096888 225.0Q24.096888 225.67188 24.534388 226.17188Q24.956263 226.65625 26.143763 226.65625L29.550013 226.65625L29.550013 227.70312ZM26.440638 221.09375Q24.706263 221.09375 23.878138 220.14062Q23.190638 219.34375 23.190638 218.1875Q23.190638 216.90625 24.034388 216.09375Q24.862513 215.26562 26.346888 215.26562Q27.550013 215.26562 28.237513 215.625Q28.925013 215.98438 29.315638 216.6875Q29.690638 217.375 29.690638 218.1875Q29.690638 219.48438 28.862513 220.29688Q28.018763 221.09375 26.440638 221.09375ZM26.440638 220.01562Q27.628138 220.01562 28.221888 219.5Q28.815638 218.96875 28.815638 218.1875Q28.815638 217.39062 28.221888 216.875Q27.628138 216.35938 26.409388 216.35938Q25.253138 216.35938 24.659388 216.89062Q24.065638 217.40625 24.065638 218.1875Q24.065638 218.96875 24.659388 219.5Q25.237513 220.01562 26.440638 220.01562ZM27.690638 214.125L27.534388 213.09375Q28.159388 213.0 28.487513 212.60938Q28.815638 212.20312 28.815638 211.46875Q28.815638 210.75 28.534388 210.40625Q28.237513 210.04688 27.831263 210.04688Q27.471888 210.04688 27.268763 210.35938Q27.128138 210.57812 26.909388 211.4375Q26.612513 212.59375 26.409388 213.04688Q26.190638 213.48438 25.815638 213.71875Q25.440638 213.95312 24.971888 213.95312Q24.565638 213.95312 24.206263 213.76562Q23.846888 213.57812 23.612513 213.25Q23.440638 213.0 23.315638 212.57812Q23.190638 212.15625 23.190638 211.65625Q23.190638 210.9375 23.409388 210.39062Q23.612513 209.82812 23.971888 209.5625Q24.331263 209.29688 24.925013 209.20312L25.065638 210.23438Q24.596888 210.29688 24.331263 210.64062Q24.050013 210.96875 24.050013 211.59375Q24.050013 212.3125 24.300013 212.625Q24.534388 212.9375 24.862513 212.9375Q25.065638 212.9375 25.221888 212.8125Q25.393763 212.67188 25.503138 212.40625Q25.565638 212.25 25.768763 211.46875Q26.081263 210.34375 26.268763 209.90625Q26.456263 209.46875 26.815638 209.21875Q27.175013 208.96875 27.721888 208.96875Q28.253138 208.96875 28.721888 209.28125Q29.175013 209.57812 29.440638 210.15625Q29.690638 210.73438 29.690638 211.46875Q29.690638 212.6875 29.190638 213.32812Q28.675013 213.95312 27.690638 214.125ZM28.612513 204.40625L29.534388 204.25Q29.628138 204.70312 29.628138 205.04688Q29.628138 205.625 29.456263 205.9375Q29.268763 206.25 28.971888 206.39062Q28.675013 206.51562 27.721888 206.51562L24.143763 206.51562L24.143763 207.28125L23.331263 207.28125L23.331263 206.51562L21.784388 206.51562L21.159388 205.46875L23.331263 205.46875L23.331263 204.40625L24.143763 204.40625L24.143763 205.46875L27.784388 205.46875Q28.237513 205.46875 28.362513 205.42188Q28.487513 205.35938 28.565638 205.23438Q28.643763 205.10938 28.643763 204.875Q28.643763 204.6875 28.612513 204.40625ZM28.784388 196.64062Q29.284388 197.23438 29.487513 197.78125Q29.690638 198.3125 29.690638 198.9375Q29.690638 199.96875 29.190638 200.51562Q28.690638 201.0625 27.909388 201.0625Q27.456263 201.0625 27.081263 200.85938Q26.690638 200.65625 26.471888 200.3125Q26.237513 199.96875 26.128138 199.54688Q26.034388 199.25 25.956263 198.60938Q25.815638 197.34375 25.596888 196.73438Q25.378138 196.73438 25.331263 196.73438Q24.675013 196.73438 24.409388 197.03125Q24.065638 197.4375 24.065638 198.23438Q24.065638 198.96875 24.331263 199.32812Q24.581263 199.6875 25.237513 199.85938L25.096888 200.89062Q24.440638 200.75 24.034388 200.42188Q23.628138 200.09375 23.409388 199.48438Q23.190638 198.875 23.190638 198.07812Q23.190638 197.28125 23.378138 196.78125Q23.565638 196.28125 23.846888 196.04688Q24.128138 195.8125 24.565638 195.71875Q24.831263 195.67188 25.534388 195.67188L26.940638 195.67188Q28.409388 195.67188 28.800013 195.60938Q29.190638 195.53125 29.550013 195.32812L29.550013 196.4375Q29.221888 196.59375 28.784388 196.64062ZM26.425013 196.73438Q26.659388 197.3125 26.831263 198.45312Q26.925013 199.10938 27.050013 199.375Q27.159388 199.64062 27.378138 199.79688Q27.596888 199.9375 27.878138 199.9375Q28.300013 199.9375 28.581263 199.625Q28.862513 199.29688 28.862513 198.6875Q28.862513 198.07812 28.596888 197.60938Q28.331263 197.125 27.862513 196.90625Q27.503138 196.73438 26.815638 196.73438L26.425013 196.73438ZM29.550013 189.67188L28.768763 189.67188Q29.690638 190.26562 29.690638 191.40625Q29.690638 192.15625 29.284388 192.78125Q28.862513 193.40625 28.128138 193.75Q27.393763 194.09375 26.440638 194.09375Q25.518763 194.09375 24.753138 193.78125Q23.987513 193.46875 23.596888 192.84375Q23.190638 192.21875 23.190638 191.45312Q23.190638 190.89062 23.425013 190.45312Q23.659388 190.01562 24.034388 189.73438L20.956263 189.73438L20.956263 188.6875L29.550013 188.6875L29.550013 189.67188ZM26.440638 193.0Q27.643763 193.0 28.237513 192.5Q28.815638 192.0 28.815638 191.3125Q28.815638 190.625 28.253138 190.14062Q27.690638 189.65625 26.534388 189.65625Q25.253138 189.65625 24.659388 190.15625Q24.065638 190.64062 24.065638 191.35938Q24.065638 192.0625 24.643763 192.53125Q25.206263 193.0 26.440638 193.0ZM29.550013 186.70312L23.331263 186.70312L23.331263 185.76562L24.206263 185.76562Q23.737513 185.46875 23.471888 184.98438Q23.190638 184.5 23.190638 183.875Q23.190638 183.1875 23.471888 182.75Q23.753138 182.29688 24.268763 182.125Q23.190638 181.375 23.190638 180.20312Q23.190638 179.26562 23.706263 178.78125Q24.206263 178.28125 25.284388 178.28125L29.550013 178.28125L29.550013 179.32812L25.628138 179.32812Q25.003138 179.32812 24.721888 179.4375Q24.440638 179.53125 24.268763 179.79688Q24.096888 180.0625 24.096888 180.4375Q24.096888 181.09375 24.534388 181.53125Q24.971888 181.95312 25.940638 181.95312L29.550013 181.95312L29.550013 183.01562L25.503138 183.01562Q24.800013 183.01562 24.456263 183.28125Q24.096888 183.53125 24.096888 184.10938Q24.096888 184.5625 24.331263 184.9375Q24.565638 185.3125 25.018763 185.48438Q25.471888 185.65625 26.315638 185.65625L29.550013 185.65625L29.550013 186.70312ZM22.175013 175.70312L20.956263 175.70312L20.956263 174.64062L22.175013 174.64062L22.175013 175.70312ZM29.550013 175.70312L23.331263 175.70312L23.331263 174.64062L29.550013 174.64062L29.550013 175.70312ZM29.550013 172.70312L23.331263 172.70312L23.331263 171.76562L24.206263 171.76562Q23.190638 171.07812 23.190638 169.78125Q23.190638 169.21875 23.393763 168.75Q23.596888 168.26562 23.925013 168.03125Q24.253138 167.79688 24.690638 167.70312Q24.987513 167.65625 25.721888 167.65625L29.550013 167.65625L29.550013 168.70312L25.768763 168.70312Q25.112513 168.70312 24.800013 168.82812Q24.487513 168.95312 24.300013 169.26562Q24.096888 169.57812 24.096888 170.0Q24.096888 170.67188 24.534388 171.17188Q24.956263 171.65625 26.143763 171.65625L29.550013 171.65625L29.550013 172.70312ZM22.175013 165.70312L20.956263 165.70312L20.956263 164.64062L22.175013 164.64062L22.175013 165.70312ZM29.550013 165.70312L23.331263 165.70312L23.331263 164.64062L29.550013 164.64062L29.550013 165.70312ZM27.690638 163.125L27.534388 162.09375Q28.159388 162.0 28.487513 161.60938Q28.815638 161.20312 28.815638 160.46875Q28.815638 159.75 28.534388 159.40625Q28.237513 159.04688 27.831263 159.04688Q27.471888 159.04688 27.268763 159.35938Q27.128138 159.57812 26.909388 160.4375Q26.612513 161.59375 26.409388 162.04688Q26.190638 162.48438 25.815638 162.71875Q25.440638 162.95312 24.971888 162.95312Q24.565638 162.95312 24.206263 162.76562Q23.846888 162.57812 23.612513 162.25Q23.440638 162.0 23.315638 161.57812Q23.190638 161.15625 23.190638 160.65625Q23.190638 159.9375 23.409388 159.39062Q23.612513 158.82812 23.971888 158.5625Q24.331263 158.29688 24.925013 158.20312L25.065638 159.23438Q24.596888 159.29688 24.331263 159.64062Q24.050013 159.96875 24.050013 160.59375Q24.050013 161.3125 24.300013 161.625Q24.534388 161.9375 24.862513 161.9375Q25.065638 161.9375 25.221888 161.8125Q25.393763 161.67188 25.503138 161.40625Q25.565638 161.25 25.768763 160.46875Q26.081263 159.34375 26.268763 158.90625Q26.456263 158.46875 26.815638 158.21875Q27.175013 157.96875 27.721888 157.96875Q28.253138 157.96875 28.721888 158.28125Q29.175013 158.57812 29.440638 159.15625Q29.690638 159.73438 29.690638 160.46875Q29.690638 161.6875 29.190638 162.32812Q28.675013 162.95312 27.690638 163.125ZM28.612513 153.40625L29.534388 153.25Q29.628138 153.70312 29.628138 154.04688Q29.628138 154.625 29.456263 154.9375Q29.268763 155.25 28.971888 155.39062Q28.675013 155.51562 27.721888 155.51562L24.143763 155.51562L24.143763 156.28125L23.331263 156.28125L23.331263 155.51562L21.784388 155.51562L21.159388 154.46875L23.331263 154.46875L23.331263 153.40625L24.143763 153.40625L24.143763 154.46875L27.784388 154.46875Q28.237513 154.46875 28.362513 154.42188Q28.487513 154.35938 28.565638 154.23438Q28.643763 154.10938 28.643763 153.875Q28.643763 153.6875 28.612513 153.40625ZM29.550013 152.71875L23.331263 152.71875L23.331263 151.76562L24.268763 151.76562Q23.612513 151.40625 23.409388 151.10938Q23.190638 150.79688 23.190638 150.42188Q23.190638 149.89062 23.518763 149.34375L24.503138 149.70312Q24.268763 150.09375 24.268763 150.46875Q24.268763 150.82812 24.487513 151.10938Q24.690638 151.375 25.065638 151.48438Q25.628138 151.67188 26.284388 151.67188L29.550013 151.67188L29.550013 152.71875ZM28.784388 144.64062Q29.284388 145.23438 29.487513 145.78125Q29.690638 146.3125 29.690638 146.9375Q29.690638 147.96875 29.190638 148.51562Q28.690638 149.0625 27.909388 149.0625Q27.456263 149.0625 27.081263 148.85938Q26.690638 148.65625 26.471888 148.3125Q26.237513 147.96875 26.128138 147.54688Q26.034388 147.25 25.956263 146.60938Q25.815638 145.34375 25.596888 144.73438Q25.378138 144.73438 25.331263 144.73438Q24.675013 144.73438 24.409388 145.03125Q24.065638 145.4375 24.065638 146.23438Q24.065638 146.96875 24.331263 147.32812Q24.581263 147.6875 25.237513 147.85938L25.096888 148.89062Q24.440638 148.75 24.034388 148.42188Q23.628138 148.09375 23.409388 147.48438Q23.190638 146.875 23.190638 146.07812Q23.190638 145.28125 23.378138 144.78125Q23.565638 144.28125 23.846888 144.04688Q24.128138 143.8125 24.565638 143.71875Q24.831263 143.67188 25.534388 143.67188L26.940638 143.67188Q28.409388 143.67188 28.800013 143.60938Q29.190638 143.53125 29.550013 143.32812L29.550013 144.4375Q29.221888 144.59375 28.784388 144.64062ZM26.425013 144.73438Q26.659388 145.3125 26.831263 146.45312Q26.925013 147.10938 27.050013 147.375Q27.159388 147.64062 27.378138 147.79688Q27.596888 147.9375 27.878138 147.9375Q28.300013 147.9375 28.581263 147.625Q28.862513 147.29688 28.862513 146.6875Q28.862513 146.07812 28.596888 145.60938Q28.331263 145.125 27.862513 144.90625Q27.503138 144.73438 26.815638 144.73438L26.425013 144.73438ZM27.268763 137.64062L27.409388 136.60938Q28.471888 136.78125 29.081263 137.48438Q29.690638 138.1875 29.690638 139.20312Q29.690638 140.48438 28.862513 141.26562Q28.018763 142.03125 26.456263 142.03125Q25.456263 142.03125 24.706263 141.70312Q23.940638 141.35938 23.565638 140.6875Q23.190638 140.0 23.190638 139.1875Q23.190638 138.1875 23.706263 137.54688Q24.206263 136.89062 25.159388 136.70312L25.315638 137.73438Q24.690638 137.875 24.378138 138.25Q24.050013 138.625 24.050013 139.15625Q24.050013 139.95312 24.628138 140.45312Q25.190638 140.95312 26.425013 140.95312Q27.690638 140.95312 28.253138 140.46875Q28.815638 139.98438 28.815638 139.21875Q28.815638 138.59375 28.440638 138.1875Q28.065638 137.76562 27.268763 137.64062ZM22.175013 135.70312L20.956263 135.70312L20.956263 134.64062L22.175013 134.64062L22.175013 135.70312ZM29.550013 135.70312L23.331263 135.70312L23.331263 134.64062L29.550013 134.64062L29.550013 135.70312ZM22.190638 132.71875L20.956263 132.71875L20.956263 131.65625L22.190638 131.65625L22.190638 132.71875ZM31.971888 134.04688L31.065638 133.85938Q31.143763 133.53125 31.143763 133.35938Q31.143763 133.03125 30.925013 132.875Q30.721888 132.71875 29.862513 132.71875L23.331263 132.71875L23.331263 131.65625L29.893763 131.65625Q31.034388 131.65625 31.487513 131.95312Q32.08126 132.34375 32.08126 133.21875Q32.08126 133.65625 31.971888 134.04688ZM27.550013 125.453125L27.675013 124.359375Q28.628138 124.609375 29.159388 125.3125Q29.690638 126.015625 29.690638 127.09375Q29.690638 128.45312 28.846888 129.26562Q28.003138 130.0625 26.487513 130.0625Q24.925013 130.0625 24.065638 129.25Q23.190638 128.4375 23.190638 127.15625Q23.190638 125.90625 24.034388 125.125Q24.878138 124.328125 26.425013 124.328125Q26.518763 124.328125 26.706263 124.328125L26.706263 128.96875Q27.737513 128.90625 28.284388 128.39062Q28.815638 127.875 28.815638 127.09375Q28.815638 126.515625 28.518763 126.109375Q28.206263 125.6875 27.550013 125.453125ZM25.846888 128.90625L25.846888 125.4375Q25.050013 125.5 24.659388 125.828125Q24.050013 126.34375 24.050013 127.140625Q24.050013 127.875 24.534388 128.375Q25.018763 128.85938 25.846888 128.90625ZM26.440638 120.09375Q24.706263 120.09375 23.878138 119.140625Q23.190638 118.34375 23.190638 117.1875Q23.190638 115.90625 24.034388 115.09375Q24.862513 114.265625 26.346888 114.265625Q27.550013 114.265625 28.237513 114.625Q28.925013 114.984375 29.315638 115.6875Q29.690638 116.375 29.690638 117.1875Q29.690638 118.484375 28.862513 119.296875Q28.018763 120.09375 26.440638 120.09375ZM26.440638 119.015625Q27.628138 119.015625 28.221888 118.5Q28.815638 117.96875 28.815638 117.1875Q28.815638 116.390625 28.221888 115.875Q27.628138 115.359375 26.409388 115.359375Q25.253138 115.359375 24.659388 115.890625Q24.065638 116.40625 24.065638 117.1875Q24.065638 117.96875 24.659388 118.5Q25.237513 119.015625 26.440638 119.015625ZM29.550013 108.671875L28.768763 108.671875Q29.690638 109.265625 29.690638 110.40625Q29.690638 111.15625 29.284388 111.78125Q28.862513 112.40625 28.128138 112.75Q27.393763 113.09375 26.440638 113.09375Q25.518763 113.09375 24.753138 112.78125Q23.987513 112.46875 23.596888 111.84375Q23.190638 111.21875 23.190638 110.453125Q23.190638 109.890625 23.425013 109.453125Q23.659388 109.015625 24.034388 108.734375L20.956263 108.734375L20.956263 107.6875L29.550013 107.6875L29.550013 108.671875ZM26.440638 112.0Q27.643763 112.0 28.237513 111.5Q28.815638 111.0 28.815638 110.3125Q28.815638 109.625 28.253138 109.140625Q27.690638 108.65625 26.534388 108.65625Q25.253138 108.65625 24.659388 109.15625Q24.065638 109.640625 24.065638 110.359375Q24.065638 111.0625 24.643763 111.53125Q25.206263 112.0 26.440638 112.0ZM29.550013 99.03125L29.550013 100.078125L22.831263 100.078125Q23.190638 100.46875 23.565638 101.09375Q23.925013 101.703125 24.096888 102.1875L23.081263 102.1875Q22.659388 101.3125 22.081263 100.65625Q21.487513 99.984375 20.925013 99.703125L20.925013 99.03125L29.550013 99.03125ZM26.971888 93.125L25.909388 93.125L25.909388 89.875L26.971888 89.875L26.971888 93.125ZM27.284388 86.0L27.143763 84.9375Q28.034388 84.765625 28.440638 84.328125Q28.831263 83.890625 28.831263 83.265625Q28.831263 82.515625 28.315638 82.0Q27.800013 81.484375 27.034388 81.484375Q26.315638 81.484375 25.846888 81.96875Q25.362513 82.4375 25.362513 83.171875Q25.362513 83.46875 25.487513 83.921875L24.550013 83.796875Q24.565638 83.6875 24.565638 83.625Q24.565638 82.953125 24.221888 82.421875Q23.862513 81.875 23.128138 81.875Q22.550013 81.875 22.175013 82.265625Q21.784388 82.65625 21.784388 83.28125Q21.784388 83.890625 22.175013 84.3125Q22.565638 84.71875 23.331263 84.828125L23.143763 85.890625Q22.096888 85.703125 21.518763 85.015625Q20.925013 84.328125 20.925013 83.3125Q20.925013 82.609375 21.237513 82.015625Q21.534388 81.421875 22.050013 81.109375Q22.565638 80.796875 23.159388 80.796875Q23.706263 80.796875 24.175013 81.09375Q24.628138 81.390625 24.893763 81.96875Q25.065638 81.21875 25.628138 80.796875Q26.175013 80.375 27.018763 80.375Q28.143763 80.375 28.925013 81.203125Q29.706263 82.015625 29.706263 83.265625Q29.706263 84.390625 29.034388 85.140625Q28.346888 85.890625 27.284388 86.0Z" fill-rule="nonzero"/><path fill="#000000" d="M65.05 332.21564Q65.05 330.6844 65.3625 329.7625Q65.675 328.825 66.28438 328.325Q66.90938 327.825 67.84688 327.825Q68.53438 327.825 69.05 328.10626Q69.58125 328.3875 69.925 328.91876Q70.26875 329.4344 70.45625 330.1844Q70.64375 330.9344 70.64375 332.21564Q70.64375 333.73126 70.33125 334.65314Q70.03438 335.575 69.40938 336.09064Q68.8 336.59064 67.84688 336.59064Q66.6125 336.59064 65.89375 335.7Q65.05 334.6375 65.05 332.21564ZM66.12813 332.21564Q66.12813 334.325 66.62813 335.02814Q67.12813 335.73126 67.84688 335.73126Q68.58125 335.73126 69.06563 335.02814Q69.56563 334.325 69.56563 332.21564Q69.56563 330.09064 69.06563 329.40314Q68.58125 328.7 67.83125 328.7Q67.1125 328.7 66.675 329.3094Q66.12813 330.09064 66.12813 332.21564Z" fill-rule="nonzero"/><path fill="#000000" d="M69.01875 234.15L67.97188 234.15L67.97188 227.43124Q67.58125 227.79062 66.95625 228.16562Q66.34688 228.525 65.8625 228.69687L65.8625 227.68124Q66.7375 227.25937 67.39375 226.68124Q68.06563 226.0875 68.34688 225.525L69.01875 225.525L69.01875 234.15Z" fill-rule="nonzero"/><path fill="#000000" d="M70.59688 130.83438L70.59688 131.85L64.90938 131.85Q64.90938 131.475 65.03438 131.11563Q65.25313 130.5375 65.72188 129.975Q66.20625 129.4125 67.1125 128.67813Q68.51875 127.52188 69.00313 126.850006Q69.50313 126.17813 69.50313 125.58438Q69.50313 124.95938 69.05 124.537506Q68.59688 124.100006 67.87813 124.100006Q67.1125 124.100006 66.65938 124.55313Q66.20625 125.006256 66.19063 125.818756L65.1125 125.70938Q65.22188 124.49063 65.94063 123.86563Q66.675 123.225006 67.90938 123.225006Q69.14375 123.225006 69.8625 123.912506Q70.58125 124.600006 70.58125 125.61563Q70.58125 126.131256 70.3625 126.631256Q70.15938 127.11563 69.65938 127.67813Q69.175 128.225 68.05 129.17813Q67.09688 129.975 66.81563 130.27188Q66.55 130.55313 66.37813 130.83438L70.59688 130.83438Z" fill-rule="nonzero"/><path fill="#000000" d="M65.05 27.284374L66.1125 27.14375Q66.28438 28.034374 66.72188 28.440624Q67.15938 28.83125 67.78438 28.83125Q68.53438 28.83125 69.05 28.315624Q69.56563 27.8 69.56563 27.034374Q69.56563 26.315624 69.08125 25.846874Q68.6125 25.3625 67.87813 25.3625Q67.58125 25.3625 67.12813 25.4875L67.25313 24.55Q67.3625 24.565624 67.425 24.565624Q68.09688 24.565624 68.62813 24.221874Q69.175 23.8625 69.175 23.128124Q69.175 22.55 68.78438 22.175Q68.39375 21.784374 67.76875 21.784374Q67.15938 21.784374 66.7375 22.175Q66.33125 22.565624 66.22188 23.33125L65.15938 23.14375Q65.34688 22.096874 66.03438 21.51875Q66.72188 20.925 67.7375 20.925Q68.44063 20.925 69.03438 21.2375Q69.62813 21.534374 69.94063 22.05Q70.25313 22.565624 70.25313 23.159374Q70.25313 23.70625 69.95625 24.175Q69.65938 24.628124 69.08125 24.89375Q69.83125 25.065624 70.25313 25.628124Q70.675 26.175 70.675 27.01875Q70.675 28.14375 69.84688 28.925Q69.03438 29.70625 67.78438 29.70625Q66.65938 29.70625 65.90938 29.034374Q65.15938 28.346874 65.05 27.284374Z" fill-rule="nonzero"/><path fill="#000000" d="M132.97575 349.45L132.97575 348.3875L137.382 342.8875Q137.85075 342.3094 138.27263 341.8719L133.47575 341.8719L133.47575 340.85626L139.632 340.85626L139.632 341.8719L134.80388 347.825L134.28825 348.4344L139.77263 348.4344L139.77263 349.45L132.97575 349.45ZM144.78825 347.45L145.882 347.575Q145.632 348.52814 144.92888 349.0594Q144.22575 349.59064 143.14763 349.59064Q141.78825 349.59064 140.97575 348.7469Q140.17888 347.90314 140.17888 346.3875Q140.17888 344.825 140.99138 343.96564Q141.80388 343.09064 143.08513 343.09064Q144.33513 343.09064 145.11638 343.9344Q145.91325 344.77814 145.91325 346.325Q145.91325 346.41876 145.91325 346.60626L141.27263 346.60626Q141.33513 347.6375 141.85075 348.1844Q142.36638 348.71564 143.14763 348.71564Q143.72575 348.71564 144.132 348.41876Q144.55388 348.10626 144.78825 347.45ZM141.33513 345.7469L144.80388 345.7469Q144.74138 344.95 144.41325 344.5594Q143.89763 343.95 143.10075 343.95Q142.36638 343.95 141.86638 344.4344Q141.382 344.91876 141.33513 345.7469ZM147.52263 349.45L147.52263 343.23126L148.47575 343.23126L148.47575 344.16876Q148.83513 343.5125 149.132 343.3094Q149.4445 343.09064 149.8195 343.09064Q150.35075 343.09064 150.89763 343.41876L150.53825 344.40314Q150.14763 344.16876 149.77263 344.16876Q149.41325 344.16876 149.132 344.3875Q148.86638 344.59064 148.757 344.96564Q148.5695 345.52814 148.5695 346.1844L148.5695 349.45L147.52263 349.45ZM151.14763 346.34064Q151.14763 344.60626 152.10075 343.77814Q152.89763 343.09064 154.05388 343.09064Q155.33513 343.09064 156.14763 343.9344Q156.97575 344.7625 156.97575 346.2469Q156.97575 347.45 156.61638 348.1375Q156.257 348.825 155.55388 349.21564Q154.86638 349.59064 154.05388 349.59064Q152.757 349.59064 151.9445 348.7625Q151.14763 347.91876 151.14763 346.34064ZM152.22575 346.34064Q152.22575 347.52814 152.74138 348.1219Q153.27263 348.71564 154.05388 348.71564Q154.85075 348.71564 155.36638 348.1219Q155.882 347.52814 155.882 346.3094Q155.882 345.15314 155.35075 344.5594Q154.83513 343.96564 154.05388 343.96564Q153.27263 343.96564 152.74138 344.5594Q152.22575 345.1375 152.22575 346.34064ZM160.85075 349.45L160.85075 341.8719L158.02263 341.8719L158.02263 340.85626L164.83513 340.85626L164.83513 341.8719L161.99138 341.8719L161.99138 349.45L160.85075 349.45ZM165.53825 342.075L165.53825 340.85626L166.60075 340.85626L166.60075 342.075L165.53825 342.075ZM165.53825 349.45L165.53825 343.23126L166.60075 343.23126L166.60075 349.45L165.53825 349.45ZM172.78825 347.45L173.882 347.575Q173.632 348.52814 172.92888 349.0594Q172.22575 349.59064 171.14763 349.59064Q169.78825 349.59064 168.97575 348.7469Q168.17888 347.90314 168.17888 346.3875Q168.17888 344.825 168.99138 343.96564Q169.80388 343.09064 171.08513 343.09064Q172.33513 343.09064 173.11638 343.9344Q173.91325 344.77814 173.91325 346.325Q173.91325 346.41876 173.91325 346.60626L169.27263 346.60626Q169.33513 347.6375 169.85075 348.1844Q170.36638 348.71564 171.14763 348.71564Q171.72575 348.71564 172.132 348.41876Q172.55388 348.10626 172.78825 347.45ZM169.33513 345.7469L172.80388 345.7469Q172.74138 344.95 172.41325 344.5594Q171.89763 343.95 171.10075 343.95Q170.36638 343.95 169.86638 344.4344Q169.382 344.91876 169.33513 345.7469ZM175.52263 349.45L175.52263 343.23126L176.47575 343.23126L176.47575 344.16876Q176.83513 343.5125 177.132 343.3094Q177.4445 343.09064 177.8195 343.09064Q178.35075 343.09064 178.89763 343.41876L178.53825 344.40314Q178.14763 344.16876 177.77263 344.16876Q177.41325 344.16876 177.132 344.3875Q176.86638 344.59064 176.757 344.96564Q176.5695 345.52814 176.5695 346.1844L176.5695 349.45L175.52263 349.45Z" fill-rule="nonzero"/><path fill="#000000" d="M245.15858 345.2625Q245.15858 343.1219 246.29921 341.91876Q247.45546 340.7 249.26796 340.7Q250.47108 340.7 251.42421 341.27814Q252.37733 341.84064 252.87733 342.85626Q253.37733 343.8719 253.37733 345.16876Q253.37733 346.46564 252.84608 347.4969Q252.31483 348.52814 251.34608 349.0594Q250.39296 349.59064 249.26796 349.59064Q248.04921 349.59064 247.09608 349.0125Q246.14296 348.41876 245.64296 347.41876Q245.15858 346.40314 245.15858 345.2625ZM246.33046 345.27814Q246.33046 346.84064 247.15858 347.73126Q248.00233 348.6219 249.26796 348.6219Q250.54921 348.6219 251.37733 347.73126Q252.20546 346.825 252.20546 345.15314Q252.20546 344.10626 251.84608 343.325Q251.50233 342.54376 250.81483 342.1219Q250.12733 341.6844 249.28358 341.6844Q248.08046 341.6844 247.20546 342.5125Q246.33046 343.34064 246.33046 345.27814ZM254.37733 351.84064L254.37733 343.23126L255.33046 343.23126L255.33046 344.02814Q255.67421 343.5594 256.09607 343.325Q256.53357 343.09064 257.14294 343.09064Q257.93982 343.09064 258.5492 343.4969Q259.15857 343.90314 259.45544 344.65314Q259.76794 345.40314 259.76794 346.29376Q259.76794 347.2469 259.4242 348.0125Q259.09607 348.77814 258.43982 349.1844Q257.78357 349.59064 257.06482 349.59064Q256.53357 349.59064 256.1117 349.3719Q255.68983 349.1375 255.42421 348.8094L255.42421 351.84064L254.37733 351.84064ZM255.33046 346.3719Q255.33046 347.575 255.81483 348.15314Q256.2992 348.71564 256.9867 348.71564Q257.68982 348.71564 258.18982 348.1219Q258.68982 347.52814 258.68982 346.27814Q258.68982 345.09064 258.20544 344.5125Q257.72107 343.91876 257.03357 343.91876Q256.3617 343.91876 255.84608 344.54376Q255.33046 345.16876 255.33046 346.3719ZM265.62732 347.45L266.72107 347.575Q266.47107 348.52814 265.76794 349.0594Q265.06482 349.59064 263.9867 349.59064Q262.62732 349.59064 261.81482 348.7469Q261.01794 347.90314 261.01794 346.3875Q261.01794 344.825 261.83044 343.96564Q262.64294 343.09064 263.9242 343.09064Q265.1742 343.09064 265.95544 343.9344Q266.75232 344.77814 266.75232 346.325Q266.75232 346.41876 266.75232 346.60626L262.1117 346.60626Q262.1742 347.6375 262.68982 348.1844Q263.20544 348.71564 263.9867 348.71564Q264.56482 348.71564 264.97107 348.41876Q265.39294 348.10626 265.62732 347.45ZM262.1742 345.7469L265.64294 345.7469Q265.58044 344.95 265.25232 344.5594Q264.7367 343.95 263.93982 343.95Q263.20544 343.95 262.70544 344.4344Q262.22107 344.91876 262.1742 345.7469ZM268.37732 349.45L268.37732 343.23126L269.31482 343.23126L269.31482 344.10626Q270.00232 343.09064 271.2992 343.09064Q271.8617 343.09064 272.33044 343.29376Q272.81482 343.4969 273.0492 343.825Q273.28357 344.15314 273.37732 344.59064Q273.4242 344.8875 273.4242 345.6219L273.4242 349.45L272.37732 349.45L272.37732 345.66876Q272.37732 345.0125 272.25232 344.7Q272.12732 344.3875 271.81482 344.2Q271.50232 343.9969 271.08044 343.9969Q270.40857 343.9969 269.90857 344.4344Q269.4242 344.85626 269.4242 346.04376L269.4242 349.45L268.37732 349.45ZM277.95544 349.45L274.62732 340.85626L275.8617 340.85626L278.09607 347.10626Q278.3617 347.85626 278.5492 348.5125Q278.75232 347.8094 279.01794 347.10626L281.33044 340.85626L282.4867 340.85626L279.12732 349.45L277.95544 349.45ZM282.50232 349.45L282.50232 340.85626L285.75232 340.85626Q286.59607 340.85626 287.0492 340.9344Q287.68982 341.04376 288.1117 341.34064Q288.5492 341.6375 288.7992 342.16876Q289.06482 342.7 289.06482 343.34064Q289.06482 344.4344 288.3617 345.2Q287.6742 345.95 285.84607 345.95L283.64294 345.95L283.64294 349.45L282.50232 349.45ZM283.64294 344.95L285.8617 344.95Q286.97107 344.95 287.4242 344.54376Q287.89294 344.1219 287.89294 343.3719Q287.89294 342.84064 287.6117 342.46564Q287.34607 342.075 286.90857 341.95Q286.6117 341.8719 285.84607 341.8719L283.64294 341.8719L283.64294 344.95ZM290.50232 349.45L290.50232 340.85626L291.65857 340.85626L296.1742 347.60626L296.1742 340.85626L297.26794 340.85626L297.26794 349.45L296.09607 349.45L291.58044 342.7L291.58044 349.45L290.50232 349.45Z" fill-rule="nonzero"/><path fill="#000000" d="M360.3414 349.45L358.06015 340.85626L359.23203 340.85626L360.54453 346.4969Q360.74765 347.3719 360.9039 348.2469Q361.23203 346.8719 361.29453 346.65314L362.91953 340.85626L364.29453 340.85626L365.5289 345.2Q365.98203 346.825 366.20078 348.2469Q366.35703 347.4344 366.62265 346.3719L367.9664 340.85626L369.10703 340.85626L366.76328 349.45L365.6539 349.45L363.85703 342.90314Q363.62265 342.09064 363.57578 341.90314Q363.45078 342.48126 363.32578 342.90314L361.51328 349.45L360.3414 349.45ZM369.7164 342.075L369.7164 340.85626L370.7789 340.85626L370.7789 342.075L369.7164 342.075ZM369.7164 349.45L369.7164 343.23126L370.7789 343.23126L370.7789 349.45L369.7164 349.45ZM372.70078 349.45L372.70078 343.23126L373.6539 343.23126L373.6539 344.16876Q374.01328 343.5125 374.31015 343.3094Q374.62265 343.09064 374.99765 343.09064Q375.5289 343.09064 376.07578 343.41876L375.7164 344.40314Q375.32578 344.16876 374.95078 344.16876Q374.5914 344.16876 374.31015 344.3875Q374.04453 344.59064 373.93515 344.96564Q373.74765 345.52814 373.74765 346.1844L373.74765 349.45L372.70078 349.45ZM380.9664 347.45L382.06015 347.575Q381.81015 348.52814 381.10703 349.0594Q380.4039 349.59064 379.32578 349.59064Q377.9664 349.59064 377.1539 348.7469Q376.35703 347.90314 376.35703 346.3875Q376.35703 344.825 377.16953 343.96564Q377.98203 343.09064 379.26328 343.09064Q380.51328 343.09064 381.29453 343.9344Q382.0914 344.77814 382.0914 346.325Q382.0914 346.41876 382.0914 346.60626L377.45078 346.60626Q377.51328 347.6375 378.0289 348.1844Q378.54453 348.71564 379.32578 348.71564Q379.9039 348.71564 380.31015 348.41876Q380.73203 348.10626 380.9664 347.45ZM377.51328 345.7469L380.98203 345.7469Q380.91953 344.95 380.5914 344.5594Q380.07578 343.95 379.2789 343.95Q378.54453 343.95 378.04453 344.4344Q377.56015 344.91876 377.51328 345.7469ZM387.87265 346.075L387.87265 345.075L391.49765 345.0594L391.49765 348.2469Q390.66953 348.91876 389.7789 349.2625Q388.88828 349.59064 387.95078 349.59064Q386.68515 349.59064 385.63828 349.0594Q384.60703 348.5125 384.07578 347.4969Q383.56015 346.46564 383.56015 345.2Q383.56015 343.9344 384.07578 342.85626Q384.60703 341.7625 385.5914 341.2469Q386.57578 340.71564 387.85703 340.71564Q388.79453 340.71564 389.54453 341.0125Q390.29453 341.3094 390.7164 341.85626Q391.1539 342.3875 391.37265 343.2625L390.35703 343.54376Q390.1539 342.8875 389.85703 342.5125Q389.57578 342.1375 389.04453 341.91876Q388.51328 341.6844 387.87265 341.6844Q387.0914 341.6844 386.51328 341.91876Q385.95078 342.15314 385.5914 342.54376Q385.24765 342.9344 385.06015 343.40314Q384.73203 344.2 384.73203 345.1219Q384.73203 346.27814 385.12265 347.0594Q385.5289 347.825 386.2789 348.2Q387.0289 348.575 387.88828 348.575Q388.62265 348.575 389.32578 348.29376Q390.0289 347.9969 390.38828 347.6844L390.38828 346.075L387.87265 346.075ZM396.79453 349.45L396.79453 348.52814Q396.06015 349.59064 394.81015 349.59064Q394.26328 349.59064 393.7789 349.3875Q393.31015 349.16876 393.07578 348.85626Q392.8414 348.52814 392.74765 348.0594Q392.68515 347.7625 392.68515 347.075L392.68515 343.23126L393.74765 343.23126L393.74765 346.6844Q393.74765 347.4969 393.81015 347.79376Q393.9039 348.2 394.2164 348.45Q394.54453 348.6844 395.0289 348.6844Q395.49765 348.6844 395.9039 348.45Q396.32578 348.2 396.49765 347.77814Q396.68515 347.35626 396.68515 346.5594L396.68515 343.23126L397.73203 343.23126L397.73203 349.45L396.79453 349.45ZM403.7789 348.6844Q403.18515 349.1844 402.63828 349.3875Q402.10703 349.59064 401.48203 349.59064Q400.45078 349.59064 399.9039 349.09064Q399.35703 348.59064 399.35703 347.8094Q399.35703 347.35626 399.56015 346.98126Q399.76328 346.59064 400.10703 346.3719Q400.45078 346.1375 400.87265 346.02814Q401.16953 345.9344 401.81015 345.85626Q403.07578 345.71564 403.68515 345.4969Q403.68515 345.27814 403.68515 345.23126Q403.68515 344.575 403.38828 344.3094Q402.98203 343.96564 402.18515 343.96564Q401.45078 343.96564 401.0914 344.23126Q400.73203 344.48126 400.56015 345.1375L399.5289 344.9969Q399.66953 344.34064 399.99765 343.9344Q400.32578 343.52814 400.93515 343.3094Q401.54453 343.09064 402.3414 343.09064Q403.13828 343.09064 403.63828 343.27814Q404.13828 343.46564 404.37265 343.7469Q404.60703 344.02814 404.70078 344.46564Q404.74765 344.73126 404.74765 345.4344L404.74765 346.84064Q404.74765 348.3094 404.81015 348.7Q404.88828 349.09064 405.0914 349.45L403.98203 349.45Q403.82578 349.1219 403.7789 348.6844ZM403.68515 346.325Q403.10703 346.5594 401.9664 346.73126Q401.31015 346.825 401.04453 346.95Q400.7789 347.0594 400.62265 347.27814Q400.48203 347.4969 400.48203 347.77814Q400.48203 348.2 400.79453 348.48126Q401.12265 348.7625 401.73203 348.7625Q402.3414 348.7625 402.81015 348.4969Q403.29453 348.23126 403.51328 347.7625Q403.68515 347.40314 403.68515 346.71564L403.68515 346.325ZM406.70078 349.45L406.70078 343.23126L407.6539 343.23126L407.6539 344.16876Q408.01328 343.5125 408.31015 343.3094Q408.62265 343.09064 408.99765 343.09064Q409.5289 343.09064 410.07578 343.41876L409.7164 344.40314Q409.32578 344.16876 408.95078 344.16876Q408.5914 344.16876 408.31015 344.3875Q408.04453 344.59064 407.93515 344.96564Q407.74765 345.52814 407.74765 346.1844L407.74765 349.45L406.70078 349.45ZM414.74765 349.45L414.74765 348.66876Q414.1539 349.59064 413.01328 349.59064Q412.26328 349.59064 411.63828 349.1844Q411.01328 348.7625 410.66953 348.02814Q410.32578 347.29376 410.32578 346.34064Q410.32578 345.41876 410.63828 344.65314Q410.95078 343.8875 411.57578 343.4969Q412.20078 343.09064 412.9664 343.09064Q413.5289 343.09064 413.9664 343.325Q414.4039 343.5594 414.68515 343.9344L414.68515 340.85626L415.73203 340.85626L415.73203 349.45L414.74765 349.45ZM411.41953 346.34064Q411.41953 347.54376 411.91953 348.1375Q412.41953 348.71564 413.10703 348.71564Q413.79453 348.71564 414.2789 348.15314Q414.76328 347.59064 414.76328 346.4344Q414.76328 345.15314 414.26328 344.5594Q413.7789 343.96564 413.06015 343.96564Q412.35703 343.96564 411.88828 344.54376Q411.41953 345.10626 411.41953 346.34064Z" fill-rule="nonzero"/><path fill="#000000" d="M471.3836 349.45L471.3836 340.85626L472.5086 340.85626L472.5086 349.45L471.3836 349.45ZM474.1336 349.45L474.1336 340.85626L475.27423 340.85626L475.27423 345.1219L479.53986 340.85626L481.08673 340.85626L477.47736 344.34064L481.24298 349.45L479.74298 349.45L476.68048 345.10626L475.27423 346.46564L475.27423 349.45L474.1336 349.45ZM482.21173 349.45L482.21173 340.85626L488.41486 340.85626L488.41486 341.8719L483.35236 341.8719L483.35236 344.4969L488.10236 344.4969L488.10236 345.5125L483.35236 345.5125L483.35236 348.4344L488.61798 348.4344L488.61798 349.45L482.21173 349.45ZM491.77423 349.45L489.41486 343.23126L490.52423 343.23126L491.86798 346.95Q492.0711 347.5594 492.2586 348.2Q492.39923 347.71564 492.64923 347.02814L494.03986 343.23126L495.11798 343.23126L492.7586 349.45L491.77423 349.45ZM500.30548 348.4344L500.30548 349.45L494.61798 349.45Q494.61798 349.075 494.74298 348.71564Q494.96173 348.1375 495.43048 347.575Q495.91486 347.0125 496.8211 346.27814Q498.22736 345.1219 498.71173 344.45Q499.21173 343.77814 499.21173 343.1844Q499.21173 342.5594 498.7586 342.1375Q498.30548 341.7 497.58673 341.7Q496.8211 341.7 496.36798 342.15314Q495.91486 342.60626 495.89923 343.41876L494.8211 343.3094Q494.93048 342.09064 495.64923 341.46564Q496.3836 340.825 497.61798 340.825Q498.85236 340.825 499.5711 341.5125Q500.28986 342.2 500.28986 343.21564Q500.28986 343.73126 500.0711 344.23126Q499.86798 344.71564 499.36798 345.27814Q498.8836 345.825 497.7586 346.77814Q496.80548 347.575 496.52423 347.8719Q496.2586 348.15314 496.08673 348.4344L500.30548 348.4344ZM501.2586 349.59064L503.74298 340.71564L504.58673 340.71564L502.10236 349.59064L501.2586 349.59064ZM505.3836 349.45L505.3836 340.85626L506.5086 340.85626L506.5086 349.45L505.3836 349.45ZM508.18048 349.45L508.18048 340.85626L511.43048 340.85626Q512.27423 340.85626 512.72736 340.9344Q513.368 341.04376 513.78986 341.34064Q514.22736 341.6375 514.47736 342.16876Q514.743 342.7 514.743 343.34064Q514.743 344.4344 514.03986 345.2Q513.35236 345.95 511.52423 345.95L509.3211 345.95L509.3211 349.45L508.18048 349.45ZM509.3211 344.95L511.53986 344.95Q512.64923 344.95 513.10236 344.54376Q513.5711 344.1219 513.5711 343.3719Q513.5711 342.84064 513.28986 342.46564Q513.02423 342.075 512.58673 341.95Q512.28986 341.8719 511.52423 341.8719L509.3211 341.8719L509.3211 344.95ZM515.8055 346.6844L516.868 346.59064Q516.9461 347.2469 517.22736 347.65314Q517.5086 348.0594 518.08673 348.325Q518.6805 348.575 519.41486 348.575Q520.0555 348.575 520.5555 348.3875Q521.0555 348.1844 521.28986 347.85626Q521.53986 347.5125 521.53986 347.1219Q521.53986 346.71564 521.3055 346.41876Q521.0711 346.10626 520.53986 345.90314Q520.1805 345.7625 518.993 345.48126Q517.8211 345.2 517.35236 344.95Q516.72736 344.6219 516.4305 344.15314Q516.1336 343.66876 516.1336 343.075Q516.1336 342.4344 516.493 341.8719Q516.868 341.29376 517.5711 341.0125Q518.28986 340.71564 519.14923 340.71564Q520.10236 340.71564 520.83673 341.02814Q521.5711 341.325 521.96173 341.9344Q522.35236 342.52814 522.3836 343.27814L521.28986 343.35626Q521.1961 342.54376 520.6805 342.1375Q520.1805 341.71564 519.1961 341.71564Q518.16486 341.71564 517.6961 342.09064Q517.22736 342.46564 517.22736 342.9969Q517.22736 343.46564 517.5555 343.7625Q517.8836 344.0594 519.2586 344.3719Q520.64923 344.6844 521.16486 344.91876Q521.91486 345.27814 522.27423 345.8094Q522.6336 346.325 522.6336 347.02814Q522.6336 347.71564 522.243 348.325Q521.85236 348.91876 521.118 349.2625Q520.3836 349.59064 519.46173 349.59064Q518.28986 349.59064 517.493 349.2625Q516.71173 348.91876 516.2586 348.23126Q515.8211 347.54376 515.8055 346.6844ZM528.3055 347.45L529.39923 347.575Q529.14923 348.52814 528.4461 349.0594Q527.743 349.59064 526.66486 349.59064Q525.3055 349.59064 524.493 348.7469Q523.6961 347.90314 523.6961 346.3875Q523.6961 344.825 524.5086 343.96564Q525.3211 343.09064 526.60236 343.09064Q527.85236 343.09064 528.6336 343.9344Q529.4305 344.77814 529.4305 346.325Q529.4305 346.41876 529.4305 346.60626L524.78986 346.60626Q524.85236 347.6375 525.368 348.1844Q525.8836 348.71564 526.66486 348.71564Q527.243 348.71564 527.64923 348.41876Q528.0711 348.10626 528.3055 347.45ZM524.85236 345.7469L528.3211 345.7469Q528.2586 344.95 527.9305 344.5594Q527.41486 343.95 526.618 343.95Q525.8836 343.95 525.3836 344.4344Q524.89923 344.91876 524.85236 345.7469ZM535.118 347.16876L536.14923 347.3094Q535.97736 348.3719 535.27423 348.98126Q534.5711 349.59064 533.5555 349.59064Q532.27423 349.59064 531.493 348.7625Q530.72736 347.91876 530.72736 346.35626Q530.72736 345.35626 531.0555 344.60626Q531.39923 343.84064 532.0711 343.46564Q532.7586 343.09064 533.5711 343.09064Q534.5711 343.09064 535.21173 343.60626Q535.868 344.10626 536.0555 345.0594L535.02423 345.21564Q534.8836 344.59064 534.5086 344.27814Q534.1336 343.95 533.60236 343.95Q532.8055 343.95 532.3055 344.52814Q531.8055 345.09064 531.8055 346.325Q531.8055 347.59064 532.28986 348.15314Q532.77423 348.71564 533.53986 348.71564Q534.16486 348.71564 534.5711 348.34064Q534.993 347.96564 535.118 347.16876Z" fill-rule="nonzero"/></svg>