<svg version="1.1" viewBox="0.0 0.0 600.0 371.0" fill="none" stroke="none" stroke-linecap="square" stroke-miterlimit="10" width="600" height="371" xmlns:xlink="http://www.w3.org/1999/xlink" xmlns="http://www.w3.org/2000/svg"><path fill="#ffffff" d="M0 0L600.0 0L600.0 371.0L0 371.0L0 0Z" fill-rule="nonzero"/><path stroke="#333333" stroke-width="1.0" stroke-linecap="butt" d="M77.5 332.5L581.5 332.5" fill-rule="nonzero"/><path stroke="#cccccc" stroke-width="1.0" stroke-linecap="butt" d="M77.5 230.5L581.5 230.5" fill-rule="nonzero"/><path stroke="#cccccc" stroke-width="1.0" stroke-linecap="butt" d="M77.5 127.5L581.5 127.5" fill-rule="nonzero"/><path stroke="#cccccc" stroke-width="1.0" stroke-linecap="butt" d="M77.5 25.5L581.5 25.5" fill-rule="nonzero"/><clipPath id="id_0"><path d="M77.55 25.55L581.45 25.55L581.45 332.45L77.55 332.45L77.55 25.55Z" clip-rule="nonzero"/></clipPath><path stroke="#000000" stroke-width="2.0" stroke-linecap="butt" stroke-opacity="0.0" clip-path="url(#id_0)" d="M194.0 332.0L119.0 332.0L119.0 130.0C119.0 128.89543 119.89543 128.0 121.0 128.0L192.0 128.0C193.10457 128.0 194.0 128.89543 194.0 130.0Z" fill-rule="nonzero"/><path fill="#4285f4" clip-path="url(#id_0)" d="M194.0 332.0L119.0 332.0L119.0 130.0C119.0 128.89543 119.89543 128.0 121.0 128.0L192.0 128.0C193.10457 128.0 194.0 128.89543 194.0 130.0Z" fill-rule="nonzero"/><path stroke="#000000" stroke-width="2.0" stroke-linecap="butt" stroke-opacity="0.0" clip-path="url(#id_0)" d="M310.0 332.0L235.0 332.0L235.0 28.0C235.0 26.89543 235.89543 26.0 237.0 26.0L308.0 26.0C309.10458 26.0 310.0 26.89543 310.0 28.0Z" fill-rule="nonzero"/><path fill="#4285f4" clip-path="url(#id_0)" d="M310.0 332.0L235.0 332.0L235.0 28.0C235.0 26.89543 235.89543 26.0 237.0 26.0L308.0 26.0C309.10458 26.0 310.0 26.89543 310.0 28.0Z" fill-rule="nonzero"/><path stroke="#000000" stroke-width="2.0" stroke-linecap="butt" stroke-opacity="0.0" clip-path="url(#id_0)" d="M425.0 332.0L350.0 332.0L350.0 130.0C350.0 128.89543 350.89542 128.0 352.0 128.0L423.0 128.0C424.10458 128.0 425.0 128.89543 425.0 130.0Z" fill-rule="nonzero"/><path fill="#4285f4" clip-path="url(#id_0)" d="M425.0 332.0L350.0 332.0L350.0 130.0C350.0 128.89543 350.89542 128.0 352.0 128.0L423.0 128.0C424.10458 128.0 425.0 128.89543 425.0 130.0Z" fill-rule="nonzero"/><path stroke="#000000" stroke-width="2.0" stroke-linecap="butt" stroke-opacity="0.0" clip-path="url(#id_0)" d="M541.0 332.0L466.0 332.0L466.0 232.0C466.0 230.89543 466.89542 230.0 468.0 230.0L539.0 230.0C540.10455 230.0 541.0 230.89543 541.0 232.0Z" fill-rule="nonzero"/><path fill="#4285f4" clip-path="url(#id_0)" d="M541.0 332.0L466.0 332.0L466.0 232.0C466.0 230.89543 466.89542 230.0 468.0 230.0L539.0 230.0C540.10455 230.0 541.0 230.89543 541.0 232.0Z" fill-rule="nonzero"/><path fill="#000000" d="M29.550013 295.51562L20.956263 295.51562L20.956263 289.71875L21.971888 289.71875L21.971888 294.375L24.628138 294.375L24.628138 290.34375L25.643763 290.34375L25.643763 294.375L29.550013 294.375L29.550013 295.51562ZM29.550013 284.625L28.628138 284.625Q29.690638 285.35938 29.690638 286.60938Q29.690638 287.15625 29.487513 287.64062Q29.268763 288.10938 28.956263 288.34375Q28.628138 288.57812 28.159388 288.67188Q27.862513 288.73438 27.175013 288.73438L23.331263 288.73438L23.331263 287.67188L26.784388 287.67188Q27.596888 287.67188 27.893763 287.60938Q28.300013 287.51562 28.550013 287.20312Q28.784388 286.875 28.784388 286.39062Q28.784388 285.92188 28.550013 285.51562Q28.300013 285.09375 27.878138 284.92188Q27.456263 284.73438 26.659388 284.73438L23.331263 284.73438L23.331263 283.6875L29.550013 283.6875L29.550013 284.625ZM29.550013 281.70312L23.331263 281.70312L23.331263 280.76562L24.206263 280.76562Q23.190638 280.07812 23.190638 278.78125Q23.190638 278.21875 23.393763 277.75Q23.596888 277.26562 23.925013 277.03125Q24.253138 276.79688 24.690638 276.70312Q24.987513 276.65625 25.721888 276.65625L29.550013 276.65625L29.550013 277.70312L25.768763 277.70312Q25.112513 277.70312 24.800013 277.82812Q24.487513 277.95312 24.300013 278.26562Q24.096888 278.57812 24.096888 279.0Q24.096888 279.67188 24.534388 280.17188Q24.956263 280.65625 26.143763 280.65625L29.550013 280.65625L29.550013 281.70312ZM29.550013 274.70312L20.956263 274.70312L20.956263 273.64062L25.862513 273.64062L23.331263 271.15625L23.331263 269.78125L25.628138 272.17188L29.550013 269.54688L29.550013 270.84375L26.362513 272.90625L27.081263 273.64062L29.550013 273.64062L29.550013 274.70312ZM27.268763 264.64062L27.409388 263.60938Q28.471888 263.78125 29.081263 264.48438Q29.690638 265.1875 29.690638 266.20312Q29.690638 267.48438 28.862513 268.26562Q28.018763 269.03125 26.456263 269.03125Q25.456263 269.03125 24.706263 268.70312Q23.940638 268.35938 23.565638 267.6875Q23.190638 267.0 23.190638 266.1875Q23.190638 265.1875 23.706263 264.54688Q24.206263 263.89062 25.159388 263.70312L25.315638 264.73438Q24.690638 264.875 24.378138 265.25Q24.050013 265.625 24.050013 266.15625Q24.050013 266.95312 24.628138 267.45312Q25.190638 267.95312 26.425013 267.95312Q27.690638 267.95312 28.253138 267.46875Q28.815638 266.98438 28.815638 266.21875Q28.815638 265.59375 28.440638 265.1875Q28.065638 264.76562 27.268763 264.64062ZM22.175013 262.70312L20.956263 262.70312L20.956263 261.64062L22.175013 261.64062L22.175013 262.70312ZM29.550013 262.70312L23.331263 262.70312L23.331263 261.64062L29.550013 261.64062L29.550013 262.70312ZM22.190638 259.71875L20.956263 259.71875L20.956263 258.65625L22.190638 258.65625L22.190638 259.71875ZM31.971888 261.04688L31.065638 260.85938Q31.143763 260.53125 31.143763 260.35938Q31.143763 260.03125 30.925013 259.875Q30.721888 259.71875 29.862513 259.71875L23.331263 259.71875L23.331263 258.65625L29.893763 258.65625Q31.034388 258.65625 31.487513 258.95312Q32.08126 259.34375 32.08126 260.21875Q32.08126 260.65625 31.971888 261.04688ZM26.440638 257.09375Q24.706263 257.09375 23.878138 256.14062Q23.190638 255.34375 23.190638 254.1875Q23.190638 252.90625 24.034388 252.09375Q24.862513 251.26562 26.346888 251.26562Q27.550013 251.26562 28.237513 251.625Q28.925013 251.98438 29.315638 252.6875Q29.690638 253.375 29.690638 254.1875Q29.690638 255.48438 28.862513 256.29688Q28.018763 257.09375 26.440638 257.09375ZM26.440638 256.01562Q27.628138 256.01562 28.221888 255.5Q28.815638 254.96875 28.815638 254.1875Q28.815638 253.39062 28.221888 252.875Q27.628138 252.35938 26.409388 252.35938Q25.253138 252.35938 24.659388 252.89062Q24.065638 253.40625 24.065638 254.1875Q24.065638 254.96875 24.659388 255.5Q25.237513 256.01562 26.440638 256.01562ZM29.550013 249.70312L23.331263 249.70312L23.331263 248.76562L24.206263 248.76562Q23.190638 248.07812 23.190638 246.78125Q23.190638 246.21875 23.393763 245.75Q23.596888 245.26562 23.925013 245.03125Q24.253138 244.79688 24.690638 244.70312Q24.987513 244.65625 25.721888 244.65625L29.550013 244.65625L29.550013 245.70312L25.768763 245.70312Q25.112513 245.70312 24.800013 245.82812Q24.487513 245.95312 24.300013 246.26562Q24.096888 246.57812 24.096888 247.0Q24.096888 247.67188 24.534388 248.17188Q24.956263 248.65625 26.143763 248.65625L29.550013 248.65625L29.550013 249.70312ZM28.784388 238.64062Q29.284388 239.23438 29.487513 239.78125Q29.690638 240.3125 29.690638 240.9375Q29.690638 241.96875 29.190638 242.51562Q28.690638 243.0625 27.909388 243.0625Q27.456263 243.0625 27.081263 242.85938Q26.690638 242.65625 26.471888 242.3125Q26.237513 241.96875 26.128138 241.54688Q26.034388 241.25 25.956263 240.60938Q25.815638 239.34375 25.596888 238.73438Q25.378138 238.73438 25.331263 238.73438Q24.675013 238.73438 24.409388 239.03125Q24.065638 239.4375 24.065638 240.23438Q24.065638 240.96875 24.331263 241.32812Q24.581263 241.6875 25.237513 241.85938L25.096888 242.89062Q24.440638 242.75 24.034388 242.42188Q23.628138 242.09375 23.409388 241.48438Q23.190638 240.875 23.190638 240.07812Q23.190638 239.28125 23.378138 238.78125Q23.565638 238.28125 23.846888 238.04688Q24.128138 237.8125 24.565638 237.71875Q24.831263 237.67188 25.534388 237.67188L26.940638 237.67188Q28.409388 237.67188 28.800013 237.60938Q29.190638 237.53125 29.550013 237.32812L29.550013 238.4375Q29.221888 238.59375 28.784388 238.64062ZM26.425013 238.73438Q26.659388 239.3125 26.831263 240.45312Q26.925013 241.10938 27.050013 241.375Q27.159388 241.64062 27.378138 241.79688Q27.596888 241.9375 27.878138 241.9375Q28.300013 241.9375 28.581263 241.625Q28.862513 241.29688 28.862513 240.6875Q28.862513 240.07812 28.596888 239.60938Q28.331263 239.125 27.862513 238.90625Q27.503138 238.73438 26.815638 238.73438L26.425013 238.73438ZM29.550013 235.73438L20.956263 235.73438L20.956263 234.67188L29.550013 234.67188L29.550013 235.73438ZM29.550013 232.70312L23.331263 232.70312L23.331263 231.76562L24.206263 231.76562Q23.190638 231.07812 23.190638 229.78125Q23.190638 229.21875 23.393763 228.75Q23.596888 228.26562 23.925013 228.03125Q24.253138 227.79688 24.690638 227.70312Q24.987513 227.65625 25.721888 227.65625L29.550013 227.65625L29.550013 228.70312L25.768763 228.70312Q25.112513 228.70312 24.800013 228.82812Q24.487513 228.95312 24.300013 229.26562Q24.096888 229.57812 24.096888 230.0Q24.096888 230.67188 24.534388 231.17188Q24.956263 231.65625 26.143763 231.65625L29.550013 231.65625L29.550013 232.70312ZM26.440638 226.09375Q24.706263 226.09375 23.878138 225.14062Q23.190638 224.34375 23.190638 223.1875Q23.190638 221.90625 24.034388 221.09375Q24.862513 220.26562 26.346888 220.26562Q27.550013 220.26562 28.237513 220.625Q28.925013 220.98438 29.315638 221.6875Q29.690638 222.375 29.690638 223.1875Q29.690638 224.48438 28.862513 225.29688Q28.018763 226.09375 26.440638 226.09375ZM26.440638 225.01562Q27.628138 225.01562 28.221888 224.5Q28.815638 223.96875 28.815638 223.1875Q28.815638 222.39062 28.221888 221.875Q27.628138 221.35938 26.409388 221.35938Q25.253138 221.35938 24.659388 221.89062Q24.065638 222.40625 24.065638 223.1875Q24.065638 223.96875 24.659388 224.5Q25.237513 225.01562 26.440638 225.01562ZM27.690638 219.125L27.534388 218.09375Q28.159388 218.0 28.487513 217.60938Q28.815638 217.20312 28.815638 216.46875Q28.815638 215.75 28.534388 215.40625Q28.237513 215.04688 27.831263 215.04688Q27.471888 215.04688 27.268763 215.35938Q27.128138 215.57812 26.909388 216.4375Q26.612513 217.59375 26.409388 218.04688Q26.190638 218.48438 25.815638 218.71875Q25.440638 218.95312 24.971888 218.95312Q24.565638 218.95312 24.206263 218.76562Q23.846888 218.57812 23.612513 218.25Q23.440638 218.0 23.315638 217.57812Q23.190638 217.15625 23.190638 216.65625Q23.190638 215.9375 23.409388 215.39062Q23.612513 214.82812 23.971888 214.5625Q24.331263 214.29688 24.925013 214.20312L25.065638 215.23438Q24.596888 215.29688 24.331263 215.64062Q24.050013 215.96875 24.050013 216.59375Q24.050013 217.3125 24.300013 217.625Q24.534388 217.9375 24.862513 217.9375Q25.065638 217.9375 25.221888 217.8125Q25.393763 217.67188 25.503138 217.40625Q25.565638 217.25 25.768763 216.46875Q26.081263 215.34375 26.268763 214.90625Q26.456263 214.46875 26.815638 214.21875Q27.175013 213.96875 27.721888 213.96875Q28.253138 213.96875 28.721888 214.28125Q29.175013 214.57812 29.440638 215.15625Q29.690638 215.73438 29.690638 216.46875Q29.690638 217.6875 29.190638 218.32812Q28.675013 218.95312 27.690638 219.125ZM28.612513 209.40625L29.534388 209.25Q29.628138 209.70312 29.628138 210.04688Q29.628138 210.625 29.456263 210.9375Q29.268763 211.25 28.971888 211.39062Q28.675013 211.51562 27.721888 211.51562L24.143763 211.51562L24.143763 212.28125L23.331263 212.28125L23.331263 211.51562L21.784388 211.51562L21.159388 210.46875L23.331263 210.46875L23.331263 209.40625L24.143763 209.40625L24.143763 210.46875L27.784388 210.46875Q28.237513 210.46875 28.362513 210.42188Q28.487513 210.35938 28.565638 210.23438Q28.643763 210.10938 28.643763 209.875Q28.643763 209.6875 28.612513 209.40625ZM28.784388 201.64062Q29.284388 202.23438 29.487513 202.78125Q29.690638 203.3125 29.690638 203.9375Q29.690638 204.96875 29.190638 205.51562Q28.690638 206.0625 27.909388 206.0625Q27.456263 206.0625 27.081263 205.85938Q26.690638 205.65625 26.471888 205.3125Q26.237513 204.96875 26.128138 204.54688Q26.034388 204.25 25.956263 203.60938Q25.815638 202.34375 25.596888 201.73438Q25.378138 201.73438 25.331263 201.73438Q24.675013 201.73438 24.409388 202.03125Q24.065638 202.4375 24.065638 203.23438Q24.065638 203.96875 24.331263 204.32812Q24.581263 204.6875 25.237513 204.85938L25.096888 205.89062Q24.440638 205.75 24.034388 205.42188Q23.628138 205.09375 23.409388 204.48438Q23.190638 203.875 23.190638 203.07812Q23.190638 202.28125 23.378138 201.78125Q23.565638 201.28125 23.846888 201.04688Q24.128138 200.8125 24.565638 200.71875Q24.831263 200.67188 25.534388 200.67188L26.940638 200.67188Q28.409388 200.67188 28.800013 200.60938Q29.190638 200.53125 29.550013 200.32812L29.550013 201.4375Q29.221888 201.59375 28.784388 201.64062ZM26.425013 201.73438Q26.659388 202.3125 26.831263 203.45312Q26.925013 204.10938 27.050013 204.375Q27.159388 204.64062 27.378138 204.79688Q27.596888 204.9375 27.878138 204.9375Q28.300013 204.9375 28.581263 204.625Q28.862513 204.29688 28.862513 203.6875Q28.862513 203.07812 28.596888 202.60938Q28.331263 202.125 27.862513 201.90625Q27.503138 201.73438 26.815638 201.73438L26.425013 201.73438ZM29.550013 194.67188L28.768763 194.67188Q29.690638 195.26562 29.690638 196.40625Q29.690638 197.15625 29.284388 197.78125Q28.862513 198.40625 28.128138 198.75Q27.393763 199.09375 26.440638 199.09375Q25.518763 199.09375 24.753138 198.78125Q23.987513 198.46875 23.596888 197.84375Q23.190638 197.21875 23.190638 196.45312Q23.190638 195.89062 23.425013 195.45312Q23.659388 195.01562 24.034388 194.73438L20.956263 194.73438L20.956263 193.6875L29.550013 193.6875L29.550013 194.67188ZM26.440638 198.0Q27.643763 198.0 28.237513 197.5Q28.815638 197.0 28.815638 196.3125Q28.815638 195.625 28.253138 195.14062Q27.690638 194.65625 26.534388 194.65625Q25.253138 194.65625 24.659388 195.15625Q24.065638 195.64062 24.065638 196.35938Q24.065638 197.0625 24.643763 197.53125Q25.206263 198.0 26.440638 198.0ZM29.550013 191.70312L23.331263 191.70312L23.331263 190.76562L24.206263 190.76562Q23.737513 190.46875 23.471888 189.98438Q23.190638 189.5 23.190638 188.875Q23.190638 188.1875 23.471888 187.75Q23.753138 187.29688 24.268763 187.125Q23.190638 186.375 23.190638 185.20312Q23.190638 184.26562 23.706263 183.78125Q24.206263 183.28125 25.284388 183.28125L29.550013 183.28125L29.550013 184.32812L25.628138 184.32812Q25.003138 184.32812 24.721888 184.4375Q24.440638 184.53125 24.268763 184.79688Q24.096888 185.0625 24.096888 185.4375Q24.096888 186.09375 24.534388 186.53125Q24.971888 186.95312 25.940638 186.95312L29.550013 186.95312L29.550013 188.01562L25.503138 188.01562Q24.800013 188.01562 24.456263 188.28125Q24.096888 188.53125 24.096888 189.10938Q24.096888 189.5625 24.331263 189.9375Q24.565638 190.3125 25.018763 190.48438Q25.471888 190.65625 26.315638 190.65625L29.550013 190.65625L29.550013 191.70312ZM22.175013 180.70312L20.956263 180.70312L20.956263 179.64062L22.175013 179.64062L22.175013 180.70312ZM29.550013 180.70312L23.331263 180.70312L23.331263 179.64062L29.550013 179.64062L29.550013 180.70312ZM29.550013 177.70312L23.331263 177.70312L23.331263 176.76562L24.206263 176.76562Q23.190638 176.07812 23.190638 174.78125Q23.190638 174.21875 23.393763 173.75Q23.596888 173.26562 23.925013 173.03125Q24.253138 172.79688 24.690638 172.70312Q24.987513 172.65625 25.721888 172.65625L29.550013 172.65625L29.550013 173.70312L25.768763 173.70312Q25.112513 173.70312 24.800013 173.82812Q24.487513 173.95312 24.300013 174.26562Q24.096888 174.57812 24.096888 175.0Q24.096888 175.67188 24.534388 176.17188Q24.956263 176.65625 26.143763 176.65625L29.550013 176.65625L29.550013 177.70312ZM22.175013 170.70312L20.956263 170.70312L20.956263 169.64062L22.175013 169.64062L22.175013 170.70312ZM29.550013 170.70312L23.331263 170.70312L23.331263 169.64062L29.550013 169.64062L29.550013 170.70312ZM27.690638 168.125L27.534388 167.09375Q28.159388 167.0 28.487513 166.60938Q28.815638 166.20312 28.815638 165.46875Q28.815638 164.75 28.534388 164.40625Q28.237513 164.04688 27.831263 164.04688Q27.471888 164.04688 27.268763 164.35938Q27.128138 164.57812 26.909388 165.4375Q26.612513 166.59375 26.409388 167.04688Q26.190638 167.48438 25.815638 167.71875Q25.440638 167.95312 24.971888 167.95312Q24.565638 167.95312 24.206263 167.76562Q23.846888 167.57812 23.612513 167.25Q23.440638 167.0 23.315638 166.57812Q23.190638 166.15625 23.190638 165.65625Q23.190638 164.9375 23.409388 164.39062Q23.612513 163.82812 23.971888 163.5625Q24.331263 163.29688 24.925013 163.20312L25.065638 164.23438Q24.596888 164.29688 24.331263 164.64062Q24.050013 164.96875 24.050013 165.59375Q24.050013 166.3125 24.300013 166.625Q24.534388 166.9375 24.862513 166.9375Q25.065638 166.9375 25.221888 166.8125Q25.393763 166.67188 25.503138 166.40625Q25.565638 166.25 25.768763 165.46875Q26.081263 164.34375 26.268763 163.90625Q26.456263 163.46875 26.815638 163.21875Q27.175013 162.96875 27.721888 162.96875Q28.253138 162.96875 28.721888 163.28125Q29.175013 163.57812 29.440638 164.15625Q29.690638 164.73438 29.690638 165.46875Q29.690638 166.6875 29.190638 167.32812Q28.675013 167.95312 27.690638 168.125ZM28.612513 158.40625L29.534388 158.25Q29.628138 158.70312 29.628138 159.04688Q29.628138 159.625 29.456263 159.9375Q29.268763 160.25 28.971888 160.39062Q28.675013 160.51562 27.721888 160.51562L24.143763 160.51562L24.143763 161.28125L23.331263 161.28125L23.331263 160.51562L21.784388 160.51562L21.159388 159.46875L23.331263 159.46875L23.331263 158.40625L24.143763 158.40625L24.143763 159.46875L27.784388 159.46875Q28.237513 159.46875 28.362513 159.42188Q28.487513 159.35938 28.565638 159.23438Q28.643763 159.10938 28.643763 158.875Q28.643763 158.6875 28.612513 158.40625ZM29.550013 157.71875L23.331263 157.71875L23.331263 156.76562L24.268763 156.76562Q23.612513 156.40625 23.409388 156.10938Q23.190638 155.79688 23.190638 155.42188Q23.190638 154.89062 23.518763 154.34375L24.503138 154.70312Q24.268763 155.09375 24.268763 155.46875Q24.268763 155.82812 24.487513 156.10938Q24.690638 156.375 25.065638 156.48438Q25.628138 156.67188 26.284388 156.67188L29.550013 156.67188L29.550013 157.71875ZM28.784388 149.64062Q29.284388 150.23438 29.487513 150.78125Q29.690638 151.3125 29.690638 151.9375Q29.690638 152.96875 29.190638 153.51562Q28.690638 154.0625 27.909388 154.0625Q27.456263 154.0625 27.081263 153.85938Q26.690638 153.65625 26.471888 153.3125Q26.237513 152.96875 26.128138 152.54688Q26.034388 152.25 25.956263 151.60938Q25.815638 150.34375 25.596888 149.73438Q25.378138 149.73438 25.331263 149.73438Q24.675013 149.73438 24.409388 150.03125Q24.065638 150.4375 24.065638 151.23438Q24.065638 151.96875 24.331263 152.32812Q24.581263 152.6875 25.237513 152.85938L25.096888 153.89062Q24.440638 153.75 24.034388 153.42188Q23.628138 153.09375 23.409388 152.48438Q23.190638 151.875 23.190638 151.07812Q23.190638 150.28125 23.378138 149.78125Q23.565638 149.28125 23.846888 149.04688Q24.128138 148.8125 24.565638 148.71875Q24.831263 148.67188 25.534388 148.67188L26.940638 148.67188Q28.409388 148.67188 28.800013 148.60938Q29.190638 148.53125 29.550013 148.32812L29.550013 149.4375Q29.221888 149.59375 28.784388 149.64062ZM26.425013 149.73438Q26.659388 150.3125 26.831263 151.45312Q26.925013 152.10938 27.050013 152.375Q27.159388 152.64062 27.378138 152.79688Q27.596888 152.9375 27.878138 152.9375Q28.300013 152.9375 28.581263 152.625Q28.862513 152.29688 28.862513 151.6875Q28.862513 151.07812 28.596888 150.60938Q28.331263 150.125 27.862513 149.90625Q27.503138 149.73438 26.815638 149.73438L26.425013 149.73438ZM27.268763 142.64062L27.409388 141.60938Q28.471888 141.78125 29.081263 142.48438Q29.690638 143.1875 29.690638 144.20312Q29.690638 145.48438 28.862513 146.26562Q28.018763 147.03125 26.456263 147.03125Q25.456263 147.03125 24.706263 146.70312Q23.940638 146.35938 23.565638 145.6875Q23.190638 145.0 23.190638 144.1875Q23.190638 143.1875 23.706263 142.54688Q24.206263 141.89062 25.159388 141.70312L25.315638 142.73438Q24.690638 142.875 24.378138 143.25Q24.050013 143.625 24.050013 144.15625Q24.050013 144.95312 24.628138 145.45312Q25.190638 145.95312 26.425013 145.95312Q27.690638 145.95312 28.253138 145.46875Q28.815638 144.98438 28.815638 144.21875Q28.815638 143.59375 28.440638 143.1875Q28.065638 142.76562 27.268763 142.64062ZM22.175013 140.70312L20.956263 140.70312L20.956263 139.64062L22.175013 139.64062L22.175013 140.70312ZM29.550013 140.70312L23.331263 140.70312L23.331263 139.64062L29.550013 139.64062L29.550013 140.70312ZM22.190638 137.71875L20.956263 137.71875L20.956263 136.65625L22.190638 136.65625L22.190638 137.71875ZM31.971888 139.04688L31.065638 138.85938Q31.143763 138.53125 31.143763 138.35938Q31.143763 138.03125 30.925013 137.875Q30.721888 137.71875 29.862513 137.71875L23.331263 137.71875L23.331263 136.65625L29.893763 136.65625Q31.034388 136.65625 31.487513 136.95312Q32.08126 137.34375 32.08126 138.21875Q32.08126 138.65625 31.971888 139.04688ZM27.550013 130.45312L27.675013 129.35938Q28.628138 129.60938 29.159388 130.3125Q29.690638 131.01562 29.690638 132.09375Q29.690638 133.45312 28.846888 134.26562Q28.003138 135.0625 26.487513 135.0625Q24.925013 135.0625 24.065638 134.25Q23.190638 133.4375 23.190638 132.15625Q23.190638 130.90625 24.034388 130.125Q24.878138 129.32812 26.425013 129.32812Q26.518763 129.32812 26.706263 129.32812L26.706263 133.96875Q27.737513 133.90625 28.284388 133.39062Q28.815638 132.875 28.815638 132.09375Q28.815638 131.51562 28.518763 131.10938Q28.206263 130.6875 27.550013 130.45312ZM25.846888 133.90625L25.846888 130.4375Q25.050013 130.5 24.659388 130.82812Q24.050013 131.34375 24.050013 132.14062Q24.050013 132.875 24.534388 133.375Q25.018763 133.85938 25.846888 133.90625ZM26.440638 125.09375Q24.706263 125.09375 23.878138 124.140625Q23.190638 123.34375 23.190638 122.1875Q23.190638 120.90625 24.034388 120.09375Q24.862513 119.265625 26.346888 119.265625Q27.550013 119.265625 28.237513 119.625Q28.925013 119.984375 29.315638 120.6875Q29.690638 121.375 29.690638 122.1875Q29.690638 123.484375 28.862513 124.296875Q28.018763 125.09375 26.440638 125.09375ZM26.440638 124.015625Q27.628138 124.015625 28.221888 123.5Q28.815638 122.96875 28.815638 122.1875Q28.815638 121.390625 28.221888 120.875Q27.628138 120.359375 26.409388 120.359375Q25.253138 120.359375 24.659388 120.890625Q24.065638 121.40625 24.065638 122.1875Q24.065638 122.96875 24.659388 123.5Q25.237513 124.015625 26.440638 124.015625ZM29.550013 113.671875L28.768763 113.671875Q29.690638 114.265625 29.690638 115.40625Q29.690638 116.15625 29.284388 116.78125Q28.862513 117.40625 28.128138 117.75Q27.393763 118.09375 26.440638 118.09375Q25.518763 118.09375 24.753138 117.78125Q23.987513 117.46875 23.596888 116.84375Q23.190638 116.21875 23.190638 115.453125Q23.190638 114.890625 23.425013 114.453125Q23.659388 114.015625 24.034388 113.734375L20.956263 113.734375L20.956263 112.6875L29.550013 112.6875L29.550013 113.671875ZM26.440638 117.0Q27.643763 117.0 28.237513 116.5Q28.815638 116.0 28.815638 115.3125Q28.815638 114.625 28.253138 114.140625Q27.690638 113.65625 26.534388 113.65625Q25.253138 113.65625 24.659388 114.15625Q24.065638 114.640625 24.065638 115.359375Q24.065638 116.0625 24.643763 116.53125Q25.206263 117.0 26.440638 117.0ZM29.550013 104.03125L29.550013 105.078125L22.831263 105.078125Q23.190638 105.46875 23.565638 106.09375Q23.925013 106.703125 24.096888 107.1875L23.081263 107.1875Q22.659388 106.3125 22.081263 105.65625Q21.487513 104.984375 20.925013 104.703125L20.925013 104.03125L29.550013 104.03125ZM29.550013 93.671875L28.768763 93.671875Q29.690638 94.265625 29.690638 95.40625Q29.690638 96.15625 29.284388 96.78125Q28.862513 97.40625 28.128138 97.75Q27.393763 98.09375 26.440638 98.09375Q25.518763 98.09375 24.753138 97.78125Q23.987513 97.46875 23.596888 96.84375Q23.190638 96.21875 23.190638 95.453125Q23.190638 94.890625 23.425013 94.453125Q23.659388 94.015625 24.034388 93.734375L20.956263 93.734375L20.956263 92.6875L29.550013 92.6875L29.550013 93.671875ZM26.440638 97.0Q27.643763 97.0 28.237513 96.5Q28.815638 96.0 28.815638 95.3125Q28.815638 94.625 28.253138 94.140625Q27.690638 93.65625 26.534388 93.65625Q25.253138 93.65625 24.659388 94.15625Q24.065638 94.640625 24.065638 95.359375Q24.065638 96.0625 24.643763 96.53125Q25.206263 97.0 26.440638 97.0ZM26.440638 91.09375Q24.706263 91.09375 23.878138 90.140625Q23.190638 89.34375 23.190638 88.1875Q23.190638 86.90625 24.034388 86.09375Q24.862513 85.265625 26.346888 85.265625Q27.550013 85.265625 28.237513 85.625Q28.925013 85.984375 29.315638 86.6875Q29.690638 87.375 29.690638 88.1875Q29.690638 89.484375 28.862513 90.296875Q28.018763 91.09375 26.440638 91.09375ZM26.440638 90.015625Q27.628138 90.015625 28.221888 89.5Q28.815638 88.96875 28.815638 88.1875Q28.815638 87.390625 28.221888 86.875Q27.628138 86.359375 26.409388 86.359375Q25.253138 86.359375 24.659388 86.890625Q24.065638 87.40625 24.065638 88.1875Q24.065638 88.96875 24.659388 89.5Q25.237513 90.015625 26.440638 90.015625ZM27.284388 81.0L27.143763 79.9375Q28.034388 79.765625 28.440638 79.328125Q28.831263 78.890625 28.831263 78.265625Q28.831263 77.515625 28.315638 77.0Q27.800013 76.484375 27.034388 76.484375Q26.315638 76.484375 25.846888 76.96875Q25.362513 77.4375 25.362513 78.171875Q25.362513 78.46875 25.487513 78.921875L24.550013 78.796875Q24.565638 78.6875 24.565638 78.625Q24.565638 77.953125 24.221888 77.421875Q23.862513 76.875 23.128138 76.875Q22.550013 76.875 22.175013 77.265625Q21.784388 77.65625 21.784388 78.28125Q21.784388 78.890625 22.175013 79.3125Q22.565638 79.71875 23.331263 79.828125L23.143763 80.890625Q22.096888 80.703125 21.518763 80.015625Q20.925013 79.328125 20.925013 78.3125Q20.925013 77.609375 21.237513 77.015625Q21.534388 76.421875 22.050013 76.109375Q22.565638 75.796875 23.159388 75.796875Q23.706263 75.796875 24.175013 76.09375Q24.628138 76.390625 24.893763 76.96875Q25.065638 76.21875 25.628138 75.796875Q26.175013 75.375 27.018763 75.375Q28.143763 75.375 28.925013 76.203125Q29.706263 77.015625 29.706263 78.265625Q29.706263 79.390625 29.034388 80.140625Q28.346888 80.890625 27.284388 81.0Z" fill-rule="nonzero"/><path fill="#000000" d="M65.05 332.21564Q65.05 330.6844 65.3625 329.7625Q65.675 328.825 66.28438 328.325Q66.90938 327.825 67.84688 327.825Q68.53438 327.825 69.05 328.10626Q69.58125 328.3875 69.925 328.91876Q70.26875 329.4344 70.45625 330.1844Q70.64375 330.9344 70.64375 332.21564Q70.64375 333.73126 70.33125 334.65314Q70.03438 335.575 69.40938 336.09064Q68.8 336.59064 67.84688 336.59064Q66.6125 336.59064 65.89375 335.7Q65.05 334.6375 65.05 332.21564ZM66.12813 332.21564Q66.12813 334.325 66.62813 335.02814Q67.12813 335.73126 67.84688 335.73126Q68.58125 335.73126 69.06563 335.02814Q69.56563 334.325 69.56563 332.21564Q69.56563 330.09064 69.06563 329.40314Q68.58125 328.7 67.83125 328.7Q67.1125 328.7 66.675 329.3094Q66.12813 330.09064 66.12813 332.21564Z" fill-rule="nonzero"/><path fill="#000000" d="M69.01875 234.15L67.97188 234.15L67.97188 227.43124Q67.58125 227.79062 66.95625 228.16562Q66.34688 228.525 65.8625 228.69687L65.8625 227.68124Q66.7375 227.25937 67.39375 226.68124Q68.06563 226.0875 68.34688 225.525L69.01875 225.525L69.01875 234.15Z" fill-rule="nonzero"/><path fill="#000000" d="M70.59688 130.83438L70.59688 131.85L64.90938 131.85Q64.90938 131.475 65.03438 131.11563Q65.25313 130.5375 65.72188 129.975Q66.20625 129.4125 67.1125 128.67813Q68.51875 127.52188 69.00313 126.850006Q69.50313 126.17813 69.50313 125.58438Q69.50313 124.95938 69.05 124.537506Q68.59688 124.100006 67.87813 124.100006Q67.1125 124.100006 66.65938 124.55313Q66.20625 125.006256 66.19063 125.818756L65.1125 125.70938Q65.22188 124.49063 65.94063 123.86563Q66.675 123.225006 67.90938 123.225006Q69.14375 123.225006 69.8625 123.912506Q70.58125 124.600006 70.58125 125.61563Q70.58125 126.131256 70.3625 126.631256Q70.15938 127.11563 69.65938 127.67813Q69.175 128.225 68.05 129.17813Q67.09688 129.975 66.81563 130.27188Q66.55 130.55313 66.37813 130.83438L70.59688 130.83438Z" fill-rule="nonzero"/><path fill="#000000" d="M65.05 27.284374L66.1125 27.14375Q66.28438 28.034374 66.72188 28.440624Q67.15938 28.83125 67.78438 28.83125Q68.53438 28.83125 69.05 28.315624Q69.56563 27.8 69.56563 27.034374Q69.56563 26.315624 69.08125 25.846874Q68.6125 25.3625 67.87813 25.3625Q67.58125 25.3625 67.12813 25.4875L67.25313 24.55Q67.3625 24.565624 67.425 24.565624Q68.09688 24.565624 68.62813 24.221874Q69.175 23.8625 69.175 23.128124Q69.175 22.55 68.78438 22.175Q68.39375 21.784374 67.76875 21.784374Q67.15938 21.784374 66.7375 22.175Q66.33125 22.565624 66.22188 23.33125L65.15938 23.14375Q65.34688 22.096874 66.03438 21.51875Q66.72188 20.925 67.7375 20.925Q68.44063 20.925 69.03438 21.2375Q69.62813 21.534374 69.94063 22.05Q70.25313 22.565624 70.25313 23.159374Q70.25313 23.70625 69.95625 24.175Q69.65938 24.628124 69.08125 24.89375Q69.83125 25.065624 70.25313 25.628124Q70.675 26.175 70.675 27.01875Q70.675 28.14375 69.84688 28.925Q69.03438 29.70625 67.78438 29.70625Q66.65938 29.70625 65.90938 29.034374Q65.15938 28.346874 65.05 27.284374Z" fill-rule="nonzero"/><path fill="#000000" d="M132.97575 349.45L132.97575 348.3875L137.382 342.8875Q137.85075 342.3094 138.27263 341.8719L133.47575 341.8719L133.47575 340.85626L139.632 340.85626L139.632 341.8719L134.80388 347.825L134.28825 348.4344L139.77263 348.4344L139.77263 349.45L132.97575 349.45ZM144.78825 347.45L145.882 347.575Q145.632 348.52814 144.92888 349.0594Q144.22575 349.59064 143.14763 349.59064Q141.78825 349.59064 140.97575 348.7469Q140.17888 347.90314 140.17888 346.3875Q140.17888 344.825 140.99138 343.96564Q141.80388 343.09064 143.08513 343.09064Q144.33513 343.09064 145.11638 343.9344Q145.91325 344.77814 145.91325 346.325Q145.91325 346.41876 145.91325 346.60626L141.27263 346.60626Q141.33513 347.6375 141.85075 348.1844Q142.36638 348.71564 143.14763 348.71564Q143.72575 348.71564 144.132 348.41876Q144.55388 348.10626 144.78825 347.45ZM141.33513 345.7469L144.80388 345.7469Q144.74138 344.95 144.41325 344.5594Q143.89763 343.95 143.10075 343.95Q142.36638 343.95 141.86638 344.4344Q141.382 344.91876 141.33513 345.7469ZM147.52263 349.45L147.52263 343.23126L148.47575 343.23126L148.47575 344.16876Q148.83513 343.5125 149.132 343.3094Q149.4445 343.09064 149.8195 343.09064Q150.35075 343.09064 150.89763 343.41876L150.53825 344.40314Q150.14763 344.16876 149.77263 344.16876Q149.41325 344.16876 149.132 344.3875Q148.86638 344.59064 148.757 344.96564Q148.5695 345.52814 148.5695 346.1844L148.5695 349.45L147.52263 349.45ZM151.14763 346.34064Q151.14763 344.60626 152.10075 343.77814Q152.89763 343.09064 154.05388 343.09064Q155.33513 343.09064 156.14763 343.9344Q156.97575 344.7625 156.97575 346.2469Q156.97575 347.45 156.61638 348.1375Q156.257 348.825 155.55388 349.21564Q154.86638 349.59064 154.05388 349.59064Q152.757 349.59064 151.9445 348.7625Q151.14763 347.91876 151.14763 346.34064ZM152.22575 346.34064Q152.22575 347.52814 152.74138 348.1219Q153.27263 348.71564 154.05388 348.71564Q154.85075 348.71564 155.36638 348.1219Q155.882 347.52814 155.882 346.3094Q155.882 345.15314 155.35075 344.5594Q154.83513 343.96564 154.05388 343.96564Q153.27263 343.96564 152.74138 344.5594Q152.22575 345.1375 152.22575 346.34064ZM160.85075 349.45L160.85075 341.8719L158.02263 341.8719L158.02263 340.85626L164.83513 340.85626L164.83513 341.8719L161.99138 341.8719L161.99138 349.45L160.85075 349.45ZM165.53825 342.075L165.53825 340.85626L166.60075 340.85626L166.60075 342.075L165.53825 342.075ZM165.53825 349.45L165.53825 343.23126L166.60075 343.23126L166.60075 349.45L165.53825 349.45ZM172.78825 347.45L173.882 347.575Q173.632 348.52814 172.92888 349.0594Q172.22575 349.59064 171.14763 349.59064Q169.78825 349.59064 168.97575 348.7469Q168.17888 347.90314 168.17888 346.3875Q168.17888 344.825 168.99138 343.96564Q169.80388 343.09064 171.08513 343.09064Q172.33513 343.09064 173.11638 343.9344Q173.91325 344.77814 173.91325 346.325Q173.91325 346.41876 173.91325 346.60626L169.27263 346.60626Q169.33513 347.6375 169.85075 348.1844Q170.36638 348.71564 171.14763 348.71564Q171.72575 348.71564 172.132 348.41876Q172.55388 348.10626 172.78825 347.45ZM169.33513 345.7469L172.80388 345.7469Q172.74138 344.95 172.41325 344.5594Q171.89763 343.95 171.10075 343.95Q170.36638 343.95 169.86638 344.4344Q169.382 344.91876 169.33513 345.7469ZM175.52263 349.45L175.52263 343.23126L176.47575 343.23126L176.47575 344.16876Q176.83513 343.5125 177.132 343.3094Q177.4445 343.09064 177.8195 343.09064Q178.35075 343.09064 178.89763 343.41876L178.53825 344.40314Q178.14763 344.16876 177.77263 344.16876Q177.41325 344.16876 177.132 344.3875Q176.86638 344.59064 176.757 344.96564Q176.5695 345.52814 176.5695 346.1844L176.5695 349.45L175.52263 349.45Z" fill-rule="nonzero"/><path fill="#000000" d="M245.15858 345.2625Q245.15858 343.1219 246.29921 341.91876Q247.45546 340.7 249.26796 340.7Q250.47108 340.7 251.42421 341.27814Q252.37733 341.84064 252.87733 342.85626Q253.37733 343.8719 253.37733 345.16876Q253.37733 346.46564 252.84608 347.4969Q252.31483 348.52814 251.34608 349.0594Q250.39296 349.59064 249.26796 349.59064Q248.04921 349.59064 247.09608 349.0125Q246.14296 348.41876 245.64296 347.41876Q245.15858 346.40314 245.15858 345.2625ZM246.33046 345.27814Q246.33046 346.84064 247.15858 347.73126Q248.00233 348.6219 249.26796 348.6219Q250.54921 348.6219 251.37733 347.73126Q252.20546 346.825 252.20546 345.15314Q252.20546 344.10626 251.84608 343.325Q251.50233 342.54376 250.81483 342.1219Q250.12733 341.6844 249.28358 341.6844Q248.08046 341.6844 247.20546 342.5125Q246.33046 343.34064 246.33046 345.27814ZM254.37733 351.84064L254.37733 343.23126L255.33046 343.23126L255.33046 344.02814Q255.67421 343.5594 256.09607 343.325Q256.53357 343.09064 257.14294 343.09064Q257.93982 343.09064 258.5492 343.4969Q259.15857 343.90314 259.45544 344.65314Q259.76794 345.40314 259.76794 346.29376Q259.76794 347.2469 259.4242 348.0125Q259.09607 348.77814 258.43982 349.1844Q257.78357 349.59064 257.06482 349.59064Q256.53357 349.59064 256.1117 349.3719Q255.68983 349.1375 255.42421 348.8094L255.42421 351.84064L254.37733 351.84064ZM255.33046 346.3719Q255.33046 347.575 255.81483 348.15314Q256.2992 348.71564 256.9867 348.71564Q257.68982 348.71564 258.18982 348.1219Q258.68982 347.52814 258.68982 346.27814Q258.68982 345.09064 258.20544 344.5125Q257.72107 343.91876 257.03357 343.91876Q256.3617 343.91876 255.84608 344.54376Q255.33046 345.16876 255.33046 346.3719ZM265.62732 347.45L266.72107 347.575Q266.47107 348.52814 265.76794 349.0594Q265.06482 349.59064 263.9867 349.59064Q262.62732 349.59064 261.81482 348.7469Q261.01794 347.90314 261.01794 346.3875Q261.01794 344.825 261.83044 343.96564Q262.64294 343.09064 263.9242 343.09064Q265.1742 343.09064 265.95544 343.9344Q266.75232 344.77814 266.75232 346.325Q266.75232 346.41876 266.75232 346.60626L262.1117 346.60626Q262.1742 347.6375 262.68982 348.1844Q263.20544 348.71564 263.9867 348.71564Q264.56482 348.71564 264.97107 348.41876Q265.39294 348.10626 265.62732 347.45ZM262.1742 345.7469L265.64294 345.7469Q265.58044 344.95 265.25232 344.5594Q264.7367 343.95 263.93982 343.95Q263.20544 343.95 262.70544 344.4344Q262.22107 344.91876 262.1742 345.7469ZM268.37732 349.45L268.37732 343.23126L269.31482 343.23126L269.31482 344.10626Q270.00232 343.09064 271.2992 343.09064Q271.8617 343.09064 272.33044 343.29376Q272.81482 343.4969 273.0492 343.825Q273.28357 344.15314 273.37732 344.59064Q273.4242 344.8875 273.4242 345.6219L273.4242 349.45L272.37732 349.45L272.37732 345.66876Q272.37732 345.0125 272.25232 344.7Q272.12732 344.3875 271.81482 344.2Q271.50232 343.9969 271.08044 343.9969Q270.40857 343.9969 269.90857 344.4344Q269.4242 344.85626 269.4242 346.04376L269.4242 349.45L268.37732 349.45ZM277.95544 349.45L274.62732 340.85626L275.8617 340.85626L278.09607 347.10626Q278.3617 347.85626 278.5492 348.5125Q278.75232 347.8094 279.01794 347.10626L281.33044 340.85626L282.4867 340.85626L279.12732 349.45L277.95544 349.45ZM282.50232 349.45L282.50232 340.85626L285.75232 340.85626Q286.59607 340.85626 287.0492 340.9344Q287.68982 341.04376 288.1117 341.34064Q288.5492 341.6375 288.7992 342.16876Q289.06482 342.7 289.06482 343.34064Q289.06482 344.4344 288.3617 345.2Q287.6742 345.95 285.84607 345.95L283.64294 345.95L283.64294 349.45L282.50232 349.45ZM283.64294 344.95L285.8617 344.95Q286.97107 344.95 287.4242 344.54376Q287.89294 344.1219 287.89294 343.3719Q287.89294 342.84064 287.6117 342.46564Q287.34607 342.075 286.90857 341.95Q286.6117 341.8719 285.84607 341.8719L283.64294 341.8719L283.64294 344.95ZM290.50232 349.45L290.50232 340.85626L291.65857 340.85626L296.1742 347.60626L296.1742 340.85626L297.26794 340.85626L297.26794 349.45L296.09607 349.45L291.58044 342.7L291.58044 349.45L290.50232 349.45Z" fill-rule="nonzero"/><path fill="#000000" d="M360.3414 349.45L358.06015 340.85626L359.23203 340.85626L360.54453 346.4969Q360.74765 347.3719 360.9039 348.2469Q361.23203 346.8719 361.29453 346.65314L362.91953 340.85626L364.29453 340.85626L365.5289 345.2Q365.98203 346.825 366.20078 348.2469Q366.35703 347.4344 366.62265 346.3719L367.9664 340.85626L369.10703 340.85626L366.76328 349.45L365.6539 349.45L363.85703 342.90314Q363.62265 342.09064 363.57578 341.90314Q363.45078 342.48126 363.32578 342.90314L361.51328 349.45L360.3414 349.45ZM369.7164 342.075L369.7164 340.85626L370.7789 340.85626L370.7789 342.075L369.7164 342.075ZM369.7164 349.45L369.7164 343.23126L370.7789 343.23126L370.7789 349.45L369.7164 349.45ZM372.70078 349.45L372.70078 343.23126L373.6539 343.23126L373.6539 344.16876Q374.01328 343.5125 374.31015 343.3094Q374.62265 343.09064 374.99765 343.09064Q375.5289 343.09064 376.07578 343.41876L375.7164 344.40314Q375.32578 344.16876 374.95078 344.16876Q374.5914 344.16876 374.31015 344.3875Q374.04453 344.59064 373.93515 344.96564Q373.74765 345.52814 373.74765 346.1844L373.74765 349.45L372.70078 349.45ZM380.9664 347.45L382.06015 347.575Q381.81015 348.52814 381.10703 349.0594Q380.4039 349.59064 379.32578 349.59064Q377.9664 349.59064 377.1539 348.7469Q376.35703 347.90314 376.35703 346.3875Q376.35703 344.825 377.16953 343.96564Q377.98203 343.09064 379.26328 343.09064Q380.51328 343.09064 381.29453 343.9344Q382.0914 344.77814 382.0914 346.325Q382.0914 346.41876 382.0914 346.60626L377.45078 346.60626Q377.51328 347.6375 378.0289 348.1844Q378.54453 348.71564 379.32578 348.71564Q379.9039 348.71564 380.31015 348.41876Q380.73203 348.10626 380.9664 347.45ZM377.51328 345.7469L380.98203 345.7469Q380.91953 344.95 380.5914 344.5594Q380.07578 343.95 379.2789 343.95Q378.54453 343.95 378.04453 344.4344Q377.56015 344.91876 377.51328 345.7469ZM387.87265 346.075L387.87265 345.075L391.49765 345.0594L391.49765 348.2469Q390.66953 348.91876 389.7789 349.2625Q388.88828 349.59064 387.95078 349.59064Q386.68515 349.59064 385.63828 349.0594Q384.60703 348.5125 384.07578 347.4969Q383.56015 346.46564 383.56015 345.2Q383.56015 343.9344 384.07578 342.85626Q384.60703 341.7625 385.5914 341.2469Q386.57578 340.71564 387.85703 340.71564Q388.79453 340.71564 389.54453 341.0125Q390.29453 341.3094 390.7164 341.85626Q391.1539 342.3875 391.37265 343.2625L390.35703 343.54376Q390.1539 342.8875 389.85703 342.5125Q389.57578 342.1375 389.04453 341.91876Q388.51328 341.6844 387.87265 341.6844Q387.0914 341.6844 386.51328 341.91876Q385.95078 342.15314 385.5914 342.54376Q385.24765 342.9344 385.06015 343.40314Q384.73203 344.2 384.73203 345.1219Q384.73203 346.27814 385.12265 347.0594Q385.5289 347.825 386.2789 348.2Q387.0289 348.575 387.88828 348.575Q388.62265 348.575 389.32578 348.29376Q390.0289 347.9969 390.38828 347.6844L390.38828 346.075L387.87265 346.075ZM396.79453 349.45L396.79453 348.52814Q396.06015 349.59064 394.81015 349.59064Q394.26328 349.59064 393.7789 349.3875Q393.31015 349.16876 393.07578 348.85626Q392.8414 348.52814 392.74765 348.0594Q392.68515 347.7625 392.68515 347.075L392.68515 343.23126L393.74765 343.23126L393.74765 346.6844Q393.74765 347.4969 393.81015 347.79376Q393.9039 348.2 394.2164 348.45Q394.54453 348.6844 395.0289 348.6844Q395.49765 348.6844 395.9039 348.45Q396.32578 348.2 396.49765 347.77814Q396.68515 347.35626 396.68515 346.5594L396.68515 343.23126L397.73203 343.23126L397.73203 349.45L396.79453 349.45ZM403.7789 348.6844Q403.18515 349.1844 402.63828 349.3875Q402.10703 349.59064 401.48203 349.59064Q400.45078 349.59064 399.9039 349.09064Q399.35703 348.59064 399.35703 347.8094Q399.35703 347.35626 399.56015 346.98126Q399.76328 346.59064 400.10703 346.3719Q400.45078 346.1375 400.87265 346.02814Q401.16953 345.9344 401.81015 345.85626Q403.07578 345.71564 403.68515 345.4969Q403.68515 345.27814 403.68515 345.23126Q403.68515 344.575 403.38828 344.3094Q402.98203 343.96564 402.18515 343.96564Q401.45078 343.96564 401.0914 344.23126Q400.73203 344.48126 400.56015 345.1375L399.5289 344.9969Q399.66953 344.34064 399.99765 343.9344Q400.32578 343.52814 400.93515 343.3094Q401.54453 343.09064 402.3414 343.09064Q403.13828 343.09064 403.63828 343.27814Q404.13828 343.46564 404.37265 343.7469Q404.60703 344.02814 404.70078 344.46564Q404.74765 344.73126 404.74765 345.4344L404.74765 346.84064Q404.74765 348.3094 404.81015 348.7Q404.88828 349.09064 405.0914 349.45L403.98203 349.45Q403.82578 349.1219 403.7789 348.6844ZM403.68515 346.325Q403.10703 346.5594 401.9664 346.73126Q401.31015 346.825 401.04453 346.95Q400.7789 347.0594 400.62265 347.27814Q400.48203 347.4969 400.48203 347.77814Q400.48203 348.2 400.79453 348.48126Q401.12265 348.7625 401.73203 348.7625Q402.3414 348.7625 402.81015 348.4969Q403.29453 348.23126 403.51328 347.7625Q403.68515 347.40314 403.68515 346.71564L403.68515 346.325ZM406.70078 349.45L406.70078 343.23126L407.6539 343.23126L407.6539 344.16876Q408.01328 343.5125 408.31015 343.3094Q408.62265 343.09064 408.99765 343.09064Q409.5289 343.09064 410.07578 343.41876L409.7164 344.40314Q409.32578 344.16876 408.95078 344.16876Q408.5914 344.16876 408.31015 344.3875Q408.04453 344.59064 407.93515 344.96564Q407.74765 345.52814 407.74765 346.1844L407.74765 349.45L406.70078 349.45ZM414.74765 349.45L414.74765 348.66876Q414.1539 349.59064 413.01328 349.59064Q412.26328 349.59064 411.63828 349.1844Q411.01328 348.7625 410.66953 348.02814Q410.32578 347.29376 410.32578 346.34064Q410.32578 345.41876 410.63828 344.65314Q410.95078 343.8875 411.57578 343.4969Q412.20078 343.09064 412.9664 343.09064Q413.5289 343.09064 413.9664 343.325Q414.4039 343.5594 414.68515 343.9344L414.68515 340.85626L415.73203 340.85626L415.73203 349.45L414.74765 349.45ZM411.41953 346.34064Q411.41953 347.54376 411.91953 348.1375Q412.41953 348.71564 413.10703 348.71564Q413.79453 348.71564 414.2789 348.15314Q414.76328 347.59064 414.76328 346.4344Q414.76328 345.15314 414.26328 344.5594Q413.7789 343.96564 413.06015 343.96564Q412.35703 343.96564 411.88828 344.54376Q411.41953 345.10626 411.41953 346.34064Z" fill-rule="nonzero"/><path fill="#000000" d="M471.3836 349.45L471.3836 340.85626L472.5086 340.85626L472.5086 349.45L471.3836 349.45ZM474.1336 349.45L474.1336 340.85626L475.27423 340.85626L475.27423 345.1219L479.53986 340.85626L481.08673 340.85626L477.47736 344.34064L481.24298 349.45L479.74298 349.45L476.68048 345.10626L475.27423 346.46564L475.27423 349.45L474.1336 349.45ZM482.21173 349.45L482.21173 340.85626L488.41486 340.85626L488.41486 341.8719L483.35236 341.8719L483.35236 344.4969L488.10236 344.4969L488.10236 345.5125L483.35236 345.5125L483.35236 348.4344L488.61798 348.4344L488.61798 349.45L482.21173 349.45ZM491.77423 349.45L489.41486 343.23126L490.52423 343.23126L491.86798 346.95Q492.0711 347.5594 492.2586 348.2Q492.39923 347.71564 492.64923 347.02814L494.03986 343.23126L495.11798 343.23126L492.7586 349.45L491.77423 349.45ZM500.30548 348.4344L500.30548 349.45L494.61798 349.45Q494.61798 349.075 494.74298 348.71564Q494.96173 348.1375 495.43048 347.575Q495.91486 347.0125 496.8211 346.27814Q498.22736 345.1219 498.71173 344.45Q499.21173 343.77814 499.21173 343.1844Q499.21173 342.5594 498.7586 342.1375Q498.30548 341.7 497.58673 341.7Q496.8211 341.7 496.36798 342.15314Q495.91486 342.60626 495.89923 343.41876L494.8211 343.3094Q494.93048 342.09064 495.64923 341.46564Q496.3836 340.825 497.61798 340.825Q498.85236 340.825 499.5711 341.5125Q500.28986 342.2 500.28986 343.21564Q500.28986 343.73126 500.0711 344.23126Q499.86798 344.71564 499.36798 345.27814Q498.8836 345.825 497.7586 346.77814Q496.80548 347.575 496.52423 347.8719Q496.2586 348.15314 496.08673 348.4344L500.30548 348.4344ZM501.2586 349.59064L503.74298 340.71564L504.58673 340.71564L502.10236 349.59064L501.2586 349.59064ZM505.3836 349.45L505.3836 340.85626L506.5086 340.85626L506.5086 349.45L505.3836 349.45ZM508.18048 349.45L508.18048 340.85626L511.43048 340.85626Q512.27423 340.85626 512.72736 340.9344Q513.368 341.04376 513.78986 341.34064Q514.22736 341.6375 514.47736 342.16876Q514.743 342.7 514.743 343.34064Q514.743 344.4344 514.03986 345.2Q513.35236 345.95 511.52423 345.95L509.3211 345.95L509.3211 349.45L508.18048 349.45ZM509.3211 344.95L511.53986 344.95Q512.64923 344.95 513.10236 344.54376Q513.5711 344.1219 513.5711 343.3719Q513.5711 342.84064 513.28986 342.46564Q513.02423 342.075 512.58673 341.95Q512.28986 341.8719 511.52423 341.8719L509.3211 341.8719L509.3211 344.95ZM515.8055 346.6844L516.868 346.59064Q516.9461 347.2469 517.22736 347.65314Q517.5086 348.0594 518.08673 348.325Q518.6805 348.575 519.41486 348.575Q520.0555 348.575 520.5555 348.3875Q521.0555 348.1844 521.28986 347.85626Q521.53986 347.5125 521.53986 347.1219Q521.53986 346.71564 521.3055 346.41876Q521.0711 346.10626 520.53986 345.90314Q520.1805 345.7625 518.993 345.48126Q517.8211 345.2 517.35236 344.95Q516.72736 344.6219 516.4305 344.15314Q516.1336 343.66876 516.1336 343.075Q516.1336 342.4344 516.493 341.8719Q516.868 341.29376 517.5711 341.0125Q518.28986 340.71564 519.14923 340.71564Q520.10236 340.71564 520.83673 341.02814Q521.5711 341.325 521.96173 341.9344Q522.35236 342.52814 522.3836 343.27814L521.28986 343.35626Q521.1961 342.54376 520.6805 342.1375Q520.1805 341.71564 519.1961 341.71564Q518.16486 341.71564 517.6961 342.09064Q517.22736 342.46564 517.22736 342.9969Q517.22736 343.46564 517.5555 343.7625Q517.8836 344.0594 519.2586 344.3719Q520.64923 344.6844 521.16486 344.91876Q521.91486 345.27814 522.27423 345.8094Q522.6336 346.325 522.6336 347.02814Q522.6336 347.71564 522.243 348.325Q521.85236 348.91876 521.118 349.2625Q520.3836 349.59064 519.46173 349.59064Q518.28986 349.59064 517.493 349.2625Q516.71173 348.91876 516.2586 348.23126Q515.8211 347.54376 515.8055 346.6844ZM528.3055 347.45L529.39923 347.575Q529.14923 348.52814 528.4461 349.0594Q527.743 349.59064 526.66486 349.59064Q525.3055 349.59064 524.493 348.7469Q523.6961 347.90314 523.6961 346.3875Q523.6961 344.825 524.5086 343.96564Q525.3211 343.09064 526.60236 343.09064Q527.85236 343.09064 528.6336 343.9344Q529.4305 344.77814 529.4305 346.325Q529.4305 346.41876 529.4305 346.60626L524.78986 346.60626Q524.85236 347.6375 525.368 348.1844Q525.8836 348.71564 526.66486 348.71564Q527.243 348.71564 527.64923 348.41876Q528.0711 348.10626 528.3055 347.45ZM524.85236 345.7469L528.3211 345.7469Q528.2586 344.95 527.9305 344.5594Q527.41486 343.95 526.618 343.95Q525.8836 343.95 525.3836 344.4344Q524.89923 344.91876 524.85236 345.7469ZM535.118 347.16876L536.14923 347.3094Q535.97736 348.3719 535.27423 348.98126Q534.5711 349.59064 533.5555 349.59064Q532.27423 349.59064 531.493 348.7625Q530.72736 347.91876 530.72736 346.35626Q530.72736 345.35626 531.0555 344.60626Q531.39923 343.84064 532.0711 343.46564Q532.7586 343.09064 533.5711 343.09064Q534.5711 343.09064 535.21173 343.60626Q535.868 344.10626 536.0555 345.0594L535.02423 345.21564Q534.8836 344.59064 534.5086 344.27814Q534.1336 343.95 533.60236 343.95Q532.8055 343.95 532.3055 344.52814Q531.8055 345.09064 531.8055 346.325Q531.8055 347.59064 532.28986 348.15314Q532.77423 348.71564 533.53986 348.71564Q534.16486 348.71564 534.5711 348.34064Q534.993 347.96564 535.118 347.16876Z" fill-rule="nonzero"/></svg>