<svg version="1.1" viewBox="0.0 0.0 600.0 371.0" fill="none" stroke="none" stroke-linecap="square" stroke-miterlimit="10" width="600" height="371" xmlns:xlink="http://www.w3.org/1999/xlink" xmlns="http://www.w3.org/2000/svg"><path fill="#ffffff" d="M0 0L600.0 0L600.0 371.0L0 371.0L0 0Z" fill-rule="nonzero"/><path stroke="#333333" stroke-width="1.0" stroke-linecap="butt" d="M77.5 332.5L581.5 332.5" fill-rule="nonzero"/><path stroke="#cccccc" stroke-width="1.0" stroke-linecap="butt" d="M77.5 238.5L581.5 238.5" fill-rule="nonzero"/><path stroke="#cccccc" stroke-width="1.0" stroke-linecap="butt" d="M77.5 145.5L581.5 145.5" fill-rule="nonzero"/><path stroke="#cccccc" stroke-width="1.0" stroke-linecap="butt" d="M77.5 51.5L581.5 51.5" fill-rule="nonzero"/><clipPath id="id_0"><path d="M77.55 51.916668L581.45 51.916668L581.45 332.45L77.55 332.45L77.55 51.916668Z" clip-rule="nonzero"/></clipPath><path stroke="#000000" stroke-width="2.0" stroke-linecap="butt" stroke-opacity="0.0" clip-path="url(#id_0)" d="M194.0 332.0L119.0 332.0L119.0 332.0C119.0 332.0 119.0 332.0 119.0 332.0L194.0 332.0C194.0 332.0 194.0 332.0 194.0 332.0Z" fill-rule="nonzero"/><path fill="#4285f4" clip-path="url(#id_0)" d="M194.0 332.0L119.0 332.0L119.0 332.0C119.0 332.0 119.0 332.0 119.0 332.0L194.0 332.0C194.0 332.0 194.0 332.0 194.0 332.0Z" fill-rule="nonzero"/><path stroke="#000000" stroke-width="2.0" stroke-linecap="butt" stroke-opacity="0.0" clip-path="url(#id_0)" d="M310.0 332.0L235.0 332.0L235.0 328.0C235.0 326.89542 235.89543 326.0 237.0 326.0L308.0 326.0C309.10458 326.0 310.0 326.89542 310.0 328.0Z" fill-rule="nonzero"/><path fill="#4285f4" clip-path="url(#id_0)" d="M310.0 332.0L235.0 332.0L235.0 328.0C235.0 326.89542 235.89543 326.0 237.0 326.0L308.0 326.0C309.10458 326.0 310.0 326.89542 310.0 328.0Z" fill-rule="nonzero"/><path stroke="#000000" stroke-width="2.0" stroke-linecap="butt" stroke-opacity="0.0" clip-path="url(#id_0)" d="M425.0 332.0L350.0 332.0L350.0 332.0L425.0 332.0Z" fill-rule="nonzero"/><path fill="#4285f4" clip-path="url(#id_0)" d="M425.0 332.0L350.0 332.0L350.0 332.0L425.0 332.0Z" fill-rule="nonzero"/><path stroke="#000000" stroke-width="2.0" stroke-linecap="butt" stroke-opacity="0.0" clip-path="url(#id_0)" d="M541.0 332.0L466.0 332.0L466.0 60.0C466.0 58.89543 466.89542 58.0 468.0 58.0L539.0 58.0C540.10455 58.0 541.0 58.89543 541.0 60.0Z" fill-rule="nonzero"/><path fill="#4285f4" clip-path="url(#id_0)" d="M541.0 332.0L466.0 332.0L466.0 60.0C466.0 58.89543 466.89542 58.0 468.0 58.0L539.0 58.0C540.10455 58.0 541.0 58.89543 541.0 60.0Z" fill-rule="nonzero"/><path stroke="#ea4335" stroke-width="2.0" stroke-linecap="butt" clip-path="url(#id_0)" d="M155.74138 329.64465L271.58047 329.64465L387.41953 329.64465L503.2586 329.64465" fill-rule="nonzero"/><path fill="#000000" fill-opacity="0.0" clip-path="url(#id_0)" d="M158.74138 329.64465C158.74138 331.3015 157.39824 332.64465 155.74138 332.64465C154.08452 332.64465 152.74138 331.3015 152.74138 329.64465C152.74138 327.98782 154.08452 326.64465 155.74138 326.64465C157.39824 326.64465 158.74138 327.98782 158.74138 329.64465Z" fill-rule="nonzero"/><path fill="#000000" fill-opacity="0.0" clip-path="url(#id_0)" d="M274.58047 329.64465C274.58047 331.3015 273.2373 332.64465 271.58047 332.64465C269.9236 332.64465 268.58047 331.3015 268.58047 329.64465C268.58047 327.98782 269.9236 326.64465 271.58047 326.64465C273.2373 326.64465 274.58047 327.98782 274.58047 329.64465Z" fill-rule="nonzero"/><path fill="#000000" fill-opacity="0.0" clip-path="url(#id_0)" d="M390.41953 329.64465C390.41953 331.3015 389.0764 332.64465 387.41953 332.64465C385.7627 332.64465 384.41953 331.3015 384.41953 329.64465C384.41953 327.98782 385.7627 326.64465 387.41953 326.64465C389.0764 326.64465 390.41953 327.98782 390.41953 329.64465Z" fill-rule="nonzero"/><path fill="#000000" fill-opacity="0.0" clip-path="url(#id_0)" d="M506.2586 329.64465C506.2586 331.3015 504.91547 332.64465 503.2586 332.64465C501.60178 332.64465 500.2586 331.3015 500.2586 329.64465C500.2586 327.98782 501.60178 326.64465 503.2586 326.64465C504.91547 326.64465 506.2586 327.98782 506.2586 329.64465Z" fill-rule="nonzero"/><path stroke="#ffffff" stroke-width="3.0" stroke-linejoin="round" stroke-linecap="round" d="M150.0625 313.43533Q150.0625 315.34158 149.40625 316.27908Q148.76562 317.20096 147.375 317.20096Q146.01562 317.20096 145.35938 316.2947Q144.70312 315.38846 144.67188 313.57596L144.67188 312.13846Q144.67188 310.24783 145.3125 309.34158Q145.96875 308.4197 147.35938 308.4197Q148.73438 308.4197 149.39062 309.31033Q150.04688 310.18533 150.0625 312.02908L150.0625 313.43533ZM148.96875 311.95096Q148.96875 310.57596 148.57812 309.95096Q148.20312 309.31033 147.35938 309.31033Q146.53125 309.31033 146.14062 309.95096Q145.76562 310.57596 145.76562 311.87283L145.76562 313.6072Q145.76562 314.9822 146.15625 315.65408Q146.5625 316.31033 147.375 316.31033Q148.17188 316.31033 148.5625 315.68533Q148.95312 315.06033 148.96875 313.7322L148.96875 311.95096ZM151.84375 316.51346Q151.84375 316.2322 152.0 316.0447Q152.17188 315.8572 152.5 315.8572Q152.84375 315.8572 153.01562 316.0447Q153.1875 316.2322 153.1875 316.51346Q153.1875 316.77908 153.01562 316.96658Q152.84375 317.13846 152.5 317.13846Q152.17188 317.13846 152.0 316.96658Q151.84375 316.77908 151.84375 316.51346ZM160.0625 313.43533Q160.0625 315.34158 159.40625 316.27908Q158.76562 317.20096 157.375 317.20096Q156.01562 317.20096 155.35938 316.2947Q154.70312 315.38846 154.67188 313.57596L154.67188 312.13846Q154.67188 310.24783 155.3125 309.34158Q155.96875 308.4197 157.35938 308.4197Q158.73438 308.4197 159.39062 309.31033Q160.04688 310.18533 160.0625 312.02908L160.0625 313.43533ZM158.96875 311.95096Q158.96875 310.57596 158.57812 309.95096Q158.20312 309.31033 157.35938 309.31033Q156.53125 309.31033 156.14062 309.95096Q155.76562 310.57596 155.76562 311.87283L155.76562 313.6072Q155.76562 314.9822 156.15625 315.65408Q156.5625 316.31033 157.375 316.31033Q158.17188 316.31033 158.5625 315.68533Q158.95312 315.06033 158.96875 313.7322L158.96875 311.95096ZM166.28125 314.21658L167.46875 314.21658L167.46875 315.09158L166.28125 315.09158L166.28125 317.07596L165.20312 317.07596L165.20312 315.09158L161.3125 315.09158L161.3125 314.45096L165.125 308.5447L166.28125 308.5447L166.28125 314.21658ZM162.54688 314.21658L165.20312 314.21658L165.20312 310.02908L165.0625 310.26346L162.54688 314.21658Z" fill-rule="nonzero"/><path fill="#4285f4" d="M150.0625 313.43533Q150.0625 315.34158 149.40625 316.27908Q148.76562 317.20096 147.375 317.20096Q146.01562 317.20096 145.35938 316.2947Q144.70312 315.38846 144.67188 313.57596L144.67188 312.13846Q144.67188 310.24783 145.3125 309.34158Q145.96875 308.4197 147.35938 308.4197Q148.73438 308.4197 149.39062 309.31033Q150.04688 310.18533 150.0625 312.02908L150.0625 313.43533ZM148.96875 311.95096Q148.96875 310.57596 148.57812 309.95096Q148.20312 309.31033 147.35938 309.31033Q146.53125 309.31033 146.14062 309.95096Q145.76562 310.57596 145.76562 311.87283L145.76562 313.6072Q145.76562 314.9822 146.15625 315.65408Q146.5625 316.31033 147.375 316.31033Q148.17188 316.31033 148.5625 315.68533Q148.95312 315.06033 148.96875 313.7322L148.96875 311.95096ZM151.84375 316.51346Q151.84375 316.2322 152.0 316.0447Q152.17188 315.8572 152.5 315.8572Q152.84375 315.8572 153.01562 316.0447Q153.1875 316.2322 153.1875 316.51346Q153.1875 316.77908 153.01562 316.96658Q152.84375 317.13846 152.5 317.13846Q152.17188 317.13846 152.0 316.96658Q151.84375 316.77908 151.84375 316.51346ZM160.0625 313.43533Q160.0625 315.34158 159.40625 316.27908Q158.76562 317.20096 157.375 317.20096Q156.01562 317.20096 155.35938 316.2947Q154.70312 315.38846 154.67188 313.57596L154.67188 312.13846Q154.67188 310.24783 155.3125 309.34158Q155.96875 308.4197 157.35938 308.4197Q158.73438 308.4197 159.39062 309.31033Q160.04688 310.18533 160.0625 312.02908L160.0625 313.43533ZM158.96875 311.95096Q158.96875 310.57596 158.57812 309.95096Q158.20312 309.31033 157.35938 309.31033Q156.53125 309.31033 156.14062 309.95096Q155.76562 310.57596 155.76562 311.87283L155.76562 313.6072Q155.76562 314.9822 156.15625 315.65408Q156.5625 316.31033 157.375 316.31033Q158.17188 316.31033 158.5625 315.68533Q158.95312 315.06033 158.96875 313.7322L158.96875 311.95096ZM166.28125 314.21658L167.46875 314.21658L167.46875 315.09158L166.28125 315.09158L166.28125 317.07596L165.20312 317.07596L165.20312 315.09158L161.3125 315.09158L161.3125 314.45096L165.125 308.5447L166.28125 308.5447L166.28125 314.21658ZM162.54688 314.21658L165.20312 314.21658L165.20312 310.02908L165.0625 310.26346L162.54688 314.21658Z" fill-rule="nonzero"/><path stroke="#ffffff" stroke-width="3.0" stroke-linejoin="round" stroke-linecap="round" d="M266.0625 307.45062Q266.0625 309.35687 265.40625 310.29437Q264.76562 311.21625 263.375 311.21625Q262.01562 311.21625 261.35938 310.31Q260.70312 309.40375 260.67188 307.59125L260.67188 306.15375Q260.67188 304.26312 261.3125 303.35687Q261.96875 302.435 263.35938 302.435Q264.73438 302.435 265.39062 303.32562Q266.04688 304.20062 266.0625 306.04437L266.0625 307.45062ZM264.96875 305.96625Q264.96875 304.59125 264.57812 303.96625Q264.20312 303.32562 263.35938 303.32562Q262.53125 303.32562 262.14062 303.96625Q261.76562 304.59125 261.76562 305.88812L261.76562 307.6225Q261.76562 308.9975 262.15625 309.66937Q262.5625 310.32562 263.375 310.32562Q264.17188 310.32562 264.5625 309.70062Q264.95312 309.07562 264.96875 307.7475L264.96875 305.96625ZM267.84375 310.52875Q267.84375 310.2475 268.0 310.06Q268.17188 309.8725 268.5 309.8725Q268.84375 309.8725 269.01562 310.06Q269.1875 310.2475 269.1875 310.52875Q269.1875 310.79437 269.01562 310.98187Q268.84375 311.15375 268.5 311.15375Q268.17188 311.15375 268.0 310.98187Q267.84375 310.79437 267.84375 310.52875ZM274.96875 302.56L274.96875 303.46625L274.76562 303.46625Q273.5 303.4975 272.75 304.23187Q272.0 304.95062 271.875 306.26312Q272.5625 305.4975 273.71875 305.4975Q274.82812 305.4975 275.5 306.27875Q276.17188 307.06 276.17188 308.31Q276.17188 309.6225 275.45312 310.41937Q274.73438 311.21625 273.51562 311.21625Q272.29688 311.21625 271.53125 310.27875Q270.78125 309.32562 270.78125 307.84125L270.78125 307.435Q270.78125 305.07562 271.78125 303.82562Q272.78125 302.57562 274.76562 302.56L274.96875 302.56ZM273.54688 306.40375Q272.98438 306.40375 272.51562 306.73187Q272.04688 307.06 271.85938 307.57562L271.85938 307.96625Q271.85938 309.02875 272.32812 309.66937Q272.8125 310.31 273.51562 310.31Q274.25 310.31 274.67188 309.77875Q275.09375 309.23187 275.09375 308.35687Q275.09375 307.48187 274.67188 306.95062Q274.25 306.40375 273.54688 306.40375ZM282.89062 304.77875Q282.89062 305.41937 282.54688 305.91937Q282.20312 306.41937 281.64062 306.70062Q282.29688 306.98187 282.6875 307.54437Q283.07812 308.09125 283.07812 308.79437Q283.07812 309.88812 282.32812 310.56Q281.59375 311.21625 280.375 311.21625Q279.14062 311.21625 278.39062 310.56Q277.65625 309.88812 277.65625 308.79437Q277.65625 308.09125 278.03125 307.54437Q278.40625 306.98187 279.07812 306.70062Q278.51562 306.41937 278.1875 305.91937Q277.85938 305.41937 277.85938 304.77875Q277.85938 303.70062 278.54688 303.07562Q279.23438 302.435 280.375 302.435Q281.5 302.435 282.1875 303.07562Q282.89062 303.70062 282.89062 304.77875ZM282.0 308.76312Q282.0 308.04437 281.54688 307.60687Q281.09375 307.15375 280.35938 307.15375Q279.625 307.15375 279.17188 307.60687Q278.73438 308.04437 278.73438 308.77875Q278.73438 309.4975 279.17188 309.91937Q279.60938 310.32562 280.375 310.32562Q281.125 310.32562 281.5625 309.90375Q282.0 309.48187 282.0 308.76312ZM280.375 303.32562Q279.73438 303.32562 279.32812 303.73187Q278.9375 304.1225 278.9375 304.81Q278.9375 305.45062 279.32812 305.85687Q279.71875 306.26312 280.35938 306.26312Q281.01562 306.26312 281.40625 305.85687Q281.79688 305.45062 281.79688 304.81Q281.79688 304.15375 281.39062 303.7475Q280.98438 303.32562 280.375 303.32562Z" fill-rule="nonzero"/><path fill="#4285f4" d="M266.0625 307.45062Q266.0625 309.35687 265.40625 310.29437Q264.76562 311.21625 263.375 311.21625Q262.01562 311.21625 261.35938 310.31Q260.70312 309.40375 260.67188 307.59125L260.67188 306.15375Q260.67188 304.26312 261.3125 303.35687Q261.96875 302.435 263.35938 302.435Q264.73438 302.435 265.39062 303.32562Q266.04688 304.20062 266.0625 306.04437L266.0625 307.45062ZM264.96875 305.96625Q264.96875 304.59125 264.57812 303.96625Q264.20312 303.32562 263.35938 303.32562Q262.53125 303.32562 262.14062 303.96625Q261.76562 304.59125 261.76562 305.88812L261.76562 307.6225Q261.76562 308.9975 262.15625 309.66937Q262.5625 310.32562 263.375 310.32562Q264.17188 310.32562 264.5625 309.70062Q264.95312 309.07562 264.96875 307.7475L264.96875 305.96625ZM267.84375 310.52875Q267.84375 310.2475 268.0 310.06Q268.17188 309.8725 268.5 309.8725Q268.84375 309.8725 269.01562 310.06Q269.1875 310.2475 269.1875 310.52875Q269.1875 310.79437 269.01562 310.98187Q268.84375 311.15375 268.5 311.15375Q268.17188 311.15375 268.0 310.98187Q267.84375 310.79437 267.84375 310.52875ZM274.96875 302.56L274.96875 303.46625L274.76562 303.46625Q273.5 303.4975 272.75 304.23187Q272.0 304.95062 271.875 306.26312Q272.5625 305.4975 273.71875 305.4975Q274.82812 305.4975 275.5 306.27875Q276.17188 307.06 276.17188 308.31Q276.17188 309.6225 275.45312 310.41937Q274.73438 311.21625 273.51562 311.21625Q272.29688 311.21625 271.53125 310.27875Q270.78125 309.32562 270.78125 307.84125L270.78125 307.435Q270.78125 305.07562 271.78125 303.82562Q272.78125 302.57562 274.76562 302.56L274.96875 302.56ZM273.54688 306.40375Q272.98438 306.40375 272.51562 306.73187Q272.04688 307.06 271.85938 307.57562L271.85938 307.96625Q271.85938 309.02875 272.32812 309.66937Q272.8125 310.31 273.51562 310.31Q274.25 310.31 274.67188 309.77875Q275.09375 309.23187 275.09375 308.35687Q275.09375 307.48187 274.67188 306.95062Q274.25 306.40375 273.54688 306.40375ZM282.89062 304.77875Q282.89062 305.41937 282.54688 305.91937Q282.20312 306.41937 281.64062 306.70062Q282.29688 306.98187 282.6875 307.54437Q283.07812 308.09125 283.07812 308.79437Q283.07812 309.88812 282.32812 310.56Q281.59375 311.21625 280.375 311.21625Q279.14062 311.21625 278.39062 310.56Q277.65625 309.88812 277.65625 308.79437Q277.65625 308.09125 278.03125 307.54437Q278.40625 306.98187 279.07812 306.70062Q278.51562 306.41937 278.1875 305.91937Q277.85938 305.41937 277.85938 304.77875Q277.85938 303.70062 278.54688 303.07562Q279.23438 302.435 280.375 302.435Q281.5 302.435 282.1875 303.07562Q282.89062 303.70062 282.89062 304.77875ZM282.0 308.76312Q282.0 308.04437 281.54688 307.60687Q281.09375 307.15375 280.35938 307.15375Q279.625 307.15375 279.17188 307.60687Q278.73438 308.04437 278.73438 308.77875Q278.73438 309.4975 279.17188 309.91937Q279.60938 310.32562 280.375 310.32562Q281.125 310.32562 281.5625 309.90375Q282.0 309.48187 282.0 308.76312ZM280.375 303.32562Q279.73438 303.32562 279.32812 303.73187Q278.9375 304.1225 278.9375 304.81Q278.9375 305.45062 279.32812 305.85687Q279.71875 306.26312 280.35938 306.26312Q281.01562 306.26312 281.40625 305.85687Q281.79688 305.45062 281.79688 304.81Q281.79688 304.15375 281.39062 303.7475Q280.98438 303.32562 280.375 303.32562Z" fill-rule="nonzero"/><path stroke="#ffffff" stroke-width="3.0" stroke-linejoin="round" stroke-linecap="round" d="M389.5625 313.8094Q389.5625 315.71564 388.90625 316.65314Q388.26562 317.575 386.875 317.575Q385.51562 317.575 384.85938 316.66876Q384.20312 315.7625 384.17188 313.95L384.17188 312.5125Q384.17188 310.6219 384.8125 309.71564Q385.46875 308.79376 386.85938 308.79376Q388.23438 308.79376 388.89062 309.6844Q389.54688 310.5594 389.5625 312.40314L389.5625 313.8094ZM388.46875 312.325Q388.46875 310.95 388.07812 310.325Q387.70312 309.6844 386.85938 309.6844Q386.03125 309.6844 385.64062 310.325Q385.26562 310.95 385.26562 312.2469L385.26562 313.98126Q385.26562 315.35626 385.65625 316.02814Q386.0625 316.6844 386.875 316.6844Q387.67188 316.6844 388.0625 316.0594Q388.45312 315.4344 388.46875 314.10626L388.46875 312.325Z" fill-rule="nonzero"/><path fill="#4285f4" d="M389.5625 313.8094Q389.5625 315.71564 388.90625 316.65314Q388.26562 317.575 386.875 317.575Q385.51562 317.575 384.85938 316.66876Q384.20312 315.7625 384.17188 313.95L384.17188 312.5125Q384.17188 310.6219 384.8125 309.71564Q385.46875 308.79376 386.85938 308.79376Q388.23438 308.79376 388.89062 309.6844Q389.54688 310.5594 389.5625 312.40314L389.5625 313.8094ZM388.46875 312.325Q388.46875 310.95 388.07812 310.325Q387.70312 309.6844 386.85938 309.6844Q386.03125 309.6844 385.64062 310.325Q385.26562 310.95 385.26562 312.2469L385.26562 313.98126Q385.26562 315.35626 385.65625 316.02814Q386.0625 316.6844 386.875 316.6844Q387.67188 316.6844 388.0625 316.0594Q388.45312 315.4344 388.46875 314.10626L388.46875 312.325Z" fill-rule="nonzero"/><path stroke="#4285f4" stroke-width="3.0" stroke-linejoin="round" stroke-linecap="round" d="M493.79688 75.075424L488.20312 75.075424L488.20312 74.294174L491.15625 71.012924Q491.8125 70.262924 492.0625 69.8098Q492.3125 69.34105 492.3125 68.84105Q492.3125 68.169174 491.90625 67.7473Q491.51562 67.3098 490.82812 67.3098Q490.03125 67.3098 489.57812 67.77855Q489.125 68.231674 489.125 69.0598L488.04688 69.0598Q488.04688 67.8723 488.79688 67.15355Q489.5625 66.419174 490.82812 66.419174Q492.03125 66.419174 492.71875 67.044174Q493.40625 67.669174 493.40625 68.71605Q493.40625 69.96605 491.79688 71.71605L489.51562 74.1848L493.79688 74.1848L493.79688 75.075424ZM499.35938 71.325424Q499.03125 71.731674 498.54688 71.981674Q498.07812 72.21605 497.51562 72.21605Q496.78125 72.21605 496.23438 71.856674Q495.6875 71.4973 495.39062 70.84105Q495.09375 70.169174 495.09375 69.3723Q495.09375 68.52855 495.40625 67.84105Q495.73438 67.15355 496.32812 66.794174Q496.9375 66.419174 497.73438 66.419174Q499.0 66.419174 499.71875 67.3723Q500.45312 68.325424 500.45312 69.950424L500.45312 70.262924Q500.45312 72.762924 499.46875 73.90355Q498.48438 75.044174 496.5 75.075424L496.28125 75.075424L496.28125 74.169174L496.51562 74.169174Q497.85938 74.137924 498.57812 73.46605Q499.29688 72.794174 499.35938 71.325424ZM497.6875 71.325424Q498.23438 71.325424 498.6875 70.9973Q499.15625 70.65355 499.375 70.169174L499.375 69.731674Q499.375 68.669174 498.90625 67.9973Q498.4375 67.325424 497.73438 67.325424Q497.01562 67.325424 496.57812 67.8723Q496.15625 68.419174 496.15625 69.325424Q496.15625 70.200424 496.5625 70.762924Q496.98438 71.325424 497.6875 71.325424ZM502.34375 74.512924Q502.34375 74.231674 502.5 74.044174Q502.67188 73.856674 503.0 73.856674Q503.34375 73.856674 503.51562 74.044174Q503.6875 74.231674 503.6875 74.512924Q503.6875 74.77855 503.51562 74.96605Q503.34375 75.137924 503.0 75.137924Q502.67188 75.137924 502.5 74.96605Q502.34375 74.77855 502.34375 74.512924ZM506.78125 70.27855L507.59375 70.27855Q508.375 70.262924 508.8125 69.8723Q509.25 69.481674 509.25 68.8098Q509.25 67.3098 507.75 67.3098Q507.04688 67.3098 506.625 67.71605Q506.21875 68.1223 506.21875 68.77855L505.125 68.77855Q505.125 67.762924 505.85938 67.09105Q506.60938 66.419174 507.75 66.419174Q508.95312 66.419174 509.64062 67.0598Q510.32812 67.700424 510.32812 68.84105Q510.32812 69.40355 509.96875 69.919174Q509.60938 70.4348 508.98438 70.700424Q509.6875 70.919174 510.0625 71.4348Q510.45312 71.950424 510.45312 72.700424Q510.45312 73.84105 509.70312 74.52855Q508.95312 75.200424 507.75 75.200424Q506.5625 75.200424 505.79688 74.544174Q505.04688 73.887924 505.04688 72.825424L506.14062 72.825424Q506.14062 73.4973 506.57812 73.90355Q507.01562 74.3098 507.76562 74.3098Q508.54688 74.3098 508.95312 73.90355Q509.375 73.481674 509.375 72.71605Q509.375 71.981674 508.92188 71.59105Q508.46875 71.1848 507.59375 71.169174L506.78125 71.169174L506.78125 70.27855ZM517.7969 75.075424L512.2031 75.075424L512.2031 74.294174L515.15625 71.012924Q515.8125 70.262924 516.0625 69.8098Q516.3125 69.34105 516.3125 68.84105Q516.3125 68.169174 515.90625 67.7473Q515.5156 67.3098 514.8281 67.3098Q514.03125 67.3098 513.5781 67.77855Q513.125 68.231674 513.125 69.0598L512.0469 69.0598Q512.0469 67.8723 512.7969 67.15355Q513.5625 66.419174 514.8281 66.419174Q516.03125 66.419174 516.71875 67.044174Q517.40625 67.669174 517.40625 68.71605Q517.40625 69.96605 515.7969 71.71605L513.5156 74.1848L517.7969 74.1848L517.7969 75.075424Z" fill-rule="nonzero"/><path fill="#ffffff" d="M493.79688 75.075424L488.20312 75.075424L488.20312 74.294174L491.15625 71.012924Q491.8125 70.262924 492.0625 69.8098Q492.3125 69.34105 492.3125 68.84105Q492.3125 68.169174 491.90625 67.7473Q491.51562 67.3098 490.82812 67.3098Q490.03125 67.3098 489.57812 67.77855Q489.125 68.231674 489.125 69.0598L488.04688 69.0598Q488.04688 67.8723 488.79688 67.15355Q489.5625 66.419174 490.82812 66.419174Q492.03125 66.419174 492.71875 67.044174Q493.40625 67.669174 493.40625 68.71605Q493.40625 69.96605 491.79688 71.71605L489.51562 74.1848L493.79688 74.1848L493.79688 75.075424ZM499.35938 71.325424Q499.03125 71.731674 498.54688 71.981674Q498.07812 72.21605 497.51562 72.21605Q496.78125 72.21605 496.23438 71.856674Q495.6875 71.4973 495.39062 70.84105Q495.09375 70.169174 495.09375 69.3723Q495.09375 68.52855 495.40625 67.84105Q495.73438 67.15355 496.32812 66.794174Q496.9375 66.419174 497.73438 66.419174Q499.0 66.419174 499.71875 67.3723Q500.45312 68.325424 500.45312 69.950424L500.45312 70.262924Q500.45312 72.762924 499.46875 73.90355Q498.48438 75.044174 496.5 75.075424L496.28125 75.075424L496.28125 74.169174L496.51562 74.169174Q497.85938 74.137924 498.57812 73.46605Q499.29688 72.794174 499.35938 71.325424ZM497.6875 71.325424Q498.23438 71.325424 498.6875 70.9973Q499.15625 70.65355 499.375 70.169174L499.375 69.731674Q499.375 68.669174 498.90625 67.9973Q498.4375 67.325424 497.73438 67.325424Q497.01562 67.325424 496.57812 67.8723Q496.15625 68.419174 496.15625 69.325424Q496.15625 70.200424 496.5625 70.762924Q496.98438 71.325424 497.6875 71.325424ZM502.34375 74.512924Q502.34375 74.231674 502.5 74.044174Q502.67188 73.856674 503.0 73.856674Q503.34375 73.856674 503.51562 74.044174Q503.6875 74.231674 503.6875 74.512924Q503.6875 74.77855 503.51562 74.96605Q503.34375 75.137924 503.0 75.137924Q502.67188 75.137924 502.5 74.96605Q502.34375 74.77855 502.34375 74.512924ZM506.78125 70.27855L507.59375 70.27855Q508.375 70.262924 508.8125 69.8723Q509.25 69.481674 509.25 68.8098Q509.25 67.3098 507.75 67.3098Q507.04688 67.3098 506.625 67.71605Q506.21875 68.1223 506.21875 68.77855L505.125 68.77855Q505.125 67.762924 505.85938 67.09105Q506.60938 66.419174 507.75 66.419174Q508.95312 66.419174 509.64062 67.0598Q510.32812 67.700424 510.32812 68.84105Q510.32812 69.40355 509.96875 69.919174Q509.60938 70.4348 508.98438 70.700424Q509.6875 70.919174 510.0625 71.4348Q510.45312 71.950424 510.45312 72.700424Q510.45312 73.84105 509.70312 74.52855Q508.95312 75.200424 507.75 75.200424Q506.5625 75.200424 505.79688 74.544174Q505.04688 73.887924 505.04688 72.825424L506.14062 72.825424Q506.14062 73.4973 506.57812 73.90355Q507.01562 74.3098 507.76562 74.3098Q508.54688 74.3098 508.95312 73.90355Q509.375 73.481674 509.375 72.71605Q509.375 71.981674 508.92188 71.59105Q508.46875 71.1848 507.59375 71.169174L506.78125 71.169174L506.78125 70.27855ZM517.7969 75.075424L512.2031 75.075424L512.2031 74.294174L515.15625 71.012924Q515.8125 70.262924 516.0625 69.8098Q516.3125 69.34105 516.3125 68.84105Q516.3125 68.169174 515.90625 67.7473Q515.5156 67.3098 514.8281 67.3098Q514.03125 67.3098 513.5781 67.77855Q513.125 68.231674 513.125 69.0598L512.0469 69.0598Q512.0469 67.8723 512.7969 67.15355Q513.5625 66.419174 514.8281 66.419174Q516.03125 66.419174 516.71875 67.044174Q517.40625 67.669174 517.40625 68.71605Q517.40625 69.96605 515.7969 71.71605L513.5156 74.1848L517.7969 74.1848L517.7969 75.075424Z" fill-rule="nonzero"/><path fill="#000000" d="M26.534388 236.12083L26.831263 234.99583Q28.221888 235.35521 28.956263 236.27708Q29.690638 237.19896 29.690638 238.54271Q29.690638 239.93333 29.128138 240.80833Q28.565638 241.68333 27.503138 242.13646Q26.425013 242.58958 25.190638 242.58958Q23.846888 242.58958 22.846888 242.07396Q21.846888 241.55833 21.331263 240.62083Q20.815638 239.66771 20.815638 238.52708Q20.815638 237.24583 21.471888 236.37083Q22.128138 235.48021 23.315638 235.13646L23.581263 236.26146Q22.643763 236.55833 22.221888 237.13646Q21.784388 237.69896 21.784388 238.55833Q21.784388 239.54271 22.268763 240.21458Q22.737513 240.87083 23.534388 241.15208Q24.331263 241.41771 25.190638 241.41771Q26.284388 241.41771 27.096888 241.10521Q27.909388 240.77708 28.315638 240.10521Q28.721888 239.43333 28.721888 238.63646Q28.721888 237.68333 28.175013 237.02708Q27.628138 236.35521 26.534388 236.12083ZM19.815638 238.54271L18.815638 237.90208L18.815638 236.71458L20.456263 238.02708L20.456263 239.15208L18.815638 240.41771L18.815638 239.21458L19.815638 238.54271ZM28.784388 229.32396Q29.284388 229.91771 29.487513 230.46458Q29.690638 230.99583 29.690638 231.62083Q29.690638 232.65208 29.190638 233.19896Q28.690638 233.74583 27.909388 233.74583Q27.456263 233.74583 27.081263 233.54271Q26.690638 233.33958 26.471888 232.99583Q26.237513 232.65208 26.128138 232.23021Q26.034388 231.93333 25.956263 231.29271Q25.815638 230.02708 25.596888 229.41771Q25.378138 229.41771 25.331263 229.41771Q24.675013 229.41771 24.409388 229.71458Q24.065638 230.12083 24.065638 230.91771Q24.065638 231.65208 24.331263 232.01146Q24.581263 232.37083 25.237513 232.54271L25.096888 233.57396Q24.440638 233.43333 24.034388 233.10521Q23.628138 232.77708 23.409388 232.16771Q23.190638 231.55833 23.190638 230.76146Q23.190638 229.96458 23.378138 229.46458Q23.565638 228.96458 23.846888 228.73021Q24.128138 228.49583 24.565638 228.40208Q24.831263 228.35521 25.534388 228.35521L26.940638 228.35521Q28.409388 228.35521 28.800013 228.29271Q29.190638 228.21458 29.550013 228.01146L29.550013 229.12083Q29.221888 229.27708 28.784388 229.32396ZM26.425013 229.41771Q26.659388 229.99583 26.831263 231.13646Q26.925013 231.79271 27.050013 232.05833Q27.159388 232.32396 27.378138 232.48021Q27.596888 232.62083 27.878138 232.62083Q28.300013 232.62083 28.581263 232.30833Q28.862513 231.98021 28.862513 231.37083Q28.862513 230.76146 28.596888 230.29271Q28.331263 229.80833 27.862513 229.58958Q27.503138 229.41771 26.815638 229.41771L26.425013 229.41771ZM27.690638 226.80833L27.534388 225.77708Q28.159388 225.68333 28.487513 225.29271Q28.815638 224.88646 28.815638 224.15208Q28.815638 223.43333 28.534388 223.08958Q28.237513 222.73021 27.831263 222.73021Q27.471888 222.73021 27.268763 223.04271Q27.128138 223.26146 26.909388 224.12083Q26.612513 225.27708 26.409388 225.73021Q26.190638 226.16771 25.815638 226.40208Q25.440638 226.63646 24.971888 226.63646Q24.565638 226.63646 24.206263 226.44896Q23.846888 226.26146 23.612513 225.93333Q23.440638 225.68333 23.315638 225.26146Q23.190638 224.83958 23.190638 224.33958Q23.190638 223.62083 23.409388 223.07396Q23.612513 222.51146 23.971888 222.24583Q24.331263 221.98021 24.925013 221.88646L25.065638 222.91771Q24.596888 222.98021 24.331263 223.32396Q24.050013 223.65208 24.050013 224.27708Q24.050013 224.99583 24.300013 225.30833Q24.534388 225.62083 24.862513 225.62083Q25.065638 225.62083 25.221888 225.49583Q25.393763 225.35521 25.503138 225.08958Q25.565638 224.93333 25.768763 224.15208Q26.081263 223.02708 26.268763 222.58958Q26.456263 222.15208 26.815638 221.90208Q27.175013 221.65208 27.721888 221.65208Q28.253138 221.65208 28.721888 221.96458Q29.175013 222.26146 29.440638 222.83958Q29.690638 223.41771 29.690638 224.15208Q29.690638 225.37083 29.190638 226.01146Q28.675013 226.63646 27.690638 226.80833ZM29.550013 214.66771L23.331263 217.02708L23.331263 215.91771L27.050013 214.57396Q27.659388 214.37083 28.300013 214.18333Q27.815638 214.04271 27.128138 213.79271L23.331263 212.40208L23.331263 211.32396L29.550013 213.68333L29.550013 214.66771ZM27.690638 208.80833L27.534388 207.77708Q28.159388 207.68333 28.487513 207.29271Q28.815638 206.88646 28.815638 206.15208Q28.815638 205.43333 28.534388 205.08958Q28.237513 204.73021 27.831263 204.73021Q27.471888 204.73021 27.268763 205.04271Q27.128138 205.26146 26.909388 206.12083Q26.612513 207.27708 26.409388 207.73021Q26.190638 208.16771 25.815638 208.40208Q25.440638 208.63646 24.971888 208.63646Q24.565638 208.63646 24.206263 208.44896Q23.846888 208.26146 23.612513 207.93333Q23.440638 207.68333 23.315638 207.26146Q23.190638 206.83958 23.190638 206.33958Q23.190638 205.62083 23.409388 205.07396Q23.612513 204.51146 23.971888 204.24583Q24.331263 203.98021 24.925013 203.88646L25.065638 204.91771Q24.596888 204.98021 24.331263 205.32396Q24.050013 205.65208 24.050013 206.27708Q24.050013 206.99583 24.300013 207.30833Q24.534388 207.62083 24.862513 207.62083Q25.065638 207.62083 25.221888 207.49583Q25.393763 207.35521 25.503138 207.08958Q25.565638 206.93333 25.768763 206.15208Q26.081263 205.02708 26.268763 204.58958Q26.456263 204.15208 26.815638 203.90208Q27.175013 203.65208 27.721888 203.65208Q28.253138 203.65208 28.721888 203.96458Q29.175013 204.26146 29.440638 204.83958Q29.690638 205.41771 29.690638 206.15208Q29.690638 207.37083 29.190638 208.01146Q28.675013 208.63646 27.690638 208.80833ZM27.550013 197.13646L27.675013 196.04271Q28.628138 196.29271 29.159388 196.99583Q29.690638 197.69896 29.690638 198.77708Q29.690638 200.13646 28.846888 200.94896Q28.003138 201.74583 26.487513 201.74583Q24.925013 201.74583 24.065638 200.93333Q23.190638 200.12083 23.190638 198.83958Q23.190638 197.58958 24.034388 196.80833Q24.878138 196.01146 26.425013 196.01146Q26.518763 196.01146 26.706263 196.01146L26.706263 200.65208Q27.737513 200.58958 28.284388 200.07396Q28.815638 199.55833 28.815638 198.77708Q28.815638 198.19896 28.518763 197.79271Q28.206263 197.37083 27.550013 197.13646ZM25.846888 200.58958L25.846888 197.12083Q25.050013 197.18333 24.659388 197.51146Q24.050013 198.02708 24.050013 198.82396Q24.050013 199.55833 24.534388 200.05833Q25.018763 200.54271 25.846888 200.58958ZM29.550013 194.38646L20.956263 194.38646L20.956263 193.32396L25.862513 193.32396L23.331263 190.83958L23.331263 189.46458L25.628138 191.85521L29.550013 189.23021L29.550013 190.52708L26.362513 192.58958L27.081263 193.32396L29.550013 193.32396L29.550013 194.38646ZM29.550013 184.30833L28.628138 184.30833Q29.690638 185.04271 29.690638 186.29271Q29.690638 186.83958 29.487513 187.32396Q29.268763 187.79271 28.956263 188.02708Q28.628138 188.26146 28.159388 188.35521Q27.862513 188.41771 27.175013 188.41771L23.331263 188.41771L23.331263 187.35521L26.784388 187.35521Q27.596888 187.35521 27.893763 187.29271Q28.300013 187.19896 28.550013 186.88646Q28.784388 186.55833 28.784388 186.07396Q28.784388 185.60521 28.550013 185.19896Q28.300013 184.77708 27.878138 184.60521Q27.456263 184.41771 26.659388 184.41771L23.331263 184.41771L23.331263 183.37083L29.550013 183.37083L29.550013 184.30833ZM29.550013 181.38646L23.331263 181.38646L23.331263 180.44896L24.206263 180.44896Q23.190638 179.76146 23.190638 178.46458Q23.190638 177.90208 23.393763 177.43333Q23.596888 176.94896 23.925013 176.71458Q24.253138 176.48021 24.690638 176.38646Q24.987513 176.33958 25.721888 176.33958L29.550013 176.33958L29.550013 177.38646L25.768763 177.38646Q25.112513 177.38646 24.800013 177.51146Q24.487513 177.63646 24.300013 177.94896Q24.096888 178.26146 24.096888 178.68333Q24.096888 179.35521 24.534388 179.85521Q24.956263 180.33958 26.143763 180.33958L29.550013 180.33958L29.550013 181.38646ZM29.550013 170.35521L28.768763 170.35521Q29.690638 170.94896 29.690638 172.08958Q29.690638 172.83958 29.284388 173.46458Q28.862513 174.08958 28.128138 174.43333Q27.393763 174.77708 26.440638 174.77708Q25.518763 174.77708 24.753138 174.46458Q23.987513 174.15208 23.596888 173.52708Q23.190638 172.90208 23.190638 172.13646Q23.190638 171.57396 23.425013 171.13646Q23.659388 170.69896 24.034388 170.41771L20.956263 170.41771L20.956263 169.37083L29.550013 169.37083L29.550013 170.35521ZM26.440638 173.68333Q27.643763 173.68333 28.237513 173.18333Q28.815638 172.68333 28.815638 171.99583Q28.815638 171.30833 28.253138 170.82396Q27.690638 170.33958 26.534388 170.33958Q25.253138 170.33958 24.659388 170.83958Q24.065638 171.32396 24.065638 172.04271Q24.065638 172.74583 24.643763 173.21458Q25.206263 173.68333 26.440638 173.68333ZM28.784388 163.32396Q29.284388 163.91771 29.487513 164.46458Q29.690638 164.99583 29.690638 165.62083Q29.690638 166.65208 29.190638 167.19896Q28.690638 167.74583 27.909388 167.74583Q27.456263 167.74583 27.081263 167.54271Q26.690638 167.33958 26.471888 166.99583Q26.237513 166.65208 26.128138 166.23021Q26.034388 165.93333 25.956263 165.29271Q25.815638 164.02708 25.596888 163.41771Q25.378138 163.41771 25.331263 163.41771Q24.675013 163.41771 24.409388 163.71458Q24.065638 164.12083 24.065638 164.91771Q24.065638 165.65208 24.331263 166.01146Q24.581263 166.37083 25.237513 166.54271L25.096888 167.57396Q24.440638 167.43333 24.034388 167.10521Q23.628138 166.77708 23.409388 166.16771Q23.190638 165.55833 23.190638 164.76146Q23.190638 163.96458 23.378138 163.46458Q23.565638 162.96458 23.846888 162.73021Q24.128138 162.49583 24.565638 162.40208Q24.831263 162.35521 25.534388 162.35521L26.940638 162.35521Q28.409388 162.35521 28.800013 162.29271Q29.190638 162.21458 29.550013 162.01146L29.550013 163.12083Q29.221888 163.27708 28.784388 163.32396ZM26.425013 163.41771Q26.659388 163.99583 26.831263 165.13646Q26.925013 165.79271 27.050013 166.05833Q27.159388 166.32396 27.378138 166.48021Q27.596888 166.62083 27.878138 166.62083Q28.300013 166.62083 28.581263 166.30833Q28.862513 165.98021 28.862513 165.37083Q28.862513 164.76146 28.596888 164.29271Q28.331263 163.80833 27.862513 163.58958Q27.503138 163.41771 26.815638 163.41771L26.425013 163.41771ZM29.550013 160.38646L20.956263 160.38646L20.956263 159.33958L24.034388 159.33958Q23.190638 158.60521 23.190638 157.48021Q23.190638 156.77708 23.471888 156.27708Q23.737513 155.76146 24.221888 155.54271Q24.690638 155.32396 25.612513 155.32396L29.550013 155.32396L29.550013 156.37083L25.612513 156.37083Q24.815638 156.37083 24.456263 156.71458Q24.096888 157.05833 24.096888 157.68333Q24.096888 158.15208 24.346888 158.57396Q24.581263 158.98021 25.003138 159.16771Q25.409388 159.33958 26.143763 159.33958L29.550013 159.33958L29.550013 160.38646Z" fill-rule="nonzero"/><path fill="#000000" d="M65.05 332.21564Q65.05 330.6844 65.3625 329.7625Q65.675 328.825 66.28438 328.325Q66.90938 327.825 67.84688 327.825Q68.53438 327.825 69.05 328.10626Q69.58125 328.3875 69.925 328.91876Q70.26875 329.4344 70.45625 330.1844Q70.64375 330.9344 70.64375 332.21564Q70.64375 333.73126 70.33125 334.65314Q70.03438 335.575 69.40938 336.09064Q68.8 336.59064 67.84688 336.59064Q66.6125 336.59064 65.89375 335.7Q65.05 334.6375 65.05 332.21564ZM66.12813 332.21564Q66.12813 334.325 66.62813 335.02814Q67.12813 335.73126 67.84688 335.73126Q68.58125 335.73126 69.06563 335.02814Q69.56563 334.325 69.56563 332.21564Q69.56563 330.09064 69.06563 329.40314Q68.58125 328.7 67.83125 328.7Q67.1125 328.7 66.675 329.3094Q66.12813 330.09064 66.12813 332.21564Z" fill-rule="nonzero"/><path fill="#000000" d="M62.01875 242.93889L60.971874 242.93889L60.971874 236.22014Q60.58125 236.57951 59.95625 236.95451Q59.346874 237.31389 58.8625 237.48576L58.8625 236.47014Q59.7375 236.04826 60.39375 235.47014Q61.065624 234.87639 61.346874 234.31389L62.01875 234.31389L62.01875 242.93889ZM65.05 238.70451Q65.05 237.17326 65.3625 236.25139Q65.675 235.31389 66.28438 234.81389Q66.90938 234.31389 67.84688 234.31389Q68.53438 234.31389 69.05 234.59514Q69.58125 234.87639 69.925 235.40764Q70.26875 235.92326 70.45625 236.67326Q70.64375 237.42326 70.64375 238.70451Q70.64375 240.22014 70.33125 241.14201Q70.03438 242.06389 69.40938 242.57951Q68.8 243.07951 67.84688 243.07951Q66.6125 243.07951 65.89375 242.18889Q65.05 241.12639 65.05 238.70451ZM66.12813 238.70451Q66.12813 240.81389 66.62813 241.51701Q67.12813 242.22014 67.84688 242.22014Q68.58125 242.22014 69.06563 241.51701Q69.56563 240.81389 69.56563 238.70451Q69.56563 236.57951 69.06563 235.89201Q68.58125 235.18889 67.83125 235.18889Q67.1125 235.18889 66.675 235.79826Q66.12813 236.57951 66.12813 238.70451Z" fill-rule="nonzero"/><path fill="#000000" d="M63.596874 148.41216L63.596874 149.42778L57.909374 149.42778Q57.909374 149.05278 58.034374 148.6934Q58.253124 148.11528 58.721874 147.55278Q59.20625 146.99028 60.1125 146.2559Q61.51875 145.09966 62.003124 144.42778Q62.503124 143.7559 62.503124 143.16216Q62.503124 142.53716 62.05 142.11528Q61.596874 141.67778 60.878124 141.67778Q60.1125 141.67778 59.659374 142.1309Q59.20625 142.58403 59.190624 143.39653L58.1125 143.28716Q58.221874 142.0684 58.940624 141.4434Q59.675 140.80278 60.909374 140.80278Q62.14375 140.80278 62.8625 141.49028Q63.58125 142.17778 63.58125 143.1934Q63.58125 143.70903 63.3625 144.20903Q63.159374 144.6934 62.659374 145.2559Q62.175 145.80278 61.05 146.7559Q60.096874 147.55278 59.815624 147.84966Q59.55 148.1309 59.378124 148.41216L63.596874 148.41216ZM65.05 145.1934Q65.05 143.66216 65.3625 142.74028Q65.675 141.80278 66.28438 141.30278Q66.90938 140.80278 67.84688 140.80278Q68.53438 140.80278 69.05 141.08403Q69.58125 141.36528 69.925 141.89653Q70.26875 142.41216 70.45625 143.16216Q70.64375 143.91216 70.64375 145.1934Q70.64375 146.70903 70.33125 147.6309Q70.03438 148.55278 69.40938 149.0684Q68.8 149.5684 67.84688 149.5684Q66.6125 149.5684 65.89375 148.67778Q65.05 147.61528 65.05 145.1934ZM66.12813 145.1934Q66.12813 147.30278 66.62813 148.0059Q67.12813 148.70903 67.84688 148.70903Q68.58125 148.70903 69.06563 148.0059Q69.56563 147.30278 69.56563 145.1934Q69.56563 143.0684 69.06563 142.3809Q68.58125 141.67778 67.83125 141.67778Q67.1125 141.67778 66.675 142.28716Q66.12813 143.0684 66.12813 145.1934Z" fill-rule="nonzero"/><path fill="#000000" d="M58.05 53.651043L59.1125 53.510418Q59.284374 54.401043 59.721874 54.807293Q60.159374 55.197918 60.784374 55.197918Q61.534374 55.197918 62.05 54.682293Q62.565624 54.166668 62.565624 53.401043Q62.565624 52.682293 62.08125 52.213543Q61.6125 51.729168 60.878124 51.729168Q60.58125 51.729168 60.128124 51.854168L60.253124 50.916668Q60.3625 50.932293 60.425 50.932293Q61.096874 50.932293 61.628124 50.588543Q62.175 50.229168 62.175 49.494793Q62.175 48.916668 61.784374 48.541668Q61.39375 48.151043 60.76875 48.151043Q60.159374 48.151043 59.7375 48.541668Q59.33125 48.932293 59.221874 49.697918L58.159374 49.510418Q58.346874 48.463543 59.034374 47.885418Q59.721874 47.291668 60.7375 47.291668Q61.440624 47.291668 62.034374 47.604168Q62.628124 47.901043 62.940624 48.416668Q63.253124 48.932293 63.253124 49.526043Q63.253124 50.072918 62.95625 50.541668Q62.659374 50.994793 62.08125 51.260418Q62.83125 51.432293 63.253124 51.994793Q63.675 52.541668 63.675 53.385418Q63.675 54.510418 62.846874 55.291668Q62.034374 56.072918 60.784374 56.072918Q59.659374 56.072918 58.909374 55.401043Q58.159374 54.713543 58.05 53.651043ZM65.05 51.682293Q65.05 50.151043 65.3625 49.229168Q65.675 48.291668 66.28438 47.791668Q66.90938 47.291668 67.84688 47.291668Q68.53438 47.291668 69.05 47.572918Q69.58125 47.854168 69.925 48.385418Q70.26875 48.901043 70.45625 49.651043Q70.64375 50.401043 70.64375 51.682293Q70.64375 53.197918 70.33125 54.119793Q70.03438 55.041668 69.40938 55.557293Q68.8 56.057293 67.84688 56.057293Q66.6125 56.057293 65.89375 55.166668Q65.05 54.104168 65.05 51.682293ZM66.12813 51.682293Q66.12813 53.791668 66.62813 54.494793Q67.12813 55.197918 67.84688 55.197918Q68.58125 55.197918 69.06563 54.494793Q69.56563 53.791668 69.56563 51.682293Q69.56563 49.557293 69.06563 48.869793Q68.58125 48.166668 67.83125 48.166668Q67.1125 48.166668 66.675 48.776043Q66.12813 49.557293 66.12813 51.682293Z" fill-rule="nonzero"/><path fill="#000000" d="M132.97575 349.45L132.97575 348.3875L137.382 342.8875Q137.85075 342.3094 138.27263 341.8719L133.47575 341.8719L133.47575 340.85626L139.632 340.85626L139.632 341.8719L134.80388 347.825L134.28825 348.4344L139.77263 348.4344L139.77263 349.45L132.97575 349.45ZM144.78825 347.45L145.882 347.575Q145.632 348.52814 144.92888 349.0594Q144.22575 349.59064 143.14763 349.59064Q141.78825 349.59064 140.97575 348.7469Q140.17888 347.90314 140.17888 346.3875Q140.17888 344.825 140.99138 343.96564Q141.80388 343.09064 143.08513 343.09064Q144.33513 343.09064 145.11638 343.9344Q145.91325 344.77814 145.91325 346.325Q145.91325 346.41876 145.91325 346.60626L141.27263 346.60626Q141.33513 347.6375 141.85075 348.1844Q142.36638 348.71564 143.14763 348.71564Q143.72575 348.71564 144.132 348.41876Q144.55388 348.10626 144.78825 347.45ZM141.33513 345.7469L144.80388 345.7469Q144.74138 344.95 144.41325 344.5594Q143.89763 343.95 143.10075 343.95Q142.36638 343.95 141.86638 344.4344Q141.382 344.91876 141.33513 345.7469ZM147.52263 349.45L147.52263 343.23126L148.47575 343.23126L148.47575 344.16876Q148.83513 343.5125 149.132 343.3094Q149.4445 343.09064 149.8195 343.09064Q150.35075 343.09064 150.89763 343.41876L150.53825 344.40314Q150.14763 344.16876 149.77263 344.16876Q149.41325 344.16876 149.132 344.3875Q148.86638 344.59064 148.757 344.96564Q148.5695 345.52814 148.5695 346.1844L148.5695 349.45L147.52263 349.45ZM151.14763 346.34064Q151.14763 344.60626 152.10075 343.77814Q152.89763 343.09064 154.05388 343.09064Q155.33513 343.09064 156.14763 343.9344Q156.97575 344.7625 156.97575 346.2469Q156.97575 347.45 156.61638 348.1375Q156.257 348.825 155.55388 349.21564Q154.86638 349.59064 154.05388 349.59064Q152.757 349.59064 151.9445 348.7625Q151.14763 347.91876 151.14763 346.34064ZM152.22575 346.34064Q152.22575 347.52814 152.74138 348.1219Q153.27263 348.71564 154.05388 348.71564Q154.85075 348.71564 155.36638 348.1219Q155.882 347.52814 155.882 346.3094Q155.882 345.15314 155.35075 344.5594Q154.83513 343.96564 154.05388 343.96564Q153.27263 343.96564 152.74138 344.5594Q152.22575 345.1375 152.22575 346.34064ZM160.85075 349.45L160.85075 341.8719L158.02263 341.8719L158.02263 340.85626L164.83513 340.85626L164.83513 341.8719L161.99138 341.8719L161.99138 349.45L160.85075 349.45ZM165.53825 342.075L165.53825 340.85626L166.60075 340.85626L166.60075 342.075L165.53825 342.075ZM165.53825 349.45L165.53825 343.23126L166.60075 343.23126L166.60075 349.45L165.53825 349.45ZM172.78825 347.45L173.882 347.575Q173.632 348.52814 172.92888 349.0594Q172.22575 349.59064 171.14763 349.59064Q169.78825 349.59064 168.97575 348.7469Q168.17888 347.90314 168.17888 346.3875Q168.17888 344.825 168.99138 343.96564Q169.80388 343.09064 171.08513 343.09064Q172.33513 343.09064 173.11638 343.9344Q173.91325 344.77814 173.91325 346.325Q173.91325 346.41876 173.91325 346.60626L169.27263 346.60626Q169.33513 347.6375 169.85075 348.1844Q170.36638 348.71564 171.14763 348.71564Q171.72575 348.71564 172.132 348.41876Q172.55388 348.10626 172.78825 347.45ZM169.33513 345.7469L172.80388 345.7469Q172.74138 344.95 172.41325 344.5594Q171.89763 343.95 171.10075 343.95Q170.36638 343.95 169.86638 344.4344Q169.382 344.91876 169.33513 345.7469ZM175.52263 349.45L175.52263 343.23126L176.47575 343.23126L176.47575 344.16876Q176.83513 343.5125 177.132 343.3094Q177.4445 343.09064 177.8195 343.09064Q178.35075 343.09064 178.89763 343.41876L178.53825 344.40314Q178.14763 344.16876 177.77263 344.16876Q177.41325 344.16876 177.132 344.3875Q176.86638 344.59064 176.757 344.96564Q176.5695 345.52814 176.5695 346.1844L176.5695 349.45L175.52263 349.45Z" fill-rule="nonzero"/><path fill="#000000" d="M245.15858 345.2625Q245.15858 343.1219 246.29921 341.91876Q247.45546 340.7 249.26796 340.7Q250.47108 340.7 251.42421 341.27814Q252.37733 341.84064 252.87733 342.85626Q253.37733 343.8719 253.37733 345.16876Q253.37733 346.46564 252.84608 347.4969Q252.31483 348.52814 251.34608 349.0594Q250.39296 349.59064 249.26796 349.59064Q248.04921 349.59064 247.09608 349.0125Q246.14296 348.41876 245.64296 347.41876Q245.15858 346.40314 245.15858 345.2625ZM246.33046 345.27814Q246.33046 346.84064 247.15858 347.73126Q248.00233 348.6219 249.26796 348.6219Q250.54921 348.6219 251.37733 347.73126Q252.20546 346.825 252.20546 345.15314Q252.20546 344.10626 251.84608 343.325Q251.50233 342.54376 250.81483 342.1219Q250.12733 341.6844 249.28358 341.6844Q248.08046 341.6844 247.20546 342.5125Q246.33046 343.34064 246.33046 345.27814ZM254.37733 351.84064L254.37733 343.23126L255.33046 343.23126L255.33046 344.02814Q255.67421 343.5594 256.09607 343.325Q256.53357 343.09064 257.14294 343.09064Q257.93982 343.09064 258.5492 343.4969Q259.15857 343.90314 259.45544 344.65314Q259.76794 345.40314 259.76794 346.29376Q259.76794 347.2469 259.4242 348.0125Q259.09607 348.77814 258.43982 349.1844Q257.78357 349.59064 257.06482 349.59064Q256.53357 349.59064 256.1117 349.3719Q255.68983 349.1375 255.42421 348.8094L255.42421 351.84064L254.37733 351.84064ZM255.33046 346.3719Q255.33046 347.575 255.81483 348.15314Q256.2992 348.71564 256.9867 348.71564Q257.68982 348.71564 258.18982 348.1219Q258.68982 347.52814 258.68982 346.27814Q258.68982 345.09064 258.20544 344.5125Q257.72107 343.91876 257.03357 343.91876Q256.3617 343.91876 255.84608 344.54376Q255.33046 345.16876 255.33046 346.3719ZM265.62732 347.45L266.72107 347.575Q266.47107 348.52814 265.76794 349.0594Q265.06482 349.59064 263.9867 349.59064Q262.62732 349.59064 261.81482 348.7469Q261.01794 347.90314 261.01794 346.3875Q261.01794 344.825 261.83044 343.96564Q262.64294 343.09064 263.9242 343.09064Q265.1742 343.09064 265.95544 343.9344Q266.75232 344.77814 266.75232 346.325Q266.75232 346.41876 266.75232 346.60626L262.1117 346.60626Q262.1742 347.6375 262.68982 348.1844Q263.20544 348.71564 263.9867 348.71564Q264.56482 348.71564 264.97107 348.41876Q265.39294 348.10626 265.62732 347.45ZM262.1742 345.7469L265.64294 345.7469Q265.58044 344.95 265.25232 344.5594Q264.7367 343.95 263.93982 343.95Q263.20544 343.95 262.70544 344.4344Q262.22107 344.91876 262.1742 345.7469ZM268.37732 349.45L268.37732 343.23126L269.31482 343.23126L269.31482 344.10626Q270.00232 343.09064 271.2992 343.09064Q271.8617 343.09064 272.33044 343.29376Q272.81482 343.4969 273.0492 343.825Q273.28357 344.15314 273.37732 344.59064Q273.4242 344.8875 273.4242 345.6219L273.4242 349.45L272.37732 349.45L272.37732 345.66876Q272.37732 345.0125 272.25232 344.7Q272.12732 344.3875 271.81482 344.2Q271.50232 343.9969 271.08044 343.9969Q270.40857 343.9969 269.90857 344.4344Q269.4242 344.85626 269.4242 346.04376L269.4242 349.45L268.37732 349.45ZM277.95544 349.45L274.62732 340.85626L275.8617 340.85626L278.09607 347.10626Q278.3617 347.85626 278.5492 348.5125Q278.75232 347.8094 279.01794 347.10626L281.33044 340.85626L282.4867 340.85626L279.12732 349.45L277.95544 349.45ZM282.50232 349.45L282.50232 340.85626L285.75232 340.85626Q286.59607 340.85626 287.0492 340.9344Q287.68982 341.04376 288.1117 341.34064Q288.5492 341.6375 288.7992 342.16876Q289.06482 342.7 289.06482 343.34064Q289.06482 344.4344 288.3617 345.2Q287.6742 345.95 285.84607 345.95L283.64294 345.95L283.64294 349.45L282.50232 349.45ZM283.64294 344.95L285.8617 344.95Q286.97107 344.95 287.4242 344.54376Q287.89294 344.1219 287.89294 343.3719Q287.89294 342.84064 287.6117 342.46564Q287.34607 342.075 286.90857 341.95Q286.6117 341.8719 285.84607 341.8719L283.64294 341.8719L283.64294 344.95ZM290.50232 349.45L290.50232 340.85626L291.65857 340.85626L296.1742 347.60626L296.1742 340.85626L297.26794 340.85626L297.26794 349.45L296.09607 349.45L291.58044 342.7L291.58044 349.45L290.50232 349.45Z" fill-rule="nonzero"/><path fill="#000000" d="M360.3414 349.45L358.06015 340.85626L359.23203 340.85626L360.54453 346.4969Q360.74765 347.3719 360.9039 348.2469Q361.23203 346.8719 361.29453 346.65314L362.91953 340.85626L364.29453 340.85626L365.5289 345.2Q365.98203 346.825 366.20078 348.2469Q366.35703 347.4344 366.62265 346.3719L367.9664 340.85626L369.10703 340.85626L366.76328 349.45L365.6539 349.45L363.85703 342.90314Q363.62265 342.09064 363.57578 341.90314Q363.45078 342.48126 363.32578 342.90314L361.51328 349.45L360.3414 349.45ZM369.7164 342.075L369.7164 340.85626L370.7789 340.85626L370.7789 342.075L369.7164 342.075ZM369.7164 349.45L369.7164 343.23126L370.7789 343.23126L370.7789 349.45L369.7164 349.45ZM372.70078 349.45L372.70078 343.23126L373.6539 343.23126L373.6539 344.16876Q374.01328 343.5125 374.31015 343.3094Q374.62265 343.09064 374.99765 343.09064Q375.5289 343.09064 376.07578 343.41876L375.7164 344.40314Q375.32578 344.16876 374.95078 344.16876Q374.5914 344.16876 374.31015 344.3875Q374.04453 344.59064 373.93515 344.96564Q373.74765 345.52814 373.74765 346.1844L373.74765 349.45L372.70078 349.45ZM380.9664 347.45L382.06015 347.575Q381.81015 348.52814 381.10703 349.0594Q380.4039 349.59064 379.32578 349.59064Q377.9664 349.59064 377.1539 348.7469Q376.35703 347.90314 376.35703 346.3875Q376.35703 344.825 377.16953 343.96564Q377.98203 343.09064 379.26328 343.09064Q380.51328 343.09064 381.29453 343.9344Q382.0914 344.77814 382.0914 346.325Q382.0914 346.41876 382.0914 346.60626L377.45078 346.60626Q377.51328 347.6375 378.0289 348.1844Q378.54453 348.71564 379.32578 348.71564Q379.9039 348.71564 380.31015 348.41876Q380.73203 348.10626 380.9664 347.45ZM377.51328 345.7469L380.98203 345.7469Q380.91953 344.95 380.5914 344.5594Q380.07578 343.95 379.2789 343.95Q378.54453 343.95 378.04453 344.4344Q377.56015 344.91876 377.51328 345.7469ZM387.87265 346.075L387.87265 345.075L391.49765 345.0594L391.49765 348.2469Q390.66953 348.91876 389.7789 349.2625Q388.88828 349.59064 387.95078 349.59064Q386.68515 349.59064 385.63828 349.0594Q384.60703 348.5125 384.07578 347.4969Q383.56015 346.46564 383.56015 345.2Q383.56015 343.9344 384.07578 342.85626Q384.60703 341.7625 385.5914 341.2469Q386.57578 340.71564 387.85703 340.71564Q388.79453 340.71564 389.54453 341.0125Q390.29453 341.3094 390.7164 341.85626Q391.1539 342.3875 391.37265 343.2625L390.35703 343.54376Q390.1539 342.8875 389.85703 342.5125Q389.57578 342.1375 389.04453 341.91876Q388.51328 341.6844 387.87265 341.6844Q387.0914 341.6844 386.51328 341.91876Q385.95078 342.15314 385.5914 342.54376Q385.24765 342.9344 385.06015 343.40314Q384.73203 344.2 384.73203 345.1219Q384.73203 346.27814 385.12265 347.0594Q385.5289 347.825 386.2789 348.2Q387.0289 348.575 387.88828 348.575Q388.62265 348.575 389.32578 348.29376Q390.0289 347.9969 390.38828 347.6844L390.38828 346.075L387.87265 346.075ZM396.79453 349.45L396.79453 348.52814Q396.06015 349.59064 394.81015 349.59064Q394.26328 349.59064 393.7789 349.3875Q393.31015 349.16876 393.07578 348.85626Q392.8414 348.52814 392.74765 348.0594Q392.68515 347.7625 392.68515 347.075L392.68515 343.23126L393.74765 343.23126L393.74765 346.6844Q393.74765 347.4969 393.81015 347.79376Q393.9039 348.2 394.2164 348.45Q394.54453 348.6844 395.0289 348.6844Q395.49765 348.6844 395.9039 348.45Q396.32578 348.2 396.49765 347.77814Q396.68515 347.35626 396.68515 346.5594L396.68515 343.23126L397.73203 343.23126L397.73203 349.45L396.79453 349.45ZM403.7789 348.6844Q403.18515 349.1844 402.63828 349.3875Q402.10703 349.59064 401.48203 349.59064Q400.45078 349.59064 399.9039 349.09064Q399.35703 348.59064 399.35703 347.8094Q399.35703 347.35626 399.56015 346.98126Q399.76328 346.59064 400.10703 346.3719Q400.45078 346.1375 400.87265 346.02814Q401.16953 345.9344 401.81015 345.85626Q403.07578 345.71564 403.68515 345.4969Q403.68515 345.27814 403.68515 345.23126Q403.68515 344.575 403.38828 344.3094Q402.98203 343.96564 402.18515 343.96564Q401.45078 343.96564 401.0914 344.23126Q400.73203 344.48126 400.56015 345.1375L399.5289 344.9969Q399.66953 344.34064 399.99765 343.9344Q400.32578 343.52814 400.93515 343.3094Q401.54453 343.09064 402.3414 343.09064Q403.13828 343.09064 403.63828 343.27814Q404.13828 343.46564 404.37265 343.7469Q404.60703 344.02814 404.70078 344.46564Q404.74765 344.73126 404.74765 345.4344L404.74765 346.84064Q404.74765 348.3094 404.81015 348.7Q404.88828 349.09064 405.0914 349.45L403.98203 349.45Q403.82578 349.1219 403.7789 348.6844ZM403.68515 346.325Q403.10703 346.5594 401.9664 346.73126Q401.31015 346.825 401.04453 346.95Q400.7789 347.0594 400.62265 347.27814Q400.48203 347.4969 400.48203 347.77814Q400.48203 348.2 400.79453 348.48126Q401.12265 348.7625 401.73203 348.7625Q402.3414 348.7625 402.81015 348.4969Q403.29453 348.23126 403.51328 347.7625Q403.68515 347.40314 403.68515 346.71564L403.68515 346.325ZM406.70078 349.45L406.70078 343.23126L407.6539 343.23126L407.6539 344.16876Q408.01328 343.5125 408.31015 343.3094Q408.62265 343.09064 408.99765 343.09064Q409.5289 343.09064 410.07578 343.41876L409.7164 344.40314Q409.32578 344.16876 408.95078 344.16876Q408.5914 344.16876 408.31015 344.3875Q408.04453 344.59064 407.93515 344.96564Q407.74765 345.52814 407.74765 346.1844L407.74765 349.45L406.70078 349.45ZM414.74765 349.45L414.74765 348.66876Q414.1539 349.59064 413.01328 349.59064Q412.26328 349.59064 411.63828 349.1844Q411.01328 348.7625 410.66953 348.02814Q410.32578 347.29376 410.32578 346.34064Q410.32578 345.41876 410.63828 344.65314Q410.95078 343.8875 411.57578 343.4969Q412.20078 343.09064 412.9664 343.09064Q413.5289 343.09064 413.9664 343.325Q414.4039 343.5594 414.68515 343.9344L414.68515 340.85626L415.73203 340.85626L415.73203 349.45L414.74765 349.45ZM411.41953 346.34064Q411.41953 347.54376 411.91953 348.1375Q412.41953 348.71564 413.10703 348.71564Q413.79453 348.71564 414.2789 348.15314Q414.76328 347.59064 414.76328 346.4344Q414.76328 345.15314 414.26328 344.5594Q413.7789 343.96564 413.06015 343.96564Q412.35703 343.96564 411.88828 344.54376Q411.41953 345.10626 411.41953 346.34064Z" fill-rule="nonzero"/><path fill="#000000" d="M471.3836 349.45L471.3836 340.85626L472.5086 340.85626L472.5086 349.45L471.3836 349.45ZM474.1336 349.45L474.1336 340.85626L475.27423 340.85626L475.27423 345.1219L479.53986 340.85626L481.08673 340.85626L477.47736 344.34064L481.24298 349.45L479.74298 349.45L476.68048 345.10626L475.27423 346.46564L475.27423 349.45L474.1336 349.45ZM482.21173 349.45L482.21173 340.85626L488.41486 340.85626L488.41486 341.8719L483.35236 341.8719L483.35236 344.4969L488.10236 344.4969L488.10236 345.5125L483.35236 345.5125L483.35236 348.4344L488.61798 348.4344L488.61798 349.45L482.21173 349.45ZM491.77423 349.45L489.41486 343.23126L490.52423 343.23126L491.86798 346.95Q492.0711 347.5594 492.2586 348.2Q492.39923 347.71564 492.64923 347.02814L494.03986 343.23126L495.11798 343.23126L492.7586 349.45L491.77423 349.45ZM500.30548 348.4344L500.30548 349.45L494.61798 349.45Q494.61798 349.075 494.74298 348.71564Q494.96173 348.1375 495.43048 347.575Q495.91486 347.0125 496.8211 346.27814Q498.22736 345.1219 498.71173 344.45Q499.21173 343.77814 499.21173 343.1844Q499.21173 342.5594 498.7586 342.1375Q498.30548 341.7 497.58673 341.7Q496.8211 341.7 496.36798 342.15314Q495.91486 342.60626 495.89923 343.41876L494.8211 343.3094Q494.93048 342.09064 495.64923 341.46564Q496.3836 340.825 497.61798 340.825Q498.85236 340.825 499.5711 341.5125Q500.28986 342.2 500.28986 343.21564Q500.28986 343.73126 500.0711 344.23126Q499.86798 344.71564 499.36798 345.27814Q498.8836 345.825 497.7586 346.77814Q496.80548 347.575 496.52423 347.8719Q496.2586 348.15314 496.08673 348.4344L500.30548 348.4344ZM501.2586 349.59064L503.74298 340.71564L504.58673 340.71564L502.10236 349.59064L501.2586 349.59064ZM505.3836 349.45L505.3836 340.85626L506.5086 340.85626L506.5086 349.45L505.3836 349.45ZM508.18048 349.45L508.18048 340.85626L511.43048 340.85626Q512.27423 340.85626 512.72736 340.9344Q513.368 341.04376 513.78986 341.34064Q514.22736 341.6375 514.47736 342.16876Q514.743 342.7 514.743 343.34064Q514.743 344.4344 514.03986 345.2Q513.35236 345.95 511.52423 345.95L509.3211 345.95L509.3211 349.45L508.18048 349.45ZM509.3211 344.95L511.53986 344.95Q512.64923 344.95 513.10236 344.54376Q513.5711 344.1219 513.5711 343.3719Q513.5711 342.84064 513.28986 342.46564Q513.02423 342.075 512.58673 341.95Q512.28986 341.8719 511.52423 341.8719L509.3211 341.8719L509.3211 344.95ZM515.8055 346.6844L516.868 346.59064Q516.9461 347.2469 517.22736 347.65314Q517.5086 348.0594 518.08673 348.325Q518.6805 348.575 519.41486 348.575Q520.0555 348.575 520.5555 348.3875Q521.0555 348.1844 521.28986 347.85626Q521.53986 347.5125 521.53986 347.1219Q521.53986 346.71564 521.3055 346.41876Q521.0711 346.10626 520.53986 345.90314Q520.1805 345.7625 518.993 345.48126Q517.8211 345.2 517.35236 344.95Q516.72736 344.6219 516.4305 344.15314Q516.1336 343.66876 516.1336 343.075Q516.1336 342.4344 516.493 341.8719Q516.868 341.29376 517.5711 341.0125Q518.28986 340.71564 519.14923 340.71564Q520.10236 340.71564 520.83673 341.02814Q521.5711 341.325 521.96173 341.9344Q522.35236 342.52814 522.3836 343.27814L521.28986 343.35626Q521.1961 342.54376 520.6805 342.1375Q520.1805 341.71564 519.1961 341.71564Q518.16486 341.71564 517.6961 342.09064Q517.22736 342.46564 517.22736 342.9969Q517.22736 343.46564 517.5555 343.7625Q517.8836 344.0594 519.2586 344.3719Q520.64923 344.6844 521.16486 344.91876Q521.91486 345.27814 522.27423 345.8094Q522.6336 346.325 522.6336 347.02814Q522.6336 347.71564 522.243 348.325Q521.85236 348.91876 521.118 349.2625Q520.3836 349.59064 519.46173 349.59064Q518.28986 349.59064 517.493 349.2625Q516.71173 348.91876 516.2586 348.23126Q515.8211 347.54376 515.8055 346.6844ZM528.3055 347.45L529.39923 347.575Q529.14923 348.52814 528.4461 349.0594Q527.743 349.59064 526.66486 349.59064Q525.3055 349.59064 524.493 348.7469Q523.6961 347.90314 523.6961 346.3875Q523.6961 344.825 524.5086 343.96564Q525.3211 343.09064 526.60236 343.09064Q527.85236 343.09064 528.6336 343.9344Q529.4305 344.77814 529.4305 346.325Q529.4305 346.41876 529.4305 346.60626L524.78986 346.60626Q524.85236 347.6375 525.368 348.1844Q525.8836 348.71564 526.66486 348.71564Q527.243 348.71564 527.64923 348.41876Q528.0711 348.10626 528.3055 347.45ZM524.85236 345.7469L528.3211 345.7469Q528.2586 344.95 527.9305 344.5594Q527.41486 343.95 526.618 343.95Q525.8836 343.95 525.3836 344.4344Q524.89923 344.91876 524.85236 345.7469ZM535.118 347.16876L536.14923 347.3094Q535.97736 348.3719 535.27423 348.98126Q534.5711 349.59064 533.5555 349.59064Q532.27423 349.59064 531.493 348.7625Q530.72736 347.91876 530.72736 346.35626Q530.72736 345.35626 531.0555 344.60626Q531.39923 343.84064 532.0711 343.46564Q532.7586 343.09064 533.5711 343.09064Q534.5711 343.09064 535.21173 343.60626Q535.868 344.10626 536.0555 345.0594L535.02423 345.21564Q534.8836 344.59064 534.5086 344.27814Q534.1336 343.95 533.60236 343.95Q532.8055 343.95 532.3055 344.52814Q531.8055 345.09064 531.8055 346.325Q531.8055 347.59064 532.28986 348.15314Q532.77423 348.71564 533.53986 348.71564Q534.16486 348.71564 534.5711 348.34064Q534.993 347.96564 535.118 347.16876Z" fill-rule="nonzero"/><path fill="#4285f4" d="M226.5 20.55C226.5 19.997715 226.94771 19.55 227.5 19.55L237.5 19.55C238.05229 19.55 238.5 19.997715 238.5 20.55L238.5 30.55C238.5 31.102285 238.05229 31.55 237.5 31.55L227.5 31.55C226.94771 31.55 226.5 31.102285 226.5 30.55Z" fill-rule="nonzero"/><path fill="#1a1a1a" d="M253.5625 26.534374L254.6875 26.83125Q254.32812 28.221874 253.40625 28.95625Q252.48438 29.690624 251.14062 29.690624Q249.75 29.690624 248.875 29.128124Q248.0 28.565624 247.54688 27.503124Q247.09375 26.425 247.09375 25.190624Q247.09375 23.846874 247.60938 22.846874Q248.125 21.846874 249.0625 21.33125Q250.01562 20.815624 251.15625 20.815624Q252.4375 20.815624 253.3125 21.471874Q254.20312 22.128124 254.54688 23.315624L253.42188 23.58125Q253.125 22.64375 252.54688 22.221874Q251.98438 21.784374 251.125 21.784374Q250.14062 21.784374 249.46875 22.26875Q248.8125 22.7375 248.53125 23.534374Q248.26562 24.33125 248.26562 25.190624Q248.26562 26.284374 248.57812 27.096874Q248.90625 27.909374 249.57812 28.315624Q250.25 28.721874 251.04688 28.721874Q252.0 28.721874 252.65625 28.175Q253.32812 27.628124 253.5625 26.534374ZM251.14062 19.815624L251.78125 18.815624L252.96875 18.815624L251.65625 20.45625L250.53125 20.45625L249.26562 18.815624L250.46875 18.815624L251.14062 19.815624ZM260.35938 28.784374Q259.76562 29.284374 259.21875 29.4875Q258.6875 29.690624 258.0625 29.690624Q257.03125 29.690624 256.48438 29.190624Q255.9375 28.690624 255.9375 27.909374Q255.9375 27.45625 256.14062 27.08125Q256.34375 26.690624 256.6875 26.471874Q257.03125 26.2375 257.45312 26.128124Q257.75 26.034374 258.39062 25.95625Q259.65625 25.815624 260.26562 25.596874Q260.26562 25.378124 260.26562 25.33125Q260.26562 24.675 259.96875 24.409374Q259.5625 24.065624 258.76562 24.065624Q258.03125 24.065624 257.67188 24.33125Q257.3125 24.58125 257.14062 25.2375L256.10938 25.096874Q256.25 24.440624 256.57812 24.034374Q256.90625 23.628124 257.51562 23.409374Q258.125 23.190624 258.92188 23.190624Q259.71875 23.190624 260.21875 23.378124Q260.71875 23.565624 260.95312 23.846874Q261.1875 24.128124 261.28125 24.565624Q261.32812 24.83125 261.32812 25.534374L261.32812 26.940624Q261.32812 28.409374 261.39062 28.8Q261.46875 29.190624 261.67188 29.55L260.5625 29.55Q260.40625 29.221874 260.35938 28.784374ZM260.26562 26.425Q259.6875 26.659374 258.54688 26.83125Q257.89062 26.925 257.625 27.05Q257.35938 27.159374 257.20312 27.378124Q257.0625 27.596874 257.0625 27.878124Q257.0625 28.3 257.375 28.58125Q257.70312 28.8625 258.3125 28.8625Q258.92188 28.8625 259.39062 28.596874Q259.875 28.33125 260.09375 27.8625Q260.26562 27.503124 260.26562 26.815624L260.26562 26.425ZM262.875 27.690624L263.90625 27.534374Q264.0 28.159374 264.39062 28.4875Q264.79688 28.815624 265.53125 28.815624Q266.25 28.815624 266.59375 28.534374Q266.95312 28.2375 266.95312 27.83125Q266.95312 27.471874 266.64062 27.26875Q266.42188 27.128124 265.5625 26.909374Q264.40625 26.6125 263.95312 26.409374Q263.51562 26.190624 263.28125 25.815624Q263.04688 25.440624 263.04688 24.971874Q263.04688 24.565624 263.23438 24.20625Q263.42188 23.846874 263.75 23.6125Q264.0 23.440624 264.42188 23.315624Q264.84375 23.190624 265.34375 23.190624Q266.0625 23.190624 266.60938 23.409374Q267.17188 23.6125 267.4375 23.971874Q267.70312 24.33125 267.79688 24.925L266.76562 25.065624Q266.70312 24.596874 266.35938 24.33125Q266.03125 24.05 265.40625 24.05Q264.6875 24.05 264.375 24.3Q264.0625 24.534374 264.0625 24.8625Q264.0625 25.065624 264.1875 25.221874Q264.32812 25.39375 264.59375 25.503124Q264.75 25.565624 265.53125 25.76875Q266.65625 26.08125 267.09375 26.26875Q267.53125 26.45625 267.78125 26.815624Q268.03125 27.175 268.03125 27.721874Q268.03125 28.253124 267.71875 28.721874Q267.42188 29.175 266.84375 29.440624Q266.26562 29.690624 265.53125 29.690624Q264.3125 29.690624 263.67188 29.190624Q263.04688 28.675 262.875 27.690624ZM273.29688 31.940624L273.29688 23.33125L274.25 23.33125L274.25 24.128124Q274.59375 23.659374 275.01562 23.425Q275.45312 23.190624 276.0625 23.190624Q276.85938 23.190624 277.46875 23.596874Q278.07812 24.003124 278.375 24.753124Q278.6875 25.503124 278.6875 26.39375Q278.6875 27.346874 278.34375 28.1125Q278.01562 28.878124 277.35938 29.284374Q276.70312 29.690624 275.98438 29.690624Q275.45312 29.690624 275.03125 29.471874Q274.60938 29.2375 274.34375 28.909374L274.34375 31.940624L273.29688 31.940624ZM274.25 26.471874Q274.25 27.675 274.73438 28.253124Q275.21875 28.815624 275.90625 28.815624Q276.60938 28.815624 277.10938 28.221874Q277.60938 27.628124 277.60938 26.378124Q277.60938 25.190624 277.125 24.6125Q276.64062 24.01875 275.95312 24.01875Q275.28125 24.01875 274.76562 24.64375Q274.25 25.26875 274.25 26.471874ZM280.28125 29.55L280.28125 23.33125L281.23438 23.33125L281.23438 24.26875Q281.59375 23.6125 281.89062 23.409374Q282.20312 23.190624 282.57812 23.190624Q283.10938 23.190624 283.65625 23.51875L283.29688 24.503124Q282.90625 24.26875 282.53125 24.26875Q282.17188 24.26875 281.89062 24.4875Q281.625 24.690624 281.51562 25.065624Q281.32812 25.628124 281.32812 26.284374L281.32812 29.55L280.28125 29.55ZM288.54688 27.55L289.64062 27.675Q289.39062 28.628124 288.6875 29.159374Q287.98438 29.690624 286.90625 29.690624Q285.54688 29.690624 284.73438 28.846874Q283.9375 28.003124 283.9375 26.4875Q283.9375 24.925 284.75 24.065624Q285.5625 23.190624 286.84375 23.190624Q288.09375 23.190624 288.875 24.034374Q289.67188 24.878124 289.67188 26.425Q289.67188 26.51875 289.67188 26.70625L285.03125 26.70625Q285.09375 27.7375 285.60938 28.284374Q286.125 28.815624 286.90625 28.815624Q287.48438 28.815624 287.89062 28.51875Q288.3125 28.20625 288.54688 27.55ZM285.09375 25.846874L288.5625 25.846874Q288.5 25.05 288.17188 24.659374Q287.65625 24.05 286.85938 24.05Q286.125 24.05 285.625 24.534374Q285.14062 25.01875 285.09375 25.846874ZM291.29688 29.55L291.29688 20.95625L292.34375 20.95625L292.34375 24.034374Q293.07812 23.190624 294.20312 23.190624Q294.90625 23.190624 295.40625 23.471874Q295.92188 23.7375 296.14062 24.221874Q296.35938 24.690624 296.35938 25.6125L296.35938 29.55L295.3125 29.55L295.3125 25.6125Q295.3125 24.815624 294.96875 24.45625Q294.625 24.096874 294.0 24.096874Q293.53125 24.096874 293.10938 24.346874Q292.70312 24.58125 292.51562 25.003124Q292.34375 25.409374 292.34375 26.14375L292.34375 29.55L291.29688 29.55ZM297.90625 26.440624Q297.90625 24.70625 298.85938 23.878124Q299.65625 23.190624 300.8125 23.190624Q302.09375 23.190624 302.90625 24.034374Q303.73438 24.8625 303.73438 26.346874Q303.73438 27.55 303.375 28.2375Q303.01562 28.925 302.3125 29.315624Q301.625 29.690624 300.8125 29.690624Q299.51562 29.690624 298.70312 28.8625Q297.90625 28.01875 297.90625 26.440624ZM298.98438 26.440624Q298.98438 27.628124 299.5 28.221874Q300.03125 28.815624 300.8125 28.815624Q301.60938 28.815624 302.125 28.221874Q302.64062 27.628124 302.64062 26.409374Q302.64062 25.253124 302.10938 24.659374Q301.59375 24.065624 300.8125 24.065624Q300.03125 24.065624 299.5 24.659374Q298.98438 25.2375 298.98438 26.440624ZM309.32812 29.55L309.32812 28.76875Q308.73438 29.690624 307.59375 29.690624Q306.84375 29.690624 306.21875 29.284374Q305.59375 28.8625 305.25 28.128124Q304.90625 27.39375 304.90625 26.440624Q304.90625 25.51875 305.21875 24.753124Q305.53125 23.9875 306.15625 23.596874Q306.78125 23.190624 307.54688 23.190624Q308.10938 23.190624 308.54688 23.425Q308.98438 23.659374 309.26562 24.034374L309.26562 20.95625L310.3125 20.95625L310.3125 29.55L309.32812 29.55ZM306.0 26.440624Q306.0 27.64375 306.5 28.2375Q307.0 28.815624 307.6875 28.815624Q308.375 28.815624 308.85938 28.253124Q309.34375 27.690624 309.34375 26.534374Q309.34375 25.253124 308.84375 24.659374Q308.35938 24.065624 307.64062 24.065624Q306.9375 24.065624 306.46875 24.64375Q306.0 25.20625 306.0 26.440624ZM316.35938 28.784374Q315.76562 29.284374 315.21875 29.4875Q314.6875 29.690624 314.0625 29.690624Q313.03125 29.690624 312.48438 29.190624Q311.9375 28.690624 311.9375 27.909374Q311.9375 27.45625 312.14062 27.08125Q312.34375 26.690624 312.6875 26.471874Q313.03125 26.2375 313.45312 26.128124Q313.75 26.034374 314.39062 25.95625Q315.65625 25.815624 316.26562 25.596874Q316.26562 25.378124 316.26562 25.33125Q316.26562 24.675 315.96875 24.409374Q315.5625 24.065624 314.76562 24.065624Q314.03125 24.065624 313.67188 24.33125Q313.3125 24.58125 313.14062 25.2375L312.10938 25.096874Q312.25 24.440624 312.57812 24.034374Q312.90625 23.628124 313.51562 23.409374Q314.125 23.190624 314.92188 23.190624Q315.71875 23.190624 316.21875 23.378124Q316.71875 23.565624 316.95312 23.846874Q317.1875 24.128124 317.28125 24.565624Q317.32812 24.83125 317.32812 25.534374L317.32812 26.940624Q317.32812 28.409374 317.39062 28.8Q317.46875 29.190624 317.67188 29.55L316.5625 29.55Q316.40625 29.221874 316.35938 28.784374ZM316.26562 26.425Q315.6875 26.659374 314.54688 26.83125Q313.89062 26.925 313.625 27.05Q313.35938 27.159374 313.20312 27.378124Q313.0625 27.596874 313.0625 27.878124Q313.0625 28.3 313.375 28.58125Q313.70312 28.8625 314.3125 28.8625Q314.92188 28.8625 315.39062 28.596874Q315.875 28.33125 316.09375 27.8625Q316.26562 27.503124 316.26562 26.815624L316.26562 26.425Z" fill-rule="nonzero"/><path stroke="#ea4335" stroke-width="4.0" stroke-linecap="butt" d="M334.5 25.55L346.5 25.55" fill-rule="nonzero"/><path fill="#1a1a1a" d="M355.375 29.55L355.375 20.95625L356.51562 20.95625L356.51562 25.221874L360.78125 20.95625L362.32812 20.95625L358.71875 24.440624L362.48438 29.55L360.98438 29.55L357.92188 25.20625L356.51562 26.565624L356.51562 29.55L355.375 29.55ZM363.42188 29.55L363.42188 20.95625L366.67188 20.95625Q367.51562 20.95625 367.96875 21.034374Q368.60938 21.14375 369.03125 21.440624Q369.46875 21.7375 369.71875 22.26875Q369.98438 22.8 369.98438 23.440624Q369.98438 24.534374 369.28125 25.3Q368.59375 26.05 366.76562 26.05L364.5625 26.05L364.5625 29.55L363.42188 29.55ZM364.5625 25.05L366.78125 25.05Q367.89062 25.05 368.34375 24.64375Q368.8125 24.221874 368.8125 23.471874Q368.8125 22.940624 368.53125 22.565624Q368.26562 22.175 367.82812 22.05Q367.53125 21.971874 366.76562 21.971874L364.5625 21.971874L364.5625 25.05ZM371.625 29.55L371.625 20.95625L372.75 20.95625L372.75 29.55L371.625 29.55Z" fill-rule="nonzero"/></svg>