<svg version="1.1" viewBox="0.0 0.0 600.0 371.0" fill="none" stroke="none" stroke-linecap="square" stroke-miterlimit="10" width="600" height="371" xmlns:xlink="http://www.w3.org/1999/xlink" xmlns="http://www.w3.org/2000/svg"><path fill="#ffffff" d="M0 0L600.0 0L600.0 371.0L0 371.0L0 0Z" fill-rule="nonzero"/><path stroke="#333333" stroke-width="1.0" stroke-linecap="butt" d="M77.5 332.5L581.5 332.5" fill-rule="nonzero"/><path stroke="#cccccc" stroke-width="1.0" stroke-linecap="butt" d="M77.5 230.5L581.5 230.5" fill-rule="nonzero"/><path stroke="#cccccc" stroke-width="1.0" stroke-linecap="butt" d="M77.5 127.5L581.5 127.5" fill-rule="nonzero"/><path stroke="#cccccc" stroke-width="1.0" stroke-linecap="butt" d="M77.5 25.5L581.5 25.5" fill-rule="nonzero"/><clipPath id="id_0"><path d="M77.55 25.55L581.45 25.55L581.45 332.45L77.55 332.45L77.55 25.55Z" clip-rule="nonzero"/></clipPath><path stroke="#000000" stroke-width="2.0" stroke-linecap="butt" stroke-opacity="0.0" clip-path="url(#id_0)" d="M194.0 332.0L119.0 332.0L119.0 232.0C119.0 230.89543 119.89543 230.0 121.0 230.0L192.0 230.0C193.10457 230.0 194.0 230.89543 194.0 232.0Z" fill-rule="nonzero"/><path fill="#4285f4" clip-path="url(#id_0)" d="M194.0 332.0L119.0 332.0L119.0 232.0C119.0 230.89543 119.89543 230.0 121.0 230.0L192.0 230.0C193.10457 230.0 194.0 230.89543 194.0 232.0Z" fill-rule="nonzero"/><path stroke="#000000" stroke-width="2.0" stroke-linecap="butt" stroke-opacity="0.0" clip-path="url(#id_0)" d="M310.0 332.0L235.0 332.0L235.0 130.0C235.0 128.89543 235.89543 128.0 237.0 128.0L308.0 128.0C309.10458 128.0 310.0 128.89543 310.0 130.0Z" fill-rule="nonzero"/><path fill="#4285f4" clip-path="url(#id_0)" d="M310.0 332.0L235.0 332.0L235.0 130.0C235.0 128.89543 235.89543 128.0 237.0 128.0L308.0 128.0C309.10458 128.0 310.0 128.89543 310.0 130.0Z" fill-rule="nonzero"/><path stroke="#000000" stroke-width="2.0" stroke-linecap="butt" stroke-opacity="0.0" clip-path="url(#id_0)" d="M425.0 332.0L350.0 332.0L350.0 130.0C350.0 128.89543 350.89542 128.0 352.0 128.0L423.0 128.0C424.10458 128.0 425.0 128.89543 425.0 130.0Z" fill-rule="nonzero"/><path fill="#4285f4" clip-path="url(#id_0)" d="M425.0 332.0L350.0 332.0L350.0 130.0C350.0 128.89543 350.89542 128.0 352.0 128.0L423.0 128.0C424.10458 128.0 425.0 128.89543 425.0 130.0Z" fill-rule="nonzero"/><path stroke="#000000" stroke-width="2.0" stroke-linecap="butt" stroke-opacity="0.0" clip-path="url(#id_0)" d="M541.0 332.0L466.0 332.0L466.0 28.0C466.0 26.89543 466.89542 26.0 468.0 26.0L539.0 26.0C540.10455 26.0 541.0 26.89543 541.0 28.0Z" fill-rule="nonzero"/><path fill="#4285f4" clip-path="url(#id_0)" d="M541.0 332.0L466.0 332.0L466.0 28.0C466.0 26.89543 466.89542 26.0 468.0 26.0L539.0 26.0C540.10455 26.0 541.0 26.89543 541.0 28.0Z" fill-rule="nonzero"/><path fill="#000000" d="M25.362513 305.92188Q23.221888 305.92188 22.018763 304.78125Q20.800013 303.625 20.800013 301.8125Q20.800013 300.60938 21.378138 299.65625Q21.940638 298.70312 22.956263 298.20312Q23.971888 297.70312 25.268763 297.70312Q26.565638 297.70312 27.596888 298.23438Q28.628138 298.76562 29.159388 299.73438Q29.690638 300.6875 29.690638 301.8125Q29.690638 303.03125 29.112513 303.98438Q28.518763 304.9375 27.518763 305.4375Q26.503138 305.92188 25.362513 305.92188ZM25.378138 304.75Q26.940638 304.75 27.831263 303.92188Q28.721888 303.07812 28.721888 301.8125Q28.721888 300.53125 27.831263 299.70312Q26.925013 298.875 25.253138 298.875Q24.206263 298.875 23.425013 299.23438Q22.643763 299.57812 22.221888 300.26562Q21.784388 300.95312 21.784388 301.79688Q21.784388 303.0 22.612513 303.875Q23.440638 304.75 25.378138 304.75ZM27.268763 292.64062L27.409388 291.60938Q28.471888 291.78125 29.081263 292.48438Q29.690638 293.1875 29.690638 294.20312Q29.690638 295.48438 28.862513 296.26562Q28.018763 297.03125 26.456263 297.03125Q25.456263 297.03125 24.706263 296.70312Q23.940638 296.35938 23.565638 295.6875Q23.190638 295.0 23.190638 294.1875Q23.190638 293.1875 23.706263 292.54688Q24.206263 291.89062 25.159388 291.70312L25.315638 292.73438Q24.690638 292.875 24.378138 293.25Q24.050013 293.625 24.050013 294.15625Q24.050013 294.95312 24.628138 295.45312Q25.190638 295.95312 26.425013 295.95312Q27.690638 295.95312 28.253138 295.46875Q28.815638 294.98438 28.815638 294.21875Q28.815638 293.59375 28.440638 293.1875Q28.065638 292.76562 27.268763 292.64062ZM27.550013 286.45312L27.675013 285.35938Q28.628138 285.60938 29.159388 286.3125Q29.690638 287.01562 29.690638 288.09375Q29.690638 289.45312 28.846888 290.26562Q28.003138 291.0625 26.487513 291.0625Q24.925013 291.0625 24.065638 290.25Q23.190638 289.4375 23.190638 288.15625Q23.190638 286.90625 24.034388 286.125Q24.878138 285.32812 26.425013 285.32812Q26.518763 285.32812 26.706263 285.32812L26.706263 289.96875Q27.737513 289.90625 28.284388 289.39062Q28.815638 288.875 28.815638 288.09375Q28.815638 287.51562 28.518763 287.10938Q28.206263 286.6875 27.550013 286.45312ZM25.846888 289.90625L25.846888 286.4375Q25.050013 286.5 24.659388 286.82812Q24.050013 287.34375 24.050013 288.14062Q24.050013 288.875 24.534388 289.375Q25.018763 289.85938 25.846888 289.90625ZM29.550013 283.70312L23.331263 283.70312L23.331263 282.76562L24.206263 282.76562Q23.190638 282.07812 23.190638 280.78125Q23.190638 280.21875 23.393763 279.75Q23.596888 279.26562 23.925013 279.03125Q24.253138 278.79688 24.690638 278.70312Q24.987513 278.65625 25.721888 278.65625L29.550013 278.65625L29.550013 279.70312L25.768763 279.70312Q25.112513 279.70312 24.800013 279.82812Q24.487513 279.95312 24.300013 280.26562Q24.096888 280.57812 24.096888 281.0Q24.096888 281.67188 24.534388 282.17188Q24.956263 282.65625 26.143763 282.65625L29.550013 282.65625L29.550013 283.70312ZM28.784388 272.64062Q29.284388 273.23438 29.487513 273.78125Q29.690638 274.3125 29.690638 274.9375Q29.690638 275.96875 29.190638 276.51562Q28.690638 277.0625 27.909388 277.0625Q27.456263 277.0625 27.081263 276.85938Q26.690638 276.65625 26.471888 276.3125Q26.237513 275.96875 26.128138 275.54688Q26.034388 275.25 25.956263 274.60938Q25.815638 273.34375 25.596888 272.73438Q25.378138 272.73438 25.331263 272.73438Q24.675013 272.73438 24.409388 273.03125Q24.065638 273.4375 24.065638 274.23438Q24.065638 274.96875 24.331263 275.32812Q24.581263 275.6875 25.237513 275.85938L25.096888 276.89062Q24.440638 276.75 24.034388 276.42188Q23.628138 276.09375 23.409388 275.48438Q23.190638 274.875 23.190638 274.07812Q23.190638 273.28125 23.378138 272.78125Q23.565638 272.28125 23.846888 272.04688Q24.128138 271.8125 24.565638 271.71875Q24.831263 271.67188 25.534388 271.67188L26.940638 271.67188Q28.409388 271.67188 28.800013 271.60938Q29.190638 271.53125 29.550013 271.32812L29.550013 272.4375Q29.221888 272.59375 28.784388 272.64062ZM26.425013 272.73438Q26.659388 273.3125 26.831263 274.45312Q26.925013 275.10938 27.050013 275.375Q27.159388 275.64062 27.378138 275.79688Q27.596888 275.9375 27.878138 275.9375Q28.300013 275.9375 28.581263 275.625Q28.862513 275.29688 28.862513 274.6875Q28.862513 274.07812 28.596888 273.60938Q28.331263 273.125 27.862513 272.90625Q27.503138 272.73438 26.815638 272.73438L26.425013 272.73438ZM29.550013 267.26562L28.690638 267.26562L24.143763 263.29688Q24.175013 263.98438 24.175013 264.5L24.175013 267.03125L23.331263 267.03125L23.331263 261.9375L24.018763 261.9375L27.971888 265.3125L28.690638 265.96875Q28.643763 265.25 28.643763 264.64062L28.643763 261.75L29.550013 261.75L29.550013 267.26562ZM28.784388 257.64062Q29.284388 258.23438 29.487513 258.78125Q29.690638 259.3125 29.690638 259.9375Q29.690638 260.96875 29.190638 261.51562Q28.690638 262.0625 27.909388 262.0625Q27.456263 262.0625 27.081263 261.85938Q26.690638 261.65625 26.471888 261.3125Q26.237513 260.96875 26.128138 260.54688Q26.034388 260.25 25.956263 259.60938Q25.815638 258.34375 25.596888 257.73438Q25.378138 257.73438 25.331263 257.73438Q24.675013 257.73438 24.409388 258.03125Q24.065638 258.4375 24.065638 259.23438Q24.065638 259.96875 24.331263 260.32812Q24.581263 260.6875 25.237513 260.85938L25.096888 261.89062Q24.440638 261.75 24.034388 261.42188Q23.628138 261.09375 23.409388 260.48438Q23.190638 259.875 23.190638 259.07812Q23.190638 258.28125 23.378138 257.78125Q23.565638 257.28125 23.846888 257.04688Q24.128138 256.8125 24.565638 256.71875Q24.831263 256.67188 25.534388 256.67188L26.940638 256.67188Q28.409388 256.67188 28.800013 256.60938Q29.190638 256.53125 29.550013 256.32812L29.550013 257.4375Q29.221888 257.59375 28.784388 257.64062ZM26.425013 257.73438Q26.659388 258.3125 26.831263 259.45312Q26.925013 260.10938 27.050013 260.375Q27.159388 260.64062 27.378138 260.79688Q27.596888 260.9375 27.878138 260.9375Q28.300013 260.9375 28.581263 260.625Q28.862513 260.29688 28.862513 259.6875Q28.862513 259.07812 28.596888 258.60938Q28.331263 258.125 27.862513 257.90625Q27.503138 257.73438 26.815638 257.73438L26.425013 257.73438ZM29.550013 254.70312L20.956263 254.70312L20.956263 253.65625L24.034388 253.65625Q23.190638 252.92188 23.190638 251.79688Q23.190638 251.09375 23.471888 250.59375Q23.737513 250.07812 24.221888 249.85938Q24.690638 249.64062 25.612513 249.64062L29.550013 249.64062L29.550013 250.6875L25.612513 250.6875Q24.815638 250.6875 24.456263 251.03125Q24.096888 251.375 24.096888 252.0Q24.096888 252.46875 24.346888 252.89062Q24.581263 253.29688 25.003138 253.48438Q25.409388 253.65625 26.143763 253.65625L29.550013 253.65625L29.550013 254.70312ZM28.612513 245.40625L29.534388 245.25Q29.628138 245.70312 29.628138 246.04688Q29.628138 246.625 29.456263 246.9375Q29.268763 247.25 28.971888 247.39062Q28.675013 247.51562 27.721888 247.51562L24.143763 247.51562L24.143763 248.28125L23.331263 248.28125L23.331263 247.51562L21.784388 247.51562L21.159388 246.46875L23.331263 246.46875L23.331263 245.40625L24.143763 245.40625L24.143763 246.46875L27.784388 246.46875Q28.237513 246.46875 28.362513 246.42188Q28.487513 246.35938 28.565638 246.23438Q28.643763 246.10938 28.643763 245.875Q28.643763 245.6875 28.612513 245.40625ZM27.550013 240.45312L27.675013 239.35938Q28.628138 239.60938 29.159388 240.3125Q29.690638 241.01562 29.690638 242.09375Q29.690638 243.45312 28.846888 244.26562Q28.003138 245.0625 26.487513 245.0625Q24.925013 245.0625 24.065638 244.25Q23.190638 243.4375 23.190638 242.15625Q23.190638 240.90625 24.034388 240.125Q24.878138 239.32812 26.425013 239.32812Q26.518763 239.32812 26.706263 239.32812L26.706263 243.96875Q27.737513 243.90625 28.284388 243.39062Q28.815638 242.875 28.815638 242.09375Q28.815638 241.51562 28.518763 241.10938Q28.206263 240.6875 27.550013 240.45312ZM25.846888 243.90625L25.846888 240.4375Q25.050013 240.5 24.659388 240.82812Q24.050013 241.34375 24.050013 242.14062Q24.050013 242.875 24.534388 243.375Q25.018763 243.85938 25.846888 243.90625ZM29.550013 235.98438L23.331263 238.34375L23.331263 237.23438L27.050013 235.89062Q27.659388 235.6875 28.300013 235.5Q27.815638 235.35938 27.128138 235.10938L23.331263 233.71875L23.331263 232.64062L29.550013 235.0L29.550013 235.98438ZM29.550013 232.70312L23.331263 232.70312L23.331263 231.76562L24.206263 231.76562Q23.190638 231.07812 23.190638 229.78125Q23.190638 229.21875 23.393763 228.75Q23.596888 228.26562 23.925013 228.03125Q24.253138 227.79688 24.690638 227.70312Q24.987513 227.65625 25.721888 227.65625L29.550013 227.65625L29.550013 228.70312L25.768763 228.70312Q25.112513 228.70312 24.800013 228.82812Q24.487513 228.95312 24.300013 229.26562Q24.096888 229.57812 24.096888 230.0Q24.096888 230.67188 24.534388 231.17188Q24.956263 231.65625 26.143763 231.65625L29.550013 231.65625L29.550013 232.70312ZM26.440638 226.09375Q24.706263 226.09375 23.878138 225.14062Q23.190638 224.34375 23.190638 223.1875Q23.190638 221.90625 24.034388 221.09375Q24.862513 220.26562 26.346888 220.26562Q27.550013 220.26562 28.237513 220.625Q28.925013 220.98438 29.315638 221.6875Q29.690638 222.375 29.690638 223.1875Q29.690638 224.48438 28.862513 225.29688Q28.018763 226.09375 26.440638 226.09375ZM26.440638 225.01562Q27.628138 225.01562 28.221888 224.5Q28.815638 223.96875 28.815638 223.1875Q28.815638 222.39062 28.221888 221.875Q27.628138 221.35938 26.409388 221.35938Q25.253138 221.35938 24.659388 221.89062Q24.065638 222.40625 24.065638 223.1875Q24.065638 223.96875 24.659388 224.5Q25.237513 225.01562 26.440638 225.01562ZM27.690638 219.125L27.534388 218.09375Q28.159388 218.0 28.487513 217.60938Q28.815638 217.20312 28.815638 216.46875Q28.815638 215.75 28.534388 215.40625Q28.237513 215.04688 27.831263 215.04688Q27.471888 215.04688 27.268763 215.35938Q27.128138 215.57812 26.909388 216.4375Q26.612513 217.59375 26.409388 218.04688Q26.190638 218.48438 25.815638 218.71875Q25.440638 218.95312 24.971888 218.95312Q24.565638 218.95312 24.206263 218.76562Q23.846888 218.57812 23.612513 218.25Q23.440638 218.0 23.315638 217.57812Q23.190638 217.15625 23.190638 216.65625Q23.190638 215.9375 23.409388 215.39062Q23.612513 214.82812 23.971888 214.5625Q24.331263 214.29688 24.925013 214.20312L25.065638 215.23438Q24.596888 215.29688 24.331263 215.64062Q24.050013 215.96875 24.050013 216.59375Q24.050013 217.3125 24.300013 217.625Q24.534388 217.9375 24.862513 217.9375Q25.065638 217.9375 25.221888 217.8125Q25.393763 217.67188 25.503138 217.40625Q25.565638 217.25 25.768763 216.46875Q26.081263 215.34375 26.268763 214.90625Q26.456263 214.46875 26.815638 214.21875Q27.175013 213.96875 27.721888 213.96875Q28.253138 213.96875 28.721888 214.28125Q29.175013 214.57812 29.440638 215.15625Q29.690638 215.73438 29.690638 216.46875Q29.690638 217.6875 29.190638 218.32812Q28.675013 218.95312 27.690638 219.125ZM28.612513 209.40625L29.534388 209.25Q29.628138 209.70312 29.628138 210.04688Q29.628138 210.625 29.456263 210.9375Q29.268763 211.25 28.971888 211.39062Q28.675013 211.51562 27.721888 211.51562L24.143763 211.51562L24.143763 212.28125L23.331263 212.28125L23.331263 211.51562L21.784388 211.51562L21.159388 210.46875L23.331263 210.46875L23.331263 209.40625L24.143763 209.40625L24.143763 210.46875L27.784388 210.46875Q28.237513 210.46875 28.362513 210.42188Q28.487513 210.35938 28.565638 210.23438Q28.643763 210.10938 28.643763 209.875Q28.643763 209.6875 28.612513 209.40625ZM22.175013 208.70312L20.956263 208.70312L20.956263 207.64062L22.175013 207.64062L22.175013 208.70312ZM29.550013 208.70312L23.331263 208.70312L23.331263 207.64062L29.550013 207.64062L29.550013 208.70312ZM22.175013 202.70312L20.956263 202.70312L20.956263 201.64062L22.175013 201.64062L22.175013 202.70312ZM29.550013 202.70312L23.331263 202.70312L23.331263 201.64062L29.550013 201.64062L29.550013 202.70312ZM29.550013 199.70312L23.331263 199.70312L23.331263 198.76562L24.206263 198.76562Q23.737513 198.46875 23.471888 197.98438Q23.190638 197.5 23.190638 196.875Q23.190638 196.1875 23.471888 195.75Q23.753138 195.29688 24.268763 195.125Q23.190638 194.375 23.190638 193.20312Q23.190638 192.26562 23.706263 191.78125Q24.206263 191.28125 25.284388 191.28125L29.550013 191.28125L29.550013 192.32812L25.628138 192.32812Q25.003138 192.32812 24.721888 192.4375Q24.440638 192.53125 24.268763 192.79688Q24.096888 193.0625 24.096888 193.4375Q24.096888 194.09375 24.534388 194.53125Q24.971888 194.95312 25.940638 194.95312L29.550013 194.95312L29.550013 196.01562L25.503138 196.01562Q24.800013 196.01562 24.456263 196.28125Q24.096888 196.53125 24.096888 197.10938Q24.096888 197.5625 24.331263 197.9375Q24.565638 198.3125 25.018763 198.48438Q25.471888 198.65625 26.315638 198.65625L29.550013 198.65625L29.550013 199.70312ZM31.940638 188.70312L23.331263 188.70312L23.331263 187.75L24.128138 187.75Q23.659388 187.40625 23.425013 186.98438Q23.190638 186.54688 23.190638 185.9375Q23.190638 185.14062 23.596888 184.53125Q24.003138 183.92188 24.753138 183.625Q25.503138 183.3125 26.393763 183.3125Q27.346888 183.3125 28.112513 183.65625Q28.878138 183.98438 29.284388 184.64062Q29.690638 185.29688 29.690638 186.01562Q29.690638 186.54688 29.471888 186.96875Q29.237513 187.39062 28.909388 187.65625L31.940638 187.65625L31.940638 188.70312ZM26.471888 187.75Q27.675013 187.75 28.253138 187.26562Q28.815638 186.78125 28.815638 186.09375Q28.815638 185.39062 28.221888 184.89062Q27.628138 184.39062 26.378138 184.39062Q25.190638 184.39062 24.612513 184.875Q24.018763 185.35938 24.018763 186.04688Q24.018763 186.71875 24.643763 187.23438Q25.268763 187.75 26.471888 187.75ZM29.550013 181.73438L20.956263 181.73438L20.956263 180.67188L29.550013 180.67188L29.550013 181.73438ZM27.550013 174.45312L27.675013 173.35938Q28.628138 173.60938 29.159388 174.3125Q29.690638 175.01562 29.690638 176.09375Q29.690638 177.45312 28.846888 178.26562Q28.003138 179.0625 26.487513 179.0625Q24.925013 179.0625 24.065638 178.25Q23.190638 177.4375 23.190638 176.15625Q23.190638 174.90625 24.034388 174.125Q24.878138 173.32812 26.425013 173.32812Q26.518763 173.32812 26.706263 173.32812L26.706263 177.96875Q27.737513 177.90625 28.284388 177.39062Q28.815638 176.875 28.815638 176.09375Q28.815638 175.51562 28.518763 175.10938Q28.206263 174.6875 27.550013 174.45312ZM25.846888 177.90625L25.846888 174.4375Q25.050013 174.5 24.659388 174.82812Q24.050013 175.34375 24.050013 176.14062Q24.050013 176.875 24.534388 177.375Q25.018763 177.85938 25.846888 177.90625ZM29.550013 171.70312L23.331263 171.70312L23.331263 170.76562L24.206263 170.76562Q23.737513 170.46875 23.471888 169.98438Q23.190638 169.5 23.190638 168.875Q23.190638 168.1875 23.471888 167.75Q23.753138 167.29688 24.268763 167.125Q23.190638 166.375 23.190638 165.20312Q23.190638 164.26562 23.706263 163.78125Q24.206263 163.28125 25.284388 163.28125L29.550013 163.28125L29.550013 164.32812L25.628138 164.32812Q25.003138 164.32812 24.721888 164.4375Q24.440638 164.53125 24.268763 164.79688Q24.096888 165.0625 24.096888 165.4375Q24.096888 166.09375 24.534388 166.53125Q24.971888 166.95312 25.940638 166.95312L29.550013 166.95312L29.550013 168.01562L25.503138 168.01562Q24.800013 168.01562 24.456263 168.28125Q24.096888 168.53125 24.096888 169.10938Q24.096888 169.5625 24.331263 169.9375Q24.565638 170.3125 25.018763 170.48438Q25.471888 170.65625 26.315638 170.65625L29.550013 170.65625L29.550013 171.70312ZM27.550013 156.45312L27.675013 155.35938Q28.628138 155.60938 29.159388 156.3125Q29.690638 157.01562 29.690638 158.09375Q29.690638 159.45312 28.846888 160.26562Q28.003138 161.0625 26.487513 161.0625Q24.925013 161.0625 24.065638 160.25Q23.190638 159.4375 23.190638 158.15625Q23.190638 156.90625 24.034388 156.125Q24.878138 155.32812 26.425013 155.32812Q26.518763 155.32812 26.706263 155.32812L26.706263 159.96875Q27.737513 159.90625 28.284388 159.39062Q28.815638 158.875 28.815638 158.09375Q28.815638 157.51562 28.518763 157.10938Q28.206263 156.6875 27.550013 156.45312ZM25.846888 159.90625L25.846888 156.4375Q25.050013 156.5 24.659388 156.82812Q24.050013 157.34375 24.050013 158.14062Q24.050013 158.875 24.534388 159.375Q25.018763 159.85938 25.846888 159.90625ZM29.550013 153.70312L23.331263 153.70312L23.331263 152.76562L24.206263 152.76562Q23.190638 152.07812 23.190638 150.78125Q23.190638 150.21875 23.393763 149.75Q23.596888 149.26562 23.925013 149.03125Q24.253138 148.79688 24.690638 148.70312Q24.987513 148.65625 25.721888 148.65625L29.550013 148.65625L29.550013 149.70312L25.768763 149.70312Q25.112513 149.70312 24.800013 149.82812Q24.487513 149.95312 24.300013 150.26562Q24.096888 150.57812 24.096888 151.0Q24.096888 151.67188 24.534388 152.17188Q24.956263 152.65625 26.143763 152.65625L29.550013 152.65625L29.550013 153.70312ZM28.612513 144.40625L29.534388 144.25Q29.628138 144.70312 29.628138 145.04688Q29.628138 145.625 29.456263 145.9375Q29.268763 146.25 28.971888 146.39062Q28.675013 146.51562 27.721888 146.51562L24.143763 146.51562L24.143763 147.28125L23.331263 147.28125L23.331263 146.51562L21.784388 146.51562L21.159388 145.46875L23.331263 145.46875L23.331263 144.40625L24.143763 144.40625L24.143763 145.46875L27.784388 145.46875Q28.237513 145.46875 28.362513 145.42188Q28.487513 145.35938 28.565638 145.23438Q28.643763 145.10938 28.643763 144.875Q28.643763 144.6875 28.612513 144.40625ZM28.784388 139.64062Q29.284388 140.23438 29.487513 140.78125Q29.690638 141.3125 29.690638 141.9375Q29.690638 142.96875 29.190638 143.51562Q28.690638 144.0625 27.909388 144.0625Q27.456263 144.0625 27.081263 143.85938Q26.690638 143.65625 26.471888 143.3125Q26.237513 142.96875 26.128138 142.54688Q26.034388 142.25 25.956263 141.60938Q25.815638 140.34375 25.596888 139.73438Q25.378138 139.73438 25.331263 139.73438Q24.675013 139.73438 24.409388 140.03125Q24.065638 140.4375 24.065638 141.23438Q24.065638 141.96875 24.331263 142.32812Q24.581263 142.6875 25.237513 142.85938L25.096888 143.89062Q24.440638 143.75 24.034388 143.42188Q23.628138 143.09375 23.409388 142.48438Q23.190638 141.875 23.190638 141.07812Q23.190638 140.28125 23.378138 139.78125Q23.565638 139.28125 23.846888 139.04688Q24.128138 138.8125 24.565638 138.71875Q24.831263 138.67188 25.534388 138.67188L26.940638 138.67188Q28.409388 138.67188 28.800013 138.60938Q29.190638 138.53125 29.550013 138.32812L29.550013 139.4375Q29.221888 139.59375 28.784388 139.64062ZM26.425013 139.73438Q26.659388 140.3125 26.831263 141.45312Q26.925013 142.10938 27.050013 142.375Q27.159388 142.64062 27.378138 142.79688Q27.596888 142.9375 27.878138 142.9375Q28.300013 142.9375 28.581263 142.625Q28.862513 142.29688 28.862513 141.6875Q28.862513 141.07812 28.596888 140.60938Q28.331263 140.125 27.862513 139.90625Q27.503138 139.73438 26.815638 139.73438L26.425013 139.73438ZM27.268763 132.64062L27.409388 131.60938Q28.471888 131.78125 29.081263 132.48438Q29.690638 133.1875 29.690638 134.20312Q29.690638 135.48438 28.862513 136.26562Q28.018763 137.03125 26.456263 137.03125Q25.456263 137.03125 24.706263 136.70312Q23.940638 136.35938 23.565638 135.6875Q23.190638 135.0 23.190638 134.1875Q23.190638 133.1875 23.706263 132.54688Q24.206263 131.89062 25.159388 131.70312L25.315638 132.73438Q24.690638 132.875 24.378138 133.25Q24.050013 133.625 24.050013 134.15625Q24.050013 134.95312 24.628138 135.45312Q25.190638 135.95312 26.425013 135.95312Q27.690638 135.95312 28.253138 135.46875Q28.815638 134.98438 28.815638 134.21875Q28.815638 133.59375 28.440638 133.1875Q28.065638 132.76562 27.268763 132.64062ZM22.175013 130.70312L20.956263 130.70312L20.956263 129.64062L22.175013 129.64062L22.175013 130.70312ZM29.550013 130.70312L23.331263 130.70312L23.331263 129.64062L29.550013 129.64062L29.550013 130.70312ZM22.190638 127.71875L20.956263 127.71875L20.956263 126.65625L22.190638 126.65625L22.190638 127.71875ZM31.971888 129.04688L31.065638 128.85938Q31.143763 128.53125 31.143763 128.35938Q31.143763 128.03125 30.925013 127.875Q30.721888 127.71875 29.862513 127.71875L23.331263 127.71875L23.331263 126.65625L29.893763 126.65625Q31.034388 126.65625 31.487513 126.953125Q32.08126 127.34375 32.08126 128.21875Q32.08126 128.65625 31.971888 129.04688ZM27.550013 120.453125L27.675013 119.359375Q28.628138 119.609375 29.159388 120.3125Q29.690638 121.015625 29.690638 122.09375Q29.690638 123.453125 28.846888 124.265625Q28.003138 125.0625 26.487513 125.0625Q24.925013 125.0625 24.065638 124.25Q23.190638 123.4375 23.190638 122.15625Q23.190638 120.90625 24.034388 120.125Q24.878138 119.328125 26.425013 119.328125Q26.518763 119.328125 26.706263 119.328125L26.706263 123.96875Q27.737513 123.90625 28.284388 123.390625Q28.815638 122.875 28.815638 122.09375Q28.815638 121.515625 28.518763 121.109375Q28.206263 120.6875 27.550013 120.453125ZM25.846888 123.90625L25.846888 120.4375Q25.050013 120.5 24.659388 120.828125Q24.050013 121.34375 24.050013 122.140625Q24.050013 122.875 24.534388 123.375Q25.018763 123.859375 25.846888 123.90625ZM26.440638 115.09375Q24.706263 115.09375 23.878138 114.140625Q23.190638 113.34375 23.190638 112.1875Q23.190638 110.90625 24.034388 110.09375Q24.862513 109.265625 26.346888 109.265625Q27.550013 109.265625 28.237513 109.625Q28.925013 109.984375 29.315638 110.6875Q29.690638 111.375 29.690638 112.1875Q29.690638 113.484375 28.862513 114.296875Q28.018763 115.09375 26.440638 115.09375ZM26.440638 114.015625Q27.628138 114.015625 28.221888 113.5Q28.815638 112.96875 28.815638 112.1875Q28.815638 111.390625 28.221888 110.875Q27.628138 110.359375 26.409388 110.359375Q25.253138 110.359375 24.659388 110.890625Q24.065638 111.40625 24.065638 112.1875Q24.065638 112.96875 24.659388 113.5Q25.237513 114.015625 26.440638 114.015625ZM29.550013 103.671875L28.768763 103.671875Q29.690638 104.265625 29.690638 105.40625Q29.690638 106.15625 29.284388 106.78125Q28.862513 107.40625 28.128138 107.75Q27.393763 108.09375 26.440638 108.09375Q25.518763 108.09375 24.753138 107.78125Q23.987513 107.46875 23.596888 106.84375Q23.190638 106.21875 23.190638 105.453125Q23.190638 104.890625 23.425013 104.453125Q23.659388 104.015625 24.034388 103.734375L20.956263 103.734375L20.956263 102.6875L29.550013 102.6875L29.550013 103.671875ZM26.440638 107.0Q27.643763 107.0 28.237513 106.5Q28.815638 106.0 28.815638 105.3125Q28.815638 104.625 28.253138 104.140625Q27.690638 103.65625 26.534388 103.65625Q25.253138 103.65625 24.659388 104.15625Q24.065638 104.640625 24.065638 105.359375Q24.065638 106.0625 24.643763 106.53125Q25.206263 107.0 26.440638 107.0ZM29.550013 94.03125L29.550013 95.078125L22.831263 95.078125Q23.190638 95.46875 23.565638 96.09375Q23.925013 96.703125 24.096888 97.1875L23.081263 97.1875Q22.659388 96.3125 22.081263 95.65625Q21.487513 94.984375 20.925013 94.703125L20.925013 94.03125L29.550013 94.03125ZM29.550013 83.671875L28.768763 83.671875Q29.690638 84.265625 29.690638 85.40625Q29.690638 86.15625 29.284388 86.78125Q28.862513 87.40625 28.128138 87.75Q27.393763 88.09375 26.440638 88.09375Q25.518763 88.09375 24.753138 87.78125Q23.987513 87.46875 23.596888 86.84375Q23.190638 86.21875 23.190638 85.453125Q23.190638 84.890625 23.425013 84.453125Q23.659388 84.015625 24.034388 83.734375L20.956263 83.734375L20.956263 82.6875L29.550013 82.6875L29.550013 83.671875ZM26.440638 87.0Q27.643763 87.0 28.237513 86.5Q28.815638 86.0 28.815638 85.3125Q28.815638 84.625 28.253138 84.140625Q27.690638 83.65625 26.534388 83.65625Q25.253138 83.65625 24.659388 84.15625Q24.065638 84.640625 24.065638 85.359375Q24.065638 86.0625 24.643763 86.53125Q25.206263 87.0 26.440638 87.0ZM26.440638 81.09375Q24.706263 81.09375 23.878138 80.140625Q23.190638 79.34375 23.190638 78.1875Q23.190638 76.90625 24.034388 76.09375Q24.862513 75.265625 26.346888 75.265625Q27.550013 75.265625 28.237513 75.625Q28.925013 75.984375 29.315638 76.6875Q29.690638 77.375 29.690638 78.1875Q29.690638 79.484375 28.862513 80.296875Q28.018763 81.09375 26.440638 81.09375ZM26.440638 80.015625Q27.628138 80.015625 28.221888 79.5Q28.815638 78.96875 28.815638 78.1875Q28.815638 77.390625 28.221888 76.875Q27.628138 76.359375 26.409388 76.359375Q25.253138 76.359375 24.659388 76.890625Q24.065638 77.40625 24.065638 78.1875Q24.065638 78.96875 24.659388 79.5Q25.237513 80.015625 26.440638 80.015625ZM27.284388 71.0L27.143763 69.9375Q28.034388 69.765625 28.440638 69.328125Q28.831263 68.890625 28.831263 68.265625Q28.831263 67.515625 28.315638 67.0Q27.800013 66.484375 27.034388 66.484375Q26.315638 66.484375 25.846888 66.96875Q25.362513 67.4375 25.362513 68.171875Q25.362513 68.46875 25.487513 68.921875L24.550013 68.796875Q24.565638 68.6875 24.565638 68.625Q24.565638 67.953125 24.221888 67.421875Q23.862513 66.875 23.128138 66.875Q22.550013 66.875 22.175013 67.265625Q21.784388 67.65625 21.784388 68.28125Q21.784388 68.890625 22.175013 69.3125Q22.565638 69.71875 23.331263 69.828125L23.143763 70.890625Q22.096888 70.703125 21.518763 70.015625Q20.925013 69.328125 20.925013 68.3125Q20.925013 67.609375 21.237513 67.015625Q21.534388 66.421875 22.050013 66.109375Q22.565638 65.796875 23.159388 65.796875Q23.706263 65.796875 24.175013 66.09375Q24.628138 66.390625 24.893763 66.96875Q25.065638 66.21875 25.628138 65.796875Q26.175013 65.375 27.018763 65.375Q28.143763 65.375 28.925013 66.203125Q29.706263 67.015625 29.706263 68.265625Q29.706263 69.390625 29.034388 70.140625Q28.346888 70.890625 27.284388 71.0Z" fill-rule="nonzero"/><path fill="#000000" d="M65.05 332.21564Q65.05 330.6844 65.3625 329.7625Q65.675 328.825 66.28438 328.325Q66.90938 327.825 67.84688 327.825Q68.53438 327.825 69.05 328.10626Q69.58125 328.3875 69.925 328.91876Q70.26875 329.4344 70.45625 330.1844Q70.64375 330.9344 70.64375 332.21564Q70.64375 333.73126 70.33125 334.65314Q70.03438 335.575 69.40938 336.09064Q68.8 336.59064 67.84688 336.59064Q66.6125 336.59064 65.89375 335.7Q65.05 334.6375 65.05 332.21564ZM66.12813 332.21564Q66.12813 334.325 66.62813 335.02814Q67.12813 335.73126 67.84688 335.73126Q68.58125 335.73126 69.06563 335.02814Q69.56563 334.325 69.56563 332.21564Q69.56563 330.09064 69.06563 329.40314Q68.58125 328.7 67.83125 328.7Q67.1125 328.7 66.675 329.3094Q66.12813 330.09064 66.12813 332.21564Z" fill-rule="nonzero"/><path fill="#000000" d="M69.01875 234.15L67.97188 234.15L67.97188 227.43124Q67.58125 227.79062 66.95625 228.16562Q66.34688 228.525 65.8625 228.69687L65.8625 227.68124Q66.7375 227.25937 67.39375 226.68124Q68.06563 226.0875 68.34688 225.525L69.01875 225.525L69.01875 234.15Z" fill-rule="nonzero"/><path fill="#000000" d="M70.59688 130.83438L70.59688 131.85L64.90938 131.85Q64.90938 131.475 65.03438 131.11563Q65.25313 130.5375 65.72188 129.975Q66.20625 129.4125 67.1125 128.67813Q68.51875 127.52188 69.00313 126.850006Q69.50313 126.17813 69.50313 125.58438Q69.50313 124.95938 69.05 124.537506Q68.59688 124.100006 67.87813 124.100006Q67.1125 124.100006 66.65938 124.55313Q66.20625 125.006256 66.19063 125.818756L65.1125 125.70938Q65.22188 124.49063 65.94063 123.86563Q66.675 123.225006 67.90938 123.225006Q69.14375 123.225006 69.8625 123.912506Q70.58125 124.600006 70.58125 125.61563Q70.58125 126.131256 70.3625 126.631256Q70.15938 127.11563 69.65938 127.67813Q69.175 128.225 68.05 129.17813Q67.09688 129.975 66.81563 130.27188Q66.55 130.55313 66.37813 130.83438L70.59688 130.83438Z" fill-rule="nonzero"/><path fill="#000000" d="M65.05 27.284374L66.1125 27.14375Q66.28438 28.034374 66.72188 28.440624Q67.15938 28.83125 67.78438 28.83125Q68.53438 28.83125 69.05 28.315624Q69.56563 27.8 69.56563 27.034374Q69.56563 26.315624 69.08125 25.846874Q68.6125 25.3625 67.87813 25.3625Q67.58125 25.3625 67.12813 25.4875L67.25313 24.55Q67.3625 24.565624 67.425 24.565624Q68.09688 24.565624 68.62813 24.221874Q69.175 23.8625 69.175 23.128124Q69.175 22.55 68.78438 22.175Q68.39375 21.784374 67.76875 21.784374Q67.15938 21.784374 66.7375 22.175Q66.33125 22.565624 66.22188 23.33125L65.15938 23.14375Q65.34688 22.096874 66.03438 21.51875Q66.72188 20.925 67.7375 20.925Q68.44063 20.925 69.03438 21.2375Q69.62813 21.534374 69.94063 22.05Q70.25313 22.565624 70.25313 23.159374Q70.25313 23.70625 69.95625 24.175Q69.65938 24.628124 69.08125 24.89375Q69.83125 25.065624 70.25313 25.628124Q70.675 26.175 70.675 27.01875Q70.675 28.14375 69.84688 28.925Q69.03438 29.70625 67.78438 29.70625Q66.65938 29.70625 65.90938 29.034374Q65.15938 28.346874 65.05 27.284374Z" fill-rule="nonzero"/><path fill="#000000" d="M132.97575 349.45L132.97575 348.3875L137.382 342.8875Q137.85075 342.3094 138.27263 341.8719L133.47575 341.8719L133.47575 340.85626L139.632 340.85626L139.632 341.8719L134.80388 347.825L134.28825 348.4344L139.77263 348.4344L139.77263 349.45L132.97575 349.45ZM144.78825 347.45L145.882 347.575Q145.632 348.52814 144.92888 349.0594Q144.22575 349.59064 143.14763 349.59064Q141.78825 349.59064 140.97575 348.7469Q140.17888 347.90314 140.17888 346.3875Q140.17888 344.825 140.99138 343.96564Q141.80388 343.09064 143.08513 343.09064Q144.33513 343.09064 145.11638 343.9344Q145.91325 344.77814 145.91325 346.325Q145.91325 346.41876 145.91325 346.60626L141.27263 346.60626Q141.33513 347.6375 141.85075 348.1844Q142.36638 348.71564 143.14763 348.71564Q143.72575 348.71564 144.132 348.41876Q144.55388 348.10626 144.78825 347.45ZM141.33513 345.7469L144.80388 345.7469Q144.74138 344.95 144.41325 344.5594Q143.89763 343.95 143.10075 343.95Q142.36638 343.95 141.86638 344.4344Q141.382 344.91876 141.33513 345.7469ZM147.52263 349.45L147.52263 343.23126L148.47575 343.23126L148.47575 344.16876Q148.83513 343.5125 149.132 343.3094Q149.4445 343.09064 149.8195 343.09064Q150.35075 343.09064 150.89763 343.41876L150.53825 344.40314Q150.14763 344.16876 149.77263 344.16876Q149.41325 344.16876 149.132 344.3875Q148.86638 344.59064 148.757 344.96564Q148.5695 345.52814 148.5695 346.1844L148.5695 349.45L147.52263 349.45ZM151.14763 346.34064Q151.14763 344.60626 152.10075 343.77814Q152.89763 343.09064 154.05388 343.09064Q155.33513 343.09064 156.14763 343.9344Q156.97575 344.7625 156.97575 346.2469Q156.97575 347.45 156.61638 348.1375Q156.257 348.825 155.55388 349.21564Q154.86638 349.59064 154.05388 349.59064Q152.757 349.59064 151.9445 348.7625Q151.14763 347.91876 151.14763 346.34064ZM152.22575 346.34064Q152.22575 347.52814 152.74138 348.1219Q153.27263 348.71564 154.05388 348.71564Q154.85075 348.71564 155.36638 348.1219Q155.882 347.52814 155.882 346.3094Q155.882 345.15314 155.35075 344.5594Q154.83513 343.96564 154.05388 343.96564Q153.27263 343.96564 152.74138 344.5594Q152.22575 345.1375 152.22575 346.34064ZM160.85075 349.45L160.85075 341.8719L158.02263 341.8719L158.02263 340.85626L164.83513 340.85626L164.83513 341.8719L161.99138 341.8719L161.99138 349.45L160.85075 349.45ZM165.53825 342.075L165.53825 340.85626L166.60075 340.85626L166.60075 342.075L165.53825 342.075ZM165.53825 349.45L165.53825 343.23126L166.60075 343.23126L166.60075 349.45L165.53825 349.45ZM172.78825 347.45L173.882 347.575Q173.632 348.52814 172.92888 349.0594Q172.22575 349.59064 171.14763 349.59064Q169.78825 349.59064 168.97575 348.7469Q168.17888 347.90314 168.17888 346.3875Q168.17888 344.825 168.99138 343.96564Q169.80388 343.09064 171.08513 343.09064Q172.33513 343.09064 173.11638 343.9344Q173.91325 344.77814 173.91325 346.325Q173.91325 346.41876 173.91325 346.60626L169.27263 346.60626Q169.33513 347.6375 169.85075 348.1844Q170.36638 348.71564 171.14763 348.71564Q171.72575 348.71564 172.132 348.41876Q172.55388 348.10626 172.78825 347.45ZM169.33513 345.7469L172.80388 345.7469Q172.74138 344.95 172.41325 344.5594Q171.89763 343.95 171.10075 343.95Q170.36638 343.95 169.86638 344.4344Q169.382 344.91876 169.33513 345.7469ZM175.52263 349.45L175.52263 343.23126L176.47575 343.23126L176.47575 344.16876Q176.83513 343.5125 177.132 343.3094Q177.4445 343.09064 177.8195 343.09064Q178.35075 343.09064 178.89763 343.41876L178.53825 344.40314Q178.14763 344.16876 177.77263 344.16876Q177.41325 344.16876 177.132 344.3875Q176.86638 344.59064 176.757 344.96564Q176.5695 345.52814 176.5695 346.1844L176.5695 349.45L175.52263 349.45Z" fill-rule="nonzero"/><path fill="#000000" d="M245.15858 345.2625Q245.15858 343.1219 246.29921 341.91876Q247.45546 340.7 249.26796 340.7Q250.47108 340.7 251.42421 341.27814Q252.37733 341.84064 252.87733 342.85626Q253.37733 343.8719 253.37733 345.16876Q253.37733 346.46564 252.84608 347.4969Q252.31483 348.52814 251.34608 349.0594Q250.39296 349.59064 249.26796 349.59064Q248.04921 349.59064 247.09608 349.0125Q246.14296 348.41876 245.64296 347.41876Q245.15858 346.40314 245.15858 345.2625ZM246.33046 345.27814Q246.33046 346.84064 247.15858 347.73126Q248.00233 348.6219 249.26796 348.6219Q250.54921 348.6219 251.37733 347.73126Q252.20546 346.825 252.20546 345.15314Q252.20546 344.10626 251.84608 343.325Q251.50233 342.54376 250.81483 342.1219Q250.12733 341.6844 249.28358 341.6844Q248.08046 341.6844 247.20546 342.5125Q246.33046 343.34064 246.33046 345.27814ZM254.37733 351.84064L254.37733 343.23126L255.33046 343.23126L255.33046 344.02814Q255.67421 343.5594 256.09607 343.325Q256.53357 343.09064 257.14294 343.09064Q257.93982 343.09064 258.5492 343.4969Q259.15857 343.90314 259.45544 344.65314Q259.76794 345.40314 259.76794 346.29376Q259.76794 347.2469 259.4242 348.0125Q259.09607 348.77814 258.43982 349.1844Q257.78357 349.59064 257.06482 349.59064Q256.53357 349.59064 256.1117 349.3719Q255.68983 349.1375 255.42421 348.8094L255.42421 351.84064L254.37733 351.84064ZM255.33046 346.3719Q255.33046 347.575 255.81483 348.15314Q256.2992 348.71564 256.9867 348.71564Q257.68982 348.71564 258.18982 348.1219Q258.68982 347.52814 258.68982 346.27814Q258.68982 345.09064 258.20544 344.5125Q257.72107 343.91876 257.03357 343.91876Q256.3617 343.91876 255.84608 344.54376Q255.33046 345.16876 255.33046 346.3719ZM265.62732 347.45L266.72107 347.575Q266.47107 348.52814 265.76794 349.0594Q265.06482 349.59064 263.9867 349.59064Q262.62732 349.59064 261.81482 348.7469Q261.01794 347.90314 261.01794 346.3875Q261.01794 344.825 261.83044 343.96564Q262.64294 343.09064 263.9242 343.09064Q265.1742 343.09064 265.95544 343.9344Q266.75232 344.77814 266.75232 346.325Q266.75232 346.41876 266.75232 346.60626L262.1117 346.60626Q262.1742 347.6375 262.68982 348.1844Q263.20544 348.71564 263.9867 348.71564Q264.56482 348.71564 264.97107 348.41876Q265.39294 348.10626 265.62732 347.45ZM262.1742 345.7469L265.64294 345.7469Q265.58044 344.95 265.25232 344.5594Q264.7367 343.95 263.93982 343.95Q263.20544 343.95 262.70544 344.4344Q262.22107 344.91876 262.1742 345.7469ZM268.37732 349.45L268.37732 343.23126L269.31482 343.23126L269.31482 344.10626Q270.00232 343.09064 271.2992 343.09064Q271.8617 343.09064 272.33044 343.29376Q272.81482 343.4969 273.0492 343.825Q273.28357 344.15314 273.37732 344.59064Q273.4242 344.8875 273.4242 345.6219L273.4242 349.45L272.37732 349.45L272.37732 345.66876Q272.37732 345.0125 272.25232 344.7Q272.12732 344.3875 271.81482 344.2Q271.50232 343.9969 271.08044 343.9969Q270.40857 343.9969 269.90857 344.4344Q269.4242 344.85626 269.4242 346.04376L269.4242 349.45L268.37732 349.45ZM277.95544 349.45L274.62732 340.85626L275.8617 340.85626L278.09607 347.10626Q278.3617 347.85626 278.5492 348.5125Q278.75232 347.8094 279.01794 347.10626L281.33044 340.85626L282.4867 340.85626L279.12732 349.45L277.95544 349.45ZM282.50232 349.45L282.50232 340.85626L285.75232 340.85626Q286.59607 340.85626 287.0492 340.9344Q287.68982 341.04376 288.1117 341.34064Q288.5492 341.6375 288.7992 342.16876Q289.06482 342.7 289.06482 343.34064Q289.06482 344.4344 288.3617 345.2Q287.6742 345.95 285.84607 345.95L283.64294 345.95L283.64294 349.45L282.50232 349.45ZM283.64294 344.95L285.8617 344.95Q286.97107 344.95 287.4242 344.54376Q287.89294 344.1219 287.89294 343.3719Q287.89294 342.84064 287.6117 342.46564Q287.34607 342.075 286.90857 341.95Q286.6117 341.8719 285.84607 341.8719L283.64294 341.8719L283.64294 344.95ZM290.50232 349.45L290.50232 340.85626L291.65857 340.85626L296.1742 347.60626L296.1742 340.85626L297.26794 340.85626L297.26794 349.45L296.09607 349.45L291.58044 342.7L291.58044 349.45L290.50232 349.45Z" fill-rule="nonzero"/><path fill="#000000" d="M360.3414 349.45L358.06015 340.85626L359.23203 340.85626L360.54453 346.4969Q360.74765 347.3719 360.9039 348.2469Q361.23203 346.8719 361.29453 346.65314L362.91953 340.85626L364.29453 340.85626L365.5289 345.2Q365.98203 346.825 366.20078 348.2469Q366.35703 347.4344 366.62265 346.3719L367.9664 340.85626L369.10703 340.85626L366.76328 349.45L365.6539 349.45L363.85703 342.90314Q363.62265 342.09064 363.57578 341.90314Q363.45078 342.48126 363.32578 342.90314L361.51328 349.45L360.3414 349.45ZM369.7164 342.075L369.7164 340.85626L370.7789 340.85626L370.7789 342.075L369.7164 342.075ZM369.7164 349.45L369.7164 343.23126L370.7789 343.23126L370.7789 349.45L369.7164 349.45ZM372.70078 349.45L372.70078 343.23126L373.6539 343.23126L373.6539 344.16876Q374.01328 343.5125 374.31015 343.3094Q374.62265 343.09064 374.99765 343.09064Q375.5289 343.09064 376.07578 343.41876L375.7164 344.40314Q375.32578 344.16876 374.95078 344.16876Q374.5914 344.16876 374.31015 344.3875Q374.04453 344.59064 373.93515 344.96564Q373.74765 345.52814 373.74765 346.1844L373.74765 349.45L372.70078 349.45ZM380.9664 347.45L382.06015 347.575Q381.81015 348.52814 381.10703 349.0594Q380.4039 349.59064 379.32578 349.59064Q377.9664 349.59064 377.1539 348.7469Q376.35703 347.90314 376.35703 346.3875Q376.35703 344.825 377.16953 343.96564Q377.98203 343.09064 379.26328 343.09064Q380.51328 343.09064 381.29453 343.9344Q382.0914 344.77814 382.0914 346.325Q382.0914 346.41876 382.0914 346.60626L377.45078 346.60626Q377.51328 347.6375 378.0289 348.1844Q378.54453 348.71564 379.32578 348.71564Q379.9039 348.71564 380.31015 348.41876Q380.73203 348.10626 380.9664 347.45ZM377.51328 345.7469L380.98203 345.7469Q380.91953 344.95 380.5914 344.5594Q380.07578 343.95 379.2789 343.95Q378.54453 343.95 378.04453 344.4344Q377.56015 344.91876 377.51328 345.7469ZM387.87265 346.075L387.87265 345.075L391.49765 345.0594L391.49765 348.2469Q390.66953 348.91876 389.7789 349.2625Q388.88828 349.59064 387.95078 349.59064Q386.68515 349.59064 385.63828 349.0594Q384.60703 348.5125 384.07578 347.4969Q383.56015 346.46564 383.56015 345.2Q383.56015 343.9344 384.07578 342.85626Q384.60703 341.7625 385.5914 341.2469Q386.57578 340.71564 387.85703 340.71564Q388.79453 340.71564 389.54453 341.0125Q390.29453 341.3094 390.7164 341.85626Q391.1539 342.3875 391.37265 343.2625L390.35703 343.54376Q390.1539 342.8875 389.85703 342.5125Q389.57578 342.1375 389.04453 341.91876Q388.51328 341.6844 387.87265 341.6844Q387.0914 341.6844 386.51328 341.91876Q385.95078 342.15314 385.5914 342.54376Q385.24765 342.9344 385.06015 343.40314Q384.73203 344.2 384.73203 345.1219Q384.73203 346.27814 385.12265 347.0594Q385.5289 347.825 386.2789 348.2Q387.0289 348.575 387.88828 348.575Q388.62265 348.575 389.32578 348.29376Q390.0289 347.9969 390.38828 347.6844L390.38828 346.075L387.87265 346.075ZM396.79453 349.45L396.79453 348.52814Q396.06015 349.59064 394.81015 349.59064Q394.26328 349.59064 393.7789 349.3875Q393.31015 349.16876 393.07578 348.85626Q392.8414 348.52814 392.74765 348.0594Q392.68515 347.7625 392.68515 347.075L392.68515 343.23126L393.74765 343.23126L393.74765 346.6844Q393.74765 347.4969 393.81015 347.79376Q393.9039 348.2 394.2164 348.45Q394.54453 348.6844 395.0289 348.6844Q395.49765 348.6844 395.9039 348.45Q396.32578 348.2 396.49765 347.77814Q396.68515 347.35626 396.68515 346.5594L396.68515 343.23126L397.73203 343.23126L397.73203 349.45L396.79453 349.45ZM403.7789 348.6844Q403.18515 349.1844 402.63828 349.3875Q402.10703 349.59064 401.48203 349.59064Q400.45078 349.59064 399.9039 349.09064Q399.35703 348.59064 399.35703 347.8094Q399.35703 347.35626 399.56015 346.98126Q399.76328 346.59064 400.10703 346.3719Q400.45078 346.1375 400.87265 346.02814Q401.16953 345.9344 401.81015 345.85626Q403.07578 345.71564 403.68515 345.4969Q403.68515 345.27814 403.68515 345.23126Q403.68515 344.575 403.38828 344.3094Q402.98203 343.96564 402.18515 343.96564Q401.45078 343.96564 401.0914 344.23126Q400.73203 344.48126 400.56015 345.1375L399.5289 344.9969Q399.66953 344.34064 399.99765 343.9344Q400.32578 343.52814 400.93515 343.3094Q401.54453 343.09064 402.3414 343.09064Q403.13828 343.09064 403.63828 343.27814Q404.13828 343.46564 404.37265 343.7469Q404.60703 344.02814 404.70078 344.46564Q404.74765 344.73126 404.74765 345.4344L404.74765 346.84064Q404.74765 348.3094 404.81015 348.7Q404.88828 349.09064 405.0914 349.45L403.98203 349.45Q403.82578 349.1219 403.7789 348.6844ZM403.68515 346.325Q403.10703 346.5594 401.9664 346.73126Q401.31015 346.825 401.04453 346.95Q400.7789 347.0594 400.62265 347.27814Q400.48203 347.4969 400.48203 347.77814Q400.48203 348.2 400.79453 348.48126Q401.12265 348.7625 401.73203 348.7625Q402.3414 348.7625 402.81015 348.4969Q403.29453 348.23126 403.51328 347.7625Q403.68515 347.40314 403.68515 346.71564L403.68515 346.325ZM406.70078 349.45L406.70078 343.23126L407.6539 343.23126L407.6539 344.16876Q408.01328 343.5125 408.31015 343.3094Q408.62265 343.09064 408.99765 343.09064Q409.5289 343.09064 410.07578 343.41876L409.7164 344.40314Q409.32578 344.16876 408.95078 344.16876Q408.5914 344.16876 408.31015 344.3875Q408.04453 344.59064 407.93515 344.96564Q407.74765 345.52814 407.74765 346.1844L407.74765 349.45L406.70078 349.45ZM414.74765 349.45L414.74765 348.66876Q414.1539 349.59064 413.01328 349.59064Q412.26328 349.59064 411.63828 349.1844Q411.01328 348.7625 410.66953 348.02814Q410.32578 347.29376 410.32578 346.34064Q410.32578 345.41876 410.63828 344.65314Q410.95078 343.8875 411.57578 343.4969Q412.20078 343.09064 412.9664 343.09064Q413.5289 343.09064 413.9664 343.325Q414.4039 343.5594 414.68515 343.9344L414.68515 340.85626L415.73203 340.85626L415.73203 349.45L414.74765 349.45ZM411.41953 346.34064Q411.41953 347.54376 411.91953 348.1375Q412.41953 348.71564 413.10703 348.71564Q413.79453 348.71564 414.2789 348.15314Q414.76328 347.59064 414.76328 346.4344Q414.76328 345.15314 414.26328 344.5594Q413.7789 343.96564 413.06015 343.96564Q412.35703 343.96564 411.88828 344.54376Q411.41953 345.10626 411.41953 346.34064Z" fill-rule="nonzero"/><path fill="#000000" d="M471.3836 349.45L471.3836 340.85626L472.5086 340.85626L472.5086 349.45L471.3836 349.45ZM474.1336 349.45L474.1336 340.85626L475.27423 340.85626L475.27423 345.1219L479.53986 340.85626L481.08673 340.85626L477.47736 344.34064L481.24298 349.45L479.74298 349.45L476.68048 345.10626L475.27423 346.46564L475.27423 349.45L474.1336 349.45ZM482.21173 349.45L482.21173 340.85626L488.41486 340.85626L488.41486 341.8719L483.35236 341.8719L483.35236 344.4969L488.10236 344.4969L488.10236 345.5125L483.35236 345.5125L483.35236 348.4344L488.61798 348.4344L488.61798 349.45L482.21173 349.45ZM491.77423 349.45L489.41486 343.23126L490.52423 343.23126L491.86798 346.95Q492.0711 347.5594 492.2586 348.2Q492.39923 347.71564 492.64923 347.02814L494.03986 343.23126L495.11798 343.23126L492.7586 349.45L491.77423 349.45ZM500.30548 348.4344L500.30548 349.45L494.61798 349.45Q494.61798 349.075 494.74298 348.71564Q494.96173 348.1375 495.43048 347.575Q495.91486 347.0125 496.8211 346.27814Q498.22736 345.1219 498.71173 344.45Q499.21173 343.77814 499.21173 343.1844Q499.21173 342.5594 498.7586 342.1375Q498.30548 341.7 497.58673 341.7Q496.8211 341.7 496.36798 342.15314Q495.91486 342.60626 495.89923 343.41876L494.8211 343.3094Q494.93048 342.09064 495.64923 341.46564Q496.3836 340.825 497.61798 340.825Q498.85236 340.825 499.5711 341.5125Q500.28986 342.2 500.28986 343.21564Q500.28986 343.73126 500.0711 344.23126Q499.86798 344.71564 499.36798 345.27814Q498.8836 345.825 497.7586 346.77814Q496.80548 347.575 496.52423 347.8719Q496.2586 348.15314 496.08673 348.4344L500.30548 348.4344ZM501.2586 349.59064L503.74298 340.71564L504.58673 340.71564L502.10236 349.59064L501.2586 349.59064ZM505.3836 349.45L505.3836 340.85626L506.5086 340.85626L506.5086 349.45L505.3836 349.45ZM508.18048 349.45L508.18048 340.85626L511.43048 340.85626Q512.27423 340.85626 512.72736 340.9344Q513.368 341.04376 513.78986 341.34064Q514.22736 341.6375 514.47736 342.16876Q514.743 342.7 514.743 343.34064Q514.743 344.4344 514.03986 345.2Q513.35236 345.95 511.52423 345.95L509.3211 345.95L509.3211 349.45L508.18048 349.45ZM509.3211 344.95L511.53986 344.95Q512.64923 344.95 513.10236 344.54376Q513.5711 344.1219 513.5711 343.3719Q513.5711 342.84064 513.28986 342.46564Q513.02423 342.075 512.58673 341.95Q512.28986 341.8719 511.52423 341.8719L509.3211 341.8719L509.3211 344.95ZM515.8055 346.6844L516.868 346.59064Q516.9461 347.2469 517.22736 347.65314Q517.5086 348.0594 518.08673 348.325Q518.6805 348.575 519.41486 348.575Q520.0555 348.575 520.5555 348.3875Q521.0555 348.1844 521.28986 347.85626Q521.53986 347.5125 521.53986 347.1219Q521.53986 346.71564 521.3055 346.41876Q521.0711 346.10626 520.53986 345.90314Q520.1805 345.7625 518.993 345.48126Q517.8211 345.2 517.35236 344.95Q516.72736 344.6219 516.4305 344.15314Q516.1336 343.66876 516.1336 343.075Q516.1336 342.4344 516.493 341.8719Q516.868 341.29376 517.5711 341.0125Q518.28986 340.71564 519.14923 340.71564Q520.10236 340.71564 520.83673 341.02814Q521.5711 341.325 521.96173 341.9344Q522.35236 342.52814 522.3836 343.27814L521.28986 343.35626Q521.1961 342.54376 520.6805 342.1375Q520.1805 341.71564 519.1961 341.71564Q518.16486 341.71564 517.6961 342.09064Q517.22736 342.46564 517.22736 342.9969Q517.22736 343.46564 517.5555 343.7625Q517.8836 344.0594 519.2586 344.3719Q520.64923 344.6844 521.16486 344.91876Q521.91486 345.27814 522.27423 345.8094Q522.6336 346.325 522.6336 347.02814Q522.6336 347.71564 522.243 348.325Q521.85236 348.91876 521.118 349.2625Q520.3836 349.59064 519.46173 349.59064Q518.28986 349.59064 517.493 349.2625Q516.71173 348.91876 516.2586 348.23126Q515.8211 347.54376 515.8055 346.6844ZM528.3055 347.45L529.39923 347.575Q529.14923 348.52814 528.4461 349.0594Q527.743 349.59064 526.66486 349.59064Q525.3055 349.59064 524.493 348.7469Q523.6961 347.90314 523.6961 346.3875Q523.6961 344.825 524.5086 343.96564Q525.3211 343.09064 526.60236 343.09064Q527.85236 343.09064 528.6336 343.9344Q529.4305 344.77814 529.4305 346.325Q529.4305 346.41876 529.4305 346.60626L524.78986 346.60626Q524.85236 347.6375 525.368 348.1844Q525.8836 348.71564 526.66486 348.71564Q527.243 348.71564 527.64923 348.41876Q528.0711 348.10626 528.3055 347.45ZM524.85236 345.7469L528.3211 345.7469Q528.2586 344.95 527.9305 344.5594Q527.41486 343.95 526.618 343.95Q525.8836 343.95 525.3836 344.4344Q524.89923 344.91876 524.85236 345.7469ZM535.118 347.16876L536.14923 347.3094Q535.97736 348.3719 535.27423 348.98126Q534.5711 349.59064 533.5555 349.59064Q532.27423 349.59064 531.493 348.7625Q530.72736 347.91876 530.72736 346.35626Q530.72736 345.35626 531.0555 344.60626Q531.39923 343.84064 532.0711 343.46564Q532.7586 343.09064 533.5711 343.09064Q534.5711 343.09064 535.21173 343.60626Q535.868 344.10626 536.0555 345.0594L535.02423 345.21564Q534.8836 344.59064 534.5086 344.27814Q534.1336 343.95 533.60236 343.95Q532.8055 343.95 532.3055 344.52814Q531.8055 345.09064 531.8055 346.325Q531.8055 347.59064 532.28986 348.15314Q532.77423 348.71564 533.53986 348.71564Q534.16486 348.71564 534.5711 348.34064Q534.993 347.96564 535.118 347.16876Z" fill-rule="nonzero"/></svg>