<svg version="1.1" viewBox="0.0 0.0 600.0 371.0" fill="none" stroke="none" stroke-linecap="square" stroke-miterlimit="10" width="600" height="371" xmlns:xlink="http://www.w3.org/1999/xlink" xmlns="http://www.w3.org/2000/svg"><path fill="#ffffff" d="M0 0L600.0 0L600.0 371.0L0 371.0L0 0Z" fill-rule="nonzero"/><path stroke="#333333" stroke-width="1.0" stroke-linecap="butt" d="M77.5 332.5L581.5 332.5" fill-rule="nonzero"/><path stroke="#cccccc" stroke-width="1.0" stroke-linecap="butt" d="M77.5 230.5L581.5 230.5" fill-rule="nonzero"/><path stroke="#cccccc" stroke-width="1.0" stroke-linecap="butt" d="M77.5 127.5L581.5 127.5" fill-rule="nonzero"/><path stroke="#cccccc" stroke-width="1.0" stroke-linecap="butt" d="M77.5 25.5L581.5 25.5" fill-rule="nonzero"/><clipPath id="id_0"><path d="M77.55 25.55L581.45 25.55L581.45 332.45L77.55 332.45L77.55 25.55Z" clip-rule="nonzero"/></clipPath><path stroke="#000000" stroke-width="2.0" stroke-linecap="butt" stroke-opacity="0.0" clip-path="url(#id_0)" d="M194.0 332.0L119.0 332.0L119.0 332.0C119.0 332.0 119.0 332.0 119.0 332.0L194.0 332.0C194.0 332.0 194.0 332.0 194.0 332.0Z" fill-rule="nonzero"/><path fill="#4285f4" clip-path="url(#id_0)" d="M194.0 332.0L119.0 332.0L119.0 332.0C119.0 332.0 119.0 332.0 119.0 332.0L194.0 332.0C194.0 332.0 194.0 332.0 194.0 332.0Z" fill-rule="nonzero"/><path stroke="#000000" stroke-width="2.0" stroke-linecap="butt" stroke-opacity="0.0" clip-path="url(#id_0)" d="M310.0 332.0L235.0 332.0L235.0 327.0C235.0 325.89542 235.89543 325.0 237.0 325.0L308.0 325.0C309.10458 325.0 310.0 325.89542 310.0 327.0Z" fill-rule="nonzero"/><path fill="#4285f4" clip-path="url(#id_0)" d="M310.0 332.0L235.0 332.0L235.0 327.0C235.0 325.89542 235.89543 325.0 237.0 325.0L308.0 325.0C309.10458 325.0 310.0 325.89542 310.0 327.0Z" fill-rule="nonzero"/><path stroke="#000000" stroke-width="2.0" stroke-linecap="butt" stroke-opacity="0.0" clip-path="url(#id_0)" d="M425.0 332.0L350.0 332.0L350.0 332.0L425.0 332.0Z" fill-rule="nonzero"/><path fill="#4285f4" clip-path="url(#id_0)" d="M425.0 332.0L350.0 332.0L350.0 332.0L425.0 332.0Z" fill-rule="nonzero"/><path stroke="#000000" stroke-width="2.0" stroke-linecap="butt" stroke-opacity="0.0" clip-path="url(#id_0)" d="M541.0 332.0L466.0 332.0L466.0 35.0C466.0 33.89543 466.89542 33.0 468.0 33.0L539.0 33.0C540.10455 33.0 541.0 33.89543 541.0 35.0Z" fill-rule="nonzero"/><path fill="#4285f4" clip-path="url(#id_0)" d="M541.0 332.0L466.0 332.0L466.0 35.0C466.0 33.89543 466.89542 33.0 468.0 33.0L539.0 33.0C540.10455 33.0 541.0 33.89543 541.0 35.0Z" fill-rule="nonzero"/><path stroke="#ffffff" stroke-width="3.0" stroke-linejoin="round" stroke-linecap="round" d="M150.0625 313.40018Q150.0625 315.30643 149.40625 316.24393Q148.76562 317.1658 147.375 317.1658Q146.01562 317.1658 145.35938 316.25955Q144.70312 315.3533 144.67188 313.5408L144.67188 312.1033Q144.67188 310.21268 145.3125 309.30643Q145.96875 308.38455 147.35938 308.38455Q148.73438 308.38455 149.39062 309.27518Q150.04688 310.15018 150.0625 311.99393L150.0625 313.40018ZM148.96875 311.9158Q148.96875 310.5408 148.57812 309.9158Q148.20312 309.27518 147.35938 309.27518Q146.53125 309.27518 146.14062 309.9158Q145.76562 310.5408 145.76562 311.83768L145.76562 313.57205Q145.76562 314.94705 146.15625 315.61893Q146.5625 316.27518 147.375 316.27518Q148.17188 316.27518 148.5625 315.65018Q148.95312 315.02518 148.96875 313.69705L148.96875 311.9158ZM151.84375 316.4783Q151.84375 316.19705 152.0 316.00955Q152.17188 315.82205 152.5 315.82205Q152.84375 315.82205 153.01562 316.00955Q153.1875 316.19705 153.1875 316.4783Q153.1875 316.74393 153.01562 316.93143Q152.84375 317.1033 152.5 317.1033Q152.17188 317.1033 152.0 316.93143Q151.84375 316.74393 151.84375 316.4783ZM160.0625 313.40018Q160.0625 315.30643 159.40625 316.24393Q158.76562 317.1658 157.375 317.1658Q156.01562 317.1658 155.35938 316.25955Q154.70312 315.3533 154.67188 313.5408L154.67188 312.1033Q154.67188 310.21268 155.3125 309.30643Q155.96875 308.38455 157.35938 308.38455Q158.73438 308.38455 159.39062 309.27518Q160.04688 310.15018 160.0625 311.99393L160.0625 313.40018ZM158.96875 311.9158Q158.96875 310.5408 158.57812 309.9158Q158.20312 309.27518 157.35938 309.27518Q156.53125 309.27518 156.14062 309.9158Q155.76562 310.5408 155.76562 311.83768L155.76562 313.57205Q155.76562 314.94705 156.15625 315.61893Q156.5625 316.27518 157.375 316.27518Q158.17188 316.27518 158.5625 315.65018Q158.95312 315.02518 158.96875 313.69705L158.96875 311.9158ZM166.28125 314.18143L167.46875 314.18143L167.46875 315.05643L166.28125 315.05643L166.28125 317.0408L165.20312 317.0408L165.20312 315.05643L161.3125 315.05643L161.3125 314.4158L165.125 308.50955L166.28125 308.50955L166.28125 314.18143ZM162.54688 314.18143L165.20312 314.18143L165.20312 309.99393L165.0625 310.2283L162.54688 314.18143Z" fill-rule="nonzero"/><path fill="#4285f4" d="M150.0625 313.40018Q150.0625 315.30643 149.40625 316.24393Q148.76562 317.1658 147.375 317.1658Q146.01562 317.1658 145.35938 316.25955Q144.70312 315.3533 144.67188 313.5408L144.67188 312.1033Q144.67188 310.21268 145.3125 309.30643Q145.96875 308.38455 147.35938 308.38455Q148.73438 308.38455 149.39062 309.27518Q150.04688 310.15018 150.0625 311.99393L150.0625 313.40018ZM148.96875 311.9158Q148.96875 310.5408 148.57812 309.9158Q148.20312 309.27518 147.35938 309.27518Q146.53125 309.27518 146.14062 309.9158Q145.76562 310.5408 145.76562 311.83768L145.76562 313.57205Q145.76562 314.94705 146.15625 315.61893Q146.5625 316.27518 147.375 316.27518Q148.17188 316.27518 148.5625 315.65018Q148.95312 315.02518 148.96875 313.69705L148.96875 311.9158ZM151.84375 316.4783Q151.84375 316.19705 152.0 316.00955Q152.17188 315.82205 152.5 315.82205Q152.84375 315.82205 153.01562 316.00955Q153.1875 316.19705 153.1875 316.4783Q153.1875 316.74393 153.01562 316.93143Q152.84375 317.1033 152.5 317.1033Q152.17188 317.1033 152.0 316.93143Q151.84375 316.74393 151.84375 316.4783ZM160.0625 313.40018Q160.0625 315.30643 159.40625 316.24393Q158.76562 317.1658 157.375 317.1658Q156.01562 317.1658 155.35938 316.25955Q154.70312 315.3533 154.67188 313.5408L154.67188 312.1033Q154.67188 310.21268 155.3125 309.30643Q155.96875 308.38455 157.35938 308.38455Q158.73438 308.38455 159.39062 309.27518Q160.04688 310.15018 160.0625 311.99393L160.0625 313.40018ZM158.96875 311.9158Q158.96875 310.5408 158.57812 309.9158Q158.20312 309.27518 157.35938 309.27518Q156.53125 309.27518 156.14062 309.9158Q155.76562 310.5408 155.76562 311.83768L155.76562 313.57205Q155.76562 314.94705 156.15625 315.61893Q156.5625 316.27518 157.375 316.27518Q158.17188 316.27518 158.5625 315.65018Q158.95312 315.02518 158.96875 313.69705L158.96875 311.9158ZM166.28125 314.18143L167.46875 314.18143L167.46875 315.05643L166.28125 315.05643L166.28125 317.0408L165.20312 317.0408L165.20312 315.05643L161.3125 315.05643L161.3125 314.4158L165.125 308.50955L166.28125 308.50955L166.28125 314.18143ZM162.54688 314.18143L165.20312 314.18143L165.20312 309.99393L165.0625 310.2283L162.54688 314.18143Z" fill-rule="nonzero"/><path stroke="#ffffff" stroke-width="3.0" stroke-linejoin="round" stroke-linecap="round" d="M266.0625 306.85297Q266.0625 308.75922 265.40625 309.69672Q264.76562 310.6186 263.375 310.6186Q262.01562 310.6186 261.35938 309.71234Q260.70312 308.8061 260.67188 306.9936L260.67188 305.5561Q260.67188 303.66547 261.3125 302.75922Q261.96875 301.83734 263.35938 301.83734Q264.73438 301.83734 265.39062 302.72797Q266.04688 303.60297 266.0625 305.44672L266.0625 306.85297ZM264.96875 305.3686Q264.96875 303.9936 264.57812 303.3686Q264.20312 302.72797 263.35938 302.72797Q262.53125 302.72797 262.14062 303.3686Q261.76562 303.9936 261.76562 305.29047L261.76562 307.02484Q261.76562 308.39984 262.15625 309.07172Q262.5625 309.72797 263.375 309.72797Q264.17188 309.72797 264.5625 309.10297Q264.95312 308.47797 264.96875 307.14984L264.96875 305.3686ZM267.84375 309.9311Q267.84375 309.64984 268.0 309.46234Q268.17188 309.27484 268.5 309.27484Q268.84375 309.27484 269.01562 309.46234Q269.1875 309.64984 269.1875 309.9311Q269.1875 310.19672 269.01562 310.38422Q268.84375 310.5561 268.5 310.5561Q268.17188 310.5561 268.0 310.38422Q267.84375 310.19672 267.84375 309.9311ZM274.96875 301.96234L274.96875 302.8686L274.76562 302.8686Q273.5 302.89984 272.75 303.63422Q272.0 304.35297 271.875 305.66547Q272.5625 304.89984 273.71875 304.89984Q274.82812 304.89984 275.5 305.6811Q276.17188 306.46234 276.17188 307.71234Q276.17188 309.02484 275.45312 309.82172Q274.73438 310.6186 273.51562 310.6186Q272.29688 310.6186 271.53125 309.6811Q270.78125 308.72797 270.78125 307.2436L270.78125 306.83734Q270.78125 304.47797 271.78125 303.22797Q272.78125 301.97797 274.76562 301.96234L274.96875 301.96234ZM273.54688 305.8061Q272.98438 305.8061 272.51562 306.13422Q272.04688 306.46234 271.85938 306.97797L271.85938 307.3686Q271.85938 308.4311 272.32812 309.07172Q272.8125 309.71234 273.51562 309.71234Q274.25 309.71234 274.67188 309.1811Q275.09375 308.63422 275.09375 307.75922Q275.09375 306.88422 274.67188 306.35297Q274.25 305.8061 273.54688 305.8061ZM282.89062 304.1811Q282.89062 304.82172 282.54688 305.32172Q282.20312 305.82172 281.64062 306.10297Q282.29688 306.38422 282.6875 306.94672Q283.07812 307.4936 283.07812 308.19672Q283.07812 309.29047 282.32812 309.96234Q281.59375 310.6186 280.375 310.6186Q279.14062 310.6186 278.39062 309.96234Q277.65625 309.29047 277.65625 308.19672Q277.65625 307.4936 278.03125 306.94672Q278.40625 306.38422 279.07812 306.10297Q278.51562 305.82172 278.1875 305.32172Q277.85938 304.82172 277.85938 304.1811Q277.85938 303.10297 278.54688 302.47797Q279.23438 301.83734 280.375 301.83734Q281.5 301.83734 282.1875 302.47797Q282.89062 303.10297 282.89062 304.1811ZM282.0 308.16547Q282.0 307.44672 281.54688 307.00922Q281.09375 306.5561 280.35938 306.5561Q279.625 306.5561 279.17188 307.00922Q278.73438 307.44672 278.73438 308.1811Q278.73438 308.89984 279.17188 309.32172Q279.60938 309.72797 280.375 309.72797Q281.125 309.72797 281.5625 309.3061Q282.0 308.88422 282.0 308.16547ZM280.375 302.72797Q279.73438 302.72797 279.32812 303.13422Q278.9375 303.52484 278.9375 304.21234Q278.9375 304.85297 279.32812 305.25922Q279.71875 305.66547 280.35938 305.66547Q281.01562 305.66547 281.40625 305.25922Q281.79688 304.85297 281.79688 304.21234Q281.79688 303.5561 281.39062 303.14984Q280.98438 302.72797 280.375 302.72797Z" fill-rule="nonzero"/><path fill="#4285f4" d="M266.0625 306.85297Q266.0625 308.75922 265.40625 309.69672Q264.76562 310.6186 263.375 310.6186Q262.01562 310.6186 261.35938 309.71234Q260.70312 308.8061 260.67188 306.9936L260.67188 305.5561Q260.67188 303.66547 261.3125 302.75922Q261.96875 301.83734 263.35938 301.83734Q264.73438 301.83734 265.39062 302.72797Q266.04688 303.60297 266.0625 305.44672L266.0625 306.85297ZM264.96875 305.3686Q264.96875 303.9936 264.57812 303.3686Q264.20312 302.72797 263.35938 302.72797Q262.53125 302.72797 262.14062 303.3686Q261.76562 303.9936 261.76562 305.29047L261.76562 307.02484Q261.76562 308.39984 262.15625 309.07172Q262.5625 309.72797 263.375 309.72797Q264.17188 309.72797 264.5625 309.10297Q264.95312 308.47797 264.96875 307.14984L264.96875 305.3686ZM267.84375 309.9311Q267.84375 309.64984 268.0 309.46234Q268.17188 309.27484 268.5 309.27484Q268.84375 309.27484 269.01562 309.46234Q269.1875 309.64984 269.1875 309.9311Q269.1875 310.19672 269.01562 310.38422Q268.84375 310.5561 268.5 310.5561Q268.17188 310.5561 268.0 310.38422Q267.84375 310.19672 267.84375 309.9311ZM274.96875 301.96234L274.96875 302.8686L274.76562 302.8686Q273.5 302.89984 272.75 303.63422Q272.0 304.35297 271.875 305.66547Q272.5625 304.89984 273.71875 304.89984Q274.82812 304.89984 275.5 305.6811Q276.17188 306.46234 276.17188 307.71234Q276.17188 309.02484 275.45312 309.82172Q274.73438 310.6186 273.51562 310.6186Q272.29688 310.6186 271.53125 309.6811Q270.78125 308.72797 270.78125 307.2436L270.78125 306.83734Q270.78125 304.47797 271.78125 303.22797Q272.78125 301.97797 274.76562 301.96234L274.96875 301.96234ZM273.54688 305.8061Q272.98438 305.8061 272.51562 306.13422Q272.04688 306.46234 271.85938 306.97797L271.85938 307.3686Q271.85938 308.4311 272.32812 309.07172Q272.8125 309.71234 273.51562 309.71234Q274.25 309.71234 274.67188 309.1811Q275.09375 308.63422 275.09375 307.75922Q275.09375 306.88422 274.67188 306.35297Q274.25 305.8061 273.54688 305.8061ZM282.89062 304.1811Q282.89062 304.82172 282.54688 305.32172Q282.20312 305.82172 281.64062 306.10297Q282.29688 306.38422 282.6875 306.94672Q283.07812 307.4936 283.07812 308.19672Q283.07812 309.29047 282.32812 309.96234Q281.59375 310.6186 280.375 310.6186Q279.14062 310.6186 278.39062 309.96234Q277.65625 309.29047 277.65625 308.19672Q277.65625 307.4936 278.03125 306.94672Q278.40625 306.38422 279.07812 306.10297Q278.51562 305.82172 278.1875 305.32172Q277.85938 304.82172 277.85938 304.1811Q277.85938 303.10297 278.54688 302.47797Q279.23438 301.83734 280.375 301.83734Q281.5 301.83734 282.1875 302.47797Q282.89062 303.10297 282.89062 304.1811ZM282.0 308.16547Q282.0 307.44672 281.54688 307.00922Q281.09375 306.5561 280.35938 306.5561Q279.625 306.5561 279.17188 307.00922Q278.73438 307.44672 278.73438 308.1811Q278.73438 308.89984 279.17188 309.32172Q279.60938 309.72797 280.375 309.72797Q281.125 309.72797 281.5625 309.3061Q282.0 308.88422 282.0 308.16547ZM280.375 302.72797Q279.73438 302.72797 279.32812 303.13422Q278.9375 303.52484 278.9375 304.21234Q278.9375 304.85297 279.32812 305.25922Q279.71875 305.66547 280.35938 305.66547Q281.01562 305.66547 281.40625 305.25922Q281.79688 304.85297 281.79688 304.21234Q281.79688 303.5561 281.39062 303.14984Q280.98438 302.72797 280.375 302.72797Z" fill-rule="nonzero"/><path stroke="#ffffff" stroke-width="3.0" stroke-linejoin="round" stroke-linecap="round" d="M389.5625 313.8094Q389.5625 315.71564 388.90625 316.65314Q388.26562 317.575 386.875 317.575Q385.51562 317.575 384.85938 316.66876Q384.20312 315.7625 384.17188 313.95L384.17188 312.5125Q384.17188 310.6219 384.8125 309.71564Q385.46875 308.79376 386.85938 308.79376Q388.23438 308.79376 388.89062 309.6844Q389.54688 310.5594 389.5625 312.40314L389.5625 313.8094ZM388.46875 312.325Q388.46875 310.95 388.07812 310.325Q387.70312 309.6844 386.85938 309.6844Q386.03125 309.6844 385.64062 310.325Q385.26562 310.95 385.26562 312.2469L385.26562 313.98126Q385.26562 315.35626 385.65625 316.02814Q386.0625 316.6844 386.875 316.6844Q387.67188 316.6844 388.0625 316.0594Q388.45312 315.4344 388.46875 314.10626L388.46875 312.325Z" fill-rule="nonzero"/><path fill="#4285f4" d="M389.5625 313.8094Q389.5625 315.71564 388.90625 316.65314Q388.26562 317.575 386.875 317.575Q385.51562 317.575 384.85938 316.66876Q384.20312 315.7625 384.17188 313.95L384.17188 312.5125Q384.17188 310.6219 384.8125 309.71564Q385.46875 308.79376 386.85938 308.79376Q388.23438 308.79376 388.89062 309.6844Q389.54688 310.5594 389.5625 312.40314L389.5625 313.8094ZM388.46875 312.325Q388.46875 310.95 388.07812 310.325Q387.70312 309.6844 386.85938 309.6844Q386.03125 309.6844 385.64062 310.325Q385.26562 310.95 385.26562 312.2469L385.26562 313.98126Q385.26562 315.35626 385.65625 316.02814Q386.0625 316.6844 386.875 316.6844Q387.67188 316.6844 388.0625 316.0594Q388.45312 315.4344 388.46875 314.10626L388.46875 312.325Z" fill-rule="nonzero"/><path stroke="#4285f4" stroke-width="3.0" stroke-linejoin="round" stroke-linecap="round" d="M493.79688 49.3064L488.20312 49.3064L488.20312 48.52515L491.15625 45.2439Q491.8125 44.4939 492.0625 44.040775Q492.3125 43.572025 492.3125 43.072025Q492.3125 42.40015 491.90625 41.978275Q491.51562 41.540775 490.82812 41.540775Q490.03125 41.540775 489.57812 42.009525Q489.125 42.46265 489.125 43.290775L488.04688 43.290775Q488.04688 42.103275 488.79688 41.384525Q489.5625 40.65015 490.82812 40.65015Q492.03125 40.65015 492.71875 41.27515Q493.40625 41.90015 493.40625 42.947025Q493.40625 44.197025 491.79688 45.947025L489.51562 48.415775L493.79688 48.415775L493.79688 49.3064ZM499.35938 45.5564Q499.03125 45.96265 498.54688 46.21265Q498.07812 46.447025 497.51562 46.447025Q496.78125 46.447025 496.23438 46.08765Q495.6875 45.728275 495.39062 45.072025Q495.09375 44.40015 495.09375 43.603275Q495.09375 42.759525 495.40625 42.072025Q495.73438 41.384525 496.32812 41.02515Q496.9375 40.65015 497.73438 40.65015Q499.0 40.65015 499.71875 41.603275Q500.45312 42.5564 500.45312 44.1814L500.45312 44.4939Q500.45312 46.9939 499.46875 48.134525Q498.48438 49.27515 496.5 49.3064L496.28125 49.3064L496.28125 48.40015L496.51562 48.40015Q497.85938 48.3689 498.57812 47.697025Q499.29688 47.02515 499.35938 45.5564ZM497.6875 45.5564Q498.23438 45.5564 498.6875 45.228275Q499.15625 44.884525 499.375 44.40015L499.375 43.96265Q499.375 42.90015 498.90625 42.228275Q498.4375 41.5564 497.73438 41.5564Q497.01562 41.5564 496.57812 42.103275Q496.15625 42.65015 496.15625 43.5564Q496.15625 44.4314 496.5625 44.9939Q496.98438 45.5564 497.6875 45.5564ZM502.34375 48.7439Q502.34375 48.46265 502.5 48.27515Q502.67188 48.08765 503.0 48.08765Q503.34375 48.08765 503.51562 48.27515Q503.6875 48.46265 503.6875 48.7439Q503.6875 49.009525 503.51562 49.197025Q503.34375 49.3689 503.0 49.3689Q502.67188 49.3689 502.5 49.197025Q502.34375 49.009525 502.34375 48.7439ZM506.78125 44.509525L507.59375 44.509525Q508.375 44.4939 508.8125 44.103275Q509.25 43.71265 509.25 43.040775Q509.25 41.540775 507.75 41.540775Q507.04688 41.540775 506.625 41.947025Q506.21875 42.353275 506.21875 43.009525L505.125 43.009525Q505.125 41.9939 505.85938 41.322025Q506.60938 40.65015 507.75 40.65015Q508.95312 40.65015 509.64062 41.290775Q510.32812 41.9314 510.32812 43.072025Q510.32812 43.634525 509.96875 44.15015Q509.60938 44.665775 508.98438 44.9314Q509.6875 45.15015 510.0625 45.665775Q510.45312 46.1814 510.45312 46.9314Q510.45312 48.072025 509.70312 48.759525Q508.95312 49.4314 507.75 49.4314Q506.5625 49.4314 505.79688 48.77515Q505.04688 48.1189 505.04688 47.0564L506.14062 47.0564Q506.14062 47.728275 506.57812 48.134525Q507.01562 48.540775 507.76562 48.540775Q508.54688 48.540775 508.95312 48.134525Q509.375 47.71265 509.375 46.947025Q509.375 46.21265 508.92188 45.822025Q508.46875 45.415775 507.59375 45.40015L506.78125 45.40015L506.78125 44.509525ZM517.7969 49.3064L512.2031 49.3064L512.2031 48.52515L515.15625 45.2439Q515.8125 44.4939 516.0625 44.040775Q516.3125 43.572025 516.3125 43.072025Q516.3125 42.40015 515.90625 41.978275Q515.5156 41.540775 514.8281 41.540775Q514.03125 41.540775 513.5781 42.009525Q513.125 42.46265 513.125 43.290775L512.0469 43.290775Q512.0469 42.103275 512.7969 41.384525Q513.5625 40.65015 514.8281 40.65015Q516.03125 40.65015 516.71875 41.27515Q517.40625 41.90015 517.40625 42.947025Q517.40625 44.197025 515.7969 45.947025L513.5156 48.415775L517.7969 48.415775L517.7969 49.3064Z" fill-rule="nonzero"/><path fill="#ffffff" d="M493.79688 49.3064L488.20312 49.3064L488.20312 48.52515L491.15625 45.2439Q491.8125 44.4939 492.0625 44.040775Q492.3125 43.572025 492.3125 43.072025Q492.3125 42.40015 491.90625 41.978275Q491.51562 41.540775 490.82812 41.540775Q490.03125 41.540775 489.57812 42.009525Q489.125 42.46265 489.125 43.290775L488.04688 43.290775Q488.04688 42.103275 488.79688 41.384525Q489.5625 40.65015 490.82812 40.65015Q492.03125 40.65015 492.71875 41.27515Q493.40625 41.90015 493.40625 42.947025Q493.40625 44.197025 491.79688 45.947025L489.51562 48.415775L493.79688 48.415775L493.79688 49.3064ZM499.35938 45.5564Q499.03125 45.96265 498.54688 46.21265Q498.07812 46.447025 497.51562 46.447025Q496.78125 46.447025 496.23438 46.08765Q495.6875 45.728275 495.39062 45.072025Q495.09375 44.40015 495.09375 43.603275Q495.09375 42.759525 495.40625 42.072025Q495.73438 41.384525 496.32812 41.02515Q496.9375 40.65015 497.73438 40.65015Q499.0 40.65015 499.71875 41.603275Q500.45312 42.5564 500.45312 44.1814L500.45312 44.4939Q500.45312 46.9939 499.46875 48.134525Q498.48438 49.27515 496.5 49.3064L496.28125 49.3064L496.28125 48.40015L496.51562 48.40015Q497.85938 48.3689 498.57812 47.697025Q499.29688 47.02515 499.35938 45.5564ZM497.6875 45.5564Q498.23438 45.5564 498.6875 45.228275Q499.15625 44.884525 499.375 44.40015L499.375 43.96265Q499.375 42.90015 498.90625 42.228275Q498.4375 41.5564 497.73438 41.5564Q497.01562 41.5564 496.57812 42.103275Q496.15625 42.65015 496.15625 43.5564Q496.15625 44.4314 496.5625 44.9939Q496.98438 45.5564 497.6875 45.5564ZM502.34375 48.7439Q502.34375 48.46265 502.5 48.27515Q502.67188 48.08765 503.0 48.08765Q503.34375 48.08765 503.51562 48.27515Q503.6875 48.46265 503.6875 48.7439Q503.6875 49.009525 503.51562 49.197025Q503.34375 49.3689 503.0 49.3689Q502.67188 49.3689 502.5 49.197025Q502.34375 49.009525 502.34375 48.7439ZM506.78125 44.509525L507.59375 44.509525Q508.375 44.4939 508.8125 44.103275Q509.25 43.71265 509.25 43.040775Q509.25 41.540775 507.75 41.540775Q507.04688 41.540775 506.625 41.947025Q506.21875 42.353275 506.21875 43.009525L505.125 43.009525Q505.125 41.9939 505.85938 41.322025Q506.60938 40.65015 507.75 40.65015Q508.95312 40.65015 509.64062 41.290775Q510.32812 41.9314 510.32812 43.072025Q510.32812 43.634525 509.96875 44.15015Q509.60938 44.665775 508.98438 44.9314Q509.6875 45.15015 510.0625 45.665775Q510.45312 46.1814 510.45312 46.9314Q510.45312 48.072025 509.70312 48.759525Q508.95312 49.4314 507.75 49.4314Q506.5625 49.4314 505.79688 48.77515Q505.04688 48.1189 505.04688 47.0564L506.14062 47.0564Q506.14062 47.728275 506.57812 48.134525Q507.01562 48.540775 507.76562 48.540775Q508.54688 48.540775 508.95312 48.134525Q509.375 47.71265 509.375 46.947025Q509.375 46.21265 508.92188 45.822025Q508.46875 45.415775 507.59375 45.40015L506.78125 45.40015L506.78125 44.509525ZM517.7969 49.3064L512.2031 49.3064L512.2031 48.52515L515.15625 45.2439Q515.8125 44.4939 516.0625 44.040775Q516.3125 43.572025 516.3125 43.072025Q516.3125 42.40015 515.90625 41.978275Q515.5156 41.540775 514.8281 41.540775Q514.03125 41.540775 513.5781 42.009525Q513.125 42.46265 513.125 43.290775L512.0469 43.290775Q512.0469 42.103275 512.7969 41.384525Q513.5625 40.65015 514.8281 40.65015Q516.03125 40.65015 516.71875 41.27515Q517.40625 41.90015 517.40625 42.947025Q517.40625 44.197025 515.7969 45.947025L513.5156 48.415775L517.7969 48.415775L517.7969 49.3064Z" fill-rule="nonzero"/><path fill="#000000" d="M26.534388 222.9375L26.831263 221.8125Q28.221888 222.17188 28.956263 223.09375Q29.690638 224.01562 29.690638 225.35938Q29.690638 226.75 29.128138 227.625Q28.565638 228.5 27.503138 228.95312Q26.425013 229.40625 25.190638 229.40625Q23.846888 229.40625 22.846888 228.89062Q21.846888 228.375 21.331263 227.4375Q20.815638 226.48438 20.815638 225.34375Q20.815638 224.0625 21.471888 223.1875Q22.128138 222.29688 23.315638 221.95312L23.581263 223.07812Q22.643763 223.375 22.221888 223.95312Q21.784388 224.51562 21.784388 225.375Q21.784388 226.35938 22.268763 227.03125Q22.737513 227.6875 23.534388 227.96875Q24.331263 228.23438 25.190638 228.23438Q26.284388 228.23438 27.096888 227.92188Q27.909388 227.59375 28.315638 226.92188Q28.721888 226.25 28.721888 225.45312Q28.721888 224.5 28.175013 223.84375Q27.628138 223.17188 26.534388 222.9375ZM19.815638 225.35938L18.815638 224.71875L18.815638 223.53125L20.456263 224.84375L20.456263 225.96875L18.815638 227.23438L18.815638 226.03125L19.815638 225.35938ZM28.784388 216.14062Q29.284388 216.73438 29.487513 217.28125Q29.690638 217.8125 29.690638 218.4375Q29.690638 219.46875 29.190638 220.01562Q28.690638 220.5625 27.909388 220.5625Q27.456263 220.5625 27.081263 220.35938Q26.690638 220.15625 26.471888 219.8125Q26.237513 219.46875 26.128138 219.04688Q26.034388 218.75 25.956263 218.10938Q25.815638 216.84375 25.596888 216.23438Q25.378138 216.23438 25.331263 216.23438Q24.675013 216.23438 24.409388 216.53125Q24.065638 216.9375 24.065638 217.73438Q24.065638 218.46875 24.331263 218.82812Q24.581263 219.1875 25.237513 219.35938L25.096888 220.39062Q24.440638 220.25 24.034388 219.92188Q23.628138 219.59375 23.409388 218.98438Q23.190638 218.375 23.190638 217.57812Q23.190638 216.78125 23.378138 216.28125Q23.565638 215.78125 23.846888 215.54688Q24.128138 215.3125 24.565638 215.21875Q24.831263 215.17188 25.534388 215.17188L26.940638 215.17188Q28.409388 215.17188 28.800013 215.10938Q29.190638 215.03125 29.550013 214.82812L29.550013 215.9375Q29.221888 216.09375 28.784388 216.14062ZM26.425013 216.23438Q26.659388 216.8125 26.831263 217.95312Q26.925013 218.60938 27.050013 218.875Q27.159388 219.14062 27.378138 219.29688Q27.596888 219.4375 27.878138 219.4375Q28.300013 219.4375 28.581263 219.125Q28.862513 218.79688 28.862513 218.1875Q28.862513 217.57812 28.596888 217.10938Q28.331263 216.625 27.862513 216.40625Q27.503138 216.23438 26.815638 216.23438L26.425013 216.23438ZM27.690638 213.625L27.534388 212.59375Q28.159388 212.5 28.487513 212.10938Q28.815638 211.70312 28.815638 210.96875Q28.815638 210.25 28.534388 209.90625Q28.237513 209.54688 27.831263 209.54688Q27.471888 209.54688 27.268763 209.85938Q27.128138 210.07812 26.909388 210.9375Q26.612513 212.09375 26.409388 212.54688Q26.190638 212.98438 25.815638 213.21875Q25.440638 213.45312 24.971888 213.45312Q24.565638 213.45312 24.206263 213.26562Q23.846888 213.07812 23.612513 212.75Q23.440638 212.5 23.315638 212.07812Q23.190638 211.65625 23.190638 211.15625Q23.190638 210.4375 23.409388 209.89062Q23.612513 209.32812 23.971888 209.0625Q24.331263 208.79688 24.925013 208.70312L25.065638 209.73438Q24.596888 209.79688 24.331263 210.14062Q24.050013 210.46875 24.050013 211.09375Q24.050013 211.8125 24.300013 212.125Q24.534388 212.4375 24.862513 212.4375Q25.065638 212.4375 25.221888 212.3125Q25.393763 212.17188 25.503138 211.90625Q25.565638 211.75 25.768763 210.96875Q26.081263 209.84375 26.268763 209.40625Q26.456263 208.96875 26.815638 208.71875Q27.175013 208.46875 27.721888 208.46875Q28.253138 208.46875 28.721888 208.78125Q29.175013 209.07812 29.440638 209.65625Q29.690638 210.23438 29.690638 210.96875Q29.690638 212.1875 29.190638 212.82812Q28.675013 213.45312 27.690638 213.625ZM29.550013 201.48438L23.331263 203.84375L23.331263 202.73438L27.050013 201.39062Q27.659388 201.1875 28.300013 201.0Q27.815638 200.85938 27.128138 200.60938L23.331263 199.21875L23.331263 198.14062L29.550013 200.5L29.550013 201.48438ZM27.690638 195.625L27.534388 194.59375Q28.159388 194.5 28.487513 194.10938Q28.815638 193.70312 28.815638 192.96875Q28.815638 192.25 28.534388 191.90625Q28.237513 191.54688 27.831263 191.54688Q27.471888 191.54688 27.268763 191.85938Q27.128138 192.07812 26.909388 192.9375Q26.612513 194.09375 26.409388 194.54688Q26.190638 194.98438 25.815638 195.21875Q25.440638 195.45312 24.971888 195.45312Q24.565638 195.45312 24.206263 195.26562Q23.846888 195.07812 23.612513 194.75Q23.440638 194.5 23.315638 194.07812Q23.190638 193.65625 23.190638 193.15625Q23.190638 192.4375 23.409388 191.89062Q23.612513 191.32812 23.971888 191.0625Q24.331263 190.79688 24.925013 190.70312L25.065638 191.73438Q24.596888 191.79688 24.331263 192.14062Q24.050013 192.46875 24.050013 193.09375Q24.050013 193.8125 24.300013 194.125Q24.534388 194.4375 24.862513 194.4375Q25.065638 194.4375 25.221888 194.3125Q25.393763 194.17188 25.503138 193.90625Q25.565638 193.75 25.768763 192.96875Q26.081263 191.84375 26.268763 191.40625Q26.456263 190.96875 26.815638 190.71875Q27.175013 190.46875 27.721888 190.46875Q28.253138 190.46875 28.721888 190.78125Q29.175013 191.07812 29.440638 191.65625Q29.690638 192.23438 29.690638 192.96875Q29.690638 194.1875 29.190638 194.82812Q28.675013 195.45312 27.690638 195.625ZM27.550013 183.95312L27.675013 182.85938Q28.628138 183.10938 29.159388 183.8125Q29.690638 184.51562 29.690638 185.59375Q29.690638 186.95312 28.846888 187.76562Q28.003138 188.5625 26.487513 188.5625Q24.925013 188.5625 24.065638 187.75Q23.190638 186.9375 23.190638 185.65625Q23.190638 184.40625 24.034388 183.625Q24.878138 182.82812 26.425013 182.82812Q26.518763 182.82812 26.706263 182.82812L26.706263 187.46875Q27.737513 187.40625 28.284388 186.89062Q28.815638 186.375 28.815638 185.59375Q28.815638 185.01562 28.518763 184.60938Q28.206263 184.1875 27.550013 183.95312ZM25.846888 187.40625L25.846888 183.9375Q25.050013 184.0 24.659388 184.32812Q24.050013 184.84375 24.050013 185.64062Q24.050013 186.375 24.534388 186.875Q25.018763 187.35938 25.846888 187.40625ZM29.550013 181.20312L20.956263 181.20312L20.956263 180.14062L25.862513 180.14062L23.331263 177.65625L23.331263 176.28125L25.628138 178.67188L29.550013 176.04688L29.550013 177.34375L26.362513 179.40625L27.081263 180.14062L29.550013 180.14062L29.550013 181.20312ZM29.550013 171.125L28.628138 171.125Q29.690638 171.85938 29.690638 173.10938Q29.690638 173.65625 29.487513 174.14062Q29.268763 174.60938 28.956263 174.84375Q28.628138 175.07812 28.159388 175.17188Q27.862513 175.23438 27.175013 175.23438L23.331263 175.23438L23.331263 174.17188L26.784388 174.17188Q27.596888 174.17188 27.893763 174.10938Q28.300013 174.01562 28.550013 173.70312Q28.784388 173.375 28.784388 172.89062Q28.784388 172.42188 28.550013 172.01562Q28.300013 171.59375 27.878138 171.42188Q27.456263 171.23438 26.659388 171.23438L23.331263 171.23438L23.331263 170.1875L29.550013 170.1875L29.550013 171.125ZM29.550013 168.20312L23.331263 168.20312L23.331263 167.26562L24.206263 167.26562Q23.190638 166.57812 23.190638 165.28125Q23.190638 164.71875 23.393763 164.25Q23.596888 163.76562 23.925013 163.53125Q24.253138 163.29688 24.690638 163.20312Q24.987513 163.15625 25.721888 163.15625L29.550013 163.15625L29.550013 164.20312L25.768763 164.20312Q25.112513 164.20312 24.800013 164.32812Q24.487513 164.45312 24.300013 164.76562Q24.096888 165.07812 24.096888 165.5Q24.096888 166.17188 24.534388 166.67188Q24.956263 167.15625 26.143763 167.15625L29.550013 167.15625L29.550013 168.20312ZM29.550013 157.17188L28.768763 157.17188Q29.690638 157.76562 29.690638 158.90625Q29.690638 159.65625 29.284388 160.28125Q28.862513 160.90625 28.128138 161.25Q27.393763 161.59375 26.440638 161.59375Q25.518763 161.59375 24.753138 161.28125Q23.987513 160.96875 23.596888 160.34375Q23.190638 159.71875 23.190638 158.95312Q23.190638 158.39062 23.425013 157.95312Q23.659388 157.51562 24.034388 157.23438L20.956263 157.23438L20.956263 156.1875L29.550013 156.1875L29.550013 157.17188ZM26.440638 160.5Q27.643763 160.5 28.237513 160.0Q28.815638 159.5 28.815638 158.8125Q28.815638 158.125 28.253138 157.64062Q27.690638 157.15625 26.534388 157.15625Q25.253138 157.15625 24.659388 157.65625Q24.065638 158.14062 24.065638 158.85938Q24.065638 159.5625 24.643763 160.03125Q25.206263 160.5 26.440638 160.5ZM28.784388 150.14062Q29.284388 150.73438 29.487513 151.28125Q29.690638 151.8125 29.690638 152.4375Q29.690638 153.46875 29.190638 154.01562Q28.690638 154.5625 27.909388 154.5625Q27.456263 154.5625 27.081263 154.35938Q26.690638 154.15625 26.471888 153.8125Q26.237513 153.46875 26.128138 153.04688Q26.034388 152.75 25.956263 152.10938Q25.815638 150.84375 25.596888 150.23438Q25.378138 150.23438 25.331263 150.23438Q24.675013 150.23438 24.409388 150.53125Q24.065638 150.9375 24.065638 151.73438Q24.065638 152.46875 24.331263 152.82812Q24.581263 153.1875 25.237513 153.35938L25.096888 154.39062Q24.440638 154.25 24.034388 153.92188Q23.628138 153.59375 23.409388 152.98438Q23.190638 152.375 23.190638 151.57812Q23.190638 150.78125 23.378138 150.28125Q23.565638 149.78125 23.846888 149.54688Q24.128138 149.3125 24.565638 149.21875Q24.831263 149.17188 25.534388 149.17188L26.940638 149.17188Q28.409388 149.17188 28.800013 149.10938Q29.190638 149.03125 29.550013 148.82812L29.550013 149.9375Q29.221888 150.09375 28.784388 150.14062ZM26.425013 150.23438Q26.659388 150.8125 26.831263 151.95312Q26.925013 152.60938 27.050013 152.875Q27.159388 153.14062 27.378138 153.29688Q27.596888 153.4375 27.878138 153.4375Q28.300013 153.4375 28.581263 153.125Q28.862513 152.79688 28.862513 152.1875Q28.862513 151.57812 28.596888 151.10938Q28.331263 150.625 27.862513 150.40625Q27.503138 150.23438 26.815638 150.23438L26.425013 150.23438ZM29.550013 147.20312L20.956263 147.20312L20.956263 146.15625L24.034388 146.15625Q23.190638 145.42188 23.190638 144.29688Q23.190638 143.59375 23.471888 143.09375Q23.737513 142.57812 24.221888 142.35938Q24.690638 142.14062 25.612513 142.14062L29.550013 142.14062L29.550013 143.1875L25.612513 143.1875Q24.815638 143.1875 24.456263 143.53125Q24.096888 143.875 24.096888 144.5Q24.096888 144.96875 24.346888 145.39062Q24.581263 145.79688 25.003138 145.98438Q25.409388 146.15625 26.143763 146.15625L29.550013 146.15625L29.550013 147.20312Z" fill-rule="nonzero"/><path fill="#000000" d="M65.05 332.21564Q65.05 330.6844 65.3625 329.7625Q65.675 328.825 66.28438 328.325Q66.90938 327.825 67.84688 327.825Q68.53438 327.825 69.05 328.10626Q69.58125 328.3875 69.925 328.91876Q70.26875 329.4344 70.45625 330.1844Q70.64375 330.9344 70.64375 332.21564Q70.64375 333.73126 70.33125 334.65314Q70.03438 335.575 69.40938 336.09064Q68.8 336.59064 67.84688 336.59064Q66.6125 336.59064 65.89375 335.7Q65.05 334.6375 65.05 332.21564ZM66.12813 332.21564Q66.12813 334.325 66.62813 335.02814Q67.12813 335.73126 67.84688 335.73126Q68.58125 335.73126 69.06563 335.02814Q69.56563 334.325 69.56563 332.21564Q69.56563 330.09064 69.06563 329.40314Q68.58125 328.7 67.83125 328.7Q67.1125 328.7 66.675 329.3094Q66.12813 330.09064 66.12813 332.21564Z" fill-rule="nonzero"/><path fill="#000000" d="M62.01875 234.15L60.971874 234.15L60.971874 227.43124Q60.58125 227.79062 59.95625 228.16562Q59.346874 228.525 58.8625 228.69687L58.8625 227.68124Q59.7375 227.25937 60.39375 226.68124Q61.065624 226.0875 61.346874 225.525L62.01875 225.525L62.01875 234.15ZM65.05 229.91562Q65.05 228.38437 65.3625 227.4625Q65.675 226.525 66.28438 226.025Q66.90938 225.525 67.84688 225.525Q68.53438 225.525 69.05 225.80624Q69.58125 226.0875 69.925 226.61874Q70.26875 227.13437 70.45625 227.88437Q70.64375 228.63437 70.64375 229.91562Q70.64375 231.43124 70.33125 232.35312Q70.03438 233.275 69.40938 233.79062Q68.8 234.29062 67.84688 234.29062Q66.6125 234.29062 65.89375 233.4Q65.05 232.3375 65.05 229.91562ZM66.12813 229.91562Q66.12813 232.025 66.62813 232.72812Q67.12813 233.43124 67.84688 233.43124Q68.58125 233.43124 69.06563 232.72812Q69.56563 232.025 69.56563 229.91562Q69.56563 227.79062 69.06563 227.10312Q68.58125 226.4 67.83125 226.4Q67.1125 226.4 66.675 227.00937Q66.12813 227.79062 66.12813 229.91562Z" fill-rule="nonzero"/><path fill="#000000" d="M63.596874 130.83438L63.596874 131.85L57.909374 131.85Q57.909374 131.475 58.034374 131.11563Q58.253124 130.5375 58.721874 129.975Q59.20625 129.4125 60.1125 128.67813Q61.51875 127.52188 62.003124 126.850006Q62.503124 126.17813 62.503124 125.58438Q62.503124 124.95938 62.05 124.537506Q61.596874 124.100006 60.878124 124.100006Q60.1125 124.100006 59.659374 124.55313Q59.20625 125.006256 59.190624 125.818756L58.1125 125.70938Q58.221874 124.49063 58.940624 123.86563Q59.675 123.225006 60.909374 123.225006Q62.14375 123.225006 62.8625 123.912506Q63.58125 124.600006 63.58125 125.61563Q63.58125 126.131256 63.3625 126.631256Q63.159374 127.11563 62.659374 127.67813Q62.175 128.225 61.05 129.17813Q60.096874 129.975 59.815624 130.27188Q59.55 130.55313 59.378124 130.83438L63.596874 130.83438ZM65.05 127.61563Q65.05 126.08438 65.3625 125.162506Q65.675 124.225006 66.28438 123.725006Q66.90938 123.225006 67.84688 123.225006Q68.53438 123.225006 69.05 123.506256Q69.58125 123.787506 69.925 124.318756Q70.26875 124.83438 70.45625 125.58438Q70.64375 126.33438 70.64375 127.61563Q70.64375 129.13126 70.33125 130.05313Q70.03438 130.975 69.40938 131.49063Q68.8 131.99063 67.84688 131.99063Q66.6125 131.99063 65.89375 131.1Q65.05 130.0375 65.05 127.61563ZM66.12813 127.61563Q66.12813 129.725 66.62813 130.42813Q67.12813 131.13126 67.84688 131.13126Q68.58125 131.13126 69.06563 130.42813Q69.56563 129.725 69.56563 127.61563Q69.56563 125.49063 69.06563 124.80313Q68.58125 124.100006 67.83125 124.100006Q67.1125 124.100006 66.675 124.70938Q66.12813 125.49063 66.12813 127.61563Z" fill-rule="nonzero"/><path fill="#000000" d="M58.05 27.284374L59.1125 27.14375Q59.284374 28.034374 59.721874 28.440624Q60.159374 28.83125 60.784374 28.83125Q61.534374 28.83125 62.05 28.315624Q62.565624 27.8 62.565624 27.034374Q62.565624 26.315624 62.08125 25.846874Q61.6125 25.3625 60.878124 25.3625Q60.58125 25.3625 60.128124 25.4875L60.253124 24.55Q60.3625 24.565624 60.425 24.565624Q61.096874 24.565624 61.628124 24.221874Q62.175 23.8625 62.175 23.128124Q62.175 22.55 61.784374 22.175Q61.39375 21.784374 60.76875 21.784374Q60.159374 21.784374 59.7375 22.175Q59.33125 22.565624 59.221874 23.33125L58.159374 23.14375Q58.346874 22.096874 59.034374 21.51875Q59.721874 20.925 60.7375 20.925Q61.440624 20.925 62.034374 21.2375Q62.628124 21.534374 62.940624 22.05Q63.253124 22.565624 63.253124 23.159374Q63.253124 23.70625 62.95625 24.175Q62.659374 24.628124 62.08125 24.89375Q62.83125 25.065624 63.253124 25.628124Q63.675 26.175 63.675 27.01875Q63.675 28.14375 62.846874 28.925Q62.034374 29.70625 60.784374 29.70625Q59.659374 29.70625 58.909374 29.034374Q58.159374 28.346874 58.05 27.284374ZM65.05 25.315624Q65.05 23.784374 65.3625 22.8625Q65.675 21.925 66.28438 21.425Q66.90938 20.925 67.84688 20.925Q68.53438 20.925 69.05 21.20625Q69.58125 21.4875 69.925 22.01875Q70.26875 22.534374 70.45625 23.284374Q70.64375 24.034374 70.64375 25.315624Q70.64375 26.83125 70.33125 27.753124Q70.03438 28.675 69.40938 29.190624Q68.8 29.690624 67.84688 29.690624Q66.6125 29.690624 65.89375 28.8Q65.05 27.7375 65.05 25.315624ZM66.12813 25.315624Q66.12813 27.425 66.62813 28.128124Q67.12813 28.83125 67.84688 28.83125Q68.58125 28.83125 69.06563 28.128124Q69.56563 27.425 69.56563 25.315624Q69.56563 23.190624 69.06563 22.503124Q68.58125 21.8 67.83125 21.8Q67.1125 21.8 66.675 22.409374Q66.12813 23.190624 66.12813 25.315624Z" fill-rule="nonzero"/><path fill="#000000" d="M132.97575 349.45L132.97575 348.3875L137.382 342.8875Q137.85075 342.3094 138.27263 341.8719L133.47575 341.8719L133.47575 340.85626L139.632 340.85626L139.632 341.8719L134.80388 347.825L134.28825 348.4344L139.77263 348.4344L139.77263 349.45L132.97575 349.45ZM144.78825 347.45L145.882 347.575Q145.632 348.52814 144.92888 349.0594Q144.22575 349.59064 143.14763 349.59064Q141.78825 349.59064 140.97575 348.7469Q140.17888 347.90314 140.17888 346.3875Q140.17888 344.825 140.99138 343.96564Q141.80388 343.09064 143.08513 343.09064Q144.33513 343.09064 145.11638 343.9344Q145.91325 344.77814 145.91325 346.325Q145.91325 346.41876 145.91325 346.60626L141.27263 346.60626Q141.33513 347.6375 141.85075 348.1844Q142.36638 348.71564 143.14763 348.71564Q143.72575 348.71564 144.132 348.41876Q144.55388 348.10626 144.78825 347.45ZM141.33513 345.7469L144.80388 345.7469Q144.74138 344.95 144.41325 344.5594Q143.89763 343.95 143.10075 343.95Q142.36638 343.95 141.86638 344.4344Q141.382 344.91876 141.33513 345.7469ZM147.52263 349.45L147.52263 343.23126L148.47575 343.23126L148.47575 344.16876Q148.83513 343.5125 149.132 343.3094Q149.4445 343.09064 149.8195 343.09064Q150.35075 343.09064 150.89763 343.41876L150.53825 344.40314Q150.14763 344.16876 149.77263 344.16876Q149.41325 344.16876 149.132 344.3875Q148.86638 344.59064 148.757 344.96564Q148.5695 345.52814 148.5695 346.1844L148.5695 349.45L147.52263 349.45ZM151.14763 346.34064Q151.14763 344.60626 152.10075 343.77814Q152.89763 343.09064 154.05388 343.09064Q155.33513 343.09064 156.14763 343.9344Q156.97575 344.7625 156.97575 346.2469Q156.97575 347.45 156.61638 348.1375Q156.257 348.825 155.55388 349.21564Q154.86638 349.59064 154.05388 349.59064Q152.757 349.59064 151.9445 348.7625Q151.14763 347.91876 151.14763 346.34064ZM152.22575 346.34064Q152.22575 347.52814 152.74138 348.1219Q153.27263 348.71564 154.05388 348.71564Q154.85075 348.71564 155.36638 348.1219Q155.882 347.52814 155.882 346.3094Q155.882 345.15314 155.35075 344.5594Q154.83513 343.96564 154.05388 343.96564Q153.27263 343.96564 152.74138 344.5594Q152.22575 345.1375 152.22575 346.34064ZM160.85075 349.45L160.85075 341.8719L158.02263 341.8719L158.02263 340.85626L164.83513 340.85626L164.83513 341.8719L161.99138 341.8719L161.99138 349.45L160.85075 349.45ZM165.53825 342.075L165.53825 340.85626L166.60075 340.85626L166.60075 342.075L165.53825 342.075ZM165.53825 349.45L165.53825 343.23126L166.60075 343.23126L166.60075 349.45L165.53825 349.45ZM172.78825 347.45L173.882 347.575Q173.632 348.52814 172.92888 349.0594Q172.22575 349.59064 171.14763 349.59064Q169.78825 349.59064 168.97575 348.7469Q168.17888 347.90314 168.17888 346.3875Q168.17888 344.825 168.99138 343.96564Q169.80388 343.09064 171.08513 343.09064Q172.33513 343.09064 173.11638 343.9344Q173.91325 344.77814 173.91325 346.325Q173.91325 346.41876 173.91325 346.60626L169.27263 346.60626Q169.33513 347.6375 169.85075 348.1844Q170.36638 348.71564 171.14763 348.71564Q171.72575 348.71564 172.132 348.41876Q172.55388 348.10626 172.78825 347.45ZM169.33513 345.7469L172.80388 345.7469Q172.74138 344.95 172.41325 344.5594Q171.89763 343.95 171.10075 343.95Q170.36638 343.95 169.86638 344.4344Q169.382 344.91876 169.33513 345.7469ZM175.52263 349.45L175.52263 343.23126L176.47575 343.23126L176.47575 344.16876Q176.83513 343.5125 177.132 343.3094Q177.4445 343.09064 177.8195 343.09064Q178.35075 343.09064 178.89763 343.41876L178.53825 344.40314Q178.14763 344.16876 177.77263 344.16876Q177.41325 344.16876 177.132 344.3875Q176.86638 344.59064 176.757 344.96564Q176.5695 345.52814 176.5695 346.1844L176.5695 349.45L175.52263 349.45Z" fill-rule="nonzero"/><path fill="#000000" d="M245.15858 345.2625Q245.15858 343.1219 246.29921 341.91876Q247.45546 340.7 249.26796 340.7Q250.47108 340.7 251.42421 341.27814Q252.37733 341.84064 252.87733 342.85626Q253.37733 343.8719 253.37733 345.16876Q253.37733 346.46564 252.84608 347.4969Q252.31483 348.52814 251.34608 349.0594Q250.39296 349.59064 249.26796 349.59064Q248.04921 349.59064 247.09608 349.0125Q246.14296 348.41876 245.64296 347.41876Q245.15858 346.40314 245.15858 345.2625ZM246.33046 345.27814Q246.33046 346.84064 247.15858 347.73126Q248.00233 348.6219 249.26796 348.6219Q250.54921 348.6219 251.37733 347.73126Q252.20546 346.825 252.20546 345.15314Q252.20546 344.10626 251.84608 343.325Q251.50233 342.54376 250.81483 342.1219Q250.12733 341.6844 249.28358 341.6844Q248.08046 341.6844 247.20546 342.5125Q246.33046 343.34064 246.33046 345.27814ZM254.37733 351.84064L254.37733 343.23126L255.33046 343.23126L255.33046 344.02814Q255.67421 343.5594 256.09607 343.325Q256.53357 343.09064 257.14294 343.09064Q257.93982 343.09064 258.5492 343.4969Q259.15857 343.90314 259.45544 344.65314Q259.76794 345.40314 259.76794 346.29376Q259.76794 347.2469 259.4242 348.0125Q259.09607 348.77814 258.43982 349.1844Q257.78357 349.59064 257.06482 349.59064Q256.53357 349.59064 256.1117 349.3719Q255.68983 349.1375 255.42421 348.8094L255.42421 351.84064L254.37733 351.84064ZM255.33046 346.3719Q255.33046 347.575 255.81483 348.15314Q256.2992 348.71564 256.9867 348.71564Q257.68982 348.71564 258.18982 348.1219Q258.68982 347.52814 258.68982 346.27814Q258.68982 345.09064 258.20544 344.5125Q257.72107 343.91876 257.03357 343.91876Q256.3617 343.91876 255.84608 344.54376Q255.33046 345.16876 255.33046 346.3719ZM265.62732 347.45L266.72107 347.575Q266.47107 348.52814 265.76794 349.0594Q265.06482 349.59064 263.9867 349.59064Q262.62732 349.59064 261.81482 348.7469Q261.01794 347.90314 261.01794 346.3875Q261.01794 344.825 261.83044 343.96564Q262.64294 343.09064 263.9242 343.09064Q265.1742 343.09064 265.95544 343.9344Q266.75232 344.77814 266.75232 346.325Q266.75232 346.41876 266.75232 346.60626L262.1117 346.60626Q262.1742 347.6375 262.68982 348.1844Q263.20544 348.71564 263.9867 348.71564Q264.56482 348.71564 264.97107 348.41876Q265.39294 348.10626 265.62732 347.45ZM262.1742 345.7469L265.64294 345.7469Q265.58044 344.95 265.25232 344.5594Q264.7367 343.95 263.93982 343.95Q263.20544 343.95 262.70544 344.4344Q262.22107 344.91876 262.1742 345.7469ZM268.37732 349.45L268.37732 343.23126L269.31482 343.23126L269.31482 344.10626Q270.00232 343.09064 271.2992 343.09064Q271.8617 343.09064 272.33044 343.29376Q272.81482 343.4969 273.0492 343.825Q273.28357 344.15314 273.37732 344.59064Q273.4242 344.8875 273.4242 345.6219L273.4242 349.45L272.37732 349.45L272.37732 345.66876Q272.37732 345.0125 272.25232 344.7Q272.12732 344.3875 271.81482 344.2Q271.50232 343.9969 271.08044 343.9969Q270.40857 343.9969 269.90857 344.4344Q269.4242 344.85626 269.4242 346.04376L269.4242 349.45L268.37732 349.45ZM277.95544 349.45L274.62732 340.85626L275.8617 340.85626L278.09607 347.10626Q278.3617 347.85626 278.5492 348.5125Q278.75232 347.8094 279.01794 347.10626L281.33044 340.85626L282.4867 340.85626L279.12732 349.45L277.95544 349.45ZM282.50232 349.45L282.50232 340.85626L285.75232 340.85626Q286.59607 340.85626 287.0492 340.9344Q287.68982 341.04376 288.1117 341.34064Q288.5492 341.6375 288.7992 342.16876Q289.06482 342.7 289.06482 343.34064Q289.06482 344.4344 288.3617 345.2Q287.6742 345.95 285.84607 345.95L283.64294 345.95L283.64294 349.45L282.50232 349.45ZM283.64294 344.95L285.8617 344.95Q286.97107 344.95 287.4242 344.54376Q287.89294 344.1219 287.89294 343.3719Q287.89294 342.84064 287.6117 342.46564Q287.34607 342.075 286.90857 341.95Q286.6117 341.8719 285.84607 341.8719L283.64294 341.8719L283.64294 344.95ZM290.50232 349.45L290.50232 340.85626L291.65857 340.85626L296.1742 347.60626L296.1742 340.85626L297.26794 340.85626L297.26794 349.45L296.09607 349.45L291.58044 342.7L291.58044 349.45L290.50232 349.45Z" fill-rule="nonzero"/><path fill="#000000" d="M360.3414 349.45L358.06015 340.85626L359.23203 340.85626L360.54453 346.4969Q360.74765 347.3719 360.9039 348.2469Q361.23203 346.8719 361.29453 346.65314L362.91953 340.85626L364.29453 340.85626L365.5289 345.2Q365.98203 346.825 366.20078 348.2469Q366.35703 347.4344 366.62265 346.3719L367.9664 340.85626L369.10703 340.85626L366.76328 349.45L365.6539 349.45L363.85703 342.90314Q363.62265 342.09064 363.57578 341.90314Q363.45078 342.48126 363.32578 342.90314L361.51328 349.45L360.3414 349.45ZM369.7164 342.075L369.7164 340.85626L370.7789 340.85626L370.7789 342.075L369.7164 342.075ZM369.7164 349.45L369.7164 343.23126L370.7789 343.23126L370.7789 349.45L369.7164 349.45ZM372.70078 349.45L372.70078 343.23126L373.6539 343.23126L373.6539 344.16876Q374.01328 343.5125 374.31015 343.3094Q374.62265 343.09064 374.99765 343.09064Q375.5289 343.09064 376.07578 343.41876L375.7164 344.40314Q375.32578 344.16876 374.95078 344.16876Q374.5914 344.16876 374.31015 344.3875Q374.04453 344.59064 373.93515 344.96564Q373.74765 345.52814 373.74765 346.1844L373.74765 349.45L372.70078 349.45ZM380.9664 347.45L382.06015 347.575Q381.81015 348.52814 381.10703 349.0594Q380.4039 349.59064 379.32578 349.59064Q377.9664 349.59064 377.1539 348.7469Q376.35703 347.90314 376.35703 346.3875Q376.35703 344.825 377.16953 343.96564Q377.98203 343.09064 379.26328 343.09064Q380.51328 343.09064 381.29453 343.9344Q382.0914 344.77814 382.0914 346.325Q382.0914 346.41876 382.0914 346.60626L377.45078 346.60626Q377.51328 347.6375 378.0289 348.1844Q378.54453 348.71564 379.32578 348.71564Q379.9039 348.71564 380.31015 348.41876Q380.73203 348.10626 380.9664 347.45ZM377.51328 345.7469L380.98203 345.7469Q380.91953 344.95 380.5914 344.5594Q380.07578 343.95 379.2789 343.95Q378.54453 343.95 378.04453 344.4344Q377.56015 344.91876 377.51328 345.7469ZM387.87265 346.075L387.87265 345.075L391.49765 345.0594L391.49765 348.2469Q390.66953 348.91876 389.7789 349.2625Q388.88828 349.59064 387.95078 349.59064Q386.68515 349.59064 385.63828 349.0594Q384.60703 348.5125 384.07578 347.4969Q383.56015 346.46564 383.56015 345.2Q383.56015 343.9344 384.07578 342.85626Q384.60703 341.7625 385.5914 341.2469Q386.57578 340.71564 387.85703 340.71564Q388.79453 340.71564 389.54453 341.0125Q390.29453 341.3094 390.7164 341.85626Q391.1539 342.3875 391.37265 343.2625L390.35703 343.54376Q390.1539 342.8875 389.85703 342.5125Q389.57578 342.1375 389.04453 341.91876Q388.51328 341.6844 387.87265 341.6844Q387.0914 341.6844 386.51328 341.91876Q385.95078 342.15314 385.5914 342.54376Q385.24765 342.9344 385.06015 343.40314Q384.73203 344.2 384.73203 345.1219Q384.73203 346.27814 385.12265 347.0594Q385.5289 347.825 386.2789 348.2Q387.0289 348.575 387.88828 348.575Q388.62265 348.575 389.32578 348.29376Q390.0289 347.9969 390.38828 347.6844L390.38828 346.075L387.87265 346.075ZM396.79453 349.45L396.79453 348.52814Q396.06015 349.59064 394.81015 349.59064Q394.26328 349.59064 393.7789 349.3875Q393.31015 349.16876 393.07578 348.85626Q392.8414 348.52814 392.74765 348.0594Q392.68515 347.7625 392.68515 347.075L392.68515 343.23126L393.74765 343.23126L393.74765 346.6844Q393.74765 347.4969 393.81015 347.79376Q393.9039 348.2 394.2164 348.45Q394.54453 348.6844 395.0289 348.6844Q395.49765 348.6844 395.9039 348.45Q396.32578 348.2 396.49765 347.77814Q396.68515 347.35626 396.68515 346.5594L396.68515 343.23126L397.73203 343.23126L397.73203 349.45L396.79453 349.45ZM403.7789 348.6844Q403.18515 349.1844 402.63828 349.3875Q402.10703 349.59064 401.48203 349.59064Q400.45078 349.59064 399.9039 349.09064Q399.35703 348.59064 399.35703 347.8094Q399.35703 347.35626 399.56015 346.98126Q399.76328 346.59064 400.10703 346.3719Q400.45078 346.1375 400.87265 346.02814Q401.16953 345.9344 401.81015 345.85626Q403.07578 345.71564 403.68515 345.4969Q403.68515 345.27814 403.68515 345.23126Q403.68515 344.575 403.38828 344.3094Q402.98203 343.96564 402.18515 343.96564Q401.45078 343.96564 401.0914 344.23126Q400.73203 344.48126 400.56015 345.1375L399.5289 344.9969Q399.66953 344.34064 399.99765 343.9344Q400.32578 343.52814 400.93515 343.3094Q401.54453 343.09064 402.3414 343.09064Q403.13828 343.09064 403.63828 343.27814Q404.13828 343.46564 404.37265 343.7469Q404.60703 344.02814 404.70078 344.46564Q404.74765 344.73126 404.74765 345.4344L404.74765 346.84064Q404.74765 348.3094 404.81015 348.7Q404.88828 349.09064 405.0914 349.45L403.98203 349.45Q403.82578 349.1219 403.7789 348.6844ZM403.68515 346.325Q403.10703 346.5594 401.9664 346.73126Q401.31015 346.825 401.04453 346.95Q400.7789 347.0594 400.62265 347.27814Q400.48203 347.4969 400.48203 347.77814Q400.48203 348.2 400.79453 348.48126Q401.12265 348.7625 401.73203 348.7625Q402.3414 348.7625 402.81015 348.4969Q403.29453 348.23126 403.51328 347.7625Q403.68515 347.40314 403.68515 346.71564L403.68515 346.325ZM406.70078 349.45L406.70078 343.23126L407.6539 343.23126L407.6539 344.16876Q408.01328 343.5125 408.31015 343.3094Q408.62265 343.09064 408.99765 343.09064Q409.5289 343.09064 410.07578 343.41876L409.7164 344.40314Q409.32578 344.16876 408.95078 344.16876Q408.5914 344.16876 408.31015 344.3875Q408.04453 344.59064 407.93515 344.96564Q407.74765 345.52814 407.74765 346.1844L407.74765 349.45L406.70078 349.45ZM414.74765 349.45L414.74765 348.66876Q414.1539 349.59064 413.01328 349.59064Q412.26328 349.59064 411.63828 349.1844Q411.01328 348.7625 410.66953 348.02814Q410.32578 347.29376 410.32578 346.34064Q410.32578 345.41876 410.63828 344.65314Q410.95078 343.8875 411.57578 343.4969Q412.20078 343.09064 412.9664 343.09064Q413.5289 343.09064 413.9664 343.325Q414.4039 343.5594 414.68515 343.9344L414.68515 340.85626L415.73203 340.85626L415.73203 349.45L414.74765 349.45ZM411.41953 346.34064Q411.41953 347.54376 411.91953 348.1375Q412.41953 348.71564 413.10703 348.71564Q413.79453 348.71564 414.2789 348.15314Q414.76328 347.59064 414.76328 346.4344Q414.76328 345.15314 414.26328 344.5594Q413.7789 343.96564 413.06015 343.96564Q412.35703 343.96564 411.88828 344.54376Q411.41953 345.10626 411.41953 346.34064Z" fill-rule="nonzero"/><path fill="#000000" d="M471.3836 349.45L471.3836 340.85626L472.5086 340.85626L472.5086 349.45L471.3836 349.45ZM474.1336 349.45L474.1336 340.85626L475.27423 340.85626L475.27423 345.1219L479.53986 340.85626L481.08673 340.85626L477.47736 344.34064L481.24298 349.45L479.74298 349.45L476.68048 345.10626L475.27423 346.46564L475.27423 349.45L474.1336 349.45ZM482.21173 349.45L482.21173 340.85626L488.41486 340.85626L488.41486 341.8719L483.35236 341.8719L483.35236 344.4969L488.10236 344.4969L488.10236 345.5125L483.35236 345.5125L483.35236 348.4344L488.61798 348.4344L488.61798 349.45L482.21173 349.45ZM491.77423 349.45L489.41486 343.23126L490.52423 343.23126L491.86798 346.95Q492.0711 347.5594 492.2586 348.2Q492.39923 347.71564 492.64923 347.02814L494.03986 343.23126L495.11798 343.23126L492.7586 349.45L491.77423 349.45ZM500.30548 348.4344L500.30548 349.45L494.61798 349.45Q494.61798 349.075 494.74298 348.71564Q494.96173 348.1375 495.43048 347.575Q495.91486 347.0125 496.8211 346.27814Q498.22736 345.1219 498.71173 344.45Q499.21173 343.77814 499.21173 343.1844Q499.21173 342.5594 498.7586 342.1375Q498.30548 341.7 497.58673 341.7Q496.8211 341.7 496.36798 342.15314Q495.91486 342.60626 495.89923 343.41876L494.8211 343.3094Q494.93048 342.09064 495.64923 341.46564Q496.3836 340.825 497.61798 340.825Q498.85236 340.825 499.5711 341.5125Q500.28986 342.2 500.28986 343.21564Q500.28986 343.73126 500.0711 344.23126Q499.86798 344.71564 499.36798 345.27814Q498.8836 345.825 497.7586 346.77814Q496.80548 347.575 496.52423 347.8719Q496.2586 348.15314 496.08673 348.4344L500.30548 348.4344ZM501.2586 349.59064L503.74298 340.71564L504.58673 340.71564L502.10236 349.59064L501.2586 349.59064ZM505.3836 349.45L505.3836 340.85626L506.5086 340.85626L506.5086 349.45L505.3836 349.45ZM508.18048 349.45L508.18048 340.85626L511.43048 340.85626Q512.27423 340.85626 512.72736 340.9344Q513.368 341.04376 513.78986 341.34064Q514.22736 341.6375 514.47736 342.16876Q514.743 342.7 514.743 343.34064Q514.743 344.4344 514.03986 345.2Q513.35236 345.95 511.52423 345.95L509.3211 345.95L509.3211 349.45L508.18048 349.45ZM509.3211 344.95L511.53986 344.95Q512.64923 344.95 513.10236 344.54376Q513.5711 344.1219 513.5711 343.3719Q513.5711 342.84064 513.28986 342.46564Q513.02423 342.075 512.58673 341.95Q512.28986 341.8719 511.52423 341.8719L509.3211 341.8719L509.3211 344.95ZM515.8055 346.6844L516.868 346.59064Q516.9461 347.2469 517.22736 347.65314Q517.5086 348.0594 518.08673 348.325Q518.6805 348.575 519.41486 348.575Q520.0555 348.575 520.5555 348.3875Q521.0555 348.1844 521.28986 347.85626Q521.53986 347.5125 521.53986 347.1219Q521.53986 346.71564 521.3055 346.41876Q521.0711 346.10626 520.53986 345.90314Q520.1805 345.7625 518.993 345.48126Q517.8211 345.2 517.35236 344.95Q516.72736 344.6219 516.4305 344.15314Q516.1336 343.66876 516.1336 343.075Q516.1336 342.4344 516.493 341.8719Q516.868 341.29376 517.5711 341.0125Q518.28986 340.71564 519.14923 340.71564Q520.10236 340.71564 520.83673 341.02814Q521.5711 341.325 521.96173 341.9344Q522.35236 342.52814 522.3836 343.27814L521.28986 343.35626Q521.1961 342.54376 520.6805 342.1375Q520.1805 341.71564 519.1961 341.71564Q518.16486 341.71564 517.6961 342.09064Q517.22736 342.46564 517.22736 342.9969Q517.22736 343.46564 517.5555 343.7625Q517.8836 344.0594 519.2586 344.3719Q520.64923 344.6844 521.16486 344.91876Q521.91486 345.27814 522.27423 345.8094Q522.6336 346.325 522.6336 347.02814Q522.6336 347.71564 522.243 348.325Q521.85236 348.91876 521.118 349.2625Q520.3836 349.59064 519.46173 349.59064Q518.28986 349.59064 517.493 349.2625Q516.71173 348.91876 516.2586 348.23126Q515.8211 347.54376 515.8055 346.6844ZM528.3055 347.45L529.39923 347.575Q529.14923 348.52814 528.4461 349.0594Q527.743 349.59064 526.66486 349.59064Q525.3055 349.59064 524.493 348.7469Q523.6961 347.90314 523.6961 346.3875Q523.6961 344.825 524.5086 343.96564Q525.3211 343.09064 526.60236 343.09064Q527.85236 343.09064 528.6336 343.9344Q529.4305 344.77814 529.4305 346.325Q529.4305 346.41876 529.4305 346.60626L524.78986 346.60626Q524.85236 347.6375 525.368 348.1844Q525.8836 348.71564 526.66486 348.71564Q527.243 348.71564 527.64923 348.41876Q528.0711 348.10626 528.3055 347.45ZM524.85236 345.7469L528.3211 345.7469Q528.2586 344.95 527.9305 344.5594Q527.41486 343.95 526.618 343.95Q525.8836 343.95 525.3836 344.4344Q524.89923 344.91876 524.85236 345.7469ZM535.118 347.16876L536.14923 347.3094Q535.97736 348.3719 535.27423 348.98126Q534.5711 349.59064 533.5555 349.59064Q532.27423 349.59064 531.493 348.7625Q530.72736 347.91876 530.72736 346.35626Q530.72736 345.35626 531.0555 344.60626Q531.39923 343.84064 532.0711 343.46564Q532.7586 343.09064 533.5711 343.09064Q534.5711 343.09064 535.21173 343.60626Q535.868 344.10626 536.0555 345.0594L535.02423 345.21564Q534.8836 344.59064 534.5086 344.27814Q534.1336 343.95 533.60236 343.95Q532.8055 343.95 532.3055 344.52814Q531.8055 345.09064 531.8055 346.325Q531.8055 347.59064 532.28986 348.15314Q532.77423 348.71564 533.53986 348.71564Q534.16486 348.71564 534.5711 348.34064Q534.993 347.96564 535.118 347.16876Z" fill-rule="nonzero"/></svg>