<svg version="1.1" viewBox="0.0 0.0 600.0 371.0" fill="none" stroke="none" stroke-linecap="square" stroke-miterlimit="10" width="600" height="371" xmlns:xlink="http://www.w3.org/1999/xlink" xmlns="http://www.w3.org/2000/svg"><path fill="#ffffff" d="M0 0L600.0 0L600.0 371.0L0 371.0L0 0Z" fill-rule="nonzero"/><path stroke="#333333" stroke-width="1.0" stroke-linecap="butt" d="M77.5 332.5L581.5 332.5" fill-rule="nonzero"/><path stroke="#cccccc" stroke-width="1.0" stroke-linecap="butt" d="M77.5 230.5L581.5 230.5" fill-rule="nonzero"/><path stroke="#cccccc" stroke-width="1.0" stroke-linecap="butt" d="M77.5 127.5L581.5 127.5" fill-rule="nonzero"/><path stroke="#cccccc" stroke-width="1.0" stroke-linecap="butt" d="M77.5 25.5L581.5 25.5" fill-rule="nonzero"/><clipPath id="id_0"><path d="M77.55 25.55L581.45 25.55L581.45 332.45L77.55 332.45L77.55 25.55Z" clip-rule="nonzero"/></clipPath><path stroke="#000000" stroke-width="2.0" stroke-linecap="butt" stroke-opacity="0.0" clip-path="url(#id_0)" d="M194.0 332.0L119.0 332.0L119.0 226.0C119.0 224.89543 119.89543 224.0 121.0 224.0L192.0 224.0C193.10457 224.0 194.0 224.89543 194.0 226.0Z" fill-rule="nonzero"/><path fill="#4285f4" clip-path="url(#id_0)" d="M194.0 332.0L119.0 332.0L119.0 226.0C119.0 224.89543 119.89543 224.0 121.0 224.0L192.0 224.0C193.10457 224.0 194.0 224.89543 194.0 226.0Z" fill-rule="nonzero"/><path stroke="#000000" stroke-width="2.0" stroke-linecap="butt" stroke-opacity="0.0" clip-path="url(#id_0)" d="M310.0 332.0L235.0 332.0L235.0 203.0C235.0 201.89543 235.89543 201.0 237.0 201.0L308.0 201.0C309.10458 201.0 310.0 201.89543 310.0 203.0Z" fill-rule="nonzero"/><path fill="#4285f4" clip-path="url(#id_0)" d="M310.0 332.0L235.0 332.0L235.0 203.0C235.0 201.89543 235.89543 201.0 237.0 201.0L308.0 201.0C309.10458 201.0 310.0 201.89543 310.0 203.0Z" fill-rule="nonzero"/><path stroke="#000000" stroke-width="2.0" stroke-linecap="butt" stroke-opacity="0.0" clip-path="url(#id_0)" d="M425.0 332.0L350.0 332.0L350.0 43.0C350.0 41.89543 350.89542 41.0 352.0 41.0L423.0 41.0C424.10458 41.0 425.0 41.89543 425.0 43.0Z" fill-rule="nonzero"/><path fill="#4285f4" clip-path="url(#id_0)" d="M425.0 332.0L350.0 332.0L350.0 43.0C350.0 41.89543 350.89542 41.0 352.0 41.0L423.0 41.0C424.10458 41.0 425.0 41.89543 425.0 43.0Z" fill-rule="nonzero"/><path stroke="#000000" stroke-width="2.0" stroke-linecap="butt" stroke-opacity="0.0" clip-path="url(#id_0)" d="M541.0 332.0L466.0 332.0L466.0 232.0C466.0 230.89543 466.89542 230.0 468.0 230.0L539.0 230.0C540.10455 230.0 541.0 230.89543 541.0 232.0Z" fill-rule="nonzero"/><path fill="#4285f4" clip-path="url(#id_0)" d="M541.0 332.0L466.0 332.0L466.0 232.0C466.0 230.89543 466.89542 230.0 468.0 230.0L539.0 230.0C540.10455 230.0 541.0 230.89543 541.0 232.0Z" fill-rule="nonzero"/><path stroke="#4285f4" stroke-width="3.0" stroke-linejoin="round" stroke-linecap="round" d="M150.20312 236.54694L150.64062 232.29694L155.01562 232.29694L155.01562 233.29694L151.5625 233.29694L151.29688 235.62506Q151.9375 235.25006 152.73438 235.25006Q153.89062 235.25006 154.57812 236.03131Q155.26562 236.79694 155.26562 238.10944Q155.26562 239.42194 154.54688 240.18756Q153.84375 240.95319 152.5625 240.95319Q151.4375 240.95319 150.71875 240.32819Q150.0 239.68756 149.90625 238.57819L150.92188 238.57819Q151.03125 239.31256 151.45312 239.68756Q151.875 240.06256 152.5625 240.06256Q153.3125 240.06256 153.75 239.54694Q154.1875 239.03131 154.1875 238.12506Q154.1875 237.26569 153.71875 236.75006Q153.25 236.23444 152.46875 236.23444Q151.76562 236.23444 151.35938 236.53131L151.07812 236.76569L150.20312 236.54694ZM158.28125 236.03131L159.09375 236.03131Q159.875 236.01569 160.3125 235.62506Q160.75 235.23444 160.75 234.56256Q160.75 233.06256 159.25 233.06256Q158.54688 233.06256 158.125 233.46881Q157.71875 233.87506 157.71875 234.53131L156.625 234.53131Q156.625 233.51569 157.35938 232.84381Q158.10938 232.17194 159.25 232.17194Q160.45312 232.17194 161.14062 232.81256Q161.82812 233.45319 161.82812 234.59381Q161.82812 235.15631 161.46875 235.67194Q161.10938 236.18756 160.48438 236.45319Q161.1875 236.67194 161.5625 237.18756Q161.95312 237.70319 161.95312 238.45319Q161.95312 239.59381 161.20312 240.28131Q160.45312 240.95319 159.25 240.95319Q158.0625 240.95319 157.29688 240.29694Q156.54688 239.64069 156.54688 238.57819L157.64062 238.57819Q157.64062 239.25006 158.07812 239.65631Q158.51562 240.06256 159.26562 240.06256Q160.04688 240.06256 160.45312 239.65631Q160.875 239.23444 160.875 238.46881Q160.875 237.73444 160.42188 237.34381Q159.96875 236.93756 159.09375 236.92194L158.28125 236.92194L158.28125 236.03131Z" fill-rule="nonzero"/><path fill="#ffffff" d="M150.20312 236.54694L150.64062 232.29694L155.01562 232.29694L155.01562 233.29694L151.5625 233.29694L151.29688 235.62506Q151.9375 235.25006 152.73438 235.25006Q153.89062 235.25006 154.57812 236.03131Q155.26562 236.79694 155.26562 238.10944Q155.26562 239.42194 154.54688 240.18756Q153.84375 240.95319 152.5625 240.95319Q151.4375 240.95319 150.71875 240.32819Q150.0 239.68756 149.90625 238.57819L150.92188 238.57819Q151.03125 239.31256 151.45312 239.68756Q151.875 240.06256 152.5625 240.06256Q153.3125 240.06256 153.75 239.54694Q154.1875 239.03131 154.1875 238.12506Q154.1875 237.26569 153.71875 236.75006Q153.25 236.23444 152.46875 236.23444Q151.76562 236.23444 151.35938 236.53131L151.07812 236.76569L150.20312 236.54694ZM158.28125 236.03131L159.09375 236.03131Q159.875 236.01569 160.3125 235.62506Q160.75 235.23444 160.75 234.56256Q160.75 233.06256 159.25 233.06256Q158.54688 233.06256 158.125 233.46881Q157.71875 233.87506 157.71875 234.53131L156.625 234.53131Q156.625 233.51569 157.35938 232.84381Q158.10938 232.17194 159.25 232.17194Q160.45312 232.17194 161.14062 232.81256Q161.82812 233.45319 161.82812 234.59381Q161.82812 235.15631 161.46875 235.67194Q161.10938 236.18756 160.48438 236.45319Q161.1875 236.67194 161.5625 237.18756Q161.95312 237.70319 161.95312 238.45319Q161.95312 239.59381 161.20312 240.28131Q160.45312 240.95319 159.25 240.95319Q158.0625 240.95319 157.29688 240.29694Q156.54688 239.64069 156.54688 238.57819L157.64062 238.57819Q157.64062 239.25006 158.07812 239.65631Q158.51562 240.06256 159.26562 240.06256Q160.04688 240.06256 160.45312 239.65631Q160.875 239.23444 160.875 238.46881Q160.875 237.73444 160.42188 237.34381Q159.96875 236.93756 159.09375 236.92194L158.28125 236.92194L158.28125 236.03131Z" fill-rule="nonzero"/><path stroke="#4285f4" stroke-width="3.0" stroke-linejoin="round" stroke-linecap="round" d="M269.96875 209.555L269.96875 210.46124L269.76562 210.46124Q268.5 210.4925 267.75 211.22687Q267.0 211.94562 266.875 213.25812Q267.5625 212.4925 268.71875 212.4925Q269.82812 212.4925 270.5 213.27374Q271.17188 214.055 271.17188 215.305Q271.17188 216.6175 270.45312 217.41437Q269.73438 218.21124 268.51562 218.21124Q267.29688 218.21124 266.53125 217.27374Q265.78125 216.32062 265.78125 214.83624L265.78125 214.43Q265.78125 212.07062 266.78125 210.82062Q267.78125 209.57062 269.76562 209.555L269.96875 209.555ZM268.54688 213.39874Q267.98438 213.39874 267.51562 213.72687Q267.04688 214.055 266.85938 214.57062L266.85938 214.96124Q266.85938 216.02374 267.32812 216.66437Q267.8125 217.305 268.51562 217.305Q269.25 217.305 269.67188 216.77374Q270.09375 216.22687 270.09375 215.35187Q270.09375 214.47687 269.67188 213.94562Q269.25 213.39874 268.54688 213.39874ZM277.28125 215.22687L278.46875 215.22687L278.46875 216.10187L277.28125 216.10187L277.28125 218.08624L276.20312 218.08624L276.20312 216.10187L272.3125 216.10187L272.3125 215.46124L276.125 209.555L277.28125 209.555L277.28125 215.22687ZM273.54688 215.22687L276.20312 215.22687L276.20312 211.03937L276.0625 211.27374L273.54688 215.22687Z" fill-rule="nonzero"/><path fill="#ffffff" d="M269.96875 209.555L269.96875 210.46124L269.76562 210.46124Q268.5 210.4925 267.75 211.22687Q267.0 211.94562 266.875 213.25812Q267.5625 212.4925 268.71875 212.4925Q269.82812 212.4925 270.5 213.27374Q271.17188 214.055 271.17188 215.305Q271.17188 216.6175 270.45312 217.41437Q269.73438 218.21124 268.51562 218.21124Q267.29688 218.21124 266.53125 217.27374Q265.78125 216.32062 265.78125 214.83624L265.78125 214.43Q265.78125 212.07062 266.78125 210.82062Q267.78125 209.57062 269.76562 209.555L269.96875 209.555ZM268.54688 213.39874Q267.98438 213.39874 267.51562 213.72687Q267.04688 214.055 266.85938 214.57062L266.85938 214.96124Q266.85938 216.02374 267.32812 216.66437Q267.8125 217.305 268.51562 217.305Q269.25 217.305 269.67188 216.77374Q270.09375 216.22687 270.09375 215.35187Q270.09375 214.47687 269.67188 213.94562Q269.25 213.39874 268.54688 213.39874ZM277.28125 215.22687L278.46875 215.22687L278.46875 216.10187L277.28125 216.10187L277.28125 218.08624L276.20312 218.08624L276.20312 216.10187L272.3125 216.10187L272.3125 215.46124L276.125 209.555L277.28125 209.555L277.28125 215.22687ZM273.54688 215.22687L276.20312 215.22687L276.20312 211.03937L276.0625 211.27374L273.54688 215.22687Z" fill-rule="nonzero"/><path stroke="#4285f4" stroke-width="3.0" stroke-linejoin="round" stroke-linecap="round" d="M380.76562 57.44496L379.6875 57.44496L379.6875 50.22621L377.5 51.023087L377.5 50.03871L380.60938 48.866837L380.76562 48.866837L380.76562 57.44496ZM388.78125 54.585587L389.96875 54.585587L389.96875 55.460587L388.78125 55.460587L388.78125 57.44496L387.70312 57.44496L387.70312 55.460587L383.8125 55.460587L383.8125 54.81996L387.625 48.91371L388.78125 48.91371L388.78125 54.585587ZM385.04688 54.585587L387.70312 54.585587L387.70312 50.398087L387.5625 50.63246L385.04688 54.585587ZM392.78125 52.648087L393.59375 52.648087Q394.375 52.63246 394.8125 52.241837Q395.25 51.85121 395.25 51.179337Q395.25 49.679337 393.75 49.679337Q393.04688 49.679337 392.625 50.085587Q392.21875 50.491837 392.21875 51.148087L391.125 51.148087Q391.125 50.13246 391.85938 49.460587Q392.60938 48.78871 393.75 48.78871Q394.95312 48.78871 395.64062 49.429337Q396.32812 50.06996 396.32812 51.210587Q396.32812 51.773087 395.96875 52.28871Q395.60938 52.804337 394.98438 53.06996Q395.6875 53.28871 396.0625 53.804337Q396.45312 54.31996 396.45312 55.06996Q396.45312 56.210587 395.70312 56.898087Q394.95312 57.56996 393.75 57.56996Q392.5625 57.56996 391.79688 56.91371Q391.04688 56.25746 391.04688 55.19496L392.14062 55.19496Q392.14062 55.866837 392.57812 56.273087Q393.01562 56.679337 393.76562 56.679337Q394.54688 56.679337 394.95312 56.273087Q395.375 55.85121 395.375 55.085587Q395.375 54.35121 394.92188 53.960587Q394.46875 53.554337 393.59375 53.53871L392.78125 53.53871L392.78125 52.648087Z" fill-rule="nonzero"/><path fill="#ffffff" d="M380.76562 57.44496L379.6875 57.44496L379.6875 50.22621L377.5 51.023087L377.5 50.03871L380.60938 48.866837L380.76562 48.866837L380.76562 57.44496ZM388.78125 54.585587L389.96875 54.585587L389.96875 55.460587L388.78125 55.460587L388.78125 57.44496L387.70312 57.44496L387.70312 55.460587L383.8125 55.460587L383.8125 54.81996L387.625 48.91371L388.78125 48.91371L388.78125 54.585587ZM385.04688 54.585587L387.70312 54.585587L387.70312 50.398087L387.5625 50.63246L385.04688 54.585587ZM392.78125 52.648087L393.59375 52.648087Q394.375 52.63246 394.8125 52.241837Q395.25 51.85121 395.25 51.179337Q395.25 49.679337 393.75 49.679337Q393.04688 49.679337 392.625 50.085587Q392.21875 50.491837 392.21875 51.148087L391.125 51.148087Q391.125 50.13246 391.85938 49.460587Q392.60938 48.78871 393.75 48.78871Q394.95312 48.78871 395.64062 49.429337Q396.32812 50.06996 396.32812 51.210587Q396.32812 51.773087 395.96875 52.28871Q395.60938 52.804337 394.98438 53.06996Q395.6875 53.28871 396.0625 53.804337Q396.45312 54.31996 396.45312 55.06996Q396.45312 56.210587 395.70312 56.898087Q394.95312 57.56996 393.75 57.56996Q392.5625 57.56996 391.79688 56.91371Q391.04688 56.25746 391.04688 55.19496L392.14062 55.19496Q392.14062 55.866837 392.57812 56.273087Q393.01562 56.679337 393.76562 56.679337Q394.54688 56.679337 394.95312 56.273087Q395.375 55.85121 395.375 55.085587Q395.375 54.35121 394.92188 53.960587Q394.46875 53.554337 393.59375 53.53871L392.78125 53.53871L392.78125 52.648087Z" fill-rule="nonzero"/><path stroke="#4285f4" stroke-width="3.0" stroke-linejoin="round" stroke-linecap="round" d="M497.20312 242.3958L497.64062 238.1458L502.01562 238.1458L502.01562 239.1458L498.5625 239.1458L498.29688 241.47392Q498.9375 241.09892 499.73438 241.09892Q500.89062 241.09892 501.57812 241.88017Q502.26562 242.6458 502.26562 243.9583Q502.26562 245.2708 501.54688 246.03642Q500.84375 246.80205 499.5625 246.80205Q498.4375 246.80205 497.71875 246.17705Q497.0 245.53642 496.90625 244.42705L497.92188 244.42705Q498.03125 245.16142 498.45312 245.53642Q498.875 245.91142 499.5625 245.91142Q500.3125 245.91142 500.75 245.3958Q501.1875 244.88017 501.1875 243.97392Q501.1875 243.11455 500.71875 242.59892Q500.25 242.0833 499.46875 242.0833Q498.76562 242.0833 498.35938 242.38017L498.07812 242.61455L497.20312 242.3958ZM509.0625 243.03642Q509.0625 244.94267 508.40625 245.88017Q507.76562 246.80205 506.375 246.80205Q505.01562 246.80205 504.35938 245.8958Q503.70312 244.98955 503.67188 243.17705L503.67188 241.73955Q503.67188 239.84892 504.3125 238.94267Q504.96875 238.0208 506.35938 238.0208Q507.73438 238.0208 508.39062 238.91142Q509.04688 239.78642 509.0625 241.63017L509.0625 243.03642ZM507.96875 241.55205Q507.96875 240.17705 507.57812 239.55205Q507.20312 238.91142 506.35938 238.91142Q505.53125 238.91142 505.14062 239.55205Q504.76562 240.17705 504.76562 241.47392L504.76562 243.2083Q504.76562 244.5833 505.15625 245.25517Q505.5625 245.91142 506.375 245.91142Q507.17188 245.91142 507.5625 245.28642Q507.95312 244.66142 507.96875 243.3333L507.96875 241.55205Z" fill-rule="nonzero"/><path fill="#ffffff" d="M497.20312 242.3958L497.64062 238.1458L502.01562 238.1458L502.01562 239.1458L498.5625 239.1458L498.29688 241.47392Q498.9375 241.09892 499.73438 241.09892Q500.89062 241.09892 501.57812 241.88017Q502.26562 242.6458 502.26562 243.9583Q502.26562 245.2708 501.54688 246.03642Q500.84375 246.80205 499.5625 246.80205Q498.4375 246.80205 497.71875 246.17705Q497.0 245.53642 496.90625 244.42705L497.92188 244.42705Q498.03125 245.16142 498.45312 245.53642Q498.875 245.91142 499.5625 245.91142Q500.3125 245.91142 500.75 245.3958Q501.1875 244.88017 501.1875 243.97392Q501.1875 243.11455 500.71875 242.59892Q500.25 242.0833 499.46875 242.0833Q498.76562 242.0833 498.35938 242.38017L498.07812 242.61455L497.20312 242.3958ZM509.0625 243.03642Q509.0625 244.94267 508.40625 245.88017Q507.76562 246.80205 506.375 246.80205Q505.01562 246.80205 504.35938 245.8958Q503.70312 244.98955 503.67188 243.17705L503.67188 241.73955Q503.67188 239.84892 504.3125 238.94267Q504.96875 238.0208 506.35938 238.0208Q507.73438 238.0208 508.39062 238.91142Q509.04688 239.78642 509.0625 241.63017L509.0625 243.03642ZM507.96875 241.55205Q507.96875 240.17705 507.57812 239.55205Q507.20312 238.91142 506.35938 238.91142Q505.53125 238.91142 505.14062 239.55205Q504.76562 240.17705 504.76562 241.47392L504.76562 243.2083Q504.76562 244.5833 505.15625 245.25517Q505.5625 245.91142 506.375 245.91142Q507.17188 245.91142 507.5625 245.28642Q507.95312 244.66142 507.96875 243.3333L507.96875 241.55205Z" fill-rule="nonzero"/><path fill="#000000" d="M29.550013 234.57812L20.956263 234.57812L20.956263 231.32812Q20.956263 230.48438 21.034388 230.03125Q21.143763 229.39062 21.440638 228.96875Q21.737513 228.53125 22.268763 228.28125Q22.800013 228.01562 23.440638 228.01562Q24.534388 228.01562 25.300013 228.71875Q26.050013 229.40625 26.050013 231.23438L26.050013 233.4375L29.550013 233.4375L29.550013 234.57812ZM25.050013 233.4375L25.050013 231.21875Q25.050013 230.10938 24.643763 229.65625Q24.221888 229.1875 23.471888 229.1875Q22.940638 229.1875 22.565638 229.46875Q22.175013 229.73438 22.050013 230.17188Q21.971888 230.46875 21.971888 231.23438L21.971888 233.4375L25.050013 233.4375ZM29.550013 226.71875L23.331263 226.71875L23.331263 225.76562L24.268763 225.76562Q23.612513 225.40625 23.409388 225.10938Q23.190638 224.79688 23.190638 224.42188Q23.190638 223.89062 23.518763 223.34375L24.503138 223.70312Q24.268763 224.09375 24.268763 224.46875Q24.268763 224.82812 24.487513 225.10938Q24.690638 225.375 25.065638 225.48438Q25.628138 225.67188 26.284388 225.67188L29.550013 225.67188L29.550013 226.71875ZM27.550013 218.45312L27.675013 217.35938Q28.628138 217.60938 29.159388 218.3125Q29.690638 219.01562 29.690638 220.09375Q29.690638 221.45312 28.846888 222.26562Q28.003138 223.0625 26.487513 223.0625Q24.925013 223.0625 24.065638 222.25Q23.190638 221.4375 23.190638 220.15625Q23.190638 218.90625 24.034388 218.125Q24.878138 217.32812 26.425013 217.32812Q26.518763 217.32812 26.706263 217.32812L26.706263 221.96875Q27.737513 221.90625 28.284388 221.39062Q28.815638 220.875 28.815638 220.09375Q28.815638 219.51562 28.518763 219.10938Q28.206263 218.6875 27.550013 218.45312ZM25.846888 221.90625L25.846888 218.4375Q25.050013 218.5 24.659388 218.82812Q24.050013 219.34375 24.050013 220.14062Q24.050013 220.875 24.534388 221.375Q25.018763 221.85938 25.846888 221.90625ZM28.612513 213.40625L29.534388 213.25Q29.628138 213.70312 29.628138 214.04688Q29.628138 214.625 29.456263 214.9375Q29.268763 215.25 28.971888 215.39062Q28.675013 215.51562 27.721888 215.51562L24.143763 215.51562L24.143763 216.28125L23.331263 216.28125L23.331263 215.51562L21.784388 215.51562L21.159388 214.46875L23.331263 214.46875L23.331263 213.40625L24.143763 213.40625L24.143763 214.46875L27.784388 214.46875Q28.237513 214.46875 28.362513 214.42188Q28.487513 214.35938 28.565638 214.23438Q28.643763 214.10938 28.643763 213.875Q28.643763 213.6875 28.612513 213.40625ZM26.440638 213.09375Q24.706263 213.09375 23.878138 212.14062Q23.190638 211.34375 23.190638 210.1875Q23.190638 208.90625 24.034388 208.09375Q24.862513 207.26562 26.346888 207.26562Q27.550013 207.26562 28.237513 207.625Q28.925013 207.98438 29.315638 208.6875Q29.690638 209.375 29.690638 210.1875Q29.690638 211.48438 28.862513 212.29688Q28.018763 213.09375 26.440638 213.09375ZM26.440638 212.01562Q27.628138 212.01562 28.221888 211.5Q28.815638 210.96875 28.815638 210.1875Q28.815638 209.39062 28.221888 208.875Q27.628138 208.35938 26.409388 208.35938Q25.253138 208.35938 24.659388 208.89062Q24.065638 209.40625 24.065638 210.1875Q24.065638 210.96875 24.659388 211.5Q25.237513 212.01562 26.440638 212.01562ZM27.268763 201.64062L27.409388 200.60938Q28.471888 200.78125 29.081263 201.48438Q29.690638 202.1875 29.690638 203.20312Q29.690638 204.48438 28.862513 205.26562Q28.018763 206.03125 26.456263 206.03125Q25.456263 206.03125 24.706263 205.70312Q23.940638 205.35938 23.565638 204.6875Q23.190638 204.0 23.190638 203.1875Q23.190638 202.1875 23.706263 201.54688Q24.206263 200.89062 25.159388 200.70312L25.315638 201.73438Q24.690638 201.875 24.378138 202.25Q24.050013 202.625 24.050013 203.15625Q24.050013 203.95312 24.628138 204.45312Q25.190638 204.95312 26.425013 204.95312Q27.690638 204.95312 28.253138 204.46875Q28.815638 203.98438 28.815638 203.21875Q28.815638 202.59375 28.440638 202.1875Q28.065638 201.76562 27.268763 201.64062ZM21.909388 203.20312L20.909388 202.5625L20.909388 201.375L22.550013 202.6875L22.550013 203.8125L20.909388 205.07812L20.909388 203.875L21.909388 203.20312ZM29.550013 199.70312L23.331263 199.70312L23.331263 198.76562L24.206263 198.76562Q23.190638 198.07812 23.190638 196.78125Q23.190638 196.21875 23.393763 195.75Q23.596888 195.26562 23.925013 195.03125Q24.253138 194.79688 24.690638 194.70312Q24.987513 194.65625 25.721888 194.65625L29.550013 194.65625L29.550013 195.70312L25.768763 195.70312Q25.112513 195.70312 24.800013 195.82812Q24.487513 195.95312 24.300013 196.26562Q24.096888 196.57812 24.096888 197.0Q24.096888 197.67188 24.534388 198.17188Q24.956263 198.65625 26.143763 198.65625L29.550013 198.65625L29.550013 199.70312ZM26.440638 193.09375Q24.706263 193.09375 23.878138 192.14062Q23.190638 191.34375 23.190638 190.1875Q23.190638 188.90625 24.034388 188.09375Q24.862513 187.26562 26.346888 187.26562Q27.550013 187.26562 28.237513 187.625Q28.925013 187.98438 29.315638 188.6875Q29.690638 189.375 29.690638 190.1875Q29.690638 191.48438 28.862513 192.29688Q28.018763 193.09375 26.440638 193.09375ZM26.440638 192.01562Q27.628138 192.01562 28.221888 191.5Q28.815638 190.96875 28.815638 190.1875Q28.815638 189.39062 28.221888 188.875Q27.628138 188.35938 26.409388 188.35938Q25.253138 188.35938 24.659388 188.89062Q24.065638 189.40625 24.065638 190.1875Q24.065638 190.96875 24.659388 191.5Q25.237513 192.01562 26.440638 192.01562ZM27.690638 186.125L27.534388 185.09375Q28.159388 185.0 28.487513 184.60938Q28.815638 184.20312 28.815638 183.46875Q28.815638 182.75 28.534388 182.40625Q28.237513 182.04688 27.831263 182.04688Q27.471888 182.04688 27.268763 182.35938Q27.128138 182.57812 26.909388 183.4375Q26.612513 184.59375 26.409388 185.04688Q26.190638 185.48438 25.815638 185.71875Q25.440638 185.95312 24.971888 185.95312Q24.565638 185.95312 24.206263 185.76562Q23.846888 185.57812 23.612513 185.25Q23.440638 185.0 23.315638 184.57812Q23.190638 184.15625 23.190638 183.65625Q23.190638 182.9375 23.409388 182.39062Q23.612513 181.82812 23.971888 181.5625Q24.331263 181.29688 24.925013 181.20312L25.065638 182.23438Q24.596888 182.29688 24.331263 182.64062Q24.050013 182.96875 24.050013 183.59375Q24.050013 184.3125 24.300013 184.625Q24.534388 184.9375 24.862513 184.9375Q25.065638 184.9375 25.221888 184.8125Q25.393763 184.67188 25.503138 184.40625Q25.565638 184.25 25.768763 183.46875Q26.081263 182.34375 26.268763 181.90625Q26.456263 181.46875 26.815638 181.21875Q27.175013 180.96875 27.721888 180.96875Q28.253138 180.96875 28.721888 181.28125Q29.175013 181.57812 29.440638 182.15625Q29.690638 182.73438 29.690638 183.46875Q29.690638 184.6875 29.190638 185.32812Q28.675013 185.95312 27.690638 186.125ZM28.612513 176.40625L29.534388 176.25Q29.628138 176.70312 29.628138 177.04688Q29.628138 177.625 29.456263 177.9375Q29.268763 178.25 28.971888 178.39062Q28.675013 178.51562 27.721888 178.51562L24.143763 178.51562L24.143763 179.28125L23.331263 179.28125L23.331263 178.51562L21.784388 178.51562L21.159388 177.46875L23.331263 177.46875L23.331263 176.40625L24.143763 176.40625L24.143763 177.46875L27.784388 177.46875Q28.237513 177.46875 28.362513 177.42188Q28.487513 177.35938 28.565638 177.23438Q28.643763 177.10938 28.643763 176.875Q28.643763 176.6875 28.612513 176.40625ZM29.550013 170.98438L23.331263 173.34375L23.331263 172.23438L27.050013 170.89062Q27.659388 170.6875 28.300013 170.5Q27.815638 170.35938 27.128138 170.10938L23.331263 168.71875L23.331263 167.64062L29.550013 170.0L29.550013 170.98438ZM29.550013 164.60938L20.956263 164.60938L20.956263 162.89062L27.034388 160.85938Q27.893763 160.57812 28.315638 160.45312Q27.846888 160.3125 26.940638 160.0L20.956263 157.9375L20.956263 156.40625L29.550013 156.40625L29.550013 157.5L22.362513 157.5L29.550013 160.0L29.550013 161.03125L22.237513 163.51562L29.550013 163.51562L29.550013 164.60938ZM29.550013 154.73438L29.550013 155.71875L20.956263 155.71875L20.956263 154.65625L24.018763 154.65625Q23.190638 153.98438 23.190638 152.95312Q23.190638 152.375 23.425013 151.875Q23.643763 151.35938 24.065638 151.03125Q24.487513 150.6875 25.081263 150.5Q25.675013 150.3125 26.346888 150.3125Q27.940638 150.3125 28.815638 151.10938Q29.690638 151.90625 29.690638 153.0Q29.690638 154.10938 28.768763 154.73438L29.550013 154.73438ZM26.393763 154.75Q27.503138 154.75 28.003138 154.4375Q28.815638 153.9375 28.815638 153.09375Q28.815638 152.40625 28.221888 151.90625Q27.628138 151.39062 26.425013 151.39062Q25.206263 151.39062 24.628138 151.875Q24.050013 152.35938 24.050013 153.04688Q24.050013 153.73438 24.659388 154.25Q25.253138 154.75 26.393763 154.75ZM31.940638 148.70312L23.331263 148.70312L23.331263 147.75L24.128138 147.75Q23.659388 147.40625 23.425013 146.98438Q23.190638 146.54688 23.190638 145.9375Q23.190638 145.14062 23.596888 144.53125Q24.003138 143.92188 24.753138 143.625Q25.503138 143.3125 26.393763 143.3125Q27.346888 143.3125 28.112513 143.65625Q28.878138 143.98438 29.284388 144.64062Q29.690638 145.29688 29.690638 146.01562Q29.690638 146.54688 29.471888 146.96875Q29.237513 147.39062 28.909388 147.65625L31.940638 147.65625L31.940638 148.70312ZM26.471888 147.75Q27.675013 147.75 28.253138 147.26562Q28.815638 146.78125 28.815638 146.09375Q28.815638 145.39062 28.221888 144.89062Q27.628138 144.39062 26.378138 144.39062Q25.190638 144.39062 24.612513 144.875Q24.018763 145.35938 24.018763 146.04688Q24.018763 146.71875 24.643763 147.23438Q25.268763 147.75 26.471888 147.75ZM27.690638 142.125L27.534388 141.09375Q28.159388 141.0 28.487513 140.60938Q28.815638 140.20312 28.815638 139.46875Q28.815638 138.75 28.534388 138.40625Q28.237513 138.04688 27.831263 138.04688Q27.471888 138.04688 27.268763 138.35938Q27.128138 138.57812 26.909388 139.4375Q26.612513 140.59375 26.409388 141.04688Q26.190638 141.48438 25.815638 141.71875Q25.440638 141.95312 24.971888 141.95312Q24.565638 141.95312 24.206263 141.76562Q23.846888 141.57812 23.612513 141.25Q23.440638 141.0 23.315638 140.57812Q23.190638 140.15625 23.190638 139.65625Q23.190638 138.9375 23.409388 138.39062Q23.612513 137.82812 23.971888 137.5625Q24.331263 137.29688 24.925013 137.20312L25.065638 138.23438Q24.596888 138.29688 24.331263 138.64062Q24.050013 138.96875 24.050013 139.59375Q24.050013 140.3125 24.300013 140.625Q24.534388 140.9375 24.862513 140.9375Q25.065638 140.9375 25.221888 140.8125Q25.393763 140.67188 25.503138 140.40625Q25.565638 140.25 25.768763 139.46875Q26.081263 138.34375 26.268763 137.90625Q26.456263 137.46875 26.815638 137.21875Q27.175013 136.96875 27.721888 136.96875Q28.253138 136.96875 28.721888 137.28125Q29.175013 137.57812 29.440638 138.15625Q29.690638 138.73438 29.690638 139.46875Q29.690638 140.6875 29.190638 141.32812Q28.675013 141.95312 27.690638 142.125Z" fill-rule="nonzero"/><path fill="#000000" d="M65.05 332.21564Q65.05 330.6844 65.3625 329.7625Q65.675 328.825 66.28438 328.325Q66.90938 327.825 67.84688 327.825Q68.53438 327.825 69.05 328.10626Q69.58125 328.3875 69.925 328.91876Q70.26875 329.4344 70.45625 330.1844Q70.64375 330.9344 70.64375 332.21564Q70.64375 333.73126 70.33125 334.65314Q70.03438 335.575 69.40938 336.09064Q68.8 336.59064 67.84688 336.59064Q66.6125 336.59064 65.89375 335.7Q65.05 334.6375 65.05 332.21564ZM66.12813 332.21564Q66.12813 334.325 66.62813 335.02814Q67.12813 335.73126 67.84688 335.73126Q68.58125 335.73126 69.06563 335.02814Q69.56563 334.325 69.56563 332.21564Q69.56563 330.09064 69.06563 329.40314Q68.58125 328.7 67.83125 328.7Q67.1125 328.7 66.675 329.3094Q66.12813 330.09064 66.12813 332.21564Z" fill-rule="nonzero"/><path fill="#000000" d="M58.05 231.9L59.159374 231.80624Q59.284374 232.61874 59.721874 233.025Q60.175 233.43124 60.815624 233.43124Q61.565624 233.43124 62.096874 232.85312Q62.628124 232.275 62.628124 231.3375Q62.628124 230.43124 62.1125 229.91562Q61.6125 229.38437 60.784374 229.38437Q60.284374 229.38437 59.8625 229.61874Q59.45625 229.85312 59.221874 230.2125L58.2375 230.0875L59.065624 225.68124L63.346874 225.68124L63.346874 226.68124L59.909374 226.68124L59.45625 228.99374Q60.221874 228.44687 61.065624 228.44687Q62.190624 228.44687 62.95625 229.22812Q63.7375 230.00937 63.7375 231.24374Q63.7375 232.4 63.065624 233.25937Q62.2375 234.29062 60.815624 234.29062Q59.64375 234.29062 58.89375 233.63437Q58.159374 232.97812 58.05 231.9ZM65.05 229.91562Q65.05 228.38437 65.3625 227.4625Q65.675 226.525 66.28438 226.025Q66.90938 225.525 67.84688 225.525Q68.53438 225.525 69.05 225.80624Q69.58125 226.0875 69.925 226.61874Q70.26875 227.13437 70.45625 227.88437Q70.64375 228.63437 70.64375 229.91562Q70.64375 231.43124 70.33125 232.35312Q70.03438 233.275 69.40938 233.79062Q68.8 234.29062 67.84688 234.29062Q66.6125 234.29062 65.89375 233.4Q65.05 232.3375 65.05 229.91562ZM66.12813 229.91562Q66.12813 232.025 66.62813 232.72812Q67.12813 233.43124 67.84688 233.43124Q68.58125 233.43124 69.06563 232.72812Q69.56563 232.025 69.56563 229.91562Q69.56563 227.79062 69.06563 227.10312Q68.58125 226.4 67.83125 226.4Q67.1125 226.4 66.675 227.00937Q66.12813 227.79062 66.12813 229.91562Z" fill-rule="nonzero"/><path fill="#000000" d="M55.01875 131.85L53.971874 131.85L53.971874 125.131256Q53.58125 125.49063 52.95625 125.86563Q52.346874 126.225006 51.8625 126.39688L51.8625 125.381256Q52.7375 124.95938 53.39375 124.381256Q54.065624 123.787506 54.346874 123.225006L55.01875 123.225006L55.01875 131.85ZM58.05 127.61563Q58.05 126.08438 58.3625 125.162506Q58.675 124.225006 59.284374 123.725006Q59.909374 123.225006 60.846874 123.225006Q61.534374 123.225006 62.05 123.506256Q62.58125 123.787506 62.925 124.318756Q63.26875 124.83438 63.45625 125.58438Q63.64375 126.33438 63.64375 127.61563Q63.64375 129.13126 63.33125 130.05313Q63.034374 130.975 62.409374 131.49063Q61.8 131.99063 60.846874 131.99063Q59.6125 131.99063 58.89375 131.1Q58.05 130.0375 58.05 127.61563ZM59.128124 127.61563Q59.128124 129.725 59.628124 130.42813Q60.128124 131.13126 60.846874 131.13126Q61.58125 131.13126 62.065624 130.42813Q62.565624 129.725 62.565624 127.61563Q62.565624 125.49063 62.065624 124.80313Q61.58125 124.100006 60.83125 124.100006Q60.1125 124.100006 59.675 124.70938Q59.128124 125.49063 59.128124 127.61563ZM65.05 127.61563Q65.05 126.08438 65.3625 125.162506Q65.675 124.225006 66.28438 123.725006Q66.90938 123.225006 67.84688 123.225006Q68.53438 123.225006 69.05 123.506256Q69.58125 123.787506 69.925 124.318756Q70.26875 124.83438 70.45625 125.58438Q70.64375 126.33438 70.64375 127.61563Q70.64375 129.13126 70.33125 130.05313Q70.03438 130.975 69.40938 131.49063Q68.8 131.99063 67.84688 131.99063Q66.6125 131.99063 65.89375 131.1Q65.05 130.0375 65.05 127.61563ZM66.12813 127.61563Q66.12813 129.725 66.62813 130.42813Q67.12813 131.13126 67.84688 131.13126Q68.58125 131.13126 69.06563 130.42813Q69.56563 129.725 69.56563 127.61563Q69.56563 125.49063 69.06563 124.80313Q68.58125 124.100006 67.83125 124.100006Q67.1125 124.100006 66.675 124.70938Q66.12813 125.49063 66.12813 127.61563Z" fill-rule="nonzero"/><path fill="#000000" d="M55.01875 29.55L53.971874 29.55L53.971874 22.83125Q53.58125 23.190624 52.95625 23.565624Q52.346874 23.925 51.8625 24.096874L51.8625 23.08125Q52.7375 22.659374 53.39375 22.08125Q54.065624 21.4875 54.346874 20.925L55.01875 20.925L55.01875 29.55ZM58.05 27.3L59.159374 27.20625Q59.284374 28.01875 59.721874 28.425Q60.175 28.83125 60.815624 28.83125Q61.565624 28.83125 62.096874 28.253124Q62.628124 27.675 62.628124 26.7375Q62.628124 25.83125 62.1125 25.315624Q61.6125 24.784374 60.784374 24.784374Q60.284374 24.784374 59.8625 25.01875Q59.45625 25.253124 59.221874 25.6125L58.2375 25.4875L59.065624 21.08125L63.346874 21.08125L63.346874 22.08125L59.909374 22.08125L59.45625 24.39375Q60.221874 23.846874 61.065624 23.846874Q62.190624 23.846874 62.95625 24.628124Q63.7375 25.409374 63.7375 26.64375Q63.7375 27.8 63.065624 28.659374Q62.2375 29.690624 60.815624 29.690624Q59.64375 29.690624 58.89375 29.034374Q58.159374 28.378124 58.05 27.3ZM65.05 25.315624Q65.05 23.784374 65.3625 22.8625Q65.675 21.925 66.28438 21.425Q66.90938 20.925 67.84688 20.925Q68.53438 20.925 69.05 21.20625Q69.58125 21.4875 69.925 22.01875Q70.26875 22.534374 70.45625 23.284374Q70.64375 24.034374 70.64375 25.315624Q70.64375 26.83125 70.33125 27.753124Q70.03438 28.675 69.40938 29.190624Q68.8 29.690624 67.84688 29.690624Q66.6125 29.690624 65.89375 28.8Q65.05 27.7375 65.05 25.315624ZM66.12813 25.315624Q66.12813 27.425 66.62813 28.128124Q67.12813 28.83125 67.84688 28.83125Q68.58125 28.83125 69.06563 28.128124Q69.56563 27.425 69.56563 25.315624Q69.56563 23.190624 69.06563 22.503124Q68.58125 21.8 67.83125 21.8Q67.1125 21.8 66.675 22.409374Q66.12813 23.190624 66.12813 25.315624Z" fill-rule="nonzero"/><path fill="#000000" d="M132.97575 349.45L132.97575 348.3875L137.382 342.8875Q137.85075 342.3094 138.27263 341.8719L133.47575 341.8719L133.47575 340.85626L139.632 340.85626L139.632 341.8719L134.80388 347.825L134.28825 348.4344L139.77263 348.4344L139.77263 349.45L132.97575 349.45ZM144.78825 347.45L145.882 347.575Q145.632 348.52814 144.92888 349.0594Q144.22575 349.59064 143.14763 349.59064Q141.78825 349.59064 140.97575 348.7469Q140.17888 347.90314 140.17888 346.3875Q140.17888 344.825 140.99138 343.96564Q141.80388 343.09064 143.08513 343.09064Q144.33513 343.09064 145.11638 343.9344Q145.91325 344.77814 145.91325 346.325Q145.91325 346.41876 145.91325 346.60626L141.27263 346.60626Q141.33513 347.6375 141.85075 348.1844Q142.36638 348.71564 143.14763 348.71564Q143.72575 348.71564 144.132 348.41876Q144.55388 348.10626 144.78825 347.45ZM141.33513 345.7469L144.80388 345.7469Q144.74138 344.95 144.41325 344.5594Q143.89763 343.95 143.10075 343.95Q142.36638 343.95 141.86638 344.4344Q141.382 344.91876 141.33513 345.7469ZM147.52263 349.45L147.52263 343.23126L148.47575 343.23126L148.47575 344.16876Q148.83513 343.5125 149.132 343.3094Q149.4445 343.09064 149.8195 343.09064Q150.35075 343.09064 150.89763 343.41876L150.53825 344.40314Q150.14763 344.16876 149.77263 344.16876Q149.41325 344.16876 149.132 344.3875Q148.86638 344.59064 148.757 344.96564Q148.5695 345.52814 148.5695 346.1844L148.5695 349.45L147.52263 349.45ZM151.14763 346.34064Q151.14763 344.60626 152.10075 343.77814Q152.89763 343.09064 154.05388 343.09064Q155.33513 343.09064 156.14763 343.9344Q156.97575 344.7625 156.97575 346.2469Q156.97575 347.45 156.61638 348.1375Q156.257 348.825 155.55388 349.21564Q154.86638 349.59064 154.05388 349.59064Q152.757 349.59064 151.9445 348.7625Q151.14763 347.91876 151.14763 346.34064ZM152.22575 346.34064Q152.22575 347.52814 152.74138 348.1219Q153.27263 348.71564 154.05388 348.71564Q154.85075 348.71564 155.36638 348.1219Q155.882 347.52814 155.882 346.3094Q155.882 345.15314 155.35075 344.5594Q154.83513 343.96564 154.05388 343.96564Q153.27263 343.96564 152.74138 344.5594Q152.22575 345.1375 152.22575 346.34064ZM160.85075 349.45L160.85075 341.8719L158.02263 341.8719L158.02263 340.85626L164.83513 340.85626L164.83513 341.8719L161.99138 341.8719L161.99138 349.45L160.85075 349.45ZM165.53825 342.075L165.53825 340.85626L166.60075 340.85626L166.60075 342.075L165.53825 342.075ZM165.53825 349.45L165.53825 343.23126L166.60075 343.23126L166.60075 349.45L165.53825 349.45ZM172.78825 347.45L173.882 347.575Q173.632 348.52814 172.92888 349.0594Q172.22575 349.59064 171.14763 349.59064Q169.78825 349.59064 168.97575 348.7469Q168.17888 347.90314 168.17888 346.3875Q168.17888 344.825 168.99138 343.96564Q169.80388 343.09064 171.08513 343.09064Q172.33513 343.09064 173.11638 343.9344Q173.91325 344.77814 173.91325 346.325Q173.91325 346.41876 173.91325 346.60626L169.27263 346.60626Q169.33513 347.6375 169.85075 348.1844Q170.36638 348.71564 171.14763 348.71564Q171.72575 348.71564 172.132 348.41876Q172.55388 348.10626 172.78825 347.45ZM169.33513 345.7469L172.80388 345.7469Q172.74138 344.95 172.41325 344.5594Q171.89763 343.95 171.10075 343.95Q170.36638 343.95 169.86638 344.4344Q169.382 344.91876 169.33513 345.7469ZM175.52263 349.45L175.52263 343.23126L176.47575 343.23126L176.47575 344.16876Q176.83513 343.5125 177.132 343.3094Q177.4445 343.09064 177.8195 343.09064Q178.35075 343.09064 178.89763 343.41876L178.53825 344.40314Q178.14763 344.16876 177.77263 344.16876Q177.41325 344.16876 177.132 344.3875Q176.86638 344.59064 176.757 344.96564Q176.5695 345.52814 176.5695 346.1844L176.5695 349.45L175.52263 349.45Z" fill-rule="nonzero"/><path fill="#000000" d="M245.15858 345.2625Q245.15858 343.1219 246.29921 341.91876Q247.45546 340.7 249.26796 340.7Q250.47108 340.7 251.42421 341.27814Q252.37733 341.84064 252.87733 342.85626Q253.37733 343.8719 253.37733 345.16876Q253.37733 346.46564 252.84608 347.4969Q252.31483 348.52814 251.34608 349.0594Q250.39296 349.59064 249.26796 349.59064Q248.04921 349.59064 247.09608 349.0125Q246.14296 348.41876 245.64296 347.41876Q245.15858 346.40314 245.15858 345.2625ZM246.33046 345.27814Q246.33046 346.84064 247.15858 347.73126Q248.00233 348.6219 249.26796 348.6219Q250.54921 348.6219 251.37733 347.73126Q252.20546 346.825 252.20546 345.15314Q252.20546 344.10626 251.84608 343.325Q251.50233 342.54376 250.81483 342.1219Q250.12733 341.6844 249.28358 341.6844Q248.08046 341.6844 247.20546 342.5125Q246.33046 343.34064 246.33046 345.27814ZM254.37733 351.84064L254.37733 343.23126L255.33046 343.23126L255.33046 344.02814Q255.67421 343.5594 256.09607 343.325Q256.53357 343.09064 257.14294 343.09064Q257.93982 343.09064 258.5492 343.4969Q259.15857 343.90314 259.45544 344.65314Q259.76794 345.40314 259.76794 346.29376Q259.76794 347.2469 259.4242 348.0125Q259.09607 348.77814 258.43982 349.1844Q257.78357 349.59064 257.06482 349.59064Q256.53357 349.59064 256.1117 349.3719Q255.68983 349.1375 255.42421 348.8094L255.42421 351.84064L254.37733 351.84064ZM255.33046 346.3719Q255.33046 347.575 255.81483 348.15314Q256.2992 348.71564 256.9867 348.71564Q257.68982 348.71564 258.18982 348.1219Q258.68982 347.52814 258.68982 346.27814Q258.68982 345.09064 258.20544 344.5125Q257.72107 343.91876 257.03357 343.91876Q256.3617 343.91876 255.84608 344.54376Q255.33046 345.16876 255.33046 346.3719ZM265.62732 347.45L266.72107 347.575Q266.47107 348.52814 265.76794 349.0594Q265.06482 349.59064 263.9867 349.59064Q262.62732 349.59064 261.81482 348.7469Q261.01794 347.90314 261.01794 346.3875Q261.01794 344.825 261.83044 343.96564Q262.64294 343.09064 263.9242 343.09064Q265.1742 343.09064 265.95544 343.9344Q266.75232 344.77814 266.75232 346.325Q266.75232 346.41876 266.75232 346.60626L262.1117 346.60626Q262.1742 347.6375 262.68982 348.1844Q263.20544 348.71564 263.9867 348.71564Q264.56482 348.71564 264.97107 348.41876Q265.39294 348.10626 265.62732 347.45ZM262.1742 345.7469L265.64294 345.7469Q265.58044 344.95 265.25232 344.5594Q264.7367 343.95 263.93982 343.95Q263.20544 343.95 262.70544 344.4344Q262.22107 344.91876 262.1742 345.7469ZM268.37732 349.45L268.37732 343.23126L269.31482 343.23126L269.31482 344.10626Q270.00232 343.09064 271.2992 343.09064Q271.8617 343.09064 272.33044 343.29376Q272.81482 343.4969 273.0492 343.825Q273.28357 344.15314 273.37732 344.59064Q273.4242 344.8875 273.4242 345.6219L273.4242 349.45L272.37732 349.45L272.37732 345.66876Q272.37732 345.0125 272.25232 344.7Q272.12732 344.3875 271.81482 344.2Q271.50232 343.9969 271.08044 343.9969Q270.40857 343.9969 269.90857 344.4344Q269.4242 344.85626 269.4242 346.04376L269.4242 349.45L268.37732 349.45ZM277.95544 349.45L274.62732 340.85626L275.8617 340.85626L278.09607 347.10626Q278.3617 347.85626 278.5492 348.5125Q278.75232 347.8094 279.01794 347.10626L281.33044 340.85626L282.4867 340.85626L279.12732 349.45L277.95544 349.45ZM282.50232 349.45L282.50232 340.85626L285.75232 340.85626Q286.59607 340.85626 287.0492 340.9344Q287.68982 341.04376 288.1117 341.34064Q288.5492 341.6375 288.7992 342.16876Q289.06482 342.7 289.06482 343.34064Q289.06482 344.4344 288.3617 345.2Q287.6742 345.95 285.84607 345.95L283.64294 345.95L283.64294 349.45L282.50232 349.45ZM283.64294 344.95L285.8617 344.95Q286.97107 344.95 287.4242 344.54376Q287.89294 344.1219 287.89294 343.3719Q287.89294 342.84064 287.6117 342.46564Q287.34607 342.075 286.90857 341.95Q286.6117 341.8719 285.84607 341.8719L283.64294 341.8719L283.64294 344.95ZM290.50232 349.45L290.50232 340.85626L291.65857 340.85626L296.1742 347.60626L296.1742 340.85626L297.26794 340.85626L297.26794 349.45L296.09607 349.45L291.58044 342.7L291.58044 349.45L290.50232 349.45Z" fill-rule="nonzero"/><path fill="#000000" d="M360.3414 349.45L358.06015 340.85626L359.23203 340.85626L360.54453 346.4969Q360.74765 347.3719 360.9039 348.2469Q361.23203 346.8719 361.29453 346.65314L362.91953 340.85626L364.29453 340.85626L365.5289 345.2Q365.98203 346.825 366.20078 348.2469Q366.35703 347.4344 366.62265 346.3719L367.9664 340.85626L369.10703 340.85626L366.76328 349.45L365.6539 349.45L363.85703 342.90314Q363.62265 342.09064 363.57578 341.90314Q363.45078 342.48126 363.32578 342.90314L361.51328 349.45L360.3414 349.45ZM369.7164 342.075L369.7164 340.85626L370.7789 340.85626L370.7789 342.075L369.7164 342.075ZM369.7164 349.45L369.7164 343.23126L370.7789 343.23126L370.7789 349.45L369.7164 349.45ZM372.70078 349.45L372.70078 343.23126L373.6539 343.23126L373.6539 344.16876Q374.01328 343.5125 374.31015 343.3094Q374.62265 343.09064 374.99765 343.09064Q375.5289 343.09064 376.07578 343.41876L375.7164 344.40314Q375.32578 344.16876 374.95078 344.16876Q374.5914 344.16876 374.31015 344.3875Q374.04453 344.59064 373.93515 344.96564Q373.74765 345.52814 373.74765 346.1844L373.74765 349.45L372.70078 349.45ZM380.9664 347.45L382.06015 347.575Q381.81015 348.52814 381.10703 349.0594Q380.4039 349.59064 379.32578 349.59064Q377.9664 349.59064 377.1539 348.7469Q376.35703 347.90314 376.35703 346.3875Q376.35703 344.825 377.16953 343.96564Q377.98203 343.09064 379.26328 343.09064Q380.51328 343.09064 381.29453 343.9344Q382.0914 344.77814 382.0914 346.325Q382.0914 346.41876 382.0914 346.60626L377.45078 346.60626Q377.51328 347.6375 378.0289 348.1844Q378.54453 348.71564 379.32578 348.71564Q379.9039 348.71564 380.31015 348.41876Q380.73203 348.10626 380.9664 347.45ZM377.51328 345.7469L380.98203 345.7469Q380.91953 344.95 380.5914 344.5594Q380.07578 343.95 379.2789 343.95Q378.54453 343.95 378.04453 344.4344Q377.56015 344.91876 377.51328 345.7469ZM387.87265 346.075L387.87265 345.075L391.49765 345.0594L391.49765 348.2469Q390.66953 348.91876 389.7789 349.2625Q388.88828 349.59064 387.95078 349.59064Q386.68515 349.59064 385.63828 349.0594Q384.60703 348.5125 384.07578 347.4969Q383.56015 346.46564 383.56015 345.2Q383.56015 343.9344 384.07578 342.85626Q384.60703 341.7625 385.5914 341.2469Q386.57578 340.71564 387.85703 340.71564Q388.79453 340.71564 389.54453 341.0125Q390.29453 341.3094 390.7164 341.85626Q391.1539 342.3875 391.37265 343.2625L390.35703 343.54376Q390.1539 342.8875 389.85703 342.5125Q389.57578 342.1375 389.04453 341.91876Q388.51328 341.6844 387.87265 341.6844Q387.0914 341.6844 386.51328 341.91876Q385.95078 342.15314 385.5914 342.54376Q385.24765 342.9344 385.06015 343.40314Q384.73203 344.2 384.73203 345.1219Q384.73203 346.27814 385.12265 347.0594Q385.5289 347.825 386.2789 348.2Q387.0289 348.575 387.88828 348.575Q388.62265 348.575 389.32578 348.29376Q390.0289 347.9969 390.38828 347.6844L390.38828 346.075L387.87265 346.075ZM396.79453 349.45L396.79453 348.52814Q396.06015 349.59064 394.81015 349.59064Q394.26328 349.59064 393.7789 349.3875Q393.31015 349.16876 393.07578 348.85626Q392.8414 348.52814 392.74765 348.0594Q392.68515 347.7625 392.68515 347.075L392.68515 343.23126L393.74765 343.23126L393.74765 346.6844Q393.74765 347.4969 393.81015 347.79376Q393.9039 348.2 394.2164 348.45Q394.54453 348.6844 395.0289 348.6844Q395.49765 348.6844 395.9039 348.45Q396.32578 348.2 396.49765 347.77814Q396.68515 347.35626 396.68515 346.5594L396.68515 343.23126L397.73203 343.23126L397.73203 349.45L396.79453 349.45ZM403.7789 348.6844Q403.18515 349.1844 402.63828 349.3875Q402.10703 349.59064 401.48203 349.59064Q400.45078 349.59064 399.9039 349.09064Q399.35703 348.59064 399.35703 347.8094Q399.35703 347.35626 399.56015 346.98126Q399.76328 346.59064 400.10703 346.3719Q400.45078 346.1375 400.87265 346.02814Q401.16953 345.9344 401.81015 345.85626Q403.07578 345.71564 403.68515 345.4969Q403.68515 345.27814 403.68515 345.23126Q403.68515 344.575 403.38828 344.3094Q402.98203 343.96564 402.18515 343.96564Q401.45078 343.96564 401.0914 344.23126Q400.73203 344.48126 400.56015 345.1375L399.5289 344.9969Q399.66953 344.34064 399.99765 343.9344Q400.32578 343.52814 400.93515 343.3094Q401.54453 343.09064 402.3414 343.09064Q403.13828 343.09064 403.63828 343.27814Q404.13828 343.46564 404.37265 343.7469Q404.60703 344.02814 404.70078 344.46564Q404.74765 344.73126 404.74765 345.4344L404.74765 346.84064Q404.74765 348.3094 404.81015 348.7Q404.88828 349.09064 405.0914 349.45L403.98203 349.45Q403.82578 349.1219 403.7789 348.6844ZM403.68515 346.325Q403.10703 346.5594 401.9664 346.73126Q401.31015 346.825 401.04453 346.95Q400.7789 347.0594 400.62265 347.27814Q400.48203 347.4969 400.48203 347.77814Q400.48203 348.2 400.79453 348.48126Q401.12265 348.7625 401.73203 348.7625Q402.3414 348.7625 402.81015 348.4969Q403.29453 348.23126 403.51328 347.7625Q403.68515 347.40314 403.68515 346.71564L403.68515 346.325ZM406.70078 349.45L406.70078 343.23126L407.6539 343.23126L407.6539 344.16876Q408.01328 343.5125 408.31015 343.3094Q408.62265 343.09064 408.99765 343.09064Q409.5289 343.09064 410.07578 343.41876L409.7164 344.40314Q409.32578 344.16876 408.95078 344.16876Q408.5914 344.16876 408.31015 344.3875Q408.04453 344.59064 407.93515 344.96564Q407.74765 345.52814 407.74765 346.1844L407.74765 349.45L406.70078 349.45ZM414.74765 349.45L414.74765 348.66876Q414.1539 349.59064 413.01328 349.59064Q412.26328 349.59064 411.63828 349.1844Q411.01328 348.7625 410.66953 348.02814Q410.32578 347.29376 410.32578 346.34064Q410.32578 345.41876 410.63828 344.65314Q410.95078 343.8875 411.57578 343.4969Q412.20078 343.09064 412.9664 343.09064Q413.5289 343.09064 413.9664 343.325Q414.4039 343.5594 414.68515 343.9344L414.68515 340.85626L415.73203 340.85626L415.73203 349.45L414.74765 349.45ZM411.41953 346.34064Q411.41953 347.54376 411.91953 348.1375Q412.41953 348.71564 413.10703 348.71564Q413.79453 348.71564 414.2789 348.15314Q414.76328 347.59064 414.76328 346.4344Q414.76328 345.15314 414.26328 344.5594Q413.7789 343.96564 413.06015 343.96564Q412.35703 343.96564 411.88828 344.54376Q411.41953 345.10626 411.41953 346.34064Z" fill-rule="nonzero"/><path fill="#000000" d="M471.3836 349.45L471.3836 340.85626L472.5086 340.85626L472.5086 349.45L471.3836 349.45ZM474.1336 349.45L474.1336 340.85626L475.27423 340.85626L475.27423 345.1219L479.53986 340.85626L481.08673 340.85626L477.47736 344.34064L481.24298 349.45L479.74298 349.45L476.68048 345.10626L475.27423 346.46564L475.27423 349.45L474.1336 349.45ZM482.21173 349.45L482.21173 340.85626L488.41486 340.85626L488.41486 341.8719L483.35236 341.8719L483.35236 344.4969L488.10236 344.4969L488.10236 345.5125L483.35236 345.5125L483.35236 348.4344L488.61798 348.4344L488.61798 349.45L482.21173 349.45ZM491.77423 349.45L489.41486 343.23126L490.52423 343.23126L491.86798 346.95Q492.0711 347.5594 492.2586 348.2Q492.39923 347.71564 492.64923 347.02814L494.03986 343.23126L495.11798 343.23126L492.7586 349.45L491.77423 349.45ZM500.30548 348.4344L500.30548 349.45L494.61798 349.45Q494.61798 349.075 494.74298 348.71564Q494.96173 348.1375 495.43048 347.575Q495.91486 347.0125 496.8211 346.27814Q498.22736 345.1219 498.71173 344.45Q499.21173 343.77814 499.21173 343.1844Q499.21173 342.5594 498.7586 342.1375Q498.30548 341.7 497.58673 341.7Q496.8211 341.7 496.36798 342.15314Q495.91486 342.60626 495.89923 343.41876L494.8211 343.3094Q494.93048 342.09064 495.64923 341.46564Q496.3836 340.825 497.61798 340.825Q498.85236 340.825 499.5711 341.5125Q500.28986 342.2 500.28986 343.21564Q500.28986 343.73126 500.0711 344.23126Q499.86798 344.71564 499.36798 345.27814Q498.8836 345.825 497.7586 346.77814Q496.80548 347.575 496.52423 347.8719Q496.2586 348.15314 496.08673 348.4344L500.30548 348.4344ZM501.2586 349.59064L503.74298 340.71564L504.58673 340.71564L502.10236 349.59064L501.2586 349.59064ZM505.3836 349.45L505.3836 340.85626L506.5086 340.85626L506.5086 349.45L505.3836 349.45ZM508.18048 349.45L508.18048 340.85626L511.43048 340.85626Q512.27423 340.85626 512.72736 340.9344Q513.368 341.04376 513.78986 341.34064Q514.22736 341.6375 514.47736 342.16876Q514.743 342.7 514.743 343.34064Q514.743 344.4344 514.03986 345.2Q513.35236 345.95 511.52423 345.95L509.3211 345.95L509.3211 349.45L508.18048 349.45ZM509.3211 344.95L511.53986 344.95Q512.64923 344.95 513.10236 344.54376Q513.5711 344.1219 513.5711 343.3719Q513.5711 342.84064 513.28986 342.46564Q513.02423 342.075 512.58673 341.95Q512.28986 341.8719 511.52423 341.8719L509.3211 341.8719L509.3211 344.95ZM515.8055 346.6844L516.868 346.59064Q516.9461 347.2469 517.22736 347.65314Q517.5086 348.0594 518.08673 348.325Q518.6805 348.575 519.41486 348.575Q520.0555 348.575 520.5555 348.3875Q521.0555 348.1844 521.28986 347.85626Q521.53986 347.5125 521.53986 347.1219Q521.53986 346.71564 521.3055 346.41876Q521.0711 346.10626 520.53986 345.90314Q520.1805 345.7625 518.993 345.48126Q517.8211 345.2 517.35236 344.95Q516.72736 344.6219 516.4305 344.15314Q516.1336 343.66876 516.1336 343.075Q516.1336 342.4344 516.493 341.8719Q516.868 341.29376 517.5711 341.0125Q518.28986 340.71564 519.14923 340.71564Q520.10236 340.71564 520.83673 341.02814Q521.5711 341.325 521.96173 341.9344Q522.35236 342.52814 522.3836 343.27814L521.28986 343.35626Q521.1961 342.54376 520.6805 342.1375Q520.1805 341.71564 519.1961 341.71564Q518.16486 341.71564 517.6961 342.09064Q517.22736 342.46564 517.22736 342.9969Q517.22736 343.46564 517.5555 343.7625Q517.8836 344.0594 519.2586 344.3719Q520.64923 344.6844 521.16486 344.91876Q521.91486 345.27814 522.27423 345.8094Q522.6336 346.325 522.6336 347.02814Q522.6336 347.71564 522.243 348.325Q521.85236 348.91876 521.118 349.2625Q520.3836 349.59064 519.46173 349.59064Q518.28986 349.59064 517.493 349.2625Q516.71173 348.91876 516.2586 348.23126Q515.8211 347.54376 515.8055 346.6844ZM528.3055 347.45L529.39923 347.575Q529.14923 348.52814 528.4461 349.0594Q527.743 349.59064 526.66486 349.59064Q525.3055 349.59064 524.493 348.7469Q523.6961 347.90314 523.6961 346.3875Q523.6961 344.825 524.5086 343.96564Q525.3211 343.09064 526.60236 343.09064Q527.85236 343.09064 528.6336 343.9344Q529.4305 344.77814 529.4305 346.325Q529.4305 346.41876 529.4305 346.60626L524.78986 346.60626Q524.85236 347.6375 525.368 348.1844Q525.8836 348.71564 526.66486 348.71564Q527.243 348.71564 527.64923 348.41876Q528.0711 348.10626 528.3055 347.45ZM524.85236 345.7469L528.3211 345.7469Q528.2586 344.95 527.9305 344.5594Q527.41486 343.95 526.618 343.95Q525.8836 343.95 525.3836 344.4344Q524.89923 344.91876 524.85236 345.7469ZM535.118 347.16876L536.14923 347.3094Q535.97736 348.3719 535.27423 348.98126Q534.5711 349.59064 533.5555 349.59064Q532.27423 349.59064 531.493 348.7625Q530.72736 347.91876 530.72736 346.35626Q530.72736 345.35626 531.0555 344.60626Q531.39923 343.84064 532.0711 343.46564Q532.7586 343.09064 533.5711 343.09064Q534.5711 343.09064 535.21173 343.60626Q535.868 344.10626 536.0555 345.0594L535.02423 345.21564Q534.8836 344.59064 534.5086 344.27814Q534.1336 343.95 533.60236 343.95Q532.8055 343.95 532.3055 344.52814Q531.8055 345.09064 531.8055 346.325Q531.8055 347.59064 532.28986 348.15314Q532.77423 348.71564 533.53986 348.71564Q534.16486 348.71564 534.5711 348.34064Q534.993 347.96564 535.118 347.16876Z" fill-rule="nonzero"/></svg>