<svg version="1.1" viewBox="0.0 0.0 600.0 371.0" fill="none" stroke="none" stroke-linecap="square" stroke-miterlimit="10" width="600" height="371" xmlns:xlink="http://www.w3.org/1999/xlink" xmlns="http://www.w3.org/2000/svg"><path fill="#ffffff" d="M0 0L600.0 0L600.0 371.0L0 371.0L0 0Z" fill-rule="nonzero"/><path stroke="#333333" stroke-width="1.0" stroke-linecap="butt" d="M45.5 332.5L581.5 332.5" fill-rule="nonzero"/><path stroke="#cccccc" stroke-width="1.0" stroke-linecap="butt" d="M45.5 251.5L581.5 251.5" fill-rule="nonzero"/><path stroke="#cccccc" stroke-width="1.0" stroke-linecap="butt" d="M45.5 169.5L581.5 169.5" fill-rule="nonzero"/><path stroke="#cccccc" stroke-width="1.0" stroke-linecap="butt" d="M45.5 88.5L581.5 88.5" fill-rule="nonzero"/><clipPath id="id_0"><path d="M45.55 88.28333L581.45 88.28333L581.45 332.45L45.55 332.45L45.55 88.28333Z" clip-rule="nonzero"/></clipPath><path stroke="#000000" stroke-width="2.0" stroke-linecap="butt" stroke-opacity="0.0" clip-path="url(#id_0)" d="M128.0 332.0L90.0 332.0L90.0 253.0C90.0 251.89543 90.89543 251.0 92.0 251.0L126.0 251.0C127.10457 251.0 128.0 251.89543 128.0 253.0Z" fill-rule="nonzero"/><path fill="#4285f4" clip-path="url(#id_0)" d="M128.0 332.0L90.0 332.0L90.0 253.0C90.0 251.89543 90.89543 251.0 92.0 251.0L126.0 251.0C127.10457 251.0 128.0 251.89543 128.0 253.0Z" fill-rule="nonzero"/><path stroke="#000000" stroke-width="2.0" stroke-linecap="butt" stroke-opacity="0.0" clip-path="url(#id_0)" d="M251.0 332.0L213.0 332.0L213.0 172.0C213.0 170.89543 213.89543 170.0 215.0 170.0L249.0 170.0C250.10457 170.0 251.0 170.89543 251.0 172.0Z" fill-rule="nonzero"/><path fill="#4285f4" clip-path="url(#id_0)" d="M251.0 332.0L213.0 332.0L213.0 172.0C213.0 170.89543 213.89543 170.0 215.0 170.0L249.0 170.0C250.10457 170.0 251.0 170.89543 251.0 172.0Z" fill-rule="nonzero"/><path stroke="#000000" stroke-width="2.0" stroke-linecap="butt" stroke-opacity="0.0" clip-path="url(#id_0)" d="M374.0 332.0L336.0 332.0L336.0 172.0C336.0 170.89543 336.89542 170.0 338.0 170.0L372.0 170.0C373.10458 170.0 374.0 170.89543 374.0 172.0Z" fill-rule="nonzero"/><path fill="#4285f4" clip-path="url(#id_0)" d="M374.0 332.0L336.0 332.0L336.0 172.0C336.0 170.89543 336.89542 170.0 338.0 170.0L372.0 170.0C373.10458 170.0 374.0 170.89543 374.0 172.0Z" fill-rule="nonzero"/><path stroke="#000000" stroke-width="2.0" stroke-linecap="butt" stroke-opacity="0.0" clip-path="url(#id_0)" d="M497.0 332.0L459.0 332.0L459.0 172.0C459.0 170.89543 459.89542 170.0 461.0 170.0L495.0 170.0C496.10458 170.0 497.0 170.89543 497.0 172.0Z" fill-rule="nonzero"/><path fill="#4285f4" clip-path="url(#id_0)" d="M497.0 332.0L459.0 332.0L459.0 172.0C459.0 170.89543 459.89542 170.0 461.0 170.0L495.0 170.0C496.10458 170.0 497.0 170.89543 497.0 172.0Z" fill-rule="nonzero"/><path stroke="#000000" stroke-width="2.0" stroke-linecap="butt" stroke-opacity="0.0" clip-path="url(#id_0)" d="M168.0 332.0L130.0 332.0L130.0 172.0C130.0 170.89543 130.89543 170.0 132.0 170.0L166.0 170.0C167.10457 170.0 168.0 170.89543 168.0 172.0Z" fill-rule="nonzero"/><path fill="#ea4335" clip-path="url(#id_0)" d="M168.0 332.0L130.0 332.0L130.0 172.0C130.0 170.89543 130.89543 170.0 132.0 170.0L166.0 170.0C167.10457 170.0 168.0 170.89543 168.0 172.0Z" fill-rule="nonzero"/><path stroke="#000000" stroke-width="2.0" stroke-linecap="butt" stroke-opacity="0.0" clip-path="url(#id_0)" d="M291.0 332.0L253.0 332.0L253.0 90.0C253.0 88.89543 253.89543 88.0 255.0 88.0L289.0 88.0C290.10458 88.0 291.0 88.89543 291.0 90.0Z" fill-rule="nonzero"/><path fill="#ea4335" clip-path="url(#id_0)" d="M291.0 332.0L253.0 332.0L253.0 90.0C253.0 88.89543 253.89543 88.0 255.0 88.0L289.0 88.0C290.10458 88.0 291.0 88.89543 291.0 90.0Z" fill-rule="nonzero"/><path stroke="#000000" stroke-width="2.0" stroke-linecap="butt" stroke-opacity="0.0" clip-path="url(#id_0)" d="M414.0 332.0L376.0 332.0L376.0 172.0C376.0 170.89543 376.89542 170.0 378.0 170.0L412.0 170.0C413.10458 170.0 414.0 170.89543 414.0 172.0Z" fill-rule="nonzero"/><path fill="#ea4335" clip-path="url(#id_0)" d="M414.0 332.0L376.0 332.0L376.0 172.0C376.0 170.89543 376.89542 170.0 378.0 170.0L412.0 170.0C413.10458 170.0 414.0 170.89543 414.0 172.0Z" fill-rule="nonzero"/><path stroke="#000000" stroke-width="2.0" stroke-linecap="butt" stroke-opacity="0.0" clip-path="url(#id_0)" d="M537.0 332.0L499.0 332.0L499.0 253.0C499.0 251.89543 499.89542 251.0 501.0 251.0L535.0 251.0C536.10455 251.0 537.0 251.89543 537.0 253.0Z" fill-rule="nonzero"/><path fill="#ea4335" clip-path="url(#id_0)" d="M537.0 332.0L499.0 332.0L499.0 253.0C499.0 251.89543 499.89542 251.0 501.0 251.0L535.0 251.0C536.10455 251.0 537.0 251.89543 537.0 253.0Z" fill-rule="nonzero"/><path fill="#000000" d="M33.05 332.21564Q33.05 330.6844 33.3625 329.7625Q33.675 328.825 34.284374 328.325Q34.909374 327.825 35.846874 327.825Q36.534374 327.825 37.05 328.10626Q37.58125 328.3875 37.925 328.91876Q38.26875 329.4344 38.45625 330.1844Q38.64375 330.9344 38.64375 332.21564Q38.64375 333.73126 38.33125 334.65314Q38.034374 335.575 37.409374 336.09064Q36.8 336.59064 35.846874 336.59064Q34.6125 336.59064 33.89375 335.7Q33.05 334.6375 33.05 332.21564ZM34.128124 332.21564Q34.128124 334.325 34.628124 335.02814Q35.128124 335.73126 35.846874 335.73126Q36.58125 335.73126 37.065624 335.02814Q37.565624 334.325 37.565624 332.21564Q37.565624 330.09064 37.065624 329.40314Q36.58125 328.7 35.83125 328.7Q35.1125 328.7 34.675 329.3094Q34.128124 330.09064 34.128124 332.21564Z" fill-rule="nonzero"/><path fill="#000000" d="M37.01875 255.06111L35.971874 255.06111L35.971874 248.34236Q35.58125 248.70174 34.95625 249.07674Q34.346874 249.43611 33.8625 249.60799L33.8625 248.59236Q34.7375 248.17049 35.39375 247.59236Q36.065624 246.99861 36.346874 246.43611L37.01875 246.43611L37.01875 255.06111Z" fill-rule="nonzero"/><path fill="#000000" d="M38.596874 172.6566L38.596874 173.67223L32.909374 173.67223Q32.909374 173.29723 33.034374 172.93785Q33.253124 172.35973 33.721874 171.79723Q34.20625 171.23473 35.1125 170.50035Q36.51875 169.3441 37.003124 168.67223Q37.503124 168.00035 37.503124 167.4066Q37.503124 166.7816 37.05 166.35973Q36.596874 165.92223 35.878124 165.92223Q35.1125 165.92223 34.659374 166.37535Q34.20625 166.82848 34.190624 167.64098L33.1125 167.5316Q33.221874 166.31285 33.940624 165.68785Q34.675 165.04723 35.909374 165.04723Q37.14375 165.04723 37.8625 165.73473Q38.58125 166.42223 38.58125 167.43785Q38.58125 167.95348 38.3625 168.45348Q38.159374 168.93785 37.659374 169.50035Q37.175 170.04723 36.05 171.00035Q35.096874 171.79723 34.815624 172.0941Q34.55 172.37535 34.378124 172.6566L38.596874 172.6566Z" fill-rule="nonzero"/><path fill="#000000" d="M33.05 90.01771L34.1125 89.87708Q34.284374 90.76771 34.721874 91.17396Q35.159374 91.56458 35.784374 91.56458Q36.534374 91.56458 37.05 91.04896Q37.565624 90.53333 37.565624 89.76771Q37.565624 89.04896 37.08125 88.58021Q36.6125 88.09583 35.878124 88.09583Q35.58125 88.09583 35.128124 88.22083L35.253124 87.28333Q35.3625 87.29896 35.425 87.29896Q36.096874 87.29896 36.628124 86.95521Q37.175 86.59583 37.175 85.86146Q37.175 85.28333 36.784374 84.90833Q36.39375 84.51771 35.76875 84.51771Q35.159374 84.51771 34.7375 84.90833Q34.33125 85.29896 34.221874 86.06458L33.159374 85.87708Q33.346874 84.83021 34.034374 84.25208Q34.721874 83.65833 35.7375 83.65833Q36.440624 83.65833 37.034374 83.97083Q37.628124 84.26771 37.940624 84.78333Q38.253124 85.29896 38.253124 85.89271Q38.253124 86.43958 37.95625 86.90833Q37.659374 87.36146 37.08125 87.62708Q37.83125 87.79896 38.253124 88.36146Q38.675 88.90833 38.675 89.75208Q38.675 90.87708 37.846874 91.65833Q37.034374 92.43958 35.784374 92.43958Q34.659374 92.43958 33.909374 91.76771Q33.159374 91.08021 33.05 90.01771Z" fill-rule="nonzero"/><path fill="#000000" d="M105.94127 349.45L105.94127 348.3875L110.34752 342.8875Q110.81627 342.3094 111.238144 341.8719L106.44127 341.8719L106.44127 340.85626L112.59752 340.85626L112.59752 341.8719L107.769394 347.825L107.25377 348.4344L112.738144 348.4344L112.738144 349.45L105.94127 349.45ZM117.75377 347.45L118.84752 347.575Q118.59752 348.52814 117.894394 349.0594Q117.19127 349.59064 116.113144 349.59064Q114.75377 349.59064 113.94127 348.7469Q113.144394 347.90314 113.144394 346.3875Q113.144394 344.825 113.956894 343.96564Q114.769394 343.09064 116.050644 343.09064Q117.300644 343.09064 118.081894 343.9344Q118.87877 344.77814 118.87877 346.325Q118.87877 346.41876 118.87877 346.60626L114.238144 346.60626Q114.300644 347.6375 114.81627 348.1844Q115.331894 348.71564 116.113144 348.71564Q116.69127 348.71564 117.09752 348.41876Q117.519394 348.10626 117.75377 347.45ZM114.300644 345.7469L117.769394 345.7469Q117.706894 344.95 117.37877 344.5594Q116.863144 343.95 116.06627 343.95Q115.331894 343.95 114.831894 344.4344Q114.34752 344.91876 114.300644 345.7469ZM120.488144 349.45L120.488144 343.23126L121.44127 343.23126L121.44127 344.16876Q121.800644 343.5125 122.09752 343.3094Q122.41002 343.09064 122.78502 343.09064Q123.31627 343.09064 123.863144 343.41876L123.50377 344.40314Q123.113144 344.16876 122.738144 344.16876Q122.37877 344.16876 122.09752 344.3875Q121.831894 344.59064 121.72252 344.96564Q121.53502 345.52814 121.53502 346.1844L121.53502 349.45L120.488144 349.45ZM124.113144 346.34064Q124.113144 344.60626 125.06627 343.77814Q125.863144 343.09064 127.019394 343.09064Q128.30064 343.09064 129.11314 343.9344Q129.94127 344.7625 129.94127 346.2469Q129.94127 347.45 129.5819 348.1375Q129.22252 348.825 128.5194 349.21564Q127.831894 349.59064 127.019394 349.59064Q125.72252 349.59064 124.91002 348.7625Q124.113144 347.91876 124.113144 346.34064ZM125.19127 346.34064Q125.19127 347.52814 125.706894 348.1219Q126.238144 348.71564 127.019394 348.71564Q127.81627 348.71564 128.3319 348.1219Q128.84752 347.52814 128.84752 346.3094Q128.84752 345.15314 128.31627 344.5594Q127.800644 343.96564 127.019394 343.96564Q126.238144 343.96564 125.706894 344.5594Q125.19127 345.1375 125.19127 346.34064ZM133.81627 349.45L133.81627 341.8719L130.98814 341.8719L130.98814 340.85626L137.80064 340.85626L137.80064 341.8719L134.9569 341.8719L134.9569 349.45L133.81627 349.45ZM138.50377 342.075L138.50377 340.85626L139.56627 340.85626L139.56627 342.075L138.50377 342.075ZM138.50377 349.45L138.50377 343.23126L139.56627 343.23126L139.56627 349.45L138.50377 349.45ZM145.75377 347.45L146.84752 347.575Q146.59752 348.52814 145.8944 349.0594Q145.19127 349.59064 144.11314 349.59064Q142.75377 349.59064 141.94127 348.7469Q141.1444 347.90314 141.1444 346.3875Q141.1444 344.825 141.9569 343.96564Q142.7694 343.09064 144.05064 343.09064Q145.30064 343.09064 146.0819 343.9344Q146.87877 344.77814 146.87877 346.325Q146.87877 346.41876 146.87877 346.60626L142.23814 346.60626Q142.30064 347.6375 142.81627 348.1844Q143.3319 348.71564 144.11314 348.71564Q144.69127 348.71564 145.09752 348.41876Q145.5194 348.10626 145.75377 347.45ZM142.30064 345.7469L145.7694 345.7469Q145.7069 344.95 145.37877 344.5594Q144.86314 343.95 144.06627 343.95Q143.3319 343.95 142.8319 344.4344Q142.34752 344.91876 142.30064 345.7469ZM148.48814 349.45L148.48814 343.23126L149.44127 343.23126L149.44127 344.16876Q149.80064 343.5125 150.09752 343.3094Q150.41002 343.09064 150.78502 343.09064Q151.31627 343.09064 151.86314 343.41876L151.50377 344.40314Q151.11314 344.16876 150.73814 344.16876Q150.37877 344.16876 150.09752 344.3875Q149.8319 344.59064 149.72252 344.96564Q149.53502 345.52814 149.53502 346.1844L149.53502 349.45L148.48814 349.45Z" fill-rule="nonzero"/><path fill="#000000" d="M225.48042 345.2625Q225.48042 343.1219 226.62105 341.91876Q227.7773 340.7 229.5898 340.7Q230.79292 340.7 231.74605 341.27814Q232.69917 341.84064 233.19917 342.85626Q233.69917 343.8719 233.69917 345.16876Q233.69917 346.46564 233.16792 347.4969Q232.63667 348.52814 231.66792 349.0594Q230.7148 349.59064 229.5898 349.59064Q228.37105 349.59064 227.41792 349.0125Q226.4648 348.41876 225.9648 347.41876Q225.48042 346.40314 225.48042 345.2625ZM226.6523 345.27814Q226.6523 346.84064 227.48042 347.73126Q228.32417 348.6219 229.5898 348.6219Q230.87105 348.6219 231.69917 347.73126Q232.5273 346.825 232.5273 345.15314Q232.5273 344.10626 232.16792 343.325Q231.82417 342.54376 231.13667 342.1219Q230.44917 341.6844 229.60542 341.6844Q228.4023 341.6844 227.5273 342.5125Q226.6523 343.34064 226.6523 345.27814ZM234.69917 351.84064L234.69917 343.23126L235.6523 343.23126L235.6523 344.02814Q235.99605 343.5594 236.41792 343.325Q236.85542 343.09064 237.4648 343.09064Q238.26167 343.09064 238.87105 343.4969Q239.48042 343.90314 239.7773 344.65314Q240.0898 345.40314 240.0898 346.29376Q240.0898 347.2469 239.74605 348.0125Q239.41792 348.77814 238.76167 349.1844Q238.10542 349.59064 237.38667 349.59064Q236.85542 349.59064 236.43355 349.3719Q236.01167 349.1375 235.74605 348.8094L235.74605 351.84064L234.69917 351.84064ZM235.6523 346.3719Q235.6523 347.575 236.13667 348.15314Q236.62105 348.71564 237.30855 348.71564Q238.01167 348.71564 238.51167 348.1219Q239.01167 347.52814 239.01167 346.27814Q239.01167 345.09064 238.5273 344.5125Q238.04292 343.91876 237.35542 343.91876Q236.68355 343.91876 236.16792 344.54376Q235.6523 345.16876 235.6523 346.3719ZM245.94917 347.45L247.04292 347.575Q246.79292 348.52814 246.0898 349.0594Q245.38667 349.59064 244.30855 349.59064Q242.94917 349.59064 242.13667 348.7469Q241.3398 347.90314 241.3398 346.3875Q241.3398 344.825 242.1523 343.96564Q242.9648 343.09064 244.24605 343.09064Q245.49605 343.09064 246.2773 343.9344Q247.07417 344.77814 247.07417 346.325Q247.07417 346.41876 247.07417 346.60626L242.43355 346.60626Q242.49605 347.6375 243.01167 348.1844Q243.5273 348.71564 244.30855 348.71564Q244.88667 348.71564 245.29292 348.41876Q245.7148 348.10626 245.94917 347.45ZM242.49605 345.7469L245.9648 345.7469Q245.9023 344.95 245.57417 344.5594Q245.05855 343.95 244.26167 343.95Q243.5273 343.95 243.0273 344.4344Q242.54292 344.91876 242.49605 345.7469ZM248.69917 349.45L248.69917 343.23126L249.63667 343.23126L249.63667 344.10626Q250.32417 343.09064 251.62105 343.09064Q252.18355 343.09064 252.6523 343.29376Q253.13667 343.4969 253.37105 343.825Q253.60542 344.15314 253.69917 344.59064Q253.74605 344.8875 253.74605 345.6219L253.74605 349.45L252.69917 349.45L252.69917 345.66876Q252.69917 345.0125 252.57417 344.7Q252.44917 344.3875 252.13667 344.2Q251.82417 343.9969 251.4023 343.9969Q250.73042 343.9969 250.23042 344.4344Q249.74605 344.85626 249.74605 346.04376L249.74605 349.45L248.69917 349.45ZM258.27728 349.45L254.94917 340.85626L256.18353 340.85626L258.4179 347.10626Q258.68353 347.85626 258.87103 348.5125Q259.07416 347.8094 259.33978 347.10626L261.65228 340.85626L262.80853 340.85626L259.44916 349.45L258.27728 349.45ZM262.82416 349.45L262.82416 340.85626L266.07416 340.85626Q266.9179 340.85626 267.37103 340.9344Q268.01166 341.04376 268.43353 341.34064Q268.87103 341.6375 269.12103 342.16876Q269.38666 342.7 269.38666 343.34064Q269.38666 344.4344 268.68353 345.2Q267.99603 345.95 266.1679 345.95L263.96478 345.95L263.96478 349.45L262.82416 349.45ZM263.96478 344.95L266.18353 344.95Q267.2929 344.95 267.74603 344.54376Q268.21478 344.1219 268.21478 343.3719Q268.21478 342.84064 267.93353 342.46564Q267.6679 342.075 267.2304 341.95Q266.93353 341.8719 266.1679 341.8719L263.96478 341.8719L263.96478 344.95ZM270.82416 349.45L270.82416 340.85626L271.9804 340.85626L276.49603 347.60626L276.49603 340.85626L277.58978 340.85626L277.58978 349.45L276.4179 349.45L271.90228 342.7L271.90228 349.45L270.82416 349.45Z" fill-rule="nonzero"/><path fill="#000000" d="M348.01956 349.45L345.7383 340.85626L346.9102 340.85626L348.2227 346.4969Q348.4258 347.3719 348.58206 348.2469Q348.9102 346.8719 348.9727 346.65314L350.5977 340.85626L351.9727 340.85626L353.20706 345.2Q353.6602 346.825 353.87894 348.2469Q354.0352 347.4344 354.3008 346.3719L355.64456 340.85626L356.7852 340.85626L354.44144 349.45L353.33206 349.45L351.5352 342.90314Q351.3008 342.09064 351.25394 341.90314Q351.12894 342.48126 351.00394 342.90314L349.19144 349.45L348.01956 349.45ZM357.39456 342.075L357.39456 340.85626L358.45706 340.85626L358.45706 342.075L357.39456 342.075ZM357.39456 349.45L357.39456 343.23126L358.45706 343.23126L358.45706 349.45L357.39456 349.45ZM360.37894 349.45L360.37894 343.23126L361.33206 343.23126L361.33206 344.16876Q361.69144 343.5125 361.9883 343.3094Q362.3008 343.09064 362.6758 343.09064Q363.20706 343.09064 363.75394 343.41876L363.39456 344.40314Q363.00394 344.16876 362.62894 344.16876Q362.26956 344.16876 361.9883 344.3875Q361.7227 344.59064 361.6133 344.96564Q361.4258 345.52814 361.4258 346.1844L361.4258 349.45L360.37894 349.45ZM368.64456 347.45L369.7383 347.575Q369.4883 348.52814 368.7852 349.0594Q368.08206 349.59064 367.00394 349.59064Q365.64456 349.59064 364.83206 348.7469Q364.0352 347.90314 364.0352 346.3875Q364.0352 344.825 364.8477 343.96564Q365.6602 343.09064 366.94144 343.09064Q368.19144 343.09064 368.9727 343.9344Q369.76956 344.77814 369.76956 346.325Q369.76956 346.41876 369.76956 346.60626L365.12894 346.60626Q365.19144 347.6375 365.70706 348.1844Q366.2227 348.71564 367.00394 348.71564Q367.58206 348.71564 367.9883 348.41876Q368.4102 348.10626 368.64456 347.45ZM365.19144 345.7469L368.6602 345.7469Q368.5977 344.95 368.26956 344.5594Q367.75394 343.95 366.95706 343.95Q366.2227 343.95 365.7227 344.4344Q365.2383 344.91876 365.19144 345.7469ZM375.5508 346.075L375.5508 345.075L379.1758 345.0594L379.1758 348.2469Q378.3477 348.91876 377.45706 349.2625Q376.56644 349.59064 375.62894 349.59064Q374.3633 349.59064 373.31644 349.0594Q372.2852 348.5125 371.75394 347.4969Q371.2383 346.46564 371.2383 345.2Q371.2383 343.9344 371.75394 342.85626Q372.2852 341.7625 373.26956 341.2469Q374.25394 340.71564 375.5352 340.71564Q376.4727 340.71564 377.2227 341.0125Q377.9727 341.3094 378.39456 341.85626Q378.83206 342.3875 379.0508 343.2625L378.0352 343.54376Q377.83206 342.8875 377.5352 342.5125Q377.25394 342.1375 376.7227 341.91876Q376.19144 341.6844 375.5508 341.6844Q374.76956 341.6844 374.19144 341.91876Q373.62894 342.15314 373.26956 342.54376Q372.9258 342.9344 372.7383 343.40314Q372.4102 344.2 372.4102 345.1219Q372.4102 346.27814 372.8008 347.0594Q373.20706 347.825 373.95706 348.2Q374.70706 348.575 375.56644 348.575Q376.3008 348.575 377.00394 348.29376Q377.70706 347.9969 378.06644 347.6844L378.06644 346.075L375.5508 346.075ZM384.4727 349.45L384.4727 348.52814Q383.7383 349.59064 382.4883 349.59064Q381.94144 349.59064 381.45706 349.3875Q380.9883 349.16876 380.75394 348.85626Q380.51956 348.52814 380.4258 348.0594Q380.3633 347.7625 380.3633 347.075L380.3633 343.23126L381.4258 343.23126L381.4258 346.6844Q381.4258 347.4969 381.4883 347.79376Q381.58206 348.2 381.89456 348.45Q382.2227 348.6844 382.70706 348.6844Q383.1758 348.6844 383.58206 348.45Q384.00394 348.2 384.1758 347.77814Q384.3633 347.35626 384.3633 346.5594L384.3633 343.23126L385.4102 343.23126L385.4102 349.45L384.4727 349.45ZM391.45706 348.6844Q390.8633 349.1844 390.31644 349.3875Q389.7852 349.59064 389.1602 349.59064Q388.12894 349.59064 387.58206 349.09064Q387.0352 348.59064 387.0352 347.8094Q387.0352 347.35626 387.2383 346.98126Q387.44144 346.59064 387.7852 346.3719Q388.12894 346.1375 388.5508 346.02814Q388.8477 345.9344 389.4883 345.85626Q390.75394 345.71564 391.3633 345.4969Q391.3633 345.27814 391.3633 345.23126Q391.3633 344.575 391.06644 344.3094Q390.6602 343.96564 389.8633 343.96564Q389.12894 343.96564 388.76956 344.23126Q388.4102 344.48126 388.2383 345.1375L387.20706 344.9969Q387.3477 344.34064 387.6758 343.9344Q388.00394 343.52814 388.6133 343.3094Q389.2227 343.09064 390.01956 343.09064Q390.81644 343.09064 391.31644 343.27814Q391.81644 343.46564 392.0508 343.7469Q392.2852 344.02814 392.37894 344.46564Q392.4258 344.73126 392.4258 345.4344L392.4258 346.84064Q392.4258 348.3094 392.4883 348.7Q392.56644 349.09064 392.76956 349.45L391.6602 349.45Q391.50394 349.1219 391.45706 348.6844ZM391.3633 346.325Q390.7852 346.5594 389.64456 346.73126Q388.9883 346.825 388.7227 346.95Q388.45706 347.0594 388.3008 347.27814Q388.1602 347.4969 388.1602 347.77814Q388.1602 348.2 388.4727 348.48126Q388.8008 348.7625 389.4102 348.7625Q390.01956 348.7625 390.4883 348.4969Q390.9727 348.23126 391.19144 347.7625Q391.3633 347.40314 391.3633 346.71564L391.3633 346.325ZM394.37894 349.45L394.37894 343.23126L395.33206 343.23126L395.33206 344.16876Q395.69144 343.5125 395.9883 343.3094Q396.3008 343.09064 396.6758 343.09064Q397.20706 343.09064 397.75394 343.41876L397.39456 344.40314Q397.00394 344.16876 396.62894 344.16876Q396.26956 344.16876 395.9883 344.3875Q395.7227 344.59064 395.6133 344.96564Q395.4258 345.52814 395.4258 346.1844L395.4258 349.45L394.37894 349.45ZM402.4258 349.45L402.4258 348.66876Q401.83206 349.59064 400.69144 349.59064Q399.94144 349.59064 399.31644 349.1844Q398.69144 348.7625 398.3477 348.02814Q398.00394 347.29376 398.00394 346.34064Q398.00394 345.41876 398.31644 344.65314Q398.62894 343.8875 399.25394 343.4969Q399.87894 343.09064 400.64456 343.09064Q401.20706 343.09064 401.64456 343.325Q402.08206 343.5594 402.3633 343.9344L402.3633 340.85626L403.4102 340.85626L403.4102 349.45L402.4258 349.45ZM399.0977 346.34064Q399.0977 347.54376 399.5977 348.1375Q400.0977 348.71564 400.7852 348.71564Q401.4727 348.71564 401.95706 348.15314Q402.44144 347.59064 402.44144 346.4344Q402.44144 345.15314 401.94144 344.5594Q401.45706 343.96564 400.7383 343.96564Q400.0352 343.96564 399.56644 344.54376Q399.0977 345.10626 399.0977 346.34064Z" fill-rule="nonzero"/><path fill="#000000" d="M466.4181 349.45L466.4181 340.85626L467.5431 340.85626L467.5431 349.45L466.4181 349.45ZM469.1681 349.45L469.1681 340.85626L470.30872 340.85626L470.30872 345.1219L474.57434 340.85626L476.12122 340.85626L472.51184 344.34064L476.27747 349.45L474.77747 349.45L471.71497 345.10626L470.30872 346.46564L470.30872 349.45L469.1681 349.45ZM477.24622 349.45L477.24622 340.85626L483.44934 340.85626L483.44934 341.8719L478.38684 341.8719L478.38684 344.4969L483.13684 344.4969L483.13684 345.5125L478.38684 345.5125L478.38684 348.4344L483.65247 348.4344L483.65247 349.45L477.24622 349.45ZM486.80872 349.45L484.44934 343.23126L485.55872 343.23126L486.90247 346.95Q487.1056 347.5594 487.2931 348.2Q487.43372 347.71564 487.68372 347.02814L489.07434 343.23126L490.15247 343.23126L487.7931 349.45L486.80872 349.45ZM495.33997 348.4344L495.33997 349.45L489.65247 349.45Q489.65247 349.075 489.77747 348.71564Q489.99622 348.1375 490.46497 347.575Q490.94934 347.0125 491.8556 346.27814Q493.26184 345.1219 493.74622 344.45Q494.24622 343.77814 494.24622 343.1844Q494.24622 342.5594 493.7931 342.1375Q493.33997 341.7 492.62122 341.7Q491.8556 341.7 491.40247 342.15314Q490.94934 342.60626 490.93372 343.41876L489.8556 343.3094Q489.96497 342.09064 490.68372 341.46564Q491.4181 340.825 492.65247 340.825Q493.88684 340.825 494.6056 341.5125Q495.32434 342.2 495.32434 343.21564Q495.32434 343.73126 495.1056 344.23126Q494.90247 344.71564 494.40247 345.27814Q493.9181 345.825 492.7931 346.77814Q491.83997 347.575 491.55872 347.8719Q491.2931 348.15314 491.12122 348.4344L495.33997 348.4344ZM496.2931 349.59064L498.77747 340.71564L499.62122 340.71564L497.13684 349.59064L496.2931 349.59064ZM500.4181 349.45L500.4181 340.85626L501.5431 340.85626L501.5431 349.45L500.4181 349.45ZM503.21497 349.45L503.21497 340.85626L506.46497 340.85626Q507.30872 340.85626 507.76184 340.9344Q508.40247 341.04376 508.82434 341.34064Q509.26184 341.6375 509.51184 342.16876Q509.77747 342.7 509.77747 343.34064Q509.77747 344.4344 509.07434 345.2Q508.38684 345.95 506.55872 345.95L504.3556 345.95L504.3556 349.45L503.21497 349.45ZM504.3556 344.95L506.57434 344.95Q507.68372 344.95 508.13684 344.54376Q508.6056 344.1219 508.6056 343.3719Q508.6056 342.84064 508.32434 342.46564Q508.05872 342.075 507.62122 341.95Q507.32434 341.8719 506.55872 341.8719L504.3556 341.8719L504.3556 344.95ZM510.83997 346.6844L511.90247 346.59064Q511.9806 347.2469 512.26184 347.65314Q512.5431 348.0594 513.1212 348.325Q513.71497 348.575 514.44934 348.575Q515.08997 348.575 515.58997 348.3875Q516.08997 348.1844 516.32434 347.85626Q516.57434 347.5125 516.57434 347.1219Q516.57434 346.71564 516.33997 346.41876Q516.1056 346.10626 515.57434 345.90314Q515.21497 345.7625 514.02747 345.48126Q512.8556 345.2 512.38684 344.95Q511.76184 344.6219 511.46497 344.15314Q511.1681 343.66876 511.1681 343.075Q511.1681 342.4344 511.52747 341.8719Q511.90247 341.29376 512.6056 341.0125Q513.32434 340.71564 514.1837 340.71564Q515.13684 340.71564 515.8712 341.02814Q516.6056 341.325 516.9962 341.9344Q517.38684 342.52814 517.4181 343.27814L516.32434 343.35626Q516.2306 342.54376 515.71497 342.1375Q515.21497 341.71564 514.2306 341.71564Q513.19934 341.71564 512.7306 342.09064Q512.26184 342.46564 512.26184 342.9969Q512.26184 343.46564 512.58997 343.7625Q512.9181 344.0594 514.2931 344.3719Q515.6837 344.6844 516.19934 344.91876Q516.94934 345.27814 517.3087 345.8094Q517.6681 346.325 517.6681 347.02814Q517.6681 347.71564 517.27747 348.325Q516.88684 348.91876 516.15247 349.2625Q515.4181 349.59064 514.4962 349.59064Q513.32434 349.59064 512.52747 349.2625Q511.74622 348.91876 511.2931 348.23126Q510.8556 347.54376 510.83997 346.6844ZM523.33997 347.45L524.4337 347.575Q524.1837 348.52814 523.4806 349.0594Q522.77747 349.59064 521.69934 349.59064Q520.33997 349.59064 519.52747 348.7469Q518.7306 347.90314 518.7306 346.3875Q518.7306 344.825 519.5431 343.96564Q520.3556 343.09064 521.63684 343.09064Q522.88684 343.09064 523.6681 343.9344Q524.46497 344.77814 524.46497 346.325Q524.46497 346.41876 524.46497 346.60626L519.82434 346.60626Q519.88684 347.6375 520.40247 348.1844Q520.9181 348.71564 521.69934 348.71564Q522.27747 348.71564 522.6837 348.41876Q523.1056 348.10626 523.33997 347.45ZM519.88684 345.7469L523.3556 345.7469Q523.2931 344.95 522.96497 344.5594Q522.44934 343.95 521.65247 343.95Q520.9181 343.95 520.4181 344.4344Q519.9337 344.91876 519.88684 345.7469ZM530.15247 347.16876L531.1837 347.3094Q531.01184 348.3719 530.3087 348.98126Q529.6056 349.59064 528.58997 349.59064Q527.3087 349.59064 526.52747 348.7625Q525.76184 347.91876 525.76184 346.35626Q525.76184 345.35626 526.08997 344.60626Q526.4337 343.84064 527.1056 343.46564Q527.7931 343.09064 528.6056 343.09064Q529.6056 343.09064 530.2462 343.60626Q530.90247 344.10626 531.08997 345.0594L530.0587 345.21564Q529.9181 344.59064 529.5431 344.27814Q529.1681 343.95 528.63684 343.95Q527.83997 343.95 527.33997 344.52814Q526.83997 345.09064 526.83997 346.325Q526.83997 347.59064 527.32434 348.15314Q527.8087 348.71564 528.57434 348.71564Q529.19934 348.71564 529.6056 348.34064Q530.02747 347.96564 530.15247 347.16876Z" fill-rule="nonzero"/><path fill="#4285f4" d="M158.0 56.916668C158.0 56.364384 158.44771 55.916668 159.0 55.916668L169.0 55.916668C169.55229 55.916668 170.0 56.364384 170.0 56.916668L170.0 66.916664C170.0 67.46895 169.55229 67.916664 169.0 67.916664L159.0 67.916664C158.44771 67.916664 158.0 67.46895 158.0 66.916664Z" fill-rule="nonzero"/><path fill="#1a1a1a" d="M178.23438 65.916664L178.23438 64.854164L182.64062 59.354164Q183.10938 58.77604 183.53125 58.33854L178.73438 58.33854L178.73438 57.322914L184.89062 57.322914L184.89062 58.33854L180.0625 64.291664L179.54688 64.90104L185.03125 64.90104L185.03125 65.916664L178.23438 65.916664ZM189.85938 65.15104Q189.26562 65.65104 188.71875 65.854164Q188.1875 66.05729 187.5625 66.05729Q186.53125 66.05729 185.98438 65.55729Q185.4375 65.05729 185.4375 64.27604Q185.4375 63.822914 185.64062 63.447914Q185.84375 63.05729 186.1875 62.83854Q186.53125 62.604164 186.95312 62.49479Q187.25 62.40104 187.89062 62.322914Q189.15625 62.18229 189.76562 61.96354Q189.76562 61.74479 189.76562 61.697914Q189.76562 61.041664 189.46875 60.77604Q189.0625 60.43229 188.26562 60.43229Q187.53125 60.43229 187.17188 60.697914Q186.8125 60.947914 186.64062 61.604164L185.60938 61.46354Q185.75 60.80729 186.07812 60.40104Q186.40625 59.99479 187.01562 59.77604Q187.625 59.55729 188.42188 59.55729Q189.21875 59.55729 189.71875 59.74479Q190.21875 59.93229 190.45312 60.21354Q190.6875 60.49479 190.78125 60.93229Q190.82812 61.197914 190.82812 61.90104L190.82812 63.30729Q190.82812 64.77604 190.89062 65.166664Q190.96875 65.55729 191.17188 65.916664L190.0625 65.916664Q189.90625 65.58854 189.85938 65.15104ZM189.76562 62.791664Q189.1875 63.02604 188.04688 63.197914Q187.39062 63.291664 187.125 63.416664Q186.85938 63.52604 186.70312 63.74479Q186.5625 63.96354 186.5625 64.24479Q186.5625 64.666664 186.875 64.947914Q187.20312 65.229164 187.8125 65.229164Q188.42188 65.229164 188.89062 64.96354Q189.375 64.697914 189.59375 64.229164Q189.76562 63.86979 189.76562 63.18229L189.76562 62.791664ZM192.79688 65.916664L192.79688 57.322914L193.84375 57.322914L193.84375 60.40104Q194.57812 59.55729 195.70312 59.55729Q196.40625 59.55729 196.90625 59.83854Q197.42188 60.104164 197.64062 60.58854Q197.85938 61.05729 197.85938 61.979164L197.85938 65.916664L196.8125 65.916664L196.8125 61.979164Q196.8125 61.18229 196.46875 60.822914Q196.125 60.46354 195.5 60.46354Q195.03125 60.46354 194.60938 60.71354Q194.20312 60.947914 194.01562 61.36979Q193.84375 61.77604 193.84375 62.510414L193.84375 65.916664L192.79688 65.916664ZM202.09375 64.979164L202.25 65.90104Q201.79688 65.99479 201.45312 65.99479Q200.875 65.99479 200.5625 65.822914Q200.25 65.635414 200.10938 65.33854Q199.98438 65.041664 199.98438 64.08854L199.98438 60.510414L199.21875 60.510414L199.21875 59.697914L199.98438 59.697914L199.98438 58.15104L201.03125 57.52604L201.03125 59.697914L202.09375 59.697914L202.09375 60.510414L201.03125 60.510414L201.03125 64.15104Q201.03125 64.604164 201.07812 64.729164Q201.14062 64.854164 201.26562 64.93229Q201.39062 65.010414 201.625 65.010414Q201.8125 65.010414 202.09375 64.979164ZM207.04688 63.916664L208.14062 64.041664Q207.89062 64.99479 207.1875 65.52604Q206.48438 66.05729 205.40625 66.05729Q204.04688 66.05729 203.23438 65.21354Q202.4375 64.36979 202.4375 62.854164Q202.4375 61.291664 203.25 60.43229Q204.0625 59.55729 205.34375 59.55729Q206.59375 59.55729 207.375 60.40104Q208.17188 61.24479 208.17188 62.791664Q208.17188 62.885414 208.17188 63.072914L203.53125 63.072914Q203.59375 64.104164 204.10938 64.65104Q204.625 65.18229 205.40625 65.18229Q205.98438 65.18229 206.39062 64.885414Q206.8125 64.572914 207.04688 63.916664ZM203.59375 62.21354L207.0625 62.21354Q207.0 61.416664 206.67188 61.02604Q206.15625 60.416664 205.35938 60.416664Q204.625 60.416664 204.125 60.90104Q203.64062 61.385414 203.59375 62.21354ZM211.51562 65.916664L209.15625 59.697914L210.26562 59.697914L211.60938 63.416664Q211.8125 64.02604 212.0 64.666664Q212.14062 64.18229 212.39062 63.49479L213.78125 59.697914L214.85938 59.697914L212.5 65.916664L211.51562 65.916664ZM214.79688 65.916664L214.79688 59.697914L215.73438 59.697914L215.73438 60.572914Q216.42188 59.55729 217.71875 59.55729Q218.28125 59.55729 218.75 59.760414Q219.23438 59.96354 219.46875 60.291664Q219.70312 60.61979 219.79688 61.05729Q219.84375 61.354164 219.84375 62.08854L219.84375 65.916664L218.79688 65.916664L218.79688 62.135414Q218.79688 61.479164 218.67188 61.166664Q218.54688 60.854164 218.23438 60.666664Q217.92188 60.46354 217.5 60.46354Q216.82812 60.46354 216.32812 60.90104Q215.84375 61.322914 215.84375 62.510414L215.84375 65.916664L214.79688 65.916664ZM221.40625 62.80729Q221.40625 61.072914 222.35938 60.24479Q223.15625 59.55729 224.3125 59.55729Q225.59375 59.55729 226.40625 60.40104Q227.23438 61.229164 227.23438 62.71354Q227.23438 63.916664 226.875 64.604164Q226.51562 65.291664 225.8125 65.68229Q225.125 66.05729 224.3125 66.05729Q223.01562 66.05729 222.20312 65.229164Q221.40625 64.385414 221.40625 62.80729ZM222.48438 62.80729Q222.48438 63.99479 223.0 64.58854Q223.53125 65.18229 224.3125 65.18229Q225.10938 65.18229 225.625 64.58854Q226.14062 63.99479 226.14062 62.77604Q226.14062 61.61979 225.60938 61.02604Q225.09375 60.43229 224.3125 60.43229Q223.53125 60.43229 223.0 61.02604Q222.48438 61.604164 222.48438 62.80729ZM228.375 64.05729L229.40625 63.90104Q229.5 64.52604 229.89062 64.854164Q230.29688 65.18229 231.03125 65.18229Q231.75 65.18229 232.09375 64.90104Q232.45312 64.604164 232.45312 64.197914Q232.45312 63.83854 232.14062 63.635414Q231.92188 63.49479 231.0625 63.27604Q229.90625 62.979164 229.45312 62.77604Q229.01562 62.55729 228.78125 62.18229Q228.54688 61.80729 228.54688 61.33854Q228.54688 60.93229 228.73438 60.572914Q228.92188 60.21354 229.25 59.979164Q229.5 59.80729 229.92188 59.68229Q230.34375 59.55729 230.84375 59.55729Q231.5625 59.55729 232.10938 59.77604Q232.67188 59.979164 232.9375 60.33854Q233.20312 60.697914 233.29688 61.291664L232.26562 61.43229Q232.20312 60.96354 231.85938 60.697914Q231.53125 60.416664 230.90625 60.416664Q230.1875 60.416664 229.875 60.666664Q229.5625 60.90104 229.5625 61.229164Q229.5625 61.43229 229.6875 61.58854Q229.82812 61.760414 230.09375 61.86979Q230.25 61.93229 231.03125 62.135414Q232.15625 62.447914 232.59375 62.635414Q233.03125 62.822914 233.28125 63.18229Q233.53125 63.541664 233.53125 64.08854Q233.53125 64.61979 233.21875 65.08854Q232.92188 65.541664 232.34375 65.80729Q231.76562 66.05729 231.03125 66.05729Q229.8125 66.05729 229.17188 65.55729Q228.54688 65.041664 228.375 64.05729ZM238.09375 64.979164L238.25 65.90104Q237.79688 65.99479 237.45312 65.99479Q236.875 65.99479 236.5625 65.822914Q236.25 65.635414 236.10938 65.33854Q235.98438 65.041664 235.98438 64.08854L235.98438 60.510414L235.21875 60.510414L235.21875 59.697914L235.98438 59.697914L235.98438 58.15104L237.03125 57.52604L237.03125 59.697914L238.09375 59.697914L238.09375 60.510414L237.03125 60.510414L237.03125 64.15104Q237.03125 64.604164 237.07812 64.729164Q237.14062 64.854164 237.26562 64.93229Q237.39062 65.010414 237.625 65.010414Q237.8125 65.010414 238.09375 64.979164ZM245.85938 65.15104Q245.26562 65.65104 244.71875 65.854164Q244.1875 66.05729 243.5625 66.05729Q242.53125 66.05729 241.98438 65.55729Q241.4375 65.05729 241.4375 64.27604Q241.4375 63.822914 241.64062 63.447914Q241.84375 63.05729 242.1875 62.83854Q242.53125 62.604164 242.95312 62.49479Q243.25 62.40104 243.89062 62.322914Q245.15625 62.18229 245.76562 61.96354Q245.76562 61.74479 245.76562 61.697914Q245.76562 61.041664 245.46875 60.77604Q245.0625 60.43229 244.26562 60.43229Q243.53125 60.43229 243.17188 60.697914Q242.8125 60.947914 242.64062 61.604164L241.60938 61.46354Q241.75 60.80729 242.07812 60.40104Q242.40625 59.99479 243.01562 59.77604Q243.625 59.55729 244.42188 59.55729Q245.21875 59.55729 245.71875 59.74479Q246.21875 59.93229 246.45312 60.21354Q246.6875 60.49479 246.78125 60.93229Q246.82812 61.197914 246.82812 61.90104L246.82812 63.30729Q246.82812 64.77604 246.89062 65.166664Q246.96875 65.55729 247.17188 65.916664L246.0625 65.916664Q245.90625 65.58854 245.85938 65.15104ZM245.76562 62.791664Q245.1875 63.02604 244.04688 63.197914Q243.39062 63.291664 243.125 63.416664Q242.85938 63.52604 242.70312 63.74479Q242.5625 63.96354 242.5625 64.24479Q242.5625 64.666664 242.875 64.947914Q243.20312 65.229164 243.8125 65.229164Q244.42188 65.229164 244.89062 64.96354Q245.375 64.697914 245.59375 64.229164Q245.76562 63.86979 245.76562 63.18229L245.76562 62.791664ZM252.82812 65.916664L252.82812 65.135414Q252.23438 66.05729 251.09375 66.05729Q250.34375 66.05729 249.71875 65.65104Q249.09375 65.229164 248.75 64.49479Q248.40625 63.760414 248.40625 62.80729Q248.40625 61.885414 248.71875 61.11979Q249.03125 60.354164 249.65625 59.96354Q250.28125 59.55729 251.04688 59.55729Q251.60938 59.55729 252.04688 59.791664Q252.48438 60.02604 252.76562 60.40104L252.76562 57.322914L253.8125 57.322914L253.8125 65.916664L252.82812 65.916664ZM249.5 62.80729Q249.5 64.010414 250.0 64.604164Q250.5 65.18229 251.1875 65.18229Q251.875 65.18229 252.35938 64.61979Q252.84375 64.05729 252.84375 62.90104Q252.84375 61.61979 252.34375 61.02604Q251.85938 60.43229 251.14062 60.43229Q250.4375 60.43229 249.96875 61.010414Q249.5 61.572914 249.5 62.80729ZM255.79688 65.916664L255.79688 59.697914L256.73438 59.697914L256.73438 60.572914Q257.03125 60.104164 257.51562 59.83854Q258.0 59.55729 258.625 59.55729Q259.3125 59.55729 259.75 59.83854Q260.20312 60.11979 260.375 60.635414Q261.125 59.55729 262.29688 59.55729Q263.23438 59.55729 263.71875 60.072914Q264.21875 60.572914 264.21875 61.65104L264.21875 65.916664L263.17188 65.916664L263.17188 61.99479Q263.17188 61.36979 263.0625 61.08854Q262.96875 60.80729 262.70312 60.635414Q262.4375 60.46354 262.0625 60.46354Q261.40625 60.46354 260.96875 60.90104Q260.54688 61.33854 260.54688 62.30729L260.54688 65.916664L259.48438 65.916664L259.48438 61.86979Q259.48438 61.166664 259.21875 60.822914Q258.96875 60.46354 258.39062 60.46354Q257.9375 60.46354 257.5625 60.697914Q257.1875 60.93229 257.01562 61.385414Q256.84375 61.83854 256.84375 62.68229L256.84375 65.916664L255.79688 65.916664ZM266.79688 58.541664L266.79688 57.322914L267.85938 57.322914L267.85938 58.541664L266.79688 58.541664ZM266.79688 65.916664L266.79688 59.697914L267.85938 59.697914L267.85938 65.916664L266.79688 65.916664ZM269.79688 65.916664L269.79688 59.697914L270.73438 59.697914L270.73438 60.572914Q271.42188 59.55729 272.71875 59.55729Q273.28125 59.55729 273.75 59.760414Q274.23438 59.96354 274.46875 60.291664Q274.70312 60.61979 274.79688 61.05729Q274.84375 61.354164 274.84375 62.08854L274.84375 65.916664L273.79688 65.916664L273.79688 62.135414Q273.79688 61.479164 273.67188 61.166664Q273.54688 60.854164 273.23438 60.666664Q272.92188 60.46354 272.5 60.46354Q271.82812 60.46354 271.32812 60.90104Q270.84375 61.322914 270.84375 62.510414L270.84375 65.916664L269.79688 65.916664ZM276.79688 58.541664L276.79688 57.322914L277.85938 57.322914L277.85938 58.541664L276.79688 58.541664ZM276.79688 65.916664L276.79688 59.697914L277.85938 59.697914L277.85938 65.916664L276.79688 65.916664ZM279.375 64.05729L280.40625 63.90104Q280.5 64.52604 280.89062 64.854164Q281.29688 65.18229 282.03125 65.18229Q282.75 65.18229 283.09375 64.90104Q283.45312 64.604164 283.45312 64.197914Q283.45312 63.83854 283.14062 63.635414Q282.92188 63.49479 282.0625 63.27604Q280.90625 62.979164 280.45312 62.77604Q280.01562 62.55729 279.78125 62.18229Q279.54688 61.80729 279.54688 61.33854Q279.54688 60.93229 279.73438 60.572914Q279.92188 60.21354 280.25 59.979164Q280.5 59.80729 280.92188 59.68229Q281.34375 59.55729 281.84375 59.55729Q282.5625 59.55729 283.10938 59.77604Q283.67188 59.979164 283.9375 60.33854Q284.20312 60.697914 284.29688 61.291664L283.26562 61.43229Q283.20312 60.96354 282.85938 60.697914Q282.53125 60.416664 281.90625 60.416664Q281.1875 60.416664 280.875 60.666664Q280.5625 60.90104 280.5625 61.229164Q280.5625 61.43229 280.6875 61.58854Q280.82812 61.760414 281.09375 61.86979Q281.25 61.93229 282.03125 62.135414Q283.15625 62.447914 283.59375 62.635414Q284.03125 62.822914 284.28125 63.18229Q284.53125 63.541664 284.53125 64.08854Q284.53125 64.61979 284.21875 65.08854Q283.92188 65.541664 283.34375 65.80729Q282.76562 66.05729 282.03125 66.05729Q280.8125 66.05729 280.17188 65.55729Q279.54688 65.041664 279.375 64.05729ZM289.09375 64.979164L289.25 65.90104Q288.79688 65.99479 288.45312 65.99479Q287.875 65.99479 287.5625 65.822914Q287.25 65.635414 287.10938 65.33854Q286.98438 65.041664 286.98438 64.08854L286.98438 60.510414L286.21875 60.510414L286.21875 59.697914L286.98438 59.697914L286.98438 58.15104L288.03125 57.52604L288.03125 59.697914L289.09375 59.697914L289.09375 60.510414L288.03125 60.510414L288.03125 64.15104Q288.03125 64.604164 288.07812 64.729164Q288.14062 64.854164 288.26562 64.93229Q288.39062 65.010414 288.625 65.010414Q288.8125 65.010414 289.09375 64.979164ZM289.78125 65.916664L289.78125 59.697914L290.73438 59.697914L290.73438 60.635414Q291.09375 59.979164 291.39062 59.77604Q291.70312 59.55729 292.07812 59.55729Q292.60938 59.55729 293.15625 59.885414L292.79688 60.86979Q292.40625 60.635414 292.03125 60.635414Q291.67188 60.635414 291.39062 60.854164Q291.125 61.05729 291.01562 61.43229Q290.82812 61.99479 290.82812 62.65104L290.82812 65.916664L289.78125 65.916664ZM297.85938 65.15104Q297.26562 65.65104 296.71875 65.854164Q296.1875 66.05729 295.5625 66.05729Q294.53125 66.05729 293.98438 65.55729Q293.4375 65.05729 293.4375 64.27604Q293.4375 63.822914 293.64062 63.447914Q293.84375 63.05729 294.1875 62.83854Q294.53125 62.604164 294.95312 62.49479Q295.25 62.40104 295.89062 62.322914Q297.15625 62.18229 297.76562 61.96354Q297.76562 61.74479 297.76562 61.697914Q297.76562 61.041664 297.46875 60.77604Q297.0625 60.43229 296.26562 60.43229Q295.53125 60.43229 295.17188 60.697914Q294.8125 60.947914 294.64062 61.604164L293.60938 61.46354Q293.75 60.80729 294.07812 60.40104Q294.40625 59.99479 295.01562 59.77604Q295.625 59.55729 296.42188 59.55729Q297.21875 59.55729 297.71875 59.74479Q298.21875 59.93229 298.45312 60.21354Q298.6875 60.49479 298.78125 60.93229Q298.82812 61.197914 298.82812 61.90104L298.82812 63.30729Q298.82812 64.77604 298.89062 65.166664Q298.96875 65.55729 299.17188 65.916664L298.0625 65.916664Q297.90625 65.58854 297.85938 65.15104ZM297.76562 62.791664Q297.1875 63.02604 296.04688 63.197914Q295.39062 63.291664 295.125 63.416664Q294.85938 63.52604 294.70312 63.74479Q294.5625 63.96354 294.5625 64.24479Q294.5625 64.666664 294.875 64.947914Q295.20312 65.229164 295.8125 65.229164Q296.42188 65.229164 296.89062 64.96354Q297.375 64.697914 297.59375 64.229164Q297.76562 63.86979 297.76562 63.18229L297.76562 62.791664ZM304.85938 63.635414L305.89062 63.77604Q305.71875 64.83854 305.01562 65.447914Q304.3125 66.05729 303.29688 66.05729Q302.01562 66.05729 301.23438 65.229164Q300.46875 64.385414 300.46875 62.822914Q300.46875 61.822914 300.79688 61.072914Q301.14062 60.30729 301.8125 59.93229Q302.5 59.55729 303.3125 59.55729Q304.3125 59.55729 304.95312 60.072914Q305.60938 60.572914 305.79688 61.52604L304.76562 61.68229Q304.625 61.05729 304.25 60.74479Q303.875 60.416664 303.34375 60.416664Q302.54688 60.416664 302.04688 60.99479Q301.54688 61.55729 301.54688 62.791664Q301.54688 64.05729 302.03125 64.61979Q302.51562 65.18229 303.28125 65.18229Q303.90625 65.18229 304.3125 64.80729Q304.73438 64.43229 304.85938 63.635414ZM306.79688 58.541664L306.79688 57.322914L307.85938 57.322914L307.85938 58.541664L306.79688 58.541664ZM306.79688 65.916664L306.79688 59.697914L307.85938 59.697914L307.85938 65.916664L306.79688 65.916664ZM309.78125 58.55729L309.78125 57.322914L310.84375 57.322914L310.84375 58.55729L309.78125 58.55729ZM308.45312 68.33854L308.64062 67.43229Q308.96875 67.510414 309.14062 67.510414Q309.46875 67.510414 309.625 67.291664Q309.78125 67.08854 309.78125 66.229164L309.78125 59.697914L310.84375 59.697914L310.84375 66.260414Q310.84375 67.40104 310.54688 67.854164Q310.15625 68.447914 309.28125 68.447914Q308.84375 68.447914 308.45312 68.33854ZM317.04688 63.916664L318.14062 64.041664Q317.89062 64.99479 317.1875 65.52604Q316.48438 66.05729 315.40625 66.05729Q314.04688 66.05729 313.23438 65.21354Q312.4375 64.36979 312.4375 62.854164Q312.4375 61.291664 313.25 60.43229Q314.0625 59.55729 315.34375 59.55729Q316.59375 59.55729 317.375 60.40104Q318.17188 61.24479 318.17188 62.791664Q318.17188 62.885414 318.17188 63.072914L313.53125 63.072914Q313.59375 64.104164 314.10938 64.65104Q314.625 65.18229 315.40625 65.18229Q315.98438 65.18229 316.39062 64.885414Q316.8125 64.572914 317.04688 63.916664ZM313.59375 62.21354L317.0625 62.21354Q317.0 61.416664 316.67188 61.02604Q316.15625 60.416664 315.35938 60.416664Q314.625 60.416664 314.125 60.90104Q313.64062 61.385414 313.59375 62.21354Z" fill-rule="nonzero"/><path fill="#ea4335" d="M335.0 56.916668C335.0 56.364384 335.44772 55.916668 336.0 55.916668L346.0 55.916668C346.55228 55.916668 347.0 56.364384 347.0 56.916668L347.0 66.916664C347.0 67.46895 346.55228 67.916664 346.0 67.916664L336.0 67.916664C335.44772 67.916664 335.0 67.46895 335.0 66.916664Z" fill-rule="nonzero"/><path fill="#1a1a1a" d="M355.98438 65.916664L355.98438 57.322914L361.78125 57.322914L361.78125 58.33854L357.125 58.33854L357.125 60.99479L361.15625 60.99479L361.15625 62.010414L357.125 62.010414L357.125 65.916664L355.98438 65.916664ZM366.875 65.916664L366.875 64.99479Q366.14062 66.05729 364.89062 66.05729Q364.34375 66.05729 363.85938 65.854164Q363.39062 65.635414 363.15625 65.322914Q362.92188 64.99479 362.82812 64.52604Q362.76562 64.229164 362.76562 63.541664L362.76562 59.697914L363.82812 59.697914L363.82812 63.15104Q363.82812 63.96354 363.89062 64.260414Q363.98438 64.666664 364.29688 64.916664Q364.625 65.15104 365.10938 65.15104Q365.57812 65.15104 365.98438 64.916664Q366.40625 64.666664 366.57812 64.24479Q366.76562 63.822914 366.76562 63.02604L366.76562 59.697914L367.8125 59.697914L367.8125 65.916664L366.875 65.916664ZM369.79688 65.916664L369.79688 59.697914L370.73438 59.697914L370.73438 60.572914Q371.42188 59.55729 372.71875 59.55729Q373.28125 59.55729 373.75 59.760414Q374.23438 59.96354 374.46875 60.291664Q374.70312 60.61979 374.79688 61.05729Q374.84375 61.354164 374.84375 62.08854L374.84375 65.916664L373.79688 65.916664L373.79688 62.135414Q373.79688 61.479164 373.67188 61.166664Q373.54688 60.854164 373.23438 60.666664Q372.92188 60.46354 372.5 60.46354Q371.82812 60.46354 371.32812 60.90104Q370.84375 61.322914 370.84375 62.510414L370.84375 65.916664L369.79688 65.916664ZM376.79688 65.916664L376.79688 57.322914L377.85938 57.322914L377.85938 62.229164L380.34375 59.697914L381.71875 59.697914L379.32812 61.99479L381.95312 65.916664L380.65625 65.916664L378.59375 62.729164L377.85938 63.447914L377.85938 65.916664L376.79688 65.916664ZM386.85938 63.635414L387.89062 63.77604Q387.71875 64.83854 387.01562 65.447914Q386.3125 66.05729 385.29688 66.05729Q384.01562 66.05729 383.23438 65.229164Q382.46875 64.385414 382.46875 62.822914Q382.46875 61.822914 382.79688 61.072914Q383.14062 60.30729 383.8125 59.93229Q384.5 59.55729 385.3125 59.55729Q386.3125 59.55729 386.95312 60.072914Q387.60938 60.572914 387.79688 61.52604L386.76562 61.68229Q386.625 61.05729 386.25 60.74479Q385.875 60.416664 385.34375 60.416664Q384.54688 60.416664 384.04688 60.99479Q383.54688 61.55729 383.54688 62.791664Q383.54688 64.05729 384.03125 64.61979Q384.51562 65.18229 385.28125 65.18229Q385.90625 65.18229 386.3125 64.80729Q386.73438 64.43229 386.85938 63.635414ZM388.79688 58.541664L388.79688 57.322914L389.85938 57.322914L389.85938 58.541664L388.79688 58.541664ZM388.79688 65.916664L388.79688 59.697914L389.85938 59.697914L389.85938 65.916664L388.79688 65.916664ZM391.78125 58.55729L391.78125 57.322914L392.84375 57.322914L392.84375 58.55729L391.78125 58.55729ZM390.45312 68.33854L390.64062 67.43229Q390.96875 67.510414 391.14062 67.510414Q391.46875 67.510414 391.625 67.291664Q391.78125 67.08854 391.78125 66.229164L391.78125 59.697914L392.84375 59.697914L392.84375 66.260414Q392.84375 67.40104 392.54688 67.854164Q392.15625 68.447914 391.28125 68.447914Q390.84375 68.447914 390.45312 68.33854ZM394.40625 62.80729Q394.40625 61.072914 395.35938 60.24479Q396.15625 59.55729 397.3125 59.55729Q398.59375 59.55729 399.40625 60.40104Q400.23438 61.229164 400.23438 62.71354Q400.23438 63.916664 399.875 64.604164Q399.51562 65.291664 398.8125 65.68229Q398.125 66.05729 397.3125 66.05729Q396.01562 66.05729 395.20312 65.229164Q394.40625 64.385414 394.40625 62.80729ZM395.48438 62.80729Q395.48438 63.99479 396.0 64.58854Q396.53125 65.18229 397.3125 65.18229Q398.10938 65.18229 398.625 64.58854Q399.14062 63.99479 399.14062 62.77604Q399.14062 61.61979 398.60938 61.02604Q398.09375 60.43229 397.3125 60.43229Q396.53125 60.43229 396.0 61.02604Q395.48438 61.604164 395.48438 62.80729ZM401.79688 65.916664L401.79688 59.697914L402.73438 59.697914L402.73438 60.572914Q403.42188 59.55729 404.71875 59.55729Q405.28125 59.55729 405.75 59.760414Q406.23438 59.96354 406.46875 60.291664Q406.70312 60.61979 406.79688 61.05729Q406.84375 61.354164 406.84375 62.08854L406.84375 65.916664L405.79688 65.916664L405.79688 62.135414Q405.79688 61.479164 405.67188 61.166664Q405.54688 60.854164 405.23438 60.666664Q404.92188 60.46354 404.5 60.46354Q403.82812 60.46354 403.32812 60.90104Q402.84375 61.322914 402.84375 62.510414L402.84375 65.916664L401.79688 65.916664ZM412.85938 65.15104Q412.26562 65.65104 411.71875 65.854164Q411.1875 66.05729 410.5625 66.05729Q409.53125 66.05729 408.98438 65.55729Q408.4375 65.05729 408.4375 64.27604Q408.4375 63.822914 408.64062 63.447914Q408.84375 63.05729 409.1875 62.83854Q409.53125 62.604164 409.95312 62.49479Q410.25 62.40104 410.89062 62.322914Q412.15625 62.18229 412.76562 61.96354Q412.76562 61.74479 412.76562 61.697914Q412.76562 61.041664 412.46875 60.77604Q412.0625 60.43229 411.26562 60.43229Q410.53125 60.43229 410.17188 60.697914Q409.8125 60.947914 409.64062 61.604164L408.60938 61.46354Q408.75 60.80729 409.07812 60.40104Q409.40625 59.99479 410.01562 59.77604Q410.625 59.55729 411.42188 59.55729Q412.21875 59.55729 412.71875 59.74479Q413.21875 59.93229 413.45312 60.21354Q413.6875 60.49479 413.78125 60.93229Q413.82812 61.197914 413.82812 61.90104L413.82812 63.30729Q413.82812 64.77604 413.89062 65.166664Q413.96875 65.55729 414.17188 65.916664L413.0625 65.916664Q412.90625 65.58854 412.85938 65.15104ZM412.76562 62.791664Q412.1875 63.02604 411.04688 63.197914Q410.39062 63.291664 410.125 63.416664Q409.85938 63.52604 409.70312 63.74479Q409.5625 63.96354 409.5625 64.24479Q409.5625 64.666664 409.875 64.947914Q410.20312 65.229164 410.8125 65.229164Q411.42188 65.229164 411.89062 64.96354Q412.375 64.697914 412.59375 64.229164Q412.76562 63.86979 412.76562 63.18229L412.76562 62.791664ZM415.76562 65.916664L415.76562 57.322914L416.82812 57.322914L416.82812 65.916664L415.76562 65.916664ZM418.79688 65.916664L418.79688 59.697914L419.73438 59.697914L419.73438 60.572914Q420.42188 59.55729 421.71875 59.55729Q422.28125 59.55729 422.75 59.760414Q423.23438 59.96354 423.46875 60.291664Q423.70312 60.61979 423.79688 61.05729Q423.84375 61.354164 423.84375 62.08854L423.84375 65.916664L422.79688 65.916664L422.79688 62.135414Q422.79688 61.479164 422.67188 61.166664Q422.54688 60.854164 422.23438 60.666664Q421.92188 60.46354 421.5 60.46354Q420.82812 60.46354 420.32812 60.90104Q419.84375 61.322914 419.84375 62.510414L419.84375 65.916664L418.79688 65.916664ZM425.40625 62.80729Q425.40625 61.072914 426.35938 60.24479Q427.15625 59.55729 428.3125 59.55729Q429.59375 59.55729 430.40625 60.40104Q431.23438 61.229164 431.23438 62.71354Q431.23438 63.916664 430.875 64.604164Q430.51562 65.291664 429.8125 65.68229Q429.125 66.05729 428.3125 66.05729Q427.01562 66.05729 426.20312 65.229164Q425.40625 64.385414 425.40625 62.80729ZM426.48438 62.80729Q426.48438 63.99479 427.0 64.58854Q427.53125 65.18229 428.3125 65.18229Q429.10938 65.18229 429.625 64.58854Q430.14062 63.99479 430.14062 62.77604Q430.14062 61.61979 429.60938 61.02604Q429.09375 60.43229 428.3125 60.43229Q427.53125 60.43229 427.0 61.02604Q426.48438 61.604164 426.48438 62.80729ZM432.375 64.05729L433.40625 63.90104Q433.5 64.52604 433.89062 64.854164Q434.29688 65.18229 435.03125 65.18229Q435.75 65.18229 436.09375 64.90104Q436.45312 64.604164 436.45312 64.197914Q436.45312 63.83854 436.14062 63.635414Q435.92188 63.49479 435.0625 63.27604Q433.90625 62.979164 433.45312 62.77604Q433.01562 62.55729 432.78125 62.18229Q432.54688 61.80729 432.54688 61.33854Q432.54688 60.93229 432.73438 60.572914Q432.92188 60.21354 433.25 59.979164Q433.5 59.80729 433.92188 59.68229Q434.34375 59.55729 434.84375 59.55729Q435.5625 59.55729 436.10938 59.77604Q436.67188 59.979164 436.9375 60.33854Q437.20312 60.697914 437.29688 61.291664L436.26562 61.43229Q436.20312 60.96354 435.85938 60.697914Q435.53125 60.416664 434.90625 60.416664Q434.1875 60.416664 433.875 60.666664Q433.5625 60.90104 433.5625 61.229164Q433.5625 61.43229 433.6875 61.58854Q433.82812 61.760414 434.09375 61.86979Q434.25 61.93229 435.03125 62.135414Q436.15625 62.447914 436.59375 62.635414Q437.03125 62.822914 437.28125 63.18229Q437.53125 63.541664 437.53125 64.08854Q437.53125 64.61979 437.21875 65.08854Q436.92188 65.541664 436.34375 65.80729Q435.76562 66.05729 435.03125 66.05729Q433.8125 66.05729 433.17188 65.55729Q432.54688 65.041664 432.375 64.05729ZM442.09375 64.979164L442.25 65.90104Q441.79688 65.99479 441.45312 65.99479Q440.875 65.99479 440.5625 65.822914Q440.25 65.635414 440.10938 65.33854Q439.98438 65.041664 439.98438 64.08854L439.98438 60.510414L439.21875 60.510414L439.21875 59.697914L439.98438 59.697914L439.98438 58.15104L441.03125 57.52604L441.03125 59.697914L442.09375 59.697914L442.09375 60.510414L441.03125 60.510414L441.03125 64.15104Q441.03125 64.604164 441.07812 64.729164Q441.14062 64.854164 441.26562 64.93229Q441.39062 65.010414 441.625 65.010414Q441.8125 65.010414 442.09375 64.979164Z" fill-rule="nonzero"/><path fill="#757575" d="M18.95625 37.55L18.95625 35.784374L26.284374 26.628124Q27.065624 25.64375 27.76875 24.925L19.784374 24.925L19.784374 23.2375L30.034374 23.2375L30.034374 24.925L22.003124 34.846874L21.128124 35.8625L30.26875 35.8625L30.26875 37.55L18.95625 37.55ZM38.64375 36.26875Q37.659374 37.096874 36.753124 37.440624Q35.846874 37.784374 34.815624 37.784374Q33.1125 37.784374 32.190624 36.95625Q31.26875 36.1125 31.26875 34.815624Q31.26875 34.05 31.6125 33.425Q31.971874 32.8 32.534374 32.425Q33.096874 32.034374 33.8 31.83125Q34.315624 31.70625 35.3625 31.565624Q37.4875 31.315624 38.4875 30.971874Q38.503124 30.6125 38.503124 30.503124Q38.503124 29.440624 38.003124 28.9875Q37.33125 28.39375 36.003124 28.39375Q34.753124 28.39375 34.159374 28.83125Q33.58125 29.26875 33.3 30.378124L31.58125 30.14375Q31.815624 29.034374 32.346874 28.3625Q32.878124 27.675 33.89375 27.315624Q34.909374 26.940624 36.253124 26.940624Q37.58125 26.940624 38.409374 27.253124Q39.2375 27.565624 39.628124 28.05Q40.01875 28.51875 40.175 29.2375Q40.26875 29.690624 40.26875 30.8625L40.26875 33.20625Q40.26875 35.659374 40.378124 36.315624Q40.4875 36.95625 40.83125 37.55L38.9875 37.55Q38.721874 37.003124 38.64375 36.26875ZM38.4875 32.346874Q37.534374 32.7375 35.6125 33.003124Q34.534374 33.159374 34.08125 33.3625Q33.64375 33.55 33.39375 33.925Q33.14375 34.3 33.14375 34.76875Q33.14375 35.471874 33.675 35.940624Q34.20625 36.409374 35.2375 36.409374Q36.253124 36.409374 37.034374 35.971874Q37.83125 35.51875 38.20625 34.753124Q38.4875 34.14375 38.4875 32.9875L38.4875 32.346874ZM42.8625 37.55L42.8625 23.2375L44.628124 23.2375L44.628124 28.3625Q45.8625 26.940624 47.7375 26.940624Q48.878124 26.940624 49.721874 27.39375Q50.58125 27.846874 50.940624 28.659374Q51.315624 29.45625 51.315624 30.971874L51.315624 37.55L49.565624 37.55L49.565624 30.971874Q49.565624 29.659374 48.9875 29.065624Q48.409374 28.45625 47.378124 28.45625Q46.596874 28.45625 45.89375 28.8625Q45.20625 29.26875 44.909374 29.971874Q44.628124 30.659374 44.628124 31.878124L44.628124 37.55L42.8625 37.55ZM56.70625 35.971874L56.95625 37.534374Q56.221874 37.690624 55.628124 37.690624Q54.675 37.690624 54.14375 37.39375Q53.628124 37.08125 53.409374 36.596874Q53.190624 36.096874 53.190624 34.51875L53.190624 28.55L51.909374 28.55L51.909374 27.175L53.190624 27.175L53.190624 24.6125L54.940624 23.55L54.940624 27.175L56.70625 27.175L56.70625 28.55L54.940624 28.55L54.940624 34.6125Q54.940624 35.3625 55.034374 35.58125Q55.128124 35.784374 55.33125 35.925Q55.55 36.05 55.940624 36.05Q56.221874 36.05 56.70625 35.971874ZM65.97188 34.20625L67.78438 34.440624Q67.3625 36.01875 66.19063 36.909374Q65.03438 37.784374 63.221874 37.784374Q60.95625 37.784374 59.6125 36.39375Q58.284374 34.9875 58.284374 32.45625Q58.284374 29.83125 59.628124 28.39375Q60.971874 26.940624 63.128124 26.940624Q65.20625 26.940624 66.51875 28.3625Q67.84688 29.76875 67.84688 32.346874Q67.84688 32.503124 67.83125 32.815624L60.096874 32.815624Q60.190624 34.51875 61.065624 35.425Q61.940624 36.33125 63.2375 36.33125Q64.20625 36.33125 64.87813 35.83125Q65.56563 35.315624 65.97188 34.20625ZM60.190624 31.3625L65.9875 31.3625Q65.87813 30.065624 65.33125 29.409374Q64.4875 28.39375 63.14375 28.39375Q61.940624 28.39375 61.1125 29.20625Q60.284374 30.003124 60.190624 31.3625ZM72.75313 37.55L68.8 27.175L70.65938 27.175L72.89375 33.39375Q73.25313 34.39375 73.55 35.471874Q73.78438 34.659374 74.20625 33.503124L76.50313 27.175L78.31563 27.175L74.39375 37.55L72.75313 37.55ZM78.8625 37.55L78.8625 27.175L80.45625 27.175L80.45625 28.659374Q81.59688 26.940624 83.75313 26.940624Q84.69063 26.940624 85.47188 27.284374Q86.26875 27.6125 86.65938 28.159374Q87.05 28.70625 87.20625 29.45625Q87.3 29.95625 87.3 31.175L87.3 37.55L85.53438 37.55L85.53438 31.2375Q85.53438 30.159374 85.33125 29.628124Q85.12813 29.096874 84.59688 28.784374Q84.08125 28.471874 83.37813 28.471874Q82.25313 28.471874 81.44063 29.190624Q80.62813 29.89375 80.62813 31.878124L80.62813 37.55L78.8625 37.55ZM88.22188 32.3625Q88.22188 29.4875 89.81563 28.096874Q91.15938 26.940624 93.08125 26.940624Q95.22188 26.940624 96.56563 28.346874Q97.925 29.753124 97.925 32.221874Q97.925 34.221874 97.33125 35.378124Q96.7375 36.51875 95.58125 37.159374Q94.44063 37.784374 93.08125 37.784374Q90.89375 37.784374 89.55 36.39375Q88.22188 34.9875 88.22188 32.3625ZM90.01875 32.3625Q90.01875 34.3625 90.87813 35.346874Q91.75313 36.33125 93.08125 36.33125Q94.39375 36.33125 95.25313 35.346874Q96.12813 34.346874 96.12813 32.3Q96.12813 30.378124 95.25313 29.39375Q94.37813 28.39375 93.08125 28.39375Q91.75313 28.39375 90.87813 29.39375Q90.01875 30.378124 90.01875 32.3625ZM99.15938 34.45625L100.90938 34.175Q101.05 35.221874 101.72188 35.784374Q102.39375 36.33125 103.59688 36.33125Q104.8 36.33125 105.37813 35.846874Q105.97188 35.346874 105.97188 34.690624Q105.97188 34.096874 105.45625 33.753124Q105.09688 33.51875 103.65938 33.159374Q101.72188 32.659374 100.97188 32.315624Q100.2375 31.95625 99.84688 31.33125Q99.45625 30.690624 99.45625 29.925Q99.45625 29.2375 99.76875 28.64375Q100.09688 28.05 100.64375 27.659374Q101.05 27.3625 101.75313 27.159374Q102.47188 26.940624 103.28438 26.940624Q104.50313 26.940624 105.425 27.3Q106.34688 27.64375 106.78438 28.253124Q107.22188 28.846874 107.39375 29.846874L105.675 30.08125Q105.55 29.284374 104.9875 28.846874Q104.425 28.39375 103.40938 28.39375Q102.19063 28.39375 101.675 28.8Q101.15938 29.190624 101.15938 29.721874Q101.15938 30.065624 101.37813 30.346874Q101.58125 30.628124 102.05 30.815624Q102.31563 30.909374 103.59688 31.253124Q105.47188 31.753124 106.20625 32.08125Q106.94063 32.39375 107.3625 33.003124Q107.78438 33.596874 107.78438 34.503124Q107.78438 35.378124 107.26875 36.159374Q106.75313 36.940624 105.78438 37.3625Q104.81563 37.784374 103.59688 37.784374Q101.58125 37.784374 100.51875 36.940624Q99.45625 36.096874 99.15938 34.45625ZM113.70625 35.971874L113.95625 37.534374Q113.22188 37.690624 112.62813 37.690624Q111.675 37.690624 111.14375 37.39375Q110.62813 37.08125 110.40938 36.596874Q110.19063 36.096874 110.19063 34.51875L110.19063 28.55L108.90938 28.55L108.90938 27.175L110.19063 27.175L110.19063 24.6125L111.94063 23.55L111.94063 27.175L113.70625 27.175L113.70625 28.55L111.94063 28.55L111.94063 34.6125Q111.94063 35.3625 112.03438 35.58125Q112.12813 35.784374 112.33125 35.925Q112.55 36.05 112.94063 36.05Q113.22188 36.05 113.70625 35.971874ZM128.64375 36.26875Q127.65938 37.096874 126.75313 37.440624Q125.84688 37.784374 124.81563 37.784374Q123.1125 37.784374 122.19063 36.95625Q121.26875 36.1125 121.26875 34.815624Q121.26875 34.05 121.6125 33.425Q121.97188 32.8 122.53438 32.425Q123.09688 32.034374 123.8 31.83125Q124.31563 31.70625 125.3625 31.565624Q127.4875 31.315624 128.4875 30.971874Q128.50313 30.6125 128.50313 30.503124Q128.50313 29.440624 128.00313 28.9875Q127.33125 28.39375 126.00313 28.39375Q124.75313 28.39375 124.15938 28.83125Q123.58125 29.26875 123.3 30.378124L121.58125 30.14375Q121.81563 29.034374 122.34688 28.3625Q122.87813 27.675 123.89375 27.315624Q124.90938 26.940624 126.25313 26.940624Q127.58125 26.940624 128.40938 27.253124Q129.2375 27.565624 129.62813 28.05Q130.01875 28.51875 130.175 29.2375Q130.26875 29.690624 130.26875 30.8625L130.26875 33.20625Q130.26875 35.659374 130.37813 36.315624Q130.4875 36.95625 130.83125 37.55L128.9875 37.55Q128.72188 37.003124 128.64375 36.26875ZM128.4875 32.346874Q127.53438 32.7375 125.6125 33.003124Q124.53438 33.159374 124.08125 33.3625Q123.64375 33.55 123.39375 33.925Q123.14375 34.3 123.14375 34.76875Q123.14375 35.471874 123.675 35.940624Q124.20625 36.409374 125.2375 36.409374Q126.25313 36.409374 127.03438 35.971874Q127.83125 35.51875 128.20625 34.753124Q128.4875 34.14375 128.4875 32.9875L128.4875 32.346874ZM139.59688 37.55L139.59688 36.2375Q138.6125 37.784374 136.69063 37.784374Q135.45625 37.784374 134.40938 37.096874Q133.37813 36.409374 132.8 35.190624Q132.2375 33.971874 132.2375 32.378124Q132.2375 30.815624 132.75313 29.55Q133.26875 28.284374 134.3 27.6125Q135.34688 26.940624 136.6125 26.940624Q137.55 26.940624 138.28438 27.346874Q139.01875 27.7375 139.4875 28.3625L139.4875 23.2375L141.22188 23.2375L141.22188 37.55L139.59688 37.55ZM134.03438 32.378124Q134.03438 34.3625 134.87813 35.346874Q135.72188 36.33125 136.8625 36.33125Q138.01875 36.33125 138.81563 35.39375Q139.62813 34.45625 139.62813 32.51875Q139.62813 30.39375 138.8 29.39375Q137.9875 28.39375 136.78438 28.39375Q135.6125 28.39375 134.81563 29.3625Q134.03438 30.315624 134.03438 32.378124ZM143.8625 37.55L143.8625 27.175L145.44063 27.175L145.44063 28.628124Q145.925 27.878124 146.7375 27.409374Q147.55 26.940624 148.58125 26.940624Q149.7375 26.940624 150.47188 27.425Q151.20625 27.89375 151.51875 28.753124Q152.75313 26.940624 154.72188 26.940624Q156.26875 26.940624 157.09688 27.8Q157.925 28.659374 157.925 30.425L157.925 37.55L156.175 37.55L156.175 31.01875Q156.175 29.95625 156.00313 29.503124Q155.83125 29.034374 155.37813 28.753124Q154.94063 28.471874 154.33125 28.471874Q153.2375 28.471874 152.50313 29.20625Q151.78438 29.925 151.78438 31.51875L151.78438 37.55L150.03438 37.55L150.03438 30.815624Q150.03438 29.64375 149.59688 29.065624Q149.175 28.471874 148.19063 28.471874Q147.45625 28.471874 146.81563 28.8625Q146.19063 29.253124 145.90938 30.003124Q145.62813 30.753124 145.62813 32.175L145.62813 37.55L143.8625 37.55ZM159.87813 25.253124L159.87813 23.2375L161.64375 23.2375L161.64375 25.253124L159.87813 25.253124ZM159.87813 37.55L159.87813 27.175L161.64375 27.175L161.64375 37.55L159.87813 37.55ZM163.8625 37.55L163.8625 27.175L165.45625 27.175L165.45625 28.659374Q166.59688 26.940624 168.75313 26.940624Q169.69063 26.940624 170.47188 27.284374Q171.26875 27.6125 171.65938 28.159374Q172.05 28.70625 172.20625 29.45625Q172.3 29.95625 172.3 31.175L172.3 37.55L170.53438 37.55L170.53438 31.2375Q170.53438 30.159374 170.33125 29.628124Q170.12813 29.096874 169.59688 28.784374Q169.08125 28.471874 168.37813 28.471874Q167.25313 28.471874 166.44063 29.190624Q165.62813 29.89375 165.62813 31.878124L165.62813 37.55L163.8625 37.55ZM173.87813 25.253124L173.87813 23.2375L175.64375 23.2375L175.64375 25.253124L173.87813 25.253124ZM173.87813 37.55L173.87813 27.175L175.64375 27.175L175.64375 37.55L173.87813 37.55ZM177.15938 34.45625L178.90938 34.175Q179.05 35.221874 179.72188 35.784374Q180.39375 36.33125 181.59688 36.33125Q182.8 36.33125 183.37813 35.846874Q183.97188 35.346874 183.97188 34.690624Q183.97188 34.096874 183.45625 33.753124Q183.09688 33.51875 181.65938 33.159374Q179.72188 32.659374 178.97188 32.315624Q178.2375 31.95625 177.84688 31.33125Q177.45625 30.690624 177.45625 29.925Q177.45625 29.2375 177.76875 28.64375Q178.09688 28.05 178.64375 27.659374Q179.05 27.3625 179.75313 27.159374Q180.47188 26.940624 181.28438 26.940624Q182.50313 26.940624 183.425 27.3Q184.34688 27.64375 184.78438 28.253124Q185.22188 28.846874 185.39375 29.846874L183.675 30.08125Q183.55 29.284374 182.9875 28.846874Q182.425 28.39375 181.40938 28.39375Q180.19063 28.39375 179.675 28.8Q179.15938 29.190624 179.15938 29.721874Q179.15938 30.065624 179.37813 30.346874Q179.58125 30.628124 180.05 30.815624Q180.31563 30.909374 181.59688 31.253124Q183.47188 31.753124 184.20625 32.08125Q184.94063 32.39375 185.3625 33.003124Q185.78438 33.596874 185.78438 34.503124Q185.78438 35.378124 185.26875 36.159374Q184.75313 36.940624 183.78438 37.3625Q182.81563 37.784374 181.59688 37.784374Q179.58125 37.784374 178.51875 36.940624Q177.45625 36.096874 177.15938 34.45625ZM191.70625 35.971874L191.95625 37.534374Q191.22188 37.690624 190.62813 37.690624Q189.675 37.690624 189.14375 37.39375Q188.62813 37.08125 188.40938 36.596874Q188.19063 36.096874 188.19063 34.51875L188.19063 28.55L186.90938 28.55L186.90938 27.175L188.19063 27.175L188.19063 24.6125L189.94063 23.55L189.94063 27.175L191.70625 27.175L191.70625 28.55L189.94063 28.55L189.94063 34.6125Q189.94063 35.3625 190.03438 35.58125Q190.12813 35.784374 190.33125 35.925Q190.55 36.05 190.94063 36.05Q191.22188 36.05 191.70625 35.971874ZM193.84688 37.55L193.84688 27.175L195.425 27.175L195.425 28.753124Q196.03438 27.64375 196.55 27.3Q197.06563 26.940624 197.675 26.940624Q198.56563 26.940624 199.4875 27.503124L198.87813 29.14375Q198.2375 28.753124 197.59688 28.753124Q197.01875 28.753124 196.55 29.1125Q196.09688 29.45625 195.89375 30.065624Q195.6125 31.003124 195.6125 32.1125L195.6125 37.55L193.84688 37.55ZM207.64375 36.26875Q206.65938 37.096874 205.75313 37.440624Q204.84688 37.784374 203.81563 37.784374Q202.1125 37.784374 201.19063 36.95625Q200.26875 36.1125 200.26875 34.815624Q200.26875 34.05 200.6125 33.425Q200.97188 32.8 201.53438 32.425Q202.09688 32.034374 202.8 31.83125Q203.31563 31.70625 204.3625 31.565624Q206.4875 31.315624 207.4875 30.971874Q207.50313 30.6125 207.50313 30.503124Q207.50313 29.440624 207.00313 28.9875Q206.33125 28.39375 205.00313 28.39375Q203.75313 28.39375 203.15938 28.83125Q202.58125 29.26875 202.3 30.378124L200.58125 30.14375Q200.81563 29.034374 201.34688 28.3625Q201.87813 27.675 202.89375 27.315624Q203.90938 26.940624 205.25313 26.940624Q206.58125 26.940624 207.40938 27.253124Q208.2375 27.565624 208.62813 28.05Q209.01875 28.51875 209.175 29.2375Q209.26875 29.690624 209.26875 30.8625L209.26875 33.20625Q209.26875 35.659374 209.37813 36.315624Q209.4875 36.95625 209.83125 37.55L207.9875 37.55Q207.72188 37.003124 207.64375 36.26875ZM207.4875 32.346874Q206.53438 32.7375 204.6125 33.003124Q203.53438 33.159374 203.08125 33.3625Q202.64375 33.55 202.39375 33.925Q202.14375 34.3 202.14375 34.76875Q202.14375 35.471874 202.675 35.940624Q203.20625 36.409374 204.2375 36.409374Q205.25313 36.409374 206.03438 35.971874Q206.83125 35.51875 207.20625 34.753124Q207.4875 34.14375 207.4875 32.9875L207.4875 32.346874ZM218.64375 33.753124L220.3625 33.971874Q220.08125 35.76875 218.90938 36.784374Q217.75313 37.784374 216.05 37.784374Q213.925 37.784374 212.62813 36.39375Q211.33125 35.003124 211.33125 32.409374Q211.33125 30.721874 211.87813 29.471874Q212.44063 28.20625 213.58125 27.58125Q214.72188 26.940624 216.06563 26.940624Q217.75313 26.940624 218.81563 27.8Q219.89375 28.659374 220.20625 30.221874L218.4875 30.4875Q218.25313 29.440624 217.62813 28.925Q217.00313 28.39375 216.12813 28.39375Q214.8 28.39375 213.97188 29.346874Q213.14375 30.3 213.14375 32.346874Q213.14375 34.440624 213.94063 35.39375Q214.7375 36.33125 216.03438 36.33125Q217.06563 36.33125 217.75313 35.70625Q218.45625 35.065624 218.64375 33.753124ZM221.87813 25.253124L221.87813 23.2375L223.64375 23.2375L223.64375 25.253124L221.87813 25.253124ZM221.87813 37.55L221.87813 27.175L223.64375 27.175L223.64375 37.55L221.87813 37.55ZM225.8625 25.26875L225.8625 23.2375L227.6125 23.2375L227.6125 25.26875L225.8625 25.26875ZM223.62813 41.58125L223.95625 40.08125Q224.4875 40.221874 224.8 40.221874Q225.33125 40.221874 225.59688 39.8625Q225.8625 39.503124 225.8625 38.08125L225.8625 27.175L227.6125 27.175L227.6125 38.1125Q227.6125 40.034374 227.1125 40.784374Q226.4875 41.753124 225.00313 41.753124Q224.3 41.753124 223.62813 41.58125ZM236.97188 34.20625L238.78438 34.440624Q238.3625 36.01875 237.19063 36.909374Q236.03438 37.784374 234.22188 37.784374Q231.95625 37.784374 230.6125 36.39375Q229.28438 34.9875 229.28438 32.45625Q229.28438 29.83125 230.62813 28.39375Q231.97188 26.940624 234.12813 26.940624Q236.20625 26.940624 237.51875 28.3625Q238.84688 29.76875 238.84688 32.346874Q238.84688 32.503124 238.83125 32.815624L231.09688 32.815624Q231.19063 34.51875 232.06563 35.425Q232.94063 36.33125 234.2375 36.33125Q235.20625 36.33125 235.87813 35.83125Q236.56563 35.315624 236.97188 34.20625ZM231.19063 31.3625L236.9875 31.3625Q236.87813 30.065624 236.33125 29.409374Q235.4875 28.39375 234.14375 28.39375Q232.94063 28.39375 232.1125 29.20625Q231.28438 30.003124 231.19063 31.3625ZM246.87813 25.253124L246.87813 23.2375L248.64375 23.2375L248.64375 25.253124L246.87813 25.253124ZM246.87813 37.55L246.87813 27.175L248.64375 27.175L248.64375 37.55L246.87813 37.55ZM250.8625 37.55L250.8625 27.175L252.45625 27.175L252.45625 28.659374Q253.59688 26.940624 255.75313 26.940624Q256.6906 26.940624 257.47186 27.284374Q258.26874 27.6125 258.65936 28.159374Q259.05 28.70625 259.20624 29.45625Q259.3 29.95625 259.3 31.175L259.3 37.55L257.53436 37.55L257.53436 31.2375Q257.53436 30.159374 257.33124 29.628124Q257.1281 29.096874 256.59686 28.784374Q256.08124 28.471874 255.37813 28.471874Q254.25313 28.471874 253.44063 29.190624Q252.62813 29.89375 252.62813 31.878124L252.62813 37.55L250.8625 37.55ZM267.28436 37.55L267.28436 28.55L265.7375 28.55L265.7375 27.175L267.28436 27.175L267.28436 26.08125Q267.28436 25.034374 267.47186 24.51875Q267.72186 23.83125 268.3625 23.409374Q269.0031 22.9875 270.15936 22.9875Q270.90936 22.9875 271.8 23.159374L271.53436 24.690624Q270.9875 24.596874 270.5031 24.596874Q269.70624 24.596874 269.3625 24.940624Q269.03436 25.284374 269.03436 26.221874L269.03436 27.175L271.0656 27.175L271.0656 28.55L269.03436 28.55L269.03436 37.55L267.28436 37.55ZM279.65936 37.55L279.65936 36.01875Q278.45624 37.784374 276.3781 37.784374Q275.45624 37.784374 274.65936 37.440624Q273.8625 37.08125 273.47186 36.55Q273.09686 36.01875 272.9406 35.2375Q272.83124 34.721874 272.83124 33.596874L272.83124 27.175L274.58124 27.175L274.58124 32.925Q274.58124 34.3 274.6906 34.784374Q274.8625 35.471874 275.39374 35.878124Q275.9406 36.26875 276.72186 36.26875Q277.51874 36.26875 278.20624 35.8625Q278.90936 35.45625 279.1906 34.76875Q279.4875 34.065624 279.4875 32.7375L279.4875 27.175L281.2375 27.175L281.2375 37.55L279.65936 37.55ZM282.8625 37.55L282.8625 27.175L284.45624 27.175L284.45624 28.659374Q285.59686 26.940624 287.7531 26.940624Q288.6906 26.940624 289.47186 27.284374Q290.26874 27.6125 290.65936 28.159374Q291.05 28.70625 291.20624 29.45625Q291.3 29.95625 291.3 31.175L291.3 37.55L289.53436 37.55L289.53436 31.2375Q289.53436 30.159374 289.33124 29.628124Q289.1281 29.096874 288.59686 28.784374Q288.08124 28.471874 287.3781 28.471874Q286.2531 28.471874 285.4406 29.190624Q284.6281 29.89375 284.6281 31.878124L284.6281 37.55L282.8625 37.55ZM292.8781 37.55L292.8781 23.2375L294.64374 23.2375L294.64374 31.39375L298.8 27.175L301.0656 27.175L297.1125 31.01875L301.47186 37.55L299.3 37.55L295.8781 32.253124L294.64374 33.440624L294.64374 37.55L292.8781 37.55ZM309.64374 33.753124L311.3625 33.971874Q311.08124 35.76875 309.90936 36.784374Q308.7531 37.784374 307.05 37.784374Q304.925 37.784374 303.6281 36.39375Q302.33124 35.003124 302.33124 32.409374Q302.33124 30.721874 302.8781 29.471874Q303.4406 28.20625 304.58124 27.58125Q305.72186 26.940624 307.0656 26.940624Q308.7531 26.940624 309.8156 27.8Q310.89374 28.659374 311.20624 30.221874L309.4875 30.4875Q309.2531 29.440624 308.6281 28.925Q308.0031 28.39375 307.1281 28.39375Q305.8 28.39375 304.97186 29.346874Q304.14374 30.3 304.14374 32.346874Q304.14374 34.440624 304.9406 35.39375Q305.7375 36.33125 307.03436 36.33125Q308.0656 36.33125 308.7531 35.70625Q309.45624 35.065624 309.64374 33.753124ZM312.8781 25.253124L312.8781 23.2375L314.64374 23.2375L314.64374 25.253124L312.8781 25.253124ZM312.8781 37.55L312.8781 27.175L314.64374 27.175L314.64374 37.55L312.8781 37.55ZM316.8625 25.26875L316.8625 23.2375L318.6125 23.2375L318.6125 25.26875L316.8625 25.26875ZM314.6281 41.58125L314.95624 40.08125Q315.4875 40.221874 315.8 40.221874Q316.33124 40.221874 316.59686 39.8625Q316.8625 39.503124 316.8625 38.08125L316.8625 27.175L318.6125 27.175L318.6125 38.1125Q318.6125 40.034374 318.1125 40.784374Q317.4875 41.753124 316.0031 41.753124Q315.3 41.753124 314.6281 41.58125ZM320.22186 32.3625Q320.22186 29.4875 321.8156 28.096874Q323.15936 26.940624 325.08124 26.940624Q327.22186 26.940624 328.5656 28.346874Q329.925 29.753124 329.925 32.221874Q329.925 34.221874 329.33124 35.378124Q328.7375 36.51875 327.58124 37.159374Q326.4406 37.784374 325.08124 37.784374Q322.89374 37.784374 321.55 36.39375Q320.22186 34.9875 320.22186 32.3625ZM322.01874 32.3625Q322.01874 34.3625 322.8781 35.346874Q323.7531 36.33125 325.08124 36.33125Q326.39374 36.33125 327.2531 35.346874Q328.1281 34.346874 328.1281 32.3Q328.1281 30.378124 327.2531 29.39375Q326.3781 28.39375 325.08124 28.39375Q323.7531 28.39375 322.8781 29.39375Q322.01874 30.378124 322.01874 32.3625ZM331.8625 37.55L331.8625 27.175L333.45624 27.175L333.45624 28.659374Q334.59686 26.940624 336.7531 26.940624Q337.6906 26.940624 338.47186 27.284374Q339.26874 27.6125 339.65936 28.159374Q340.05 28.70625 340.20624 29.45625Q340.3 29.95625 340.3 31.175L340.3 37.55L338.53436 37.55L338.53436 31.2375Q338.53436 30.159374 338.33124 29.628124Q338.1281 29.096874 337.59686 28.784374Q337.08124 28.471874 336.3781 28.471874Q335.2531 28.471874 334.4406 29.190624Q333.6281 29.89375 333.6281 31.878124L333.6281 37.55L331.8625 37.55ZM348.64374 36.26875Q347.65936 37.096874 346.7531 37.440624Q345.84686 37.784374 344.8156 37.784374Q343.1125 37.784374 342.1906 36.95625Q341.26874 36.1125 341.26874 34.815624Q341.26874 34.05 341.6125 33.425Q341.97186 32.8 342.53436 32.425Q343.09686 32.034374 343.8 31.83125Q344.3156 31.70625 345.3625 31.565624Q347.4875 31.315624 348.4875 30.971874Q348.5031 30.6125 348.5031 30.503124Q348.5031 29.440624 348.0031 28.9875Q347.33124 28.39375 346.0031 28.39375Q344.7531 28.39375 344.15936 28.83125Q343.58124 29.26875 343.3 30.378124L341.58124 30.14375Q341.8156 29.034374 342.34686 28.3625Q342.8781 27.675 343.89374 27.315624Q344.90936 26.940624 346.2531 26.940624Q347.58124 26.940624 348.40936 27.253124Q349.2375 27.565624 349.6281 28.05Q350.01874 28.51875 350.175 29.2375Q350.26874 29.690624 350.26874 30.8625L350.26874 33.20625Q350.26874 35.659374 350.3781 36.315624Q350.4875 36.95625 350.83124 37.55L348.9875 37.55Q348.72186 37.003124 348.64374 36.26875ZM348.4875 32.346874Q347.53436 32.7375 345.6125 33.003124Q344.53436 33.159374 344.08124 33.3625Q343.64374 33.55 343.39374 33.925Q343.14374 34.3 343.14374 34.76875Q343.14374 35.471874 343.675 35.940624Q344.20624 36.409374 345.2375 36.409374Q346.2531 36.409374 347.03436 35.971874Q347.83124 35.51875 348.20624 34.753124Q348.4875 34.14375 348.4875 32.9875L348.4875 32.346874ZM352.83124 37.55L352.83124 23.2375L354.58124 23.2375L354.58124 37.55L352.83124 37.55ZM356.8625 37.55L356.8625 27.175L358.45624 27.175L358.45624 28.659374Q359.59686 26.940624 361.7531 26.940624Q362.6906 26.940624 363.47186 27.284374Q364.26874 27.6125 364.65936 28.159374Q365.05 28.70625 365.20624 29.45625Q365.3 29.95625 365.3 31.175L365.3 37.55L363.53436 37.55L363.53436 31.2375Q363.53436 30.159374 363.33124 29.628124Q363.1281 29.096874 362.59686 28.784374Q362.08124 28.471874 361.3781 28.471874Q360.2531 28.471874 359.4406 29.190624Q358.6281 29.89375 358.6281 31.878124L358.6281 37.55L356.8625 37.55ZM366.22186 32.3625Q366.22186 29.4875 367.8156 28.096874Q369.15936 26.940624 371.08124 26.940624Q373.22186 26.940624 374.5656 28.346874Q375.925 29.753124 375.925 32.221874Q375.925 34.221874 375.33124 35.378124Q374.7375 36.51875 373.58124 37.159374Q372.4406 37.784374 371.08124 37.784374Q368.89374 37.784374 367.55 36.39375Q366.22186 34.9875 366.22186 32.3625ZM368.01874 32.3625Q368.01874 34.3625 368.8781 35.346874Q369.7531 36.33125 371.08124 36.33125Q372.39374 36.33125 373.2531 35.346874Q374.1281 34.346874 374.1281 32.3Q374.1281 30.378124 373.2531 29.39375Q372.3781 28.39375 371.08124 28.39375Q369.7531 28.39375 368.8781 29.39375Q368.01874 30.378124 368.01874 32.3625ZM377.15936 34.45625L378.90936 34.175Q379.05 35.221874 379.72186 35.784374Q380.39374 36.33125 381.59686 36.33125Q382.8 36.33125 383.3781 35.846874Q383.97186 35.346874 383.97186 34.690624Q383.97186 34.096874 383.45624 33.753124Q383.09686 33.51875 381.65936 33.159374Q379.72186 32.659374 378.97186 32.315624Q378.2375 31.95625 377.84686 31.33125Q377.45624 30.690624 377.45624 29.925Q377.45624 29.2375 377.76874 28.64375Q378.09686 28.05 378.64374 27.659374Q379.05 27.3625 379.7531 27.159374Q380.47186 26.940624 381.28436 26.940624Q382.5031 26.940624 383.425 27.3Q384.34686 27.64375 384.78436 28.253124Q385.22186 28.846874 385.39374 29.846874L383.675 30.08125Q383.55 29.284374 382.9875 28.846874Q382.425 28.39375 381.40936 28.39375Q380.1906 28.39375 379.675 28.8Q379.15936 29.190624 379.15936 29.721874Q379.15936 30.065624 379.3781 30.346874Q379.58124 30.628124 380.05 30.815624Q380.3156 30.909374 381.59686 31.253124Q383.47186 31.753124 384.20624 32.08125Q384.9406 32.39375 385.3625 33.003124Q385.78436 33.596874 385.78436 34.503124Q385.78436 35.378124 385.26874 36.159374Q384.7531 36.940624 383.78436 37.3625Q382.8156 37.784374 381.59686 37.784374Q379.58124 37.784374 378.51874 36.940624Q377.45624 36.096874 377.15936 34.45625ZM391.70624 35.971874L391.95624 37.534374Q391.22186 37.690624 390.6281 37.690624Q389.675 37.690624 389.14374 37.39375Q388.6281 37.08125 388.40936 36.596874Q388.1906 36.096874 388.1906 34.51875L388.1906 28.55L386.90936 28.55L386.90936 27.175L388.1906 27.175L388.1906 24.6125L389.9406 23.55L389.9406 27.175L391.70624 27.175L391.70624 28.55L389.9406 28.55L389.9406 34.6125Q389.9406 35.3625 390.03436 35.58125Q390.1281 35.784374 390.33124 35.925Q390.55 36.05 390.9406 36.05Q391.22186 36.05 391.70624 35.971874Z" fill-rule="nonzero"/></svg>